<svg xmlns="http://www.w3.org/2000/svg" viewBox="841.5 401.3 212.0 210.6" fill="none"><path fill="currentColor" d="M 947.581,410.889 L 954.544,418.501 C 954.828,418.813 955.108,419.122 955.38,419.43 C 955.866,419.974 956.288,420.445 956.678,420.838 C 960.07,424.267 964.31,427.127 970.023,429.838 C 970.457,430.044 970.891,430.243 971.329,430.446 C 972.835,431.144 974.543,431.931 976.263,432.929 C 982.784,436.715 987.417,442.156 989.831,448.806 C 993.787,449.942 997.167,451.934 1000.06,454.823 C 1002.86,457.631 1004.83,460.934 1005.99,464.817 C 1012.53,467.178 1017.92,471.69 1021.71,478.016 C 1022.83,479.886 1023.69,481.745 1024.44,483.384 L 1024.64,483.814 C 1027.2,489.364 1029.85,493.523 1033,496.899 C 1033.63,497.577 1034.4,498.307 1035.22,499.078 C 1035.67,499.508 1036.13,499.938 1036.59,500.38 L 1043.95,507.534 L 1036.4,514.488 C 1036.07,514.788 1035.75,515.077 1035.43,515.369 C 1034.88,515.864 1034.36,516.33 1033.94,516.744 C 1030.39,520.282 1027.43,524.758 1024.64,530.823 L 1024.37,531.42 C 1023.78,532.706 1023.12,534.167 1022.27,535.66 C 1018.4,542.509 1012.88,547.309 1006.1,549.768 C 1003.7,557.879 998.007,563.632 990.156,565.92 C 987.807,572.376 983.291,577.711 976.848,581.57 C 975.07,582.637 973.318,583.432 971.772,584.134 L 971.63,584.199 C 966.286,586.63 962.204,589.149 958.776,592.136 C 957.648,593.122 956.524,594.116 955.404,595.11 L 946.887,602.64 L 940.436,595.998 C 940.111,595.662 939.762,595.296 939.397,594.907 C 938.695,594.16 937.965,593.389 937.271,592.74 C 933.887,589.592 929.578,586.865 923.711,584.163 C 921.666,583.221 919.293,582.089 916.984,580.564 C 911.364,576.847 907.352,571.796 905.181,565.758 C 901.497,564.646 898.214,562.752 895.37,560.09 C 892.315,557.233 890.217,553.833 889.032,549.804 C 882.698,547.532 877.428,543.203 873.61,537.064 C 872.299,534.962 871.325,532.832 870.542,531.116 C 867.937,525.423 865.239,521.167 862.046,517.726 C 861.425,517.057 860.658,516.33 859.843,515.563 C 859.384,515.129 858.918,514.691 858.451,514.237 L 851.03,507.027 L 858.699,500.08 C 858.991,499.812 859.287,499.553 859.575,499.293 C 860.029,498.891 860.48,498.494 860.91,498.076 C 864.01,495.057 866.736,491.17 869.252,486.191 C 869.67,485.368 870.08,484.459 870.518,483.497 C 870.798,482.881 871.078,482.264 871.366,481.651 C 873.565,476.973 876.324,473.24 879.801,470.242 C 882.589,467.84 885.664,466.026 888.983,464.825 C 890.115,460.901 892.128,457.489 895.009,454.637 C 897.776,451.894 901.067,449.958 904.84,448.843 C 907.189,442.294 911.608,437.031 918.006,433.165 C 919.857,432.045 921.691,431.213 923.309,430.475 L 923.407,430.43 C 929.237,427.776 933.571,425.025 937.044,421.775 C 937.693,421.167 938.395,420.424 939.142,419.633 C 939.556,419.191 939.978,418.748 940.408,418.302 L 947.581,410.889 Z M 947.634,407.347 L 945.84,409.201 L 938.667,416.614 C 938.229,417.069 937.799,417.519 937.377,417.969 C 936.642,418.744 935.973,419.454 935.388,420.006 C 932.114,423.07 927.988,425.683 922.405,428.223 L 922.315,428.263 C 920.627,429.03 918.729,429.898 916.757,431.087 C 910.249,435.019 905.623,440.33 902.994,446.887 C 899.318,448.157 896.064,450.182 893.309,452.912 C 890.432,455.765 888.322,459.144 887.028,462.983 C 883.863,464.273 880.909,466.091 878.227,468.404 C 874.486,471.629 871.528,475.626 869.183,480.617 C 868.891,481.237 868.607,481.866 868.323,482.491 C 867.897,483.432 867.495,484.317 867.102,485.092 C 864.712,489.827 862.135,493.503 859.234,496.335 C 858.881,496.68 858.496,497.021 858.09,497.382 L 857.984,497.475 L 857.956,497.504 C 857.668,497.759 857.376,498.019 857.088,498.283 L 849.419,505.229 L 847.5,506.966 L 849.354,508.767 L 856.775,515.977 C 857.25,516.44 857.721,516.886 858.191,517.328 C 858.974,518.071 859.713,518.769 860.281,519.381 C 863.296,522.627 865.86,526.681 868.351,532.13 C 869.163,533.903 870.173,536.114 871.565,538.35 C 875.407,544.525 880.759,549.106 887.093,551.663 C 888.444,555.582 890.671,559.011 893.727,561.871 C 896.534,564.496 899.764,566.46 903.343,567.714 C 905.769,573.731 910.009,578.86 915.661,582.597 C 918.108,584.215 920.583,585.396 922.709,586.374 C 928.337,588.967 932.443,591.555 935.632,594.525 C 936.269,595.118 936.971,595.86 937.644,596.579 C 938.018,596.976 938.375,597.354 938.708,597.694 L 945.159,604.336 L 946.774,605.996 L 948.51,604.462 L 957.027,596.932 L 957.226,596.757 C 958.277,595.824 959.327,594.895 960.386,593.974 C 963.632,591.146 967.532,588.748 972.652,586.419 L 972.79,586.354 C 974.397,585.623 976.215,584.796 978.113,583.66 C 984.589,579.781 989.373,574.348 992.014,567.892 C 999.732,565.275 1005.38,559.558 1008.07,551.622 C 1014.87,548.855 1020.5,543.771 1024.4,536.861 C 1025.3,535.279 1025.99,533.769 1026.6,532.438 L 1026.87,531.846 C 1029.53,526.056 1032.33,521.804 1035.67,518.477 C 1036.04,518.111 1036.52,517.677 1037.03,517.219 L 1037.07,517.182 C 1037.41,516.878 1037.73,516.586 1038.05,516.286 L 1045.61,509.331 L 1047.5,507.59 L 1045.66,505.801 L 1038.29,498.648 C 1037.83,498.197 1037.36,497.759 1036.9,497.325 C 1036.11,496.579 1035.37,495.877 1034.79,495.256 C 1031.83,492.071 1029.31,488.115 1026.86,482.804 L 1026.66,482.373 C 1025.88,480.677 1025,478.754 1023.81,476.77 C 1019.97,470.371 1014.51,465.624 1007.96,462.971 C 1006.65,459.218 1004.58,455.907 1001.79,453.111 C 998.912,450.234 995.52,448.129 991.694,446.842 C 988.983,440.18 984.098,434.662 977.501,430.836 C 975.683,429.781 973.922,428.969 972.372,428.251 C 971.934,428.048 971.508,427.853 971.082,427.651 C 965.633,425.066 961.612,422.36 958.423,419.138 C 958.07,418.781 957.652,418.314 957.209,417.819 C 956.93,417.507 956.646,417.19 956.357,416.874 L 949.395,409.258 L 947.654,407.355 L 947.634,407.347 Z"/><path fill="currentColor" d="M 946.498,589.656 C 946.202,589.352 945.885,589.015 945.548,588.658 C 944.79,587.851 943.925,586.938 943.029,586.098 C 938.963,582.316 933.944,579.115 927.233,576.023 C 925.391,575.175 923.443,574.25 921.638,573.053 C 916.4,569.592 913.211,564.76 912.156,558.69 C 912.115,558.459 912.074,558.223 912.026,557.976 C 907.656,557.696 904.085,556.215 901.144,553.46 C 898.226,550.729 896.709,547.236 896.405,542.509 C 896.222,542.464 896.039,542.428 895.857,542.395 C 889.454,541.365 884.382,537.912 880.792,532.146 C 879.769,530.503 878.958,528.726 878.239,527.155 C 875.249,520.615 872.072,515.644 868.246,511.522 C 867.438,510.65 866.57,509.83 865.653,508.962 C 865.223,508.552 864.785,508.138 864.347,507.712 L 863.417,506.811 L 864.375,505.943 C 864.647,505.696 864.919,505.456 865.191,505.213 C 865.746,504.722 866.29,504.235 866.814,503.728 C 870.595,500.044 873.861,495.422 876.807,489.592 C 877.302,488.61 877.773,487.579 878.223,486.581 C 878.487,485.997 878.755,485.416 879.027,484.836 C 880.706,481.262 882.767,478.45 885.32,476.247 C 888.351,473.634 891.836,472.007 895.686,471.406 C 895.918,471.369 896.149,471.325 896.396,471.272 C 896.616,466.622 898.076,463.096 900.961,460.24 C 903.704,457.521 907.214,456.069 911.669,455.813 C 911.685,455.736 911.697,455.663 911.709,455.586 C 911.859,454.779 912.001,454.016 912.2,453.253 C 913.653,447.662 917.073,443.203 922.368,440.005 C 923.801,439.141 925.322,438.447 926.799,437.774 L 926.896,437.729 C 933.591,434.682 938.651,431.448 942.818,427.549 C 943.662,426.762 944.453,425.922 945.289,425.033 C 945.678,424.62 946.076,424.202 946.482,423.78 L 947.378,422.85 L 948.251,423.804 C 948.514,424.092 948.774,424.38 949.03,424.668 C 949.569,425.273 950.081,425.841 950.616,426.384 C 954.722,430.535 959.725,433.935 966.359,437.084 C 966.818,437.303 967.284,437.514 967.747,437.729 C 969.151,438.378 970.599,439.048 971.975,439.847 C 977.671,443.154 981.25,447.921 982.621,454.012 C 982.751,454.592 982.853,455.176 982.962,455.797 C 987.661,456.097 991.199,457.574 994.027,460.402 C 996.774,463.149 998.247,466.618 998.628,471.264 L 998.656,471.264 C 999.334,471.386 999.975,471.495 1000.62,471.649 C 1006.5,473.041 1011.14,476.506 1014.41,481.955 C 1015.29,483.428 1016.01,484.994 1016.71,486.508 L 1016.91,486.946 C 1019.86,493.337 1022.99,498.201 1026.76,502.259 C 1027.58,503.135 1028.45,503.955 1029.36,504.823 C 1029.79,505.225 1030.22,505.635 1030.65,506.049 L 1031.57,506.941 L 1030.63,507.809 C 1030.32,508.089 1030.02,508.357 1029.72,508.629 C 1029.1,509.197 1028.5,509.729 1027.94,510.293 C 1023.63,514.569 1020.13,519.832 1016.91,526.847 L 1016.63,527.46 C 1016.08,528.649 1015.52,529.878 1014.86,531.051 C 1011.21,537.514 1005.86,541.344 998.957,542.432 C 998.892,542.444 998.823,542.452 998.758,542.464 C 997.955,551.861 992.238,557.619 983.271,558.065 C 982.325,564.813 978.69,570.124 972.466,573.857 C 971.098,574.676 969.646,575.338 968.238,575.979 L 968.096,576.044 C 962.07,578.782 957.193,581.813 953.181,585.303 C 952.032,586.301 950.892,587.315 949.752,588.326 L 947.313,590.484 L 946.506,589.652 L 946.498,589.656 Z"/></svg>