<svg xmlns="http://www.w3.org/2000/svg" viewBox="377.5 400.9 212.0 211.5" fill="none"><path fill="currentColor" d="M 422.846,464.806 C 422.901,459.541 424.232,454.975 427.988,451.248 C 431.681,447.59 436.221,446.338 441.181,446.249 C 441.487,444.721 441.694,443.385 442.034,442.079 C 443.779,435.364 447.866,430.414 453.723,426.875 C 455.424,425.844 457.258,425.016 459.072,424.193 C 466.26,420.924 473.014,416.98 478.812,411.557 C 480.36,410.113 481.77,408.52 483.318,406.923 C 484.313,408.012 485.235,409.092 486.231,410.098 C 491.876,415.802 498.571,419.973 505.779,423.394 C 508.032,424.464 510.344,425.445 512.493,426.692 C 518.838,430.375 523.103,435.694 524.73,442.951 C 524.961,443.982 525.114,445.027 525.336,446.215 C 530.542,446.363 535.181,447.63 538.982,451.436 C 542.734,455.187 543.976,459.767 544.218,464.84 C 545.475,465.072 546.599,465.23 547.698,465.491 C 554.689,467.143 559.875,471.254 563.524,477.338 C 564.658,479.226 565.565,481.257 566.492,483.264 C 569.676,490.171 573.512,496.659 578.723,502.259 C 580.217,503.861 581.858,505.326 583.5,506.923 C 582.366,507.963 581.242,508.934 580.192,509.979 C 574.241,515.9 569.972,522.95 566.492,530.523 C 565.717,532.204 564.968,533.91 564.061,535.522 C 560.004,542.7 554.078,547.314 545.79,548.621 C 545.367,548.685 544.947,548.778 544.528,548.867 C 544.469,548.882 544.425,548.956 544.376,549 C 543.725,561.306 536.285,567.512 525.893,567.631 C 525.775,567.981 525.573,568.356 525.518,568.755 C 524.409,576.909 520.016,582.835 513.075,586.991 C 511.428,587.977 509.663,588.771 507.913,589.569 C 501.253,592.596 494.972,596.23 489.436,601.051 C 487.395,602.826 485.383,604.63 483.357,606.42 C 482.159,605.188 480.695,603.541 479.088,602.047 C 473.329,596.688 466.615,592.818 459.511,589.545 C 457.248,588.504 454.975,587.415 452.909,586.044 C 446.969,582.12 443.256,576.643 442.024,569.568 C 441.916,568.942 441.797,568.321 441.654,567.532 C 436.552,567.419 432.031,565.974 428.2,562.39 C 424.296,558.737 423.014,554.187 422.851,548.99 C 422.205,548.843 421.609,548.665 421.002,548.567 C 413.395,547.339 407.731,543.237 403.713,536.789 C 402.549,534.92 401.618,532.899 400.701,530.892 C 397.477,523.843 393.597,517.217 388.297,511.508 C 386.808,509.901 385.161,508.441 383.5,506.824 C 384.525,505.897 385.546,505.03 386.502,504.098 C 391.728,499.01 395.662,493.001 398.931,486.527 C 399.892,484.62 400.735,482.648 401.642,480.71 C 403.422,476.924 405.724,473.517 408.919,470.761 C 412.35,467.803 416.289,465.92 420.781,465.22 C 421.412,465.121 422.033,464.969 422.856,464.801 L 422.846,464.806 Z"/></svg>