<svg xmlns="http://www.w3.org/2000/svg" viewBox="609.5 401.3 212.0 210.7" fill="none"><path fill="currentColor" d="M 799.299,506.992 C 798.353,507.863 797.407,508.673 796.523,509.553 C 791.541,514.51 787.959,520.413 785.043,526.762 C 784.395,528.17 783.767,529.604 783.011,530.955 C 779.611,536.965 774.646,540.836 767.693,541.922 C 767.338,541.98 766.995,542.054 766.64,542.129 C 766.591,542.145 766.557,542.203 766.516,542.244 C 765.971,552.555 759.729,557.752 751.025,557.859 C 750.926,558.148 750.753,558.47 750.703,558.797 C 749.782,565.633 746.093,570.599 740.277,574.081 C 738.901,574.903 737.418,575.572 735.952,576.237 C 730.367,578.774 725.108,581.822 720.469,585.862 C 718.755,587.345 717.07,588.861 715.372,590.357 C 714.368,589.32 713.141,587.944 711.799,586.692 C 706.974,582.206 701.339,578.959 695.387,576.217 C 693.495,575.345 691.59,574.428 689.86,573.284 C 684.878,569.991 681.763,565.402 680.735,559.474 C 680.644,558.954 680.545,558.437 680.421,557.768 C 676.145,557.677 672.357,556.467 669.156,553.46 C 665.88,550.395 664.806,546.59 664.678,542.236 C 664.133,542.112 663.633,541.963 663.121,541.881 C 656.747,540.852 652.004,537.411 648.638,532.008 C 647.667,530.442 646.882,528.749 646.118,527.068 C 643.416,521.165 640.165,515.613 635.716,510.821 C 634.473,509.478 633.097,508.251 631.705,506.901 C 632.56,506.128 633.42,505.393 634.217,504.612 C 638.596,500.353 641.892,495.314 644.635,489.898 C 645.44,488.291 646.143,486.647 646.907,485.024 C 648.398,481.855 650.331,478.997 653,476.692 C 655.883,474.213 659.176,472.631 662.939,472.049 C 663.468,471.966 663.992,471.842 664.678,471.693 C 664.727,467.29 665.839,463.46 668.995,460.338 C 672.085,457.272 675.897,456.219 680.045,456.145 C 680.309,454.868 680.474,453.749 680.759,452.654 C 682.226,447.028 685.642,442.88 690.558,439.915 C 691.983,439.051 693.515,438.357 695.036,437.667 C 701.054,434.924 706.722,431.624 711.58,427.076 C 712.873,425.865 714.058,424.531 715.351,423.197 C 716.182,424.11 716.958,425.01 717.797,425.857 C 722.522,430.632 728.132,434.131 734.167,436.998 C 736.063,437.886 737.997,438.712 739.802,439.758 C 745.114,442.847 748.687,447.301 750.055,453.385 C 750.245,454.249 750.377,455.124 750.559,456.12 C 754.925,456.244 758.808,457.305 761.997,460.495 C 765.141,463.638 766.182,467.476 766.388,471.726 C 767.433,471.925 768.379,472.057 769.304,472.272 C 775.158,473.664 779.508,477.105 782.56,482.202 C 783.506,483.784 784.275,485.486 785.047,487.167 C 787.716,492.947 790.925,498.391 795.292,503.075 C 796.543,504.426 797.919,505.653 799.295,506.987 L 799.299,506.992 Z"/><path fill="currentColor" d="M 807.065,499.35 C 806.594,498.895 806.127,498.453 805.664,498.007 C 804.851,497.243 804.074,496.508 803.459,495.851 C 800.352,492.509 797.721,488.382 795.176,482.847 L 794.97,482.409 C 794.189,480.711 793.305,478.786 792.128,476.824 C 788.257,470.367 782.713,465.633 776.054,463.072 C 774.794,459.169 772.779,455.86 769.895,452.976 C 766.921,450.002 763.538,447.953 759.552,446.71 C 756.941,439.948 752.066,434.35 745.42,430.488 C 743.615,429.443 741.855,428.625 740.289,427.902 C 739.843,427.704 739.409,427.497 738.972,427.291 C 733.292,424.597 729.082,421.764 725.732,418.372 C 725.352,417.984 724.935,417.525 724.456,416.988 C 724.175,416.674 723.886,416.356 723.592,416.034 L 715.62,407.314 L 707.404,415.803 C 706.957,416.265 706.532,416.716 706.077,417.203 C 705.338,417.976 704.644,418.719 704.02,419.302 C 700.588,422.511 696.279,425.238 690.475,427.881 L 690.368,427.931 C 688.695,428.695 686.795,429.563 684.849,430.74 C 678.277,434.701 673.675,440.088 671.13,446.755 C 667.342,447.974 664.009,449.998 661.2,452.774 C 658.275,455.674 656.168,459.14 654.933,463.085 C 651.641,464.353 648.559,466.216 645.783,468.612 C 642.111,471.772 639.195,475.709 636.881,480.633 C 636.584,481.26 636.295,481.893 636.01,482.533 C 635.572,483.495 635.163,484.404 634.75,485.218 C 632.255,490.167 629.553,494.012 626.5,496.995 C 626.104,497.375 625.703,497.734 625.29,498.098 C 625.29,498.098 624.576,498.738 624.278,499.003 L 615.5,506.959 L 623.997,515.208 C 624.476,515.679 624.951,516.129 625.422,516.575 C 626.236,517.339 627.004,518.066 627.612,518.723 C 630.768,522.123 633.449,526.357 636.043,532.021 C 636.848,533.801 637.865,536.007 639.236,538.221 C 643.115,544.454 648.551,549.023 654.987,551.485 C 656.28,555.554 658.444,558.97 661.592,561.911 C 664.467,564.597 667.784,566.571 671.481,567.773 C 673.82,573.899 678.054,579.112 683.758,582.884 C 686.179,584.483 688.649,585.66 690.773,586.639 C 696.618,589.332 700.91,592.042 704.252,595.153 C 704.933,595.785 705.66,596.561 706.358,597.301 C 706.738,597.697 707.09,598.073 707.428,598.42 L 714.814,606.029 L 724.563,597.408 C 725.641,596.462 726.711,595.508 727.789,594.566 C 731.189,591.608 735.25,589.097 740.578,586.676 L 740.727,586.61 C 742.326,585.887 744.143,585.053 746.015,583.933 C 752.653,579.963 757.304,574.585 759.874,567.943 C 767.805,565.439 773.559,559.611 776.162,551.44 C 783.056,548.779 788.769,543.707 792.706,536.742 C 793.586,535.177 794.28,533.661 794.887,532.33 L 795.168,531.727 C 797.944,525.692 800.873,521.243 804.384,517.753 C 804.789,517.348 805.289,516.906 805.867,516.377 C 806.197,516.08 806.524,515.79 806.846,515.489 L 815.5,507.525 L 807.061,499.333 L 807.065,499.35 Z M 800.972,508.805 C 800.666,509.094 800.352,509.375 800.051,509.644 C 799.423,510.214 798.824,510.747 798.27,511.3 C 794.003,515.551 790.512,520.785 787.294,527.795 L 787.014,528.414 C 786.443,529.649 785.861,530.926 785.159,532.169 C 781.371,538.865 775.877,542.922 768.821,544.24 C 767.693,553.588 761.919,559.408 752.988,560.23 C 751.761,567.017 747.923,572.383 741.557,576.196 C 740.091,577.068 738.575,577.762 737.113,578.427 L 736.981,578.485 C 730.962,581.227 726.096,584.247 722.101,587.725 C 720.932,588.737 719.78,589.766 718.619,590.79 L 717.02,592.216 L 715.248,593.773 L 713.608,592.083 C 713.302,591.761 712.976,591.418 712.629,591.055 C 711.873,590.249 711.006,589.332 710.117,588.502 C 706.082,584.747 701.075,581.562 694.366,578.464 C 692.45,577.584 690.413,576.609 688.505,575.349 C 682.936,571.669 679.528,566.546 678.351,560.123 C 674.043,559.668 670.469,558.074 667.483,555.273 C 664.467,552.456 662.815,548.924 662.344,544.264 C 655.64,543.079 650.331,539.398 646.552,533.33 C 645.474,531.591 644.627,529.74 643.883,528.109 C 640.892,521.569 637.732,516.621 633.92,512.51 C 633.131,511.655 632.255,510.837 631.342,509.966 C 630.896,509.545 630.445,509.119 629.999,508.681 L 628.107,506.843 L 630.057,505.079 C 630.338,504.823 630.619,504.575 630.896,504.331 C 631.466,503.827 631.999,503.344 632.511,502.857 C 636.258,499.201 639.509,494.599 642.442,488.783 C 642.937,487.812 643.387,486.817 643.867,485.767 C 644.139,485.164 644.412,484.565 644.689,483.97 C 646.469,480.174 648.667,477.175 651.41,474.82 C 654.595,472.061 658.271,470.326 662.319,469.649 C 662.724,465.105 664.343,461.47 667.268,458.582 C 670.077,455.79 673.601,454.216 677.996,453.79 C 678.103,453.195 678.227,452.621 678.384,452.035 C 679.95,446.016 683.614,441.224 689.286,437.796 C 690.81,436.883 692.4,436.156 693.937,435.457 L 694.028,435.416 C 700.716,432.368 705.764,429.15 709.903,425.271 C 710.725,424.498 711.518,423.656 712.356,422.767 C 712.761,422.338 713.17,421.912 713.592,421.474 L 715.413,419.591 L 717.185,421.524 C 717.458,421.83 717.731,422.127 717.991,422.412 C 718.528,423.015 719.036,423.581 719.565,424.118 C 723.642,428.237 728.624,431.62 735.246,434.768 C 735.708,434.982 736.175,435.197 736.646,435.416 C 738.096,436.081 739.604,436.775 741.049,437.622 C 747.159,441.17 751.005,446.284 752.48,452.84 C 752.546,453.154 752.612,453.464 752.67,453.778 C 757.288,454.232 760.849,455.835 763.753,458.743 C 767.235,462.225 768.33,466.327 768.71,469.62 C 769.098,469.694 769.482,469.768 769.879,469.859 C 776.203,471.359 781.185,475.081 784.684,480.918 C 785.621,482.483 786.373,484.103 787.088,485.685 L 787.294,486.123 C 790.244,492.505 793.354,497.354 797.109,501.39 C 797.907,502.245 798.774,503.071 799.695,503.943 C 800.133,504.356 800.575,504.773 801.021,505.203 L 802.901,507.033 L 800.976,508.797 L 800.972,508.805 Z"/></svg>