<svg xmlns="http://www.w3.org/2000/svg" viewBox="493.5 670.6 212.0 205.6" fill="none"><path fill="currentColor" d="M 598.003,870.125 C 597.66,870.091 597.323,870.04 596.98,870.017 C 590.361,869.542 584.052,867.971 578.205,864.77 C 572.496,861.644 568.055,857.255 565.071,851.431 C 564.917,851.128 564.723,851.031 564.403,850.991 C 558.825,850.316 553.55,848.71 548.709,845.818 C 541.359,841.423 536.747,835.005 534.764,826.684 C 534.181,824.249 533.872,821.78 533.775,819.282 C 533.775,819.139 533.758,818.997 533.746,818.825 C 533.609,818.768 533.483,818.705 533.352,818.659 C 523.785,815.225 517.766,808.526 515.109,798.753 C 514.954,798.193 514.84,797.622 514.709,797.056 C 513.863,793.467 511.942,790.557 509.142,788.203 C 508.485,787.648 507.742,787.225 506.925,786.934 C 505.964,786.591 505.004,786.557 504.033,786.883 C 502.895,787.26 501.752,787.637 500.615,788.014 C 500.409,788.083 500.203,788.14 499.946,788.214 C 499.912,787.968 499.872,787.757 499.86,787.551 C 499.729,785.791 499.489,784.031 499.5,782.27 C 499.529,778.984 500.135,775.789 501.546,772.789 C 503.861,767.874 507.696,764.867 512.988,763.696 C 513.217,763.644 513.451,763.593 513.714,763.536 C 513.846,762.959 513.971,762.376 514.114,761.793 C 515.286,756.992 517.246,752.562 520.298,748.653 C 524.362,743.447 529.648,740.138 536.038,738.572 C 537.238,738.28 538.467,738.103 539.679,737.88 C 539.873,737.846 540.073,737.811 540.313,737.766 C 540.393,737.406 540.467,737.034 540.547,736.668 C 541.725,731.262 544.125,726.489 547.943,722.466 C 551.435,718.78 555.676,716.271 560.454,714.625 C 562.78,713.824 565.169,713.253 567.598,712.87 C 567.741,712.847 567.878,712.807 567.998,712.779 C 568.198,711.967 568.352,711.184 568.581,710.418 C 570.347,704.429 574.056,700.016 579.508,697.05 C 580.354,696.587 581.234,696.187 582.12,695.816 C 585.515,694.393 588.681,692.587 591.459,690.14 C 592.596,689.14 593.648,688.054 594.579,686.86 C 595.448,685.751 596.174,684.562 596.7,683.248 C 597.517,681.202 598.386,679.179 599.232,677.144 C 599.3,676.978 599.38,676.813 599.494,676.561 C 599.603,676.801 599.689,676.967 599.757,677.144 C 600.586,679.127 601.443,681.093 602.226,683.094 C 602.878,684.762 603.844,686.226 604.998,687.574 C 607.524,690.523 610.605,692.752 614.046,694.501 C 615,694.987 615.983,695.421 616.972,695.839 C 620.252,697.222 623.178,699.119 625.59,701.76 C 628.334,704.766 630.054,708.292 630.865,712.27 C 630.974,712.807 630.974,712.796 631.506,712.887 C 636.381,713.682 641.027,715.15 645.245,717.779 C 652.109,722.06 656.378,728.21 658.299,736.04 C 658.367,736.32 658.43,736.605 658.493,736.891 C 658.55,737.171 658.602,737.457 658.659,737.749 C 659.619,737.914 660.551,738.051 661.476,738.234 C 667.06,739.343 671.975,741.749 676.079,745.733 C 679.022,748.59 681.217,751.951 682.846,755.7 C 683.886,758.095 684.663,760.575 685.178,763.136 C 685.2,763.261 685.24,763.381 685.28,763.536 C 685.738,763.639 686.195,763.73 686.652,763.85 C 692.287,765.307 696.031,768.857 698.06,774.258 C 698.877,776.435 699.351,778.693 699.403,781.03 C 699.403,781.264 699.466,781.493 699.5,781.722 L 699.5,783.362 C 699.466,783.539 699.42,783.711 699.403,783.894 C 699.317,785.094 699.237,786.288 699.151,787.488 C 699.134,787.717 699.094,787.951 699.06,788.226 C 698.803,788.151 698.597,788.094 698.391,788.031 C 697.265,787.666 696.145,787.294 695.025,786.917 C 694.282,786.671 693.533,786.585 692.767,786.751 C 691.767,786.963 690.893,787.437 690.081,788.037 C 688.555,789.169 687.361,790.609 686.349,792.203 C 685.435,793.644 684.709,795.158 684.326,796.833 C 684.115,797.753 683.92,798.685 683.652,799.588 C 680.863,808.966 674.89,815.35 665.66,818.665 C 665.523,818.717 665.391,818.774 665.231,818.837 C 665.22,819.019 665.203,819.202 665.197,819.38 C 665.094,822.043 664.734,824.672 664.083,827.261 C 662.231,834.588 658.253,840.463 652.001,844.738 C 646.765,848.316 640.913,850.219 634.66,851.008 C 634.318,851.053 634.077,851.116 633.895,851.476 C 631.106,856.929 627.013,861.147 621.75,864.233 C 615.68,867.793 609.056,869.514 602.083,870.028 C 601.706,870.057 601.329,870.102 600.952,870.142 L 598.003,870.142 L 598.003,870.125 Z M 506.656,779.75 C 506.77,779.79 506.833,779.824 506.902,779.836 C 509.039,780.127 510.948,780.984 512.703,782.213 C 514.6,783.545 516.183,785.197 517.538,787.071 C 519.401,789.649 520.83,792.432 521.481,795.575 C 521.624,796.25 521.778,796.924 521.967,797.593 C 523.024,801.308 524.813,804.611 527.631,807.28 C 530.86,810.344 534.649,812.315 539.107,812.881 C 539.644,812.95 540.176,813.053 540.69,813.133 C 540.69,813.75 540.713,814.316 540.69,814.876 C 540.547,818.162 540.69,821.431 541.399,824.655 C 542.845,831.239 546.365,836.36 552.178,839.817 C 557.019,842.698 562.3,844.104 567.918,844.292 C 568.444,844.309 568.964,844.321 569.507,844.332 C 569.787,845.001 570.055,845.635 570.318,846.276 C 572.376,851.322 575.77,855.231 580.423,858.037 C 585.795,861.284 591.699,862.753 597.911,863.124 C 600.998,863.307 604.055,862.975 607.084,862.37 C 610.748,861.638 614.257,860.466 617.532,858.649 C 621.67,856.357 625.025,853.248 627.311,849.076 C 628.042,847.739 628.602,846.31 629.237,844.921 C 629.328,844.727 629.408,844.527 629.505,844.315 C 629.7,844.315 629.865,844.315 630.025,844.315 C 632.014,844.327 633.986,844.161 635.946,843.801 C 639.478,843.144 642.856,842.046 646.005,840.297 C 650.663,837.708 654.144,834.039 656.207,829.084 C 657.624,825.678 658.242,822.106 658.322,818.436 C 658.356,816.819 658.293,815.196 658.276,813.573 C 658.276,813.436 658.287,813.293 658.293,813.138 C 658.413,813.116 658.499,813.093 658.59,813.081 C 659.63,812.916 660.693,812.836 661.711,812.573 C 668.112,810.921 672.821,807.16 675.696,801.171 C 676.605,799.273 677.102,797.244 677.611,795.21 C 678.959,789.86 681.863,785.517 686.292,782.225 C 687.892,781.036 689.693,780.264 691.659,779.904 C 691.87,779.864 692.082,779.83 692.322,779.784 C 692.304,779.59 692.31,779.424 692.276,779.27 C 692.064,778.161 691.767,777.075 691.316,776.029 C 689.916,772.754 687.424,770.868 683.932,770.354 C 682.497,770.143 681.034,770.125 679.582,770.023 C 679.388,770.011 679.194,769.994 678.999,769.983 C 678.982,769.823 678.965,769.714 678.954,769.605 C 678.879,768.571 678.851,767.531 678.719,766.502 C 678.262,762.987 677.222,759.644 675.559,756.512 C 672.438,750.642 667.683,746.836 661.202,745.247 C 659.036,744.715 656.83,744.487 654.607,744.424 C 653.795,744.401 652.978,744.35 652.103,744.304 C 652.103,743.955 652.103,743.647 652.103,743.344 C 652.121,741.578 652.058,739.817 651.669,738.08 C 650.515,732.931 648.017,728.598 643.885,725.266 C 640.884,722.849 637.432,721.351 633.723,720.397 C 631.123,719.728 628.471,719.408 625.802,719.191 C 625.299,719.151 624.796,719.094 624.242,719.037 C 624.242,718.808 624.242,718.614 624.242,718.414 C 624.264,717.431 624.367,716.442 624.299,715.465 C 624.087,712.327 623.001,709.509 621.018,707.058 C 619.235,704.852 616.943,703.348 614.36,702.245 C 613.108,701.708 611.857,701.154 610.645,700.531 C 606.49,698.393 602.798,695.65 599.746,692.089 C 599.677,692.009 599.632,691.901 599.552,691.775 C 599.352,691.987 599.232,692.118 599.112,692.249 C 597.98,693.564 596.74,694.764 595.408,695.879 C 592.236,698.525 588.704,700.571 584.898,702.143 C 583.429,702.748 582.011,703.463 580.748,704.429 C 576.719,707.526 574.61,711.578 574.725,716.716 C 574.736,717.299 574.776,717.882 574.799,718.465 C 574.805,718.654 574.799,718.842 574.799,719.037 C 573.49,719.163 572.256,719.277 571.027,719.403 C 568.501,719.648 566.02,720.117 563.597,720.871 C 559.642,722.106 556.076,724.021 553.172,727.027 C 549.509,730.822 547.48,735.382 546.966,740.618 C 546.863,741.646 546.908,742.692 546.88,743.727 C 546.88,743.921 546.857,744.11 546.846,744.315 C 545.874,744.355 544.965,744.407 544.057,744.435 C 541.993,744.504 539.953,744.733 537.947,745.207 C 533.112,746.356 529.06,748.773 525.939,752.677 C 523.779,755.369 522.31,758.421 521.304,761.707 C 520.595,764.016 520.184,766.376 520.098,768.788 C 520.081,769.182 520.035,769.577 520.001,769.994 C 519.035,770.04 518.126,770.057 517.223,770.131 C 516.298,770.205 515.372,770.274 514.463,770.457 C 511.337,771.086 509.102,772.874 507.782,775.784 C 507.307,776.835 506.976,777.927 506.764,779.058 C 506.724,779.287 506.69,779.516 506.656,779.75 Z"/><path fill="currentColor" d="M 510.937,777.275 C 511.765,775.361 513.189,774.269 515.16,773.852 C 516.361,773.595 517.584,773.606 518.801,773.538 C 520.035,773.469 521.276,773.435 522.51,773.383 C 522.744,773.372 522.979,773.343 523.27,773.32 C 523.31,772.863 523.356,772.412 523.385,771.966 C 523.482,770.531 523.573,769.097 523.676,767.662 C 523.859,765.13 524.528,762.719 525.471,760.375 C 526.357,758.164 527.54,756.123 529.106,754.311 C 531.672,751.34 534.912,749.511 538.701,748.608 C 540.37,748.208 542.062,747.996 543.782,747.933 C 545.731,747.865 547.674,747.779 549.623,747.693 C 549.841,747.682 550.052,747.653 550.315,747.63 C 550.332,747.316 550.355,747.03 550.361,746.744 C 550.378,745.253 550.406,743.755 550.395,742.264 C 550.372,739.183 551.212,736.326 552.624,733.628 C 554.676,729.713 557.842,727.004 561.848,725.221 C 564.209,724.175 566.678,723.483 569.232,723.14 C 571.324,722.855 573.427,722.683 575.525,722.466 C 576.376,722.38 577.228,722.312 578.08,722.232 C 578.182,722.22 578.285,722.18 578.434,722.146 C 578.434,721.997 578.434,721.855 578.434,721.712 C 578.348,719.786 578.245,717.854 578.182,715.928 C 578.148,714.842 578.405,713.796 578.748,712.773 C 579.548,710.378 581.011,708.475 583.075,707.029 C 584.001,706.378 585.001,705.852 586.047,705.423 C 590.922,703.417 595.368,700.731 599.237,697.125 C 599.317,697.05 599.403,696.987 599.5,696.907 C 599.62,697.005 599.735,697.09 599.843,697.188 C 603.621,700.697 607.953,703.337 612.703,705.309 C 613.966,705.835 615.183,706.446 616.28,707.275 C 618.949,709.298 620.435,712.001 620.807,715.316 C 620.881,715.996 620.807,716.699 620.795,717.391 C 620.755,718.883 620.704,720.374 620.658,721.866 C 620.658,721.952 620.681,722.043 620.698,722.186 C 621.275,722.243 621.853,722.3 622.424,722.357 C 624.888,722.615 627.356,722.803 629.803,723.14 C 633.089,723.598 636.232,724.558 639.13,726.215 C 644.068,729.039 647.028,733.302 648.269,738.812 C 648.554,740.08 648.612,741.366 648.612,742.664 C 648.612,744.173 648.657,745.687 648.68,747.196 C 648.68,747.322 648.697,747.447 648.709,747.613 C 648.989,747.636 649.257,747.67 649.526,747.682 C 651.561,747.768 653.601,747.83 655.636,747.933 C 658.327,748.07 660.945,748.556 663.443,749.608 C 667.603,751.362 670.564,754.38 672.61,758.352 C 673.93,760.913 674.793,763.627 675.205,766.479 C 675.353,767.519 675.382,768.582 675.456,769.634 C 675.542,770.829 675.622,772.029 675.702,773.28 C 675.965,773.309 676.21,773.349 676.456,773.36 C 678.314,773.446 680.165,773.52 682.023,773.606 C 683.012,773.652 683.977,773.812 684.909,774.149 C 686.424,774.704 687.401,775.795 688.058,777.247 C 687.932,777.315 687.83,777.384 687.715,777.435 C 684.526,778.79 681.937,780.933 679.748,783.579 C 677.302,786.528 675.456,789.809 674.416,793.512 C 674.073,794.735 673.861,796.004 673.479,797.216 C 671.547,803.268 667.518,807.229 661.425,809.029 C 660.488,809.304 659.499,809.389 658.527,809.544 C 657.362,809.732 656.19,809.898 655.018,810.081 C 654.933,810.092 654.847,810.121 654.704,810.15 C 654.704,810.35 654.704,810.55 654.704,810.744 C 654.75,812.836 654.818,814.933 654.841,817.025 C 654.875,820.248 654.51,823.42 653.458,826.489 C 651.823,831.256 648.72,834.782 644.342,837.217 C 641.479,838.806 638.41,839.783 635.204,840.377 C 633.135,840.76 631.049,840.829 628.951,840.818 C 628.494,840.818 628.042,840.846 627.585,840.818 C 627.259,840.8 627.094,840.92 626.974,841.223 C 626.551,842.286 626.076,843.332 625.67,844.407 C 623.499,850.093 619.481,854.003 614.017,856.512 C 610.937,857.929 607.696,858.803 604.347,859.289 C 602.798,859.518 601.238,859.661 599.672,859.666 C 596.62,859.672 593.614,859.249 590.653,858.501 C 587.778,857.775 585.035,856.723 582.48,855.209 C 578.337,852.745 575.296,849.333 573.496,844.835 C 573.016,843.635 572.501,842.452 572.021,841.252 C 571.896,840.938 571.73,840.806 571.381,840.812 C 570.398,840.829 569.415,840.795 568.432,840.795 C 565.215,840.8 562.105,840.166 559.065,839.16 C 557.156,838.526 555.344,837.686 553.635,836.623 C 549.172,833.839 546.326,829.873 545.017,824.792 C 544.291,821.986 544.08,819.122 544.148,816.236 C 544.188,814.436 544.234,812.63 544.28,810.83 C 544.28,810.612 544.28,810.395 544.28,810.127 C 543.491,810.007 542.719,809.887 541.953,809.772 C 540.713,809.584 539.462,809.441 538.233,809.201 C 536.833,808.932 535.512,808.401 534.244,807.743 C 529.677,805.389 526.802,801.668 525.368,796.782 C 525.179,796.136 525.025,795.478 524.888,794.821 C 524.15,791.283 522.573,788.129 520.498,785.208 C 519.058,783.174 517.372,781.373 515.389,779.853 C 514.257,778.984 513.051,778.247 511.754,777.653 C 511.491,777.533 511.228,777.401 510.937,777.258 L 510.937,777.275 Z M 674.279,774.784 C 674.199,773.669 674.124,772.612 674.056,771.56 C 673.964,770.2 673.913,768.828 673.776,767.474 C 673.439,764.187 672.421,761.113 670.792,758.238 C 668.889,754.883 666.203,752.38 662.602,750.928 C 660.316,750.008 657.922,749.585 655.47,749.465 C 652.835,749.339 650.195,749.242 647.56,749.128 C 647.44,749.128 647.32,749.088 647.2,749.071 C 647.188,748.968 647.171,748.899 647.171,748.825 C 647.143,747.185 647.126,745.55 647.091,743.91 C 647.068,742.744 647.137,741.566 646.971,740.423 C 646.091,734.457 643.045,729.976 637.661,727.17 C 634.346,725.444 630.763,724.689 627.076,724.329 C 624.956,724.124 622.836,723.941 620.715,723.746 C 620.19,723.701 619.669,723.638 619.127,723.581 C 619.121,723.403 619.104,723.261 619.104,723.118 C 619.161,721.06 619.224,719.003 619.281,716.945 C 619.292,716.454 619.344,715.956 619.287,715.471 C 618.967,712.727 617.778,710.441 615.606,708.698 C 614.56,707.858 613.383,707.252 612.148,706.743 C 607.656,704.886 603.524,702.44 599.843,699.251 C 599.735,699.159 599.615,699.074 599.495,698.982 C 599.392,699.062 599.306,699.125 599.22,699.194 C 595.5,702.423 591.316,704.892 586.778,706.778 C 586.11,707.058 585.447,707.372 584.818,707.732 C 582.76,708.91 581.229,710.567 580.36,712.796 C 579.954,713.836 579.663,714.911 579.703,716.036 C 579.788,718.403 579.897,720.769 579.988,723.135 C 579.988,723.272 579.971,723.415 579.96,723.581 C 578.914,723.683 577.897,723.775 576.885,723.878 C 574.622,724.101 572.353,724.278 570.095,724.558 C 567.466,724.884 564.917,725.541 562.483,726.615 C 558.122,728.541 554.939,731.628 553.155,736.091 C 552.355,738.086 551.869,740.143 551.904,742.309 C 551.927,743.801 551.892,745.299 551.875,746.79 C 551.864,747.55 551.841,748.31 551.824,749.082 C 551.664,749.105 551.555,749.128 551.452,749.133 C 548.96,749.242 546.468,749.356 543.977,749.448 C 542.428,749.505 540.89,749.676 539.376,750.014 C 536.175,750.728 533.346,752.134 531.026,754.489 C 529.128,756.409 527.78,758.684 526.791,761.181 C 526.025,763.119 525.442,765.113 525.248,767.194 C 525.042,769.44 524.933,771.697 524.785,773.949 C 524.768,774.218 524.733,774.486 524.699,774.772 C 524.522,774.789 524.379,774.812 524.236,774.818 C 521.779,774.932 519.327,775.035 516.869,775.155 C 516.012,775.195 515.166,775.349 514.377,775.704 C 513.914,775.909 513.474,776.161 513.177,776.601 C 513.217,776.647 513.234,776.681 513.263,776.698 C 513.309,776.732 513.354,776.761 513.4,776.784 C 516.732,778.561 519.384,781.099 521.584,784.122 C 523.779,787.14 525.442,790.415 526.282,794.078 C 526.442,794.787 526.585,795.501 526.785,796.204 C 528.277,801.428 531.477,805.132 536.564,807.126 C 537.29,807.412 538.05,807.629 538.816,807.766 C 540.393,808.046 541.982,808.252 543.565,808.492 C 544.32,808.606 545.068,808.721 545.857,808.841 C 545.857,809.058 545.857,809.235 545.857,809.412 C 545.8,811.704 545.731,814.002 545.674,816.293 C 545.611,818.945 545.8,821.569 546.428,824.152 C 547.652,829.147 550.435,832.982 554.87,835.6 C 556.825,836.754 558.911,837.6 561.094,838.211 C 563.254,838.817 565.455,839.229 567.706,839.286 C 569.255,839.326 570.804,839.326 572.347,839.32 C 572.73,839.32 572.93,839.429 573.079,839.8 C 573.65,841.258 574.279,842.692 574.856,844.144 C 576.605,848.556 579.594,851.871 583.721,854.163 C 588.584,856.872 593.859,858.026 599.38,858.152 C 601.478,858.203 603.558,857.935 605.621,857.552 C 608.862,856.946 611.971,855.963 614.88,854.391 C 619.172,852.077 622.321,848.733 624.133,844.167 C 624.722,842.681 625.362,841.212 625.962,839.726 C 626.082,839.429 626.242,839.314 626.568,839.32 C 627.402,839.337 628.242,839.303 629.082,839.309 C 631.289,839.337 633.483,839.212 635.649,838.754 C 638.496,838.154 641.227,837.24 643.771,835.8 C 648.137,833.331 651.029,829.696 652.384,824.855 C 653.098,822.294 653.367,819.671 653.327,817.019 C 653.287,814.436 653.218,811.847 653.167,809.264 C 653.167,809.121 653.189,808.984 653.201,808.835 C 653.338,808.806 653.441,808.784 653.549,808.766 C 655.15,808.526 656.75,808.292 658.35,808.041 C 659.299,807.892 660.276,807.801 661.191,807.521 C 666.746,805.817 670.369,802.148 672.078,796.604 C 672.416,795.513 672.61,794.375 672.907,793.267 C 673.867,789.7 675.57,786.506 677.799,783.579 C 679.943,780.767 682.486,778.401 685.641,776.738 C 685.704,776.704 685.755,776.658 685.829,776.607 C 685.509,776.144 685.058,775.881 684.572,775.669 C 683.795,775.326 682.972,775.184 682.131,775.138 C 680.314,775.041 678.497,774.978 676.673,774.892 C 675.896,774.858 675.119,774.812 674.279,774.766 L 674.279,774.784 Z"/></svg>