<svg xmlns="http://www.w3.org/2000/svg" viewBox="957.5 667.3 212.0 212.0" fill="none"><path fill="currentColor" d="M 1012.17,824.41 C 1011.56,824.279 1010.96,824.165 1010.38,824.022 C 1001.74,821.867 995.457,816.741 991.365,808.872 C 989.811,805.883 988.719,802.723 988.022,799.431 C 987.011,794.665 984.942,790.407 981.936,786.596 C 979.256,783.195 976.084,780.326 972.421,778.018 C 971.169,777.229 969.826,776.578 968.512,775.88 C 967.032,775.097 965.54,774.343 964.049,773.572 C 963.883,773.486 963.729,773.394 963.5,773.269 C 963.689,773.154 963.82,773.063 963.963,772.989 C 965.9,771.983 967.826,770.954 969.781,769.988 C 972.329,768.726 974.632,767.114 976.781,765.268 C 980.301,762.245 983.227,758.742 985.365,754.604 C 986.662,752.096 987.496,749.438 988.119,746.689 C 989.074,742.455 990.617,738.449 993.005,734.803 C 997.497,727.956 1003.78,723.756 1011.82,722.184 C 1011.96,722.162 1012.08,722.121 1012.25,722.076 C 1012.35,721.59 1012.44,721.099 1012.56,720.607 C 1014.52,712.241 1019.3,705.989 1026.76,701.771 C 1030.08,699.897 1033.64,698.639 1037.36,697.845 C 1042.19,696.816 1046.47,694.685 1050.31,691.616 C 1053.6,688.982 1056.38,685.884 1058.65,682.335 C 1059.16,681.529 1059.61,680.678 1060.06,679.826 C 1061.09,677.861 1062.1,675.883 1063.12,673.912 C 1063.21,673.746 1063.3,673.586 1063.44,673.334 C 1063.57,673.563 1063.67,673.735 1063.75,673.906 C 1064.73,675.775 1065.72,677.632 1066.65,679.524 C 1068.25,682.764 1070.38,685.61 1072.86,688.216 C 1075.88,691.382 1079.32,693.965 1083.31,695.799 C 1085.41,696.759 1087.6,697.411 1089.84,697.919 C 1094.44,698.954 1098.76,700.64 1102.65,703.343 C 1109.06,707.8 1112.99,713.881 1114.51,721.539 C 1114.55,721.739 1114.59,721.939 1114.64,722.167 C 1115.29,722.304 1115.94,722.424 1116.57,722.584 C 1125.02,724.676 1131.25,729.631 1135.37,737.266 C 1137.07,740.415 1138.23,743.769 1138.98,747.261 C 1139.96,751.833 1141.92,755.942 1144.76,759.633 C 1147.6,763.325 1150.99,766.422 1154.97,768.846 C 1156.53,769.794 1158.19,770.571 1159.8,771.423 C 1160.84,771.966 1161.88,772.492 1162.91,773.029 C 1163.08,773.114 1163.24,773.206 1163.5,773.354 C 1163.27,773.492 1163.11,773.594 1162.93,773.686 C 1161.07,774.652 1159.2,775.646 1157.32,776.578 C 1154.73,777.852 1152.39,779.481 1150.21,781.349 C 1146.68,784.384 1143.74,787.904 1141.61,792.065 C 1140.33,794.556 1139.49,797.197 1138.88,799.928 C 1137.85,804.483 1136.15,808.769 1133.46,812.609 C 1128.97,819.021 1122.85,822.942 1115.18,824.427 C 1115.01,824.462 1114.84,824.502 1114.63,824.547 C 1114.57,824.845 1114.5,825.153 1114.44,825.462 C 1112.48,834.611 1107.26,841.246 1098.99,845.538 C 1095.98,847.098 1092.79,848.172 1089.49,848.875 C 1084.72,849.892 1080.48,851.984 1076.68,855.001 C 1073.18,857.779 1070.23,861.059 1067.91,864.877 C 1066.99,866.402 1066.22,868.025 1065.39,869.603 C 1064.82,870.683 1064.27,871.774 1063.71,872.86 C 1063.63,873.009 1063.55,873.152 1063.42,873.369 C 1063.3,873.14 1063.19,872.974 1063.1,872.803 C 1062.11,870.9 1061.11,869.008 1060.15,867.088 C 1058.62,863.991 1056.58,861.253 1054.22,858.745 C 1050.94,855.241 1047.15,852.441 1042.72,850.555 C 1040.74,849.715 1038.66,849.184 1036.57,848.698 C 1032.05,847.635 1027.79,845.921 1023.98,843.218 C 1017.58,838.669 1013.7,832.508 1012.28,824.793 C 1012.26,824.685 1012.23,824.576 1012.19,824.416 L 1012.17,824.41 Z M 1013.46,723.253 C 1013.4,723.287 1013.37,723.316 1013.33,723.322 C 1012.94,723.396 1012.56,723.464 1012.17,723.539 C 1004.74,724.956 998.857,728.745 994.566,734.968 C 992.045,738.626 990.439,742.689 989.468,747.004 C 988.805,749.958 987.879,752.804 986.468,755.484 C 984.21,759.776 981.136,763.399 977.45,766.52 C 975.301,768.337 973.009,769.943 970.478,771.183 C 969.278,771.771 968.1,772.406 966.917,773.023 C 966.797,773.086 966.689,773.172 966.523,773.28 C 967.055,773.554 967.523,773.794 967.986,774.04 C 969.563,774.875 971.192,775.635 972.718,776.56 C 976.798,779.041 980.284,782.201 983.21,785.967 C 986.245,789.876 988.331,794.231 989.359,799.088 C 989.891,801.597 990.679,804.026 991.714,806.38 C 993.257,809.9 995.32,813.066 998.08,815.752 C 1001.88,819.444 1006.4,821.787 1011.57,822.856 C 1012.18,822.982 1012.78,823.09 1013.39,823.21 C 1013.48,823.753 1013.55,824.256 1013.65,824.753 C 1015.17,832.48 1019.2,838.52 1025.83,842.795 C 1029.36,845.075 1033.24,846.538 1037.32,847.447 C 1039.83,848.007 1042.26,848.767 1044.58,849.881 C 1048.53,851.778 1051.96,854.379 1054.98,857.545 C 1057.56,860.259 1059.79,863.225 1061.44,866.608 C 1061.98,867.705 1062.55,868.786 1063.12,869.866 C 1063.19,870.008 1063.29,870.134 1063.39,870.317 C 1063.47,870.186 1063.53,870.111 1063.57,870.031 C 1063.98,869.248 1064.38,868.454 1064.79,867.677 C 1065.54,866.288 1066.24,864.859 1067.08,863.528 C 1069.31,860.002 1072.08,856.933 1075.3,854.287 C 1079.39,850.944 1083.97,848.624 1089.16,847.515 C 1092.83,846.732 1096.33,845.492 1099.59,843.618 C 1106.79,839.469 1111.32,833.365 1113.04,825.21 C 1113.17,824.587 1113.27,823.965 1113.39,823.33 C 1113.89,823.239 1114.35,823.159 1114.81,823.073 C 1122.36,821.627 1128.3,817.735 1132.6,811.358 C 1135.02,807.769 1136.55,803.803 1137.51,799.602 C 1138.05,797.248 1138.72,794.945 1139.72,792.745 C 1141.5,788.824 1143.98,785.401 1147.03,782.378 C 1149.91,779.526 1153.09,777.08 1156.75,775.292 C 1157.83,774.766 1158.89,774.189 1159.96,773.64 C 1160.11,773.566 1160.24,773.48 1160.45,773.36 C 1160.21,773.229 1160.05,773.126 1159.87,773.034 C 1158.11,772.109 1156.29,771.263 1154.58,770.246 C 1150.44,767.794 1146.9,764.634 1143.92,760.851 C 1140.8,756.89 1138.66,752.461 1137.6,747.507 C 1136.87,744.066 1135.71,740.769 1134.01,737.683 C 1129.97,730.379 1123.93,725.699 1115.76,723.824 C 1115,723.647 1114.22,723.527 1113.47,723.384 C 1113.43,723.322 1113.4,723.293 1113.39,723.259 C 1113.33,722.887 1113.27,722.516 1113.2,722.144 C 1111.83,714.858 1108.19,709 1102.13,704.68 C 1098.46,702.068 1094.36,700.405 1090,699.377 C 1087.78,698.857 1085.58,698.291 1083.48,697.388 C 1078.98,695.462 1075.13,692.628 1071.77,689.09 C 1069.21,686.387 1066.99,683.427 1065.35,680.061 C 1064.82,678.964 1064.23,677.889 1063.67,676.803 C 1063.61,676.678 1063.53,676.558 1063.41,676.358 C 1063.11,676.929 1062.86,677.421 1062.59,677.912 C 1061.69,679.604 1060.86,681.341 1059.85,682.97 C 1057.66,686.518 1054.9,689.593 1051.68,692.262 C 1047.56,695.685 1042.92,698.051 1037.65,699.182 C 1033.9,699.988 1030.31,701.268 1026.99,703.217 C 1020.12,707.246 1015.72,713.104 1013.9,720.876 C 1013.72,721.659 1013.59,722.459 1013.44,723.23 L 1013.46,723.253 Z"/><path fill="currentColor" d="M 1111.85,821.799 C 1111.76,822.507 1111.68,823.193 1111.57,823.879 C 1110.35,831.119 1106.7,836.823 1100.64,840.972 C 1097.23,843.309 1093.45,844.869 1089.43,845.709 C 1080.34,847.618 1073.29,852.624 1067.64,859.819 C 1066.13,861.751 1064.82,863.819 1063.75,866.025 C 1063.67,866.191 1063.58,866.357 1063.48,866.517 C 1063.46,866.545 1063.42,866.557 1063.36,866.597 C 1063.22,866.328 1063.07,866.071 1062.94,865.802 C 1061.21,862.254 1058.86,859.133 1056.14,856.293 C 1052.76,852.779 1048.9,849.95 1044.44,847.955 C 1042.22,846.961 1039.9,846.287 1037.52,845.749 C 1033.77,844.904 1030.21,843.549 1026.96,841.48 C 1020.7,837.509 1016.83,831.897 1015.37,824.633 C 1015.2,823.77 1015.12,822.884 1015,822.01 C 1014.98,821.902 1014.97,821.793 1014.95,821.662 C 1014.31,821.57 1013.68,821.502 1013.05,821.393 C 1005.08,820.021 999.023,815.855 994.897,808.895 C 993.057,805.792 991.817,802.443 991.08,798.922 C 989.697,792.362 986.542,786.773 981.976,781.938 C 979.741,779.578 977.284,777.469 974.547,775.715 C 973.301,774.915 971.969,774.246 970.672,773.515 C 970.546,773.44 970.421,773.372 970.209,773.246 C 970.461,773.109 970.649,773 970.844,772.903 C 974.764,771 978.181,768.4 981.244,765.331 C 985.153,761.411 988.176,756.913 989.948,751.638 C 990.485,750.038 990.851,748.381 991.268,746.741 C 992.331,742.563 993.937,738.632 996.514,735.146 C 1000.49,729.779 1005.81,726.516 1012.34,725.236 C 1013.21,725.065 1014.09,724.968 1015.01,724.825 C 1015.06,724.402 1015.11,723.956 1015.18,723.516 C 1016.49,714.658 1021.21,708.235 1029.07,704.051 C 1031.87,702.554 1034.86,701.531 1037.96,700.874 C 1042.87,699.828 1047.29,697.748 1051.29,694.754 C 1055.54,691.565 1059.03,687.679 1061.78,683.135 C 1062.27,682.33 1062.67,681.478 1063.12,680.649 C 1063.21,680.484 1063.3,680.324 1063.44,680.072 C 1063.58,680.324 1063.7,680.507 1063.79,680.701 C 1065.53,684.29 1067.87,687.461 1070.62,690.336 C 1074.42,694.325 1078.83,697.434 1084,699.434 C 1085.88,700.16 1087.84,700.617 1089.8,701.085 C 1093.78,702.046 1097.53,703.56 1100.91,705.914 C 1106.91,710.092 1110.45,715.818 1111.64,723.013 C 1111.75,723.642 1111.8,724.276 1111.88,724.956 C 1112.34,725.013 1112.78,725.065 1113.22,725.128 C 1118.77,725.893 1123.62,728.139 1127.67,732.048 C 1130.65,734.917 1132.75,738.374 1134.25,742.203 C 1135.05,744.255 1135.62,746.375 1136.11,748.53 C 1137.22,753.456 1139.45,757.856 1142.55,761.828 C 1145.5,765.605 1149.01,768.76 1153.06,771.309 C 1154.1,771.972 1155.23,772.514 1156.32,773.109 C 1156.44,773.177 1156.57,773.252 1156.76,773.36 C 1156.55,773.486 1156.4,773.583 1156.24,773.663 C 1152.38,775.526 1149,778.052 1145.97,781.052 C 1141.37,785.618 1138,790.933 1136.33,797.248 C 1135.89,798.922 1135.53,800.614 1135.02,802.266 C 1133.8,806.249 1131.94,809.901 1129.19,813.061 C 1125.33,817.518 1120.45,820.233 1114.68,821.359 C 1113.76,821.536 1112.83,821.644 1111.84,821.793 L 1111.85,821.799 Z M 1016.34,726.19 C 1016.04,726.208 1015.77,726.219 1015.52,726.242 C 1014.78,726.316 1014.05,726.356 1013.33,726.476 C 1006.17,727.659 1000.61,731.294 996.669,737.386 C 994.56,740.649 993.223,744.232 992.4,748.009 C 991.48,752.25 989.874,756.199 987.496,759.822 C 983.925,765.262 979.296,769.606 973.724,772.955 C 973.575,773.04 973.364,773.069 973.318,773.303 C 973.41,773.36 973.49,773.412 973.57,773.457 C 978.296,776.241 982.342,779.807 985.702,784.138 C 988.868,788.224 991.108,792.768 992.245,797.825 C 992.788,800.237 993.457,802.597 994.434,804.872 C 995.926,808.358 997.954,811.478 1000.78,814.038 C 1005.04,817.901 1010.06,819.947 1015.79,820.284 C 1015.97,820.296 1016.14,820.313 1016.25,820.324 C 1016.4,821.593 1016.47,822.799 1016.68,823.976 C 1017.88,830.639 1021.27,835.914 1026.85,839.755 C 1030.2,842.058 1033.92,843.509 1037.87,844.389 C 1040.8,845.046 1043.64,845.926 1046.33,847.281 C 1053.49,850.893 1058.95,856.305 1063.11,863.105 C 1063.2,863.259 1063.3,863.408 1063.39,863.557 C 1063.44,863.528 1063.46,863.522 1063.47,863.511 C 1063.53,863.437 1063.58,863.357 1063.63,863.277 C 1066.08,859.099 1069.18,855.453 1072.87,852.327 C 1077.47,848.424 1082.68,845.738 1088.61,844.481 C 1091.92,843.778 1095.11,842.669 1098.04,840.96 C 1105.71,836.497 1109.88,829.851 1110.47,820.976 C 1110.48,820.793 1110.51,820.616 1110.52,820.473 C 1111.62,820.359 1112.68,820.296 1113.71,820.124 C 1120.67,818.97 1126.14,815.478 1130.07,809.615 C 1132.33,806.26 1133.73,802.54 1134.59,798.614 C 1135.31,795.322 1136.42,792.173 1138.05,789.224 C 1141.68,782.658 1146.82,777.572 1153.21,773.692 C 1153.37,773.589 1153.54,773.486 1153.75,773.36 C 1153.6,773.257 1153.52,773.206 1153.44,773.16 C 1149.44,770.823 1145.94,767.88 1142.88,764.405 C 1139.59,760.656 1137.06,756.45 1135.55,751.684 C 1135.04,750.055 1134.69,748.375 1134.26,746.718 C 1133.27,742.975 1131.82,739.437 1129.51,736.3 C 1125.04,730.197 1118.99,726.911 1111.45,726.345 C 1111.15,726.322 1110.86,726.305 1110.55,726.288 C 1110.54,726.156 1110.53,726.059 1110.52,725.968 C 1110.42,724.979 1110.38,723.973 1110.22,722.996 C 1109.05,716.173 1105.62,710.783 1099.89,706.886 C 1096.56,704.623 1092.88,703.177 1088.97,702.326 C 1085.15,701.491 1081.53,700.171 1078.17,698.16 C 1072.14,694.542 1067.4,689.633 1063.77,683.638 C 1063.67,683.473 1063.57,683.313 1063.44,683.107 C 1063.34,683.244 1063.3,683.307 1063.26,683.37 C 1061.25,686.85 1058.75,689.947 1055.85,692.713 C 1050.84,697.491 1045.03,700.794 1038.21,702.246 C 1034.8,702.966 1031.56,704.149 1028.54,705.914 C 1022.35,709.543 1018.42,714.841 1016.86,721.864 C 1016.56,723.265 1016.41,724.682 1016.34,726.19 Z"/></svg>