<svg xmlns="http://www.w3.org/2000/svg" viewBox="725.5 660.3 212.0 226.0" fill="none"><path fill="currentColor" d="M 931.5,780.063 C 931.466,780.258 931.403,780.458 931.397,780.652 C 931.329,782.887 930.923,785.058 930.323,787.202 C 930.22,787.579 930.025,787.733 929.677,787.825 C 926.551,788.682 923.579,789.922 920.716,791.425 C 918.212,792.74 915.852,794.265 913.772,796.197 C 912.56,797.323 911.497,798.569 910.646,799.992 C 909.685,801.598 909.297,803.358 909.04,805.193 C 908.371,809.971 907.062,814.554 904.599,818.755 C 902.856,821.721 900.638,824.253 897.729,826.139 C 897.181,826.493 896.604,826.824 896.015,827.104 C 895.661,827.27 895.546,827.487 895.535,827.859 C 895.501,829.528 895.306,831.179 894.923,832.808 C 893.546,838.632 890.146,842.912 884.962,845.81 C 882.19,847.359 879.213,848.33 876.098,848.908 C 875.275,849.062 874.44,849.176 873.577,849.313 C 873.492,849.696 873.406,850.073 873.32,850.451 C 872.469,854 870.76,857.114 868.44,859.898 C 864.308,864.853 859.141,868.19 852.843,869.682 C 851.431,870.019 849.968,870.168 848.528,870.368 C 844.79,870.894 841.213,871.905 837.932,873.825 C 836.686,874.557 835.515,875.391 834.503,876.432 C 834.149,876.797 833.817,877.197 833.52,877.615 C 832.989,878.346 832.48,879.095 831.971,879.843 C 831.857,880.009 831.783,880.198 831.691,880.375 L 831.446,880.375 C 831.446,880.375 831.457,880.329 831.446,880.312 C 829.96,877.872 828.262,875.649 825.736,874.14 C 822.97,872.482 820.01,871.374 816.855,870.768 C 815.266,870.465 813.649,870.293 812.043,870.036 C 807.442,869.299 803.322,867.447 799.624,864.636 C 795.829,861.749 792.84,858.189 790.914,853.794 C 790.326,852.451 789.897,851.062 789.617,849.622 C 789.6,849.525 789.571,849.428 789.543,849.313 C 788.697,849.176 787.862,849.062 787.039,848.908 C 783.616,848.267 780.364,847.17 777.381,845.347 C 772.003,842.061 768.82,837.3 767.882,831.065 C 767.717,829.973 767.671,828.859 767.591,827.75 C 767.574,827.482 767.511,827.299 767.248,827.167 C 763.327,825.241 760.51,822.184 758.361,818.452 C 756.589,815.377 755.446,812.068 754.709,808.61 C 754.395,807.124 754.166,805.621 753.943,804.118 C 753.623,801.987 752.737,800.118 751.429,798.438 C 749.845,796.403 747.885,794.78 745.742,793.38 C 741.964,790.911 737.889,789.093 733.552,787.853 C 733.095,787.722 732.889,787.51 732.763,787.059 C 732.226,785.11 731.889,783.132 731.723,781.121 C 731.694,780.761 731.58,780.412 731.5,780.058 L 731.5,775.863 C 731.58,775.486 731.694,775.114 731.729,774.737 C 732.112,770.485 733.237,766.462 735.312,762.718 C 737.827,758.18 741.41,754.694 745.833,752.031 C 746.079,751.882 746.319,751.734 746.576,751.574 C 746.514,750.842 746.434,750.128 746.399,749.413 C 745.902,739.955 749.377,732.411 757.229,726.993 C 760.133,724.993 763.333,723.615 766.682,722.564 C 766.762,722.541 766.836,722.501 766.916,722.49 C 767.248,722.438 767.368,722.261 767.437,721.924 C 767.688,720.678 767.945,719.426 768.277,718.197 C 769.751,712.74 772.066,707.687 775.615,703.252 C 780.387,697.28 786.554,693.583 794.04,692.085 C 795.126,691.868 796.229,691.742 797.327,691.577 C 797.567,691.542 797.812,691.502 798.058,691.462 C 799.63,688.022 801.984,685.193 804.653,682.598 C 806.648,680.661 808.808,678.918 811.071,677.3 C 816.044,673.751 821.387,670.859 826.919,668.31 C 828.32,667.665 829.737,667.064 831.143,666.436 C 831.394,666.321 831.617,666.281 831.903,666.402 C 838.67,669.282 845.219,672.557 851.283,676.757 C 853.889,678.563 856.369,680.529 858.632,682.758 C 861.639,685.707 863.113,687.707 865.079,691.462 C 865.925,691.582 866.799,691.691 867.668,691.828 C 877.001,693.331 884.253,698.052 889.443,705.939 C 892.443,710.494 894.34,715.5 895.472,720.821 C 895.546,721.181 895.655,721.541 895.683,721.907 C 895.706,722.295 895.918,722.404 896.238,722.518 C 897.844,723.095 899.461,723.633 901.021,724.313 C 904.445,725.804 907.531,727.822 910.131,730.531 C 913.595,734.137 915.686,738.435 916.464,743.372 C 916.858,745.864 916.909,748.362 916.589,750.871 C 916.566,751.036 916.555,751.196 916.549,751.362 C 916.549,751.425 916.555,751.482 916.566,751.597 C 916.738,751.699 916.926,751.814 917.115,751.928 C 921.813,754.723 925.568,758.432 928.122,763.301 C 929.808,766.524 930.826,769.953 931.26,773.56 C 931.329,774.131 931.34,774.708 931.391,775.28 C 931.409,775.48 931.46,775.674 931.5,775.869 L 931.5,780.063 Z M 860.833,696.514 C 860.776,696.206 860.707,695.949 860.678,695.686 C 860.53,694.394 860.05,693.228 859.393,692.119 C 858.467,690.554 857.352,689.136 856.118,687.805 C 853.855,685.364 851.3,683.267 848.585,681.358 C 843.385,677.7 837.778,674.786 831.983,672.208 C 831.669,672.071 831.411,672.082 831.109,672.219 C 826.594,674.225 822.193,676.443 817.998,679.06 C 814.306,681.364 810.808,683.918 807.745,687.027 C 806.065,688.73 804.545,690.565 803.413,692.691 C 802.984,693.491 802.636,694.32 802.527,695.234 C 802.476,695.657 802.367,696.069 802.282,696.509 C 802.042,696.526 801.836,696.543 801.636,696.554 C 799.395,696.652 797.167,696.806 794.96,697.269 C 789.411,698.429 784.696,701.041 780.896,705.264 C 778.135,708.333 776.152,711.865 774.706,715.706 C 773.557,718.752 772.723,721.884 772.414,725.141 C 772.374,725.587 772.323,726.033 772.277,726.502 C 772.077,726.559 771.906,726.61 771.729,726.662 C 770.677,726.947 769.62,727.204 768.58,727.525 C 765.293,728.525 762.179,729.885 759.413,731.959 C 754.446,735.68 751.931,740.681 751.714,746.859 C 751.634,749.133 751.863,751.374 752.56,753.551 C 752.646,753.814 752.686,754.094 752.749,754.368 C 752.509,754.488 752.32,754.574 752.143,754.671 C 750.634,755.506 749.063,756.249 747.622,757.192 C 742.359,760.638 739.021,765.456 737.632,771.611 C 736.941,774.686 736.792,777.795 737.078,780.926 C 737.158,781.801 737.307,782.67 737.421,783.527 C 737.701,783.63 737.912,783.71 738.124,783.784 C 742.427,785.367 746.519,787.356 750.234,790.065 C 752.354,791.614 754.275,793.374 755.858,795.477 C 757.647,797.849 758.858,800.472 759.247,803.444 C 759.504,805.444 759.864,807.422 760.396,809.37 C 761.173,812.182 762.253,814.857 763.905,817.28 C 765.231,819.223 766.831,820.886 768.882,822.075 C 769.688,822.544 770.528,822.915 771.454,823.07 C 771.992,823.161 772.523,823.292 773.089,823.412 C 773.066,823.921 773.055,824.373 773.02,824.818 C 772.883,826.71 772.889,828.596 773.197,830.476 C 773.832,834.334 775.615,837.517 778.752,839.895 C 780.644,841.329 782.759,842.312 785.016,842.998 C 787.645,843.804 790.337,844.233 793.092,844.198 C 793.595,844.193 794.103,844.147 794.669,844.25 C 794.669,844.844 794.68,845.398 794.669,845.947 C 794.6,848.37 795.223,850.628 796.326,852.76 C 798.327,856.623 801.27,859.606 804.956,861.869 C 807.728,863.567 810.723,864.641 813.969,864.99 C 816.158,865.224 818.324,865.601 820.444,866.196 C 824.468,867.316 828.194,869.03 831.406,871.762 C 831.451,871.802 831.509,871.814 831.543,871.831 C 832.423,871.191 833.263,870.522 834.155,869.939 C 837.972,867.453 842.202,866.059 846.671,865.327 C 847.945,865.121 849.248,865.053 850.517,864.79 C 857.775,863.292 863.199,859.269 866.765,852.782 C 867.919,850.679 868.508,848.399 868.445,845.976 C 868.428,845.404 868.445,844.833 868.445,844.187 C 868.811,844.187 869.091,844.181 869.377,844.187 C 871.314,844.233 873.24,844.095 875.143,843.724 C 877.972,843.175 880.664,842.272 883.122,840.741 C 886.471,838.655 888.665,835.717 889.631,831.882 C 890.203,829.608 890.271,827.287 890.111,824.961 C 890.077,824.453 890.06,823.944 890.037,823.441 C 890.14,823.395 890.191,823.361 890.248,823.35 C 890.426,823.304 890.608,823.258 890.791,823.235 C 892.666,823.001 894.283,822.195 895.741,821.041 C 896.078,820.772 896.409,820.492 896.724,820.201 C 898.181,818.84 899.335,817.252 900.29,815.503 C 902.182,812.028 903.256,808.273 903.719,804.376 C 904.193,800.363 905.811,796.934 908.497,793.968 C 909.674,792.671 910.971,791.499 912.366,790.442 C 916.018,787.676 920.064,785.647 924.328,784.018 C 924.768,783.853 925.213,783.693 925.636,783.533 C 925.665,783.441 925.693,783.39 925.705,783.327 C 925.739,783.167 925.773,783.007 925.796,782.841 C 926.294,779.481 926.316,776.126 925.716,772.777 C 924.562,766.324 921.327,761.209 915.938,757.46 C 914.36,756.363 912.663,755.494 910.949,754.648 C 910.754,754.551 910.56,754.443 910.36,754.334 C 910.428,754.06 910.474,753.837 910.537,753.625 C 911.429,750.814 911.6,747.945 911.274,745.03 C 910.948,742.081 910.005,739.343 908.382,736.852 C 906.605,734.125 904.21,732.062 901.416,730.434 C 898.57,728.776 895.495,727.69 892.317,726.884 C 891.826,726.759 891.334,726.627 890.831,726.496 C 890.797,726.079 890.763,725.713 890.728,725.347 C 890.694,724.981 890.671,724.61 890.62,724.244 C 889.945,719.649 888.557,715.283 886.356,711.185 C 884.35,707.459 881.75,704.235 878.327,701.715 C 873.932,698.486 868.937,696.994 863.547,696.657 C 862.667,696.6 861.787,696.566 860.833,696.514 Z"/><path fill="currentColor" d="M 756.818,756.1 C 756.492,754.923 756.212,753.803 755.869,752.705 C 755.155,750.431 754.983,748.11 755.201,745.756 C 755.464,742.938 756.361,740.343 758.041,738.04 C 759.344,736.257 760.984,734.84 762.853,733.674 C 765.482,732.039 768.345,730.994 771.323,730.222 C 772.535,729.908 773.752,729.605 774.963,729.29 C 775.495,729.153 775.484,729.148 775.535,728.593 C 775.729,726.53 775.832,724.45 776.278,722.415 C 777.238,718.037 778.804,713.911 781.336,710.185 C 785.085,704.67 790.251,701.384 796.841,700.326 C 798.755,700.018 800.687,699.972 802.613,699.863 C 803.453,699.818 804.293,699.783 805.173,699.743 C 805.288,699.149 805.396,698.589 805.499,698.029 C 805.642,697.24 805.739,696.44 805.922,695.663 C 806.036,695.171 806.219,694.68 806.454,694.228 C 807.128,692.902 808.042,691.731 809.02,690.616 C 811.289,688.033 813.929,685.884 816.735,683.924 C 821.267,680.758 826.131,678.18 831.149,675.889 C 831.412,675.769 831.634,675.74 831.909,675.866 C 837.824,678.586 843.539,681.655 848.711,685.65 C 850.894,687.336 852.946,689.176 854.689,691.331 C 855.192,691.954 855.649,692.611 856.106,693.274 C 856.781,694.251 857.198,695.326 857.352,696.52 C 857.49,697.577 857.718,698.617 857.918,699.732 C 858.507,699.766 859.073,699.806 859.638,699.841 C 861.199,699.926 862.765,699.966 864.319,700.098 C 871.732,700.743 877.618,704.047 881.813,710.248 C 884.219,713.803 885.739,717.723 886.711,721.884 C 887.117,723.61 887.305,725.364 887.442,727.13 C 887.494,727.782 887.557,728.439 887.62,729.142 C 887.877,729.21 888.128,729.279 888.38,729.353 C 890.597,729.971 892.837,730.513 895.021,731.222 C 897.752,732.114 900.284,733.434 902.502,735.303 C 905.542,737.869 907.302,741.138 907.822,745.081 C 908.154,747.579 908.028,750.042 907.308,752.465 C 906.959,753.642 906.645,754.837 906.302,756.066 C 906.491,756.169 906.657,756.277 906.839,756.363 C 908.325,757.106 909.828,757.826 911.309,758.597 C 914.343,760.175 916.967,762.255 918.967,765.061 C 920.767,767.587 921.842,770.405 922.367,773.445 C 922.773,775.788 922.836,778.143 922.642,780.515 C 922.607,780.961 922.436,781.149 922.047,781.304 C 918.693,782.629 915.481,784.241 912.469,786.23 C 909.497,788.19 906.811,790.476 904.633,793.311 C 902.582,795.98 901.17,798.935 900.587,802.267 C 900.313,803.827 900.113,805.398 899.787,806.942 C 899.135,809.976 898.095,812.868 896.335,815.457 C 895.484,816.709 894.455,817.783 893.249,818.703 C 892.174,819.52 890.929,819.801 889.648,820.041 C 888.603,820.235 887.562,820.463 886.511,820.675 C 886.511,821.104 886.494,821.492 886.511,821.875 C 886.585,823.435 886.688,824.996 886.745,826.556 C 886.802,828.059 886.682,829.556 886.322,831.025 C 885.631,833.848 884.07,836.066 881.653,837.672 C 879.693,838.975 877.521,839.763 875.235,840.272 C 873.583,840.638 871.914,840.838 870.223,840.809 C 868.765,840.786 867.302,840.809 865.845,840.809 L 865.153,840.809 C 865.136,841.032 865.113,841.192 865.108,841.352 C 865.073,842.895 864.999,844.438 865.028,845.976 C 865.062,847.833 864.645,849.582 863.765,851.188 C 860.599,856.949 855.786,860.463 849.288,861.595 C 847.465,861.909 845.625,862.098 843.813,862.475 C 839.487,863.378 835.435,864.984 831.766,867.482 C 831.714,867.516 831.657,867.533 831.572,867.573 C 831.497,867.533 831.4,867.499 831.32,867.442 C 827.857,865.093 824.039,863.578 819.987,862.607 C 818.027,862.138 816.032,861.852 814.032,861.612 C 811.317,861.286 808.814,860.321 806.511,858.858 C 803.413,856.886 800.927,854.337 799.287,851.022 C 798.51,849.456 798.087,847.805 798.11,846.033 C 798.132,844.33 798.058,842.627 798.024,840.844 C 797.778,840.832 797.561,840.815 797.349,840.809 C 795.315,840.798 793.275,840.878 791.246,840.758 C 788.177,840.575 785.245,839.803 782.53,838.317 C 778.987,836.38 776.998,833.397 776.518,829.39 C 776.324,827.767 776.387,826.15 776.478,824.527 C 776.541,823.441 776.604,822.349 776.661,821.264 C 776.672,821.081 776.661,820.904 776.661,820.692 C 775.455,820.441 774.3,820.126 773.123,819.978 C 770.957,819.703 769.368,818.509 767.98,816.966 C 766.517,815.343 765.494,813.445 764.693,811.428 C 763.705,808.93 763.065,806.336 762.756,803.672 C 762.23,799.112 760.304,795.231 757.281,791.842 C 754.806,789.07 751.863,786.876 748.68,784.996 C 746.251,783.561 743.713,782.338 741.09,781.315 C 740.69,781.161 740.536,780.966 740.501,780.526 C 740.261,777.657 740.404,774.817 741.073,772.011 C 742.427,766.33 745.731,762.107 750.76,759.22 C 752.469,758.243 754.263,757.414 756.024,756.517 C 756.275,756.386 756.532,756.26 756.841,756.111 L 756.818,756.1 Z M 799.521,839.3 C 799.544,839.54 799.567,839.701 799.567,839.861 C 799.596,841.855 799.653,843.85 799.636,845.844 C 799.618,847.622 800.064,849.256 800.899,850.805 C 801.922,852.714 803.282,854.348 804.911,855.766 C 807.545,858.052 810.551,859.572 814.032,860.086 C 815.335,860.281 816.644,860.412 817.935,860.641 C 822.633,861.469 827.079,862.995 831.149,865.521 C 831.457,865.716 831.674,865.704 831.977,865.521 C 834.766,863.778 837.772,862.521 840.933,861.618 C 843.55,860.869 846.231,860.515 848.917,860.098 C 854.941,859.166 859.375,855.874 862.342,850.582 C 863.147,849.142 863.502,847.57 863.49,845.907 C 863.479,843.89 863.53,841.878 863.559,839.861 C 863.559,839.689 863.593,839.512 863.61,839.312 L 864.348,839.312 C 866.302,839.312 868.257,839.289 870.206,839.318 C 871.989,839.34 873.732,839.1 875.452,838.672 C 877.544,838.152 879.521,837.38 881.27,836.077 C 882.905,834.86 884.03,833.282 884.631,831.328 C 885.145,829.636 885.288,827.899 885.202,826.144 C 885.116,824.338 884.996,822.532 884.899,820.726 C 884.876,820.321 884.899,819.915 884.899,819.48 C 885.128,819.429 885.339,819.372 885.562,819.326 C 887.151,819 888.74,818.652 890.334,818.366 C 891.043,818.235 891.672,817.96 892.237,817.543 C 892.666,817.229 893.083,816.886 893.466,816.52 C 894.832,815.2 895.798,813.605 896.575,811.891 C 897.844,809.096 898.524,806.136 898.907,803.107 C 899.267,800.272 900.153,797.626 901.57,795.151 C 903.382,791.979 905.834,789.373 908.674,787.11 C 912.257,784.258 916.235,782.098 920.441,780.326 C 920.664,780.229 920.887,780.132 921.11,780.035 C 921.127,779.858 921.144,779.715 921.15,779.572 C 921.264,777.697 921.19,775.834 920.887,773.977 C 920.356,770.713 919.167,767.724 917.075,765.136 C 915.235,762.855 912.937,761.152 910.337,759.838 C 908.708,759.009 907.062,758.209 905.428,757.392 C 905.119,757.237 904.811,757.083 904.479,756.917 C 904.839,755.626 905.188,754.38 905.531,753.134 C 905.771,752.259 906.034,751.396 906.205,750.511 C 906.519,748.888 906.537,747.242 906.342,745.596 C 905.971,742.452 904.765,739.703 902.525,737.429 C 900.644,735.52 898.375,734.217 895.929,733.194 C 893.838,732.319 891.649,731.765 889.454,731.211 C 888.38,730.942 887.311,730.656 886.191,730.371 C 886.116,729.576 886.042,728.805 885.974,728.033 C 885.808,726.13 885.671,724.227 885.236,722.352 C 884.333,718.455 882.933,714.768 880.733,711.408 C 876.744,705.327 871.063,702.138 863.856,701.595 C 862.096,701.464 860.324,701.418 858.558,701.326 C 857.924,701.292 857.289,701.246 856.649,701.206 C 856.598,701.024 856.547,700.869 856.518,700.709 C 856.255,699.252 855.992,697.8 855.746,696.337 C 855.655,695.783 855.518,695.246 855.198,694.783 C 854.546,693.834 853.929,692.857 853.197,691.977 C 851.26,689.633 848.934,687.702 846.488,685.913 C 841.933,682.592 836.995,679.941 831.903,677.557 C 831.594,677.414 831.366,677.494 831.097,677.614 C 827.925,679.083 824.822,680.683 821.822,682.484 C 818.215,684.65 814.781,687.039 811.757,689.988 C 810.34,691.371 809.043,692.857 808.031,694.565 C 807.74,695.063 807.488,695.577 807.397,696.16 C 807.271,696.949 807.128,697.737 806.985,698.526 C 806.825,699.412 806.659,700.298 806.494,701.189 C 806.351,701.212 806.254,701.235 806.151,701.235 C 804.488,701.315 802.825,701.406 801.161,701.469 C 799.538,701.532 797.921,701.669 796.321,701.978 C 792.783,702.658 789.583,704.064 786.805,706.384 C 784.108,708.642 782.113,711.431 780.581,714.574 C 778.53,718.786 777.392,723.232 777.135,727.913 C 777.089,728.73 776.992,729.542 776.912,730.353 C 776.718,730.411 776.587,730.456 776.444,730.491 C 774.278,731.062 772.1,731.588 769.951,732.217 C 767.214,733.017 764.631,734.171 762.333,735.897 C 760.356,737.383 758.784,739.206 757.835,741.509 C 756.492,744.767 756.286,748.122 757.144,751.539 C 757.39,752.517 757.681,753.482 757.95,754.448 C 758.172,755.254 758.395,756.066 758.624,756.889 C 758.493,756.969 758.39,757.043 758.281,757.094 C 757.327,757.569 756.361,758.032 755.406,758.517 C 753.738,759.363 752.034,760.135 750.463,761.169 C 747.525,763.101 745.233,765.593 743.759,768.805 C 742.69,771.131 742.124,773.588 741.982,776.131 C 741.907,777.417 741.97,778.715 741.97,780.018 C 742.227,780.132 742.45,780.229 742.679,780.326 C 745.908,781.686 749.005,783.287 751.909,785.258 C 754.961,787.327 757.71,789.722 759.921,792.688 C 762.122,795.637 763.608,798.906 764.128,802.564 C 764.391,804.398 764.676,806.221 765.162,808.01 C 765.819,810.428 766.728,812.731 768.18,814.788 C 769.003,815.96 769.957,817.006 771.197,817.743 C 771.597,817.983 772.043,818.177 772.489,818.292 C 773.363,818.509 774.26,818.657 775.146,818.835 C 776.169,819.04 777.192,819.258 778.244,819.475 C 778.244,819.692 778.25,819.869 778.244,820.052 C 778.141,821.961 778.044,823.87 777.924,825.779 C 777.821,827.407 777.907,829.025 778.278,830.619 C 778.987,833.671 780.867,835.797 783.616,837.186 C 786.376,838.58 789.32,839.26 792.406,839.306 C 794.526,839.335 796.641,839.312 798.761,839.312 L 799.504,839.312 L 799.521,839.3 Z"/></svg>