<svg xmlns="http://www.w3.org/2000/svg" viewBox="841.5 -2.4 212.0 379.6" fill="none"><path fill="currentColor" d="M 1036.74,178.066 L 1036.74,196.857 C 1036.75,225.344 1036.75,252.65 1036.75,263.312 C 1036.75,288.733 1017.49,289.028 1016.61,289.028 L 1016.58,289.028 C 1015.86,308.574 999.972,309.619 996.578,309.619 C 996.169,309.619 995.942,309.608 995.942,309.608 C 995.942,309.608 994.63,328.807 971.956,336.579 C 958.383,342 947.494,354.768 947.494,354.768 C 947.494,354.768 936.606,342 923.032,336.579 C 900.358,328.801 899.047,309.608 899.047,309.608 C 899.047,309.608 898.82,309.619 898.411,309.619 C 895.016,309.619 879.138,308.58 878.411,289.028 L 878.389,289.028 C 877.492,289.028 858.241,288.733 858.241,263.312 C 858.241,252.65 858.241,225.35 858.252,196.857 L 858.252,178.066 C 858.241,149.579 858.241,122.273 858.241,111.611 C 858.241,86.1899 877.497,85.8947 878.389,85.8947 L 878.411,85.8947 C 879.138,66.3489 895.016,65.293 898.411,65.293 C 898.82,65.293 899.047,65.3157 899.047,65.3157 C 899.047,65.3157 900.358,46.1161 923.032,38.3443 C 936.606,32.9228 947.494,20.1553 947.494,20.1553 C 947.494,20.1553 958.383,32.9228 971.956,38.3443 C 994.63,46.1218 995.942,65.3157 995.942,65.3157 C 995.942,65.3157 996.169,65.293 996.578,65.293 C 999.972,65.293 1015.86,66.3432 1016.58,85.8947 L 1016.61,85.8947 C 1017.5,85.8947 1036.75,86.1899 1036.75,111.611 C 1036.75,122.273 1036.75,149.573 1036.74,178.066 Z"/><path fill="currentColor" d="M 1047.49,178.066 C 1047.5,149.579 1047.5,122.273 1047.5,111.611 C 1047.5,87.399 1033.19,79.3434 1026.09,76.8285 C 1023.19,65.8833 1015.41,58.1853 1004.55,55.5171 C 1001.73,47.751 994.352,34.745 975.777,28.2846 C 965.07,23.9361 955.777,13.2747 955.686,13.1725 L 947.523,3.64087 L 939.337,13.1612 C 939.246,13.2634 929.964,23.9247 919.314,28.2619 C 900.659,34.745 893.279,47.751 890.452,55.5171 C 879.598,58.191 871.82,65.8833 868.925,76.8285 C 861.806,79.3434 847.5,87.399 847.5,111.611 C 847.5,122.273 847.5,149.573 847.511,178.066 L 847.511,196.846 C 847.5,225.344 847.5,252.65 847.5,263.312 C 847.5,281.285 855.425,290.283 862.067,294.677 C 864.173,296.068 866.472,297.203 868.914,298.049 C 871.797,309.017 879.586,316.738 890.452,319.406 C 893.279,327.172 900.659,340.178 919.234,346.638 C 929.964,350.998 939.246,361.66 939.337,361.762 L 947.489,371.282 L 955.675,361.762 C 955.766,361.66 965.048,350.998 975.698,346.661 C 994.352,340.178 1001.73,327.172 1004.55,319.406 C 1015.41,316.732 1023.19,309.04 1026.09,298.083 C 1033.19,295.58 1047.5,287.524 1047.5,263.312 C 1047.5,252.65 1047.5,225.35 1047.49,196.857 L 1047.49,178.066 Z M 1040.14,263.312 C 1040.14,285.951 1026.18,290.987 1019.75,292.105 C 1018.04,306.298 1008.06,312.117 998.837,312.911 C 997.446,319.162 992.24,333.184 973.143,339.758 C 960.58,344.805 950.191,356.851 950.089,356.965 L 947.494,359.996 L 944.911,356.976 C 944.809,356.851 934.42,344.81 921.857,339.758 C 902.76,333.184 897.554,319.156 896.163,312.911 C 886.938,312.117 876.952,306.303 875.255,292.105 C 868.823,290.987 854.846,285.946 854.846,263.312 C 854.846,252.65 854.846,225.35 854.857,196.857 L 854.857,178.066 C 854.846,149.579 854.846,122.273 854.846,111.611 C 854.846,88.9602 868.823,83.9361 875.255,82.8177 C 876.952,68.6253 886.938,62.8064 896.163,62.0002 C 897.554,55.7612 902.76,41.7391 921.857,35.1651 C 928.142,32.6275 933.875,28.3641 938.054,24.7081 C 942.243,21.0522 944.855,18.0093 944.911,17.9525 L 947.494,14.9324 L 950.077,17.9525 C 950.191,18.0774 960.58,30.107 973.143,35.1708 C 992.24,41.7448 997.446,55.7726 998.837,62.0059 C 1008.06,62.812 1018.04,68.6253 1019.75,82.8234 C 1026.17,83.9418 1040.14,88.9716 1040.14,111.617 C 1040.14,122.278 1040.14,149.579 1040.13,178.072 L 1040.13,196.863 C 1040.14,225.35 1040.14,252.656 1040.14,263.317 L 1040.14,263.312 Z"/></svg>