<svg xmlns="http://www.w3.org/2000/svg" viewBox="1189.5 632.4 212.0 281.9" fill="none"><path fill="currentColor" d="M 1395.49,774.395 C 1395.11,775.133 1394.52,775.67 1393.9,776.201 C 1387.92,781.293 1383.76,787.636 1381.06,794.968 C 1378.79,801.112 1377.95,807.466 1378.38,813.987 C 1378.72,818.97 1379.74,823.839 1380.96,828.674 C 1381.74,831.771 1382.53,834.868 1383.16,838 C 1383.86,841.543 1384.03,845.132 1383.35,848.715 C 1382.36,853.956 1379.58,858.042 1375.32,861.168 C 1372.65,863.128 1369.69,864.516 1366.58,865.602 C 1366.26,865.711 1365.94,865.825 1365.62,865.939 C 1365.51,866.728 1365.45,867.488 1365.32,868.237 C 1364.58,872.42 1362.3,875.552 1358.71,877.752 C 1356.13,879.329 1353.28,880.112 1350.33,880.563 C 1348.11,880.9 1345.88,880.992 1343.64,880.975 C 1343.18,880.975 1342.88,881.055 1342.65,881.535 C 1339.9,887.101 1335.59,891.158 1330.23,894.159 C 1327.05,895.936 1323.63,897.125 1320.17,898.205 C 1316.83,899.25 1313.46,900.211 1310.13,901.291 C 1305.61,902.754 1301.39,904.851 1297.49,907.565 C 1296.11,908.52 1294.94,908.525 1293.57,907.565 C 1288.89,904.285 1283.73,902.056 1278.27,900.422 C 1274.46,899.279 1270.64,898.113 1266.88,896.833 C 1262.87,895.467 1259.14,893.53 1255.86,890.793 C 1252.75,888.21 1250.17,885.204 1248.41,881.546 C 1248.18,881.066 1247.88,880.975 1247.41,880.981 C 1245.15,881.003 1242.89,880.906 1240.65,880.558 C 1237.89,880.129 1235.23,879.409 1232.79,878.02 C 1228.8,875.757 1226.38,872.386 1225.65,867.837 C 1225.56,867.254 1225.53,866.654 1225.47,865.979 C 1225.18,865.871 1224.88,865.745 1224.56,865.637 C 1221.29,864.494 1218.19,863.002 1215.41,860.893 C 1211.74,858.099 1209.13,854.567 1208,850.041 C 1207.26,847.041 1207.22,843.989 1207.51,840.932 C 1207.92,836.606 1209.08,832.434 1210.22,828.257 C 1211.79,822.53 1212.82,816.719 1212.75,810.758 C 1212.62,798.677 1208.55,788.128 1200.33,779.236 C 1199.22,778.036 1197.96,776.973 1196.75,775.864 C 1195.96,775.138 1195.46,774.298 1195.5,773.195 C 1195.54,772.087 1196.11,771.281 1196.92,770.607 C 1199.78,768.218 1202.27,765.486 1204.4,762.423 C 1208.57,756.423 1211.21,749.805 1212.3,742.576 C 1212.94,738.353 1212.89,734.118 1212.41,729.884 C 1211.82,724.723 1210.57,719.706 1209.23,714.705 C 1208.46,711.836 1207.82,708.939 1207.49,705.979 C 1207.04,701.933 1207.25,697.95 1208.79,694.127 C 1210.33,690.298 1212.94,687.36 1216.3,685.035 C 1218.83,683.28 1221.59,682.006 1224.49,681 C 1224.76,680.908 1225.02,680.811 1225.28,680.708 C 1225.33,680.691 1225.37,680.64 1225.41,680.606 C 1225.55,679.657 1225.62,678.697 1225.84,677.765 C 1226.86,673.222 1229.64,670.091 1233.77,668.085 C 1236.34,666.833 1239.09,666.182 1241.92,665.907 C 1243.72,665.736 1245.53,665.719 1247.33,665.633 C 1247.59,665.622 1247.84,665.61 1248.07,665.599 C 1248.16,665.467 1248.23,665.382 1248.28,665.279 C 1251.31,659.113 1256.12,654.781 1262.19,651.746 C 1265.85,649.918 1269.75,648.729 1273.65,647.557 C 1277.08,646.523 1280.55,645.592 1283.89,644.249 C 1287.29,642.883 1290.53,641.214 1293.49,639.065 C 1294.76,638.157 1296.4,638.26 1297.5,639.048 C 1302.16,642.363 1307.34,644.569 1312.8,646.203 C 1316.61,647.346 1320.43,648.506 1324.2,649.792 C 1328.48,651.255 1332.44,653.369 1335.87,656.387 C 1338.7,658.884 1341.06,661.741 1342.7,665.164 C 1342.76,665.29 1342.84,665.41 1342.96,665.627 C 1343.48,665.627 1344.04,665.627 1344.6,665.627 C 1347.86,665.662 1351.09,665.959 1354.23,666.902 C 1357.06,667.753 1359.63,669.068 1361.71,671.228 C 1363.91,673.514 1365.14,676.245 1365.47,679.394 C 1365.51,679.788 1365.55,680.177 1365.6,680.646 C 1365.9,680.754 1366.21,680.874 1366.52,680.988 C 1370.01,682.211 1373.3,683.823 1376.2,686.16 C 1379.77,689.041 1382.23,692.646 1383.2,697.184 C 1383.81,700.087 1383.84,703.024 1383.52,705.967 C 1383.07,710.236 1381.92,714.345 1380.81,718.471 C 1379.36,723.843 1378.42,729.284 1378.31,734.867 C 1378.16,742.49 1379.82,749.679 1383.17,756.508 C 1385.92,762.097 1389.64,766.926 1394.48,770.864 C 1394.97,771.27 1395.28,771.79 1395.5,772.378 L 1395.5,774.418 L 1395.49,774.395 Z M 1228.08,682.503 C 1227.49,682.697 1226.98,682.869 1226.48,683.029 C 1223.4,684.012 1220.44,685.269 1217.77,687.126 C 1214.92,689.103 1212.66,691.578 1211.29,694.807 C 1209.82,698.27 1209.68,701.893 1210.05,705.562 C 1210.35,708.499 1211.01,711.362 1211.77,714.202 C 1213.12,719.231 1214.36,724.283 1214.95,729.466 C 1215.53,734.501 1215.52,739.519 1214.57,744.513 C 1212.88,753.474 1209.12,761.434 1203.02,768.241 C 1201.7,769.709 1200.22,771.035 1198.78,772.384 C 1197.86,773.247 1197.83,773.355 1198.81,774.207 C 1199.36,774.687 1199.93,775.161 1200.45,775.676 C 1210.22,785.208 1215.06,796.871 1215.33,810.455 C 1215.44,815.97 1214.6,821.393 1213.27,826.742 C 1212.43,830.114 1211.52,833.474 1210.74,836.863 C 1210.06,839.795 1209.8,842.783 1209.97,845.801 C 1210.1,847.99 1210.53,850.115 1211.46,852.121 C 1212.88,855.219 1215.14,857.59 1217.92,859.499 C 1220.72,861.425 1223.81,862.716 1227.04,863.728 C 1227.38,863.836 1227.71,863.968 1228.1,864.111 C 1228.1,864.939 1228.06,865.705 1228.11,866.465 C 1228.29,869.488 1229.48,872.037 1231.72,874.083 C 1233.5,875.7 1235.62,876.672 1237.9,877.323 C 1241.25,878.277 1244.69,878.455 1248.15,878.386 C 1248.69,878.375 1249.22,878.386 1249.78,878.386 C 1249.93,878.706 1250.08,879.015 1250.21,879.323 C 1251.53,882.449 1253.51,885.107 1255.94,887.444 C 1259.12,890.49 1262.84,892.667 1266.97,894.107 C 1270.84,895.456 1274.75,896.679 1278.67,897.85 C 1284.49,899.582 1290,901.919 1294.98,905.422 C 1295.47,905.765 1295.78,905.611 1296.19,905.331 C 1299.48,903.045 1302.98,901.131 1306.75,899.782 C 1310.1,898.582 1313.52,897.57 1316.92,896.519 C 1320.67,895.359 1324.44,894.233 1327.96,892.439 C 1333.81,889.455 1338.36,885.181 1340.98,879.032 C 1341.08,878.803 1341.21,878.592 1341.31,878.392 C 1341.88,878.392 1342.39,878.386 1342.9,878.392 C 1345.62,878.437 1348.33,878.357 1351.01,877.837 C 1353.61,877.329 1356.1,876.523 1358.27,874.946 C 1361.1,872.9 1362.67,870.14 1362.94,866.654 C 1363.01,865.808 1363.02,864.962 1363.06,864.145 C 1363.13,864.082 1363.17,864.031 1363.22,864.014 C 1363.67,863.859 1364.13,863.705 1364.59,863.562 C 1367.86,862.516 1371,861.162 1373.79,859.116 C 1377.24,856.584 1379.65,853.333 1380.65,849.121 C 1381.3,846.361 1381.32,843.572 1380.99,840.772 C 1380.66,837.897 1380.02,835.086 1379.27,832.303 C 1377.74,826.616 1376.37,820.902 1375.9,815.01 C 1375.61,811.272 1375.64,807.541 1376.2,803.832 C 1377.32,796.294 1380.02,789.374 1384.31,783.07 C 1386.61,779.682 1389.34,776.664 1392.49,774.041 C 1393.27,773.39 1393.27,773.247 1392.47,772.561 C 1391.8,771.99 1391.12,771.429 1390.5,770.812 C 1380.57,761.029 1375.77,749.102 1375.74,735.221 C 1375.73,730.506 1376.38,725.855 1377.48,721.271 C 1378.2,718.248 1379.04,715.248 1379.78,712.231 C 1380.74,708.373 1381.36,704.47 1381.08,700.47 C 1380.8,696.55 1379.42,693.104 1376.76,690.195 C 1375.37,688.68 1373.77,687.435 1372.02,686.366 C 1369.69,684.937 1367.19,683.892 1364.6,683.057 C 1364.09,682.891 1363.59,682.72 1363.07,682.549 C 1363.03,681.657 1363.01,680.811 1362.94,679.966 C 1362.66,676.348 1360.98,673.525 1358.01,671.473 C 1356.53,670.451 1354.89,669.771 1353.17,669.279 C 1349.78,668.319 1346.32,668.142 1342.83,668.222 C 1342.32,668.233 1341.82,668.222 1341.29,668.222 C 1341.14,667.913 1341,667.645 1340.88,667.359 C 1339.52,664.084 1337.44,661.33 1334.87,658.924 C 1331.74,655.998 1328.1,653.895 1324.08,652.495 C 1320.21,651.146 1316.31,649.923 1312.38,648.752 C 1306.57,647.02 1301.05,644.683 1296.07,641.174 C 1295.58,640.826 1295.26,640.997 1294.86,641.271 C 1290.56,644.26 1285.87,646.483 1280.87,648.049 C 1277.05,649.249 1273.19,650.375 1269.38,651.615 C 1266.14,652.661 1263,653.958 1260.15,655.844 C 1255.81,658.713 1252.35,662.359 1250.25,667.187 C 1250.11,667.525 1249.95,667.856 1249.78,668.228 C 1249.47,668.228 1249.16,668.233 1248.85,668.228 C 1246.24,668.17 1243.65,668.188 1241.07,668.593 C 1238.59,668.982 1236.19,669.61 1234.01,670.879 C 1230.17,673.102 1228.14,676.411 1228.09,680.88 C 1228.08,681.411 1228.09,681.949 1228.09,682.514 L 1228.08,682.503 Z"/><path fill="currentColor" d="M 1295.53,642.368 C 1295.7,642.471 1295.84,642.534 1295.95,642.614 C 1300.7,645.877 1305.94,648.106 1311.44,649.763 C 1315.39,650.952 1319.33,652.192 1323.24,653.495 C 1327.29,654.844 1330.92,656.929 1334.04,659.884 C 1336.7,662.416 1338.73,665.382 1340.07,668.805 C 1340.32,669.456 1340.42,669.519 1341.14,669.49 C 1343.58,669.399 1346,669.336 1348.43,669.605 C 1351.03,669.89 1353.57,670.45 1355.91,671.651 C 1357.66,672.542 1359.13,673.754 1360.19,675.417 C 1361.55,677.537 1361.9,679.874 1361.63,682.331 C 1361.62,682.417 1361.59,682.497 1361.58,682.583 C 1361.49,683.286 1361.62,683.457 1362.31,683.686 C 1363.9,684.2 1365.51,684.657 1367.05,685.269 C 1370.24,686.526 1373.14,688.246 1375.53,690.766 C 1378.22,693.612 1379.65,696.995 1379.9,700.91 C 1380.15,704.687 1379.53,708.356 1378.59,711.985 C 1377.86,714.831 1377.02,717.654 1376.33,720.511 C 1374.96,726.152 1374.38,731.884 1374.64,737.684 C 1375.06,746.885 1377.54,755.457 1382.61,763.206 C 1384.88,766.681 1387.55,769.824 1390.59,772.641 C 1390.8,772.835 1391.03,773.001 1391.3,773.235 C 1390.99,773.544 1390.76,773.784 1390.51,774.001 C 1382.76,780.933 1378.06,789.642 1375.71,799.677 C 1374.61,804.358 1374.32,809.124 1374.54,813.93 C 1374.81,819.936 1376.1,825.748 1377.74,831.497 C 1378.53,834.274 1379.23,837.069 1379.61,839.937 C 1380.05,843.275 1380.12,846.601 1379.15,849.864 C 1378.17,853.184 1376.19,855.813 1373.47,857.904 C 1370.72,860.025 1367.57,861.333 1364.28,862.345 C 1363.69,862.528 1363.09,862.693 1362.49,862.859 C 1361.55,863.122 1361.5,863.213 1361.61,864.151 C 1361.93,866.671 1361.53,869.048 1360.17,871.237 C 1359.43,872.414 1358.45,873.334 1357.31,874.1 C 1355.03,875.626 1352.47,876.392 1349.79,876.809 C 1346.95,877.254 1344.1,877.203 1341.24,877.094 C 1340.39,877.06 1340.33,877.094 1340.04,877.832 C 1338.75,881.118 1336.83,883.986 1334.3,886.449 C 1331.38,889.295 1327.98,891.421 1324.13,892.747 C 1320.26,894.079 1316.35,895.296 1312.44,896.513 C 1308.54,897.725 1304.68,898.982 1301.08,900.93 C 1299.36,901.856 1297.72,902.908 1296.05,903.919 C 1295.7,904.131 1295.44,904.216 1295.06,903.954 C 1289.84,900.325 1284.01,898.073 1277.95,896.313 C 1274.1,895.193 1270.24,894.056 1266.5,892.604 C 1261.48,890.661 1257.24,887.655 1254.03,883.295 C 1252.79,881.609 1251.72,879.803 1251,877.814 C 1250.75,877.112 1250.65,877.06 1249.87,877.089 C 1247.49,877.174 1245.12,877.232 1242.75,876.986 C 1240.49,876.752 1238.28,876.294 1236.18,875.414 C 1233.8,874.414 1231.81,872.923 1230.54,870.614 C 1229.47,868.665 1229.15,866.568 1229.42,864.374 C 1229.44,864.208 1229.48,864.042 1229.48,863.871 C 1229.5,863.231 1229.41,863.099 1228.78,862.905 C 1227.81,862.608 1226.82,862.345 1225.86,862.019 C 1223.04,861.053 1220.36,859.79 1217.96,857.984 C 1214.76,855.573 1212.49,852.515 1211.57,848.567 C 1210.99,846.115 1210.99,843.623 1211.24,841.137 C 1211.62,837.349 1212.66,833.697 1213.69,830.057 C 1214.85,825.971 1215.76,821.827 1216.16,817.593 C 1217.24,806.135 1215.47,795.254 1209.58,785.219 C 1207.19,781.144 1204.25,777.498 1200.79,774.27 C 1200.46,773.961 1200.13,773.664 1199.75,773.327 C 1200.18,772.927 1200.52,772.59 1200.87,772.269 C 1208.73,765.086 1213.4,756.12 1215.56,745.788 C 1216.78,739.947 1216.83,734.055 1216.12,728.135 C 1215.61,723.877 1214.6,719.74 1213.45,715.625 C 1212.61,712.602 1211.81,709.562 1211.4,706.442 C 1211.01,703.39 1210.95,700.344 1211.72,697.338 C 1212.69,693.521 1214.92,690.583 1218.08,688.303 C 1220.73,686.395 1223.7,685.177 1226.8,684.234 C 1227.42,684.046 1228.05,683.88 1228.68,683.703 C 1229.44,683.486 1229.56,683.349 1229.45,682.566 C 1229.26,681.148 1229.28,679.748 1229.62,678.354 C 1230.22,675.874 1231.58,673.936 1233.69,672.519 C 1236,670.976 1238.58,670.199 1241.29,669.782 C 1244.13,669.342 1246.98,669.399 1249.84,669.502 C 1250.64,669.53 1250.72,669.479 1250.99,668.805 C 1252.18,665.73 1253.94,663.021 1256.24,660.661 C 1259.04,657.781 1262.34,655.638 1266.07,654.152 C 1269.96,652.603 1273.99,651.466 1277.99,650.255 C 1281.7,649.135 1285.41,648.003 1288.86,646.209 C 1290.94,645.129 1292.93,643.877 1294.96,642.706 C 1295.13,642.608 1295.3,642.506 1295.52,642.38 L 1295.53,642.368 Z M 1387.54,773.064 C 1387.18,772.772 1386.77,772.51 1386.44,772.161 C 1377.44,762.657 1372.8,751.297 1372.09,738.29 C 1371.74,731.947 1372.37,725.683 1373.92,719.523 C 1374.65,716.614 1375.48,713.734 1376.22,710.831 C 1377.04,707.613 1377.56,704.35 1377.33,701.007 C 1377.13,698.001 1376.12,695.327 1374.14,693.041 C 1372.57,691.212 1370.64,689.852 1368.51,688.749 C 1366.26,687.583 1363.89,686.76 1361.46,686.115 C 1360.71,685.92 1360.1,685.566 1359.64,684.954 C 1359,684.109 1358.9,683.154 1359.04,682.131 C 1359.49,678.84 1358.37,676.245 1355.57,674.422 C 1354.39,673.656 1353.09,673.182 1351.75,672.822 C 1348.28,671.896 1344.75,671.822 1341.22,672.096 C 1339.51,672.228 1338.14,671.176 1337.67,669.799 C 1337.55,669.45 1337.44,669.096 1337.28,668.77 C 1335.75,665.524 1333.62,662.741 1330.81,660.478 C 1328.36,658.507 1325.64,657.015 1322.66,656.027 C 1318.75,654.729 1314.81,653.484 1310.87,652.283 C 1305.54,650.666 1300.42,648.597 1295.73,645.557 C 1295.66,645.511 1295.57,645.506 1295.47,645.471 C 1295.35,645.534 1295.22,645.597 1295.11,645.672 C 1290.97,648.329 1286.5,650.289 1281.81,651.758 C 1278.14,652.906 1274.46,654.004 1270.79,655.175 C 1268.37,655.947 1265.98,656.821 1263.75,658.09 C 1258.9,660.867 1255.29,664.73 1253.27,670.01 C 1252.71,671.451 1251.47,672.193 1249.93,672.091 C 1247.16,671.908 1244.39,671.896 1241.64,672.325 C 1239.44,672.662 1237.33,673.262 1235.43,674.457 C 1232.82,676.091 1231.74,678.485 1231.93,681.503 C 1231.96,682.011 1232.05,682.52 1232.05,683.023 C 1232.04,684.52 1231.14,685.669 1229.7,686.08 C 1228.88,686.315 1228.06,686.526 1227.25,686.777 C 1224.52,687.635 1221.88,688.715 1219.54,690.412 C 1216.86,692.355 1214.98,694.852 1214.18,698.11 C 1213.53,700.738 1213.59,703.384 1213.93,706.036 C 1214.31,708.933 1215.03,711.756 1215.82,714.557 C 1217.39,720.094 1218.65,725.677 1219.01,731.444 C 1219.49,739.313 1218.57,746.976 1215.78,754.377 C 1213.11,761.463 1209.28,767.801 1203.78,773.07 C 1203.71,773.138 1203.66,773.241 1203.62,773.304 C 1203.65,773.378 1203.65,773.412 1203.67,773.43 C 1204.02,773.795 1204.38,774.161 1204.73,774.533 C 1213.51,783.882 1218.12,795.025 1218.92,807.775 C 1219.33,814.318 1218.7,820.776 1217.1,827.131 C 1216.37,830.062 1215.53,832.971 1214.78,835.903 C 1214,839.012 1213.5,842.166 1213.69,845.395 C 1213.9,848.869 1215.17,851.87 1217.64,854.344 C 1219.51,856.213 1221.71,857.596 1224.14,858.579 C 1225.94,859.31 1227.81,859.887 1229.66,860.482 C 1231.17,860.962 1232.08,862.116 1232.06,863.682 C 1232.06,864.048 1232.01,864.413 1231.97,864.779 C 1231.62,868.037 1232.86,870.511 1235.62,872.243 C 1236.96,873.083 1238.43,873.568 1239.95,873.923 C 1243.23,874.689 1246.56,874.706 1249.9,874.5 C 1251.48,874.403 1252.71,875.151 1253.3,876.632 C 1253.44,876.997 1253.55,877.386 1253.72,877.74 C 1255.16,880.832 1257.15,883.518 1259.76,885.729 C 1262.43,887.992 1265.46,889.621 1268.76,890.707 C 1272.74,892.016 1276.73,893.256 1280.73,894.479 C 1285.83,896.044 1290.73,898.079 1295.23,900.982 C 1295.32,901.039 1295.43,901.073 1295.53,901.119 C 1295.65,901.056 1295.76,901.011 1295.85,900.953 C 1300.06,898.25 1304.61,896.256 1309.38,894.781 C 1313.16,893.61 1316.95,892.456 1320.72,891.25 C 1322.73,890.604 1324.73,889.867 1326.6,888.861 C 1331.78,886.089 1335.63,882.118 1337.76,876.574 C 1338.31,875.134 1339.56,874.397 1341.1,874.494 C 1343.87,874.677 1346.64,874.689 1349.39,874.26 C 1351.5,873.934 1353.53,873.363 1355.39,872.26 C 1358.29,870.534 1359.39,867.939 1359.07,864.654 C 1359.05,864.345 1358.98,864.036 1358.98,863.728 C 1358.95,862.11 1359.85,860.922 1361.42,860.482 C 1362.39,860.202 1363.38,859.939 1364.34,859.625 C 1367.13,858.716 1369.78,857.55 1372.1,855.71 C 1374.72,853.624 1376.42,850.967 1377.03,847.641 C 1377.48,845.189 1377.39,842.743 1377.06,840.292 C 1376.68,837.451 1375.95,834.691 1375.18,831.937 C 1373.97,827.576 1372.88,823.193 1372.35,818.679 C 1371.63,812.592 1371.71,806.535 1372.9,800.517 C 1374.56,792.1 1378.01,784.488 1383.36,777.767 C 1384.6,776.201 1386.01,774.761 1387.53,773.07 L 1387.54,773.064 Z"/></svg>