<svg xmlns="http://www.w3.org/2000/svg" viewBox="1073.5 -1.5 212.0 378.0" fill="none"><path fill="currentColor" d="M 1279.48,178.331 C 1279.49,150.629 1279.49,124.076 1279.49,113.708 C 1279.49,90.0699 1266.37,81.0991 1258.18,77.8034 C 1254.96,67.298 1247.48,59.8896 1237.04,56.8589 C 1234.04,49.4063 1226.36,36.5271 1207.96,30.1013 C 1198.29,26.1431 1189.61,16.2726 1189.53,16.1843 L 1179.52,4.48645 L 1169.48,16.1732 C 1169.39,16.2726 1160.77,26.1155 1151.1,30.0792 C 1132.65,36.5271 1124.96,49.4063 1121.96,56.8589 C 1111.52,59.8896 1104.04,67.298 1100.82,77.8034 C 1092.62,81.0991 1079.5,90.0699 1079.5,113.708 C 1079.5,124.081 1079.5,150.629 1079.51,178.331 L 1079.51,196.598 C 1079.5,224.305 1079.5,250.853 1079.5,261.22 C 1079.5,279.923 1087.87,289.38 1094.9,294.017 C 1096.74,295.232 1098.72,296.264 1100.81,297.086 C 1104.03,307.614 1111.51,315.033 1121.96,318.064 C 1124.96,325.517 1132.64,338.396 1151.04,344.822 C 1160.79,348.813 1169.39,358.656 1169.48,358.75 L 1179.48,370.437 L 1189.53,358.75 C 1189.62,358.65 1198.24,348.807 1207.91,344.844 C 1226.36,338.396 1234.04,325.517 1237.05,318.064 C 1247.48,315.033 1254.96,307.625 1258.19,297.12 C 1266.38,293.824 1279.5,284.853 1279.5,261.215 C 1279.5,250.847 1279.5,224.294 1279.49,196.592 L 1279.49,178.325 L 1279.48,178.331 Z M 1273.99,261.22 C 1273.99,283.997 1260.15,290.832 1254.2,292.709 L 1253.6,292.896 L 1253.46,293.504 C 1251.02,303.866 1243.74,311.075 1233.49,313.289 L 1232.87,313.421 L 1232.68,314.012 C 1229.82,322.48 1222.87,333.808 1205.96,339.693 C 1194.86,344.203 1185.45,355.051 1185.35,355.161 L 1179.49,361.985 L 1173.65,355.161 C 1173.55,355.051 1164.14,344.209 1152.99,339.677 C 1136.13,333.814 1129.18,322.486 1126.32,314.018 L 1126.13,313.427 L 1125.51,313.294 C 1115.24,311.075 1107.96,303.849 1105.53,293.465 L 1105.39,292.852 L 1104.79,292.665 C 1102.33,291.892 1100.02,290.799 1097.94,289.424 C 1092.04,285.532 1085.01,277.478 1085.01,261.22 C 1085.01,250.853 1085.01,224.299 1085.02,196.598 L 1085.02,178.331 C 1085.01,150.629 1085.01,124.081 1085.01,113.708 C 1085.01,90.9255 1098.85,84.0967 1104.8,82.2198 L 1105.4,82.0321 L 1105.54,81.4249 C 1107.98,71.0685 1115.26,63.8533 1125.51,61.6396 L 1126.13,61.5071 L 1126.32,60.9164 C 1129.18,52.4481 1136.13,41.1201 1153.05,35.2353 C 1164.14,30.7251 1173.56,19.8774 1173.65,19.767 L 1179.52,12.9438 L 1185.37,19.7836 C 1185.76,20.2308 1194.92,30.7472 1206.01,35.2574 C 1222.88,41.1201 1229.82,52.4481 1232.68,60.9164 L 1232.88,61.5071 L 1233.49,61.6396 C 1243.75,63.8533 1251.03,71.0685 1253.47,81.4249 L 1253.61,82.0321 L 1254.21,82.2198 C 1260.16,84.1023 1274,90.9311 1274,113.708 C 1274,124.076 1274,150.629 1273.99,178.331 L 1273.99,196.598 C 1274,224.299 1274,250.847 1274,261.22 L 1273.99,261.22 Z"/><path fill="currentColor" d="M 1270.69,113.708 C 1270.69,91.6433 1257.33,86.1449 1250.74,84.7758 C 1248.36,68.2973 1235.42,65.0789 1230.31,64.4551 C 1228.73,58.1728 1223.26,44.6864 1204.85,38.3434 C 1192.88,33.5351 1182.95,22.0305 1182.85,21.9146 L 1179.5,17.984 L 1176.15,21.909 C 1175.74,22.3838 1166,33.5793 1154.2,38.3213 C 1135.74,44.6864 1130.26,58.1673 1128.68,64.4496 C 1123.58,65.0734 1110.63,68.2918 1108.26,84.7703 C 1101.66,86.1394 1088.31,91.6378 1088.31,113.703 C 1088.31,124.07 1088.31,150.624 1088.32,178.325 L 1088.32,196.592 C 1088.31,224.294 1088.31,250.847 1088.31,261.215 C 1088.31,283.28 1101.66,288.778 1108.26,290.147 C 1110.63,306.626 1123.58,309.844 1128.68,310.468 C 1130.26,316.75 1135.74,330.237 1154.15,336.58 C 1166.09,341.383 1176.05,352.898 1176.15,353.014 L 1179.5,356.928 L 1182.84,353.014 C 1182.94,352.898 1192.97,341.355 1204.79,336.602 C 1223.25,330.237 1228.73,316.756 1230.31,310.474 C 1235.41,309.85 1248.36,306.631 1250.73,290.153 C 1257.33,288.784 1270.68,283.285 1270.68,261.22 C 1270.68,250.853 1270.68,224.305 1270.67,196.598 L 1270.67,178.331 C 1270.68,150.629 1270.68,124.076 1270.68,113.708 L 1270.69,113.708 Z M 1265.19,261.22 C 1265.19,284.853 1247.46,285.129 1246.68,285.129 L 1245.62,285.129 L 1245.58,286.189 C 1244.93,303.788 1231.37,305.152 1227.23,305.152 C 1226.9,305.152 1226.7,305.141 1226.68,305.141 L 1225.59,305.075 L 1225.51,306.162 C 1225.45,306.896 1223.98,324.208 1202.88,331.446 C 1191.55,335.967 1182.28,345.462 1179.5,348.498 C 1176.71,345.457 1167.44,335.962 1156.07,331.424 C 1135.02,324.203 1133.54,306.891 1133.48,306.157 L 1133.41,305.064 L 1132.31,305.135 C 1132.31,305.135 1132.1,305.146 1131.77,305.146 C 1127.63,305.146 1114.06,303.777 1113.42,286.184 L 1113.35,285.124 L 1112.29,285.124 C 1111.54,285.124 1093.81,284.853 1093.81,261.215 C 1093.81,250.847 1093.81,224.3 1093.82,196.592 L 1093.82,178.32 C 1093.81,150.618 1093.81,124.065 1093.81,113.697 C 1093.81,90.0644 1111.54,89.7884 1112.2,89.7829 L 1113.37,89.9154 L 1113.42,88.7285 C 1114.06,71.1293 1127.63,69.7658 1131.77,69.7658 C 1132.1,69.7658 1132.3,69.7768 1132.32,69.7768 L 1133.41,69.843 L 1133.48,68.7555 C 1133.54,68.0213 1135.01,50.7092 1156.12,43.4719 C 1167.44,38.9506 1176.71,29.4555 1179.5,26.4192 C 1182.28,29.461 1191.56,38.9562 1202.93,43.494 C 1223.98,50.7147 1225.45,68.0268 1225.51,68.761 L 1225.59,69.8486 L 1226.67,69.7823 C 1226.67,69.7823 1226.89,69.7713 1227.23,69.7713 C 1231.37,69.7713 1244.93,71.1404 1245.58,88.734 L 1245.53,89.9264 L 1246.7,89.7939 C 1247.46,89.7939 1265.19,90.0644 1265.19,113.703 C 1265.19,124.07 1265.19,150.618 1265.17,178.325 L 1265.17,196.598 C 1265.19,224.3 1265.19,250.853 1265.19,261.22 Z"/></svg>