<svg xmlns="http://www.w3.org/2000/svg" viewBox="609.5 -1.8 212.0 378.6" fill="none"><path fill="currentColor" d="M 815.489,178.229 C 815.5,150.213 815.5,123.37 815.5,112.887 C 815.5,88.9183 801.741,80.3333 794.149,77.4196 C 791.057,66.7749 783.421,59.2169 772.854,56.3255 C 769.762,48.3378 762.131,35.7617 743.851,29.376 C 733.747,25.2343 724.889,15.0975 724.799,14.997 L 718.051,7.10978 L 715.522,4.15137 L 712.983,7.1042 L 706.206,14.9914 C 706.122,15.0863 697.269,25.2287 687.149,29.376 C 668.869,35.7617 661.244,48.3378 658.146,56.3255 C 647.579,59.2169 639.949,66.7749 636.851,77.4196 C 629.259,80.3333 615.5,88.9183 615.5,112.887 C 615.5,123.37 615.5,150.219 615.511,178.229 L 615.511,196.699 C 615.5,224.715 615.5,251.559 615.5,262.041 C 615.5,280.462 623.694,289.739 630.571,294.277 C 632.519,295.561 634.618,296.632 636.84,297.47 C 639.926,308.137 647.563,315.706 658.146,318.597 C 661.238,326.585 668.869,339.161 687.149,345.547 C 697.269,349.694 706.122,359.836 706.212,359.937 L 712.949,367.813 L 715.478,370.771 L 718.017,367.819 L 724.794,359.931 C 724.878,359.836 733.731,349.694 743.851,345.547 C 762.131,339.161 769.756,326.585 772.854,318.597 C 783.421,315.706 791.051,308.148 794.149,297.503 C 801.741,294.589 815.5,286.005 815.5,262.036 C 815.5,251.553 815.5,224.704 815.489,196.694 L 815.489,178.223 L 815.489,178.229 Z M 812.162,262.041 C 812.162,282.867 801.026,291.893 791.369,294.941 C 788.523,307.02 779.871,313.719 770.326,315.784 C 767.607,323.833 760.602,336.191 742.673,342.427 C 731.693,346.892 722.36,357.648 722.265,357.76 L 715.489,365.647 L 708.74,357.76 C 708.645,357.654 699.318,346.892 688.333,342.427 C 670.398,336.191 663.393,323.833 660.68,315.784 C 651.124,313.719 642.461,307.004 639.625,294.902 C 637.387,294.199 634.892,293.127 632.419,291.492 C 626.228,287.406 618.844,278.977 618.844,262.041 C 618.844,251.559 618.844,224.71 618.855,196.699 L 618.855,178.229 C 618.844,150.219 618.844,123.375 618.844,112.887 C 618.844,92.0609 629.98,83.035 639.636,79.9872 C 642.483,67.908 651.135,61.2097 660.68,59.15 C 663.398,51.1008 670.398,38.7425 688.333,32.5075 C 699.312,28.042 708.645,17.28 708.74,17.174 L 715.517,9.28673 L 722.276,17.1851 C 722.36,17.28 731.688,28.042 742.673,32.5075 C 760.607,38.7425 767.613,51.1008 770.326,59.15 C 779.871,61.2153 788.528,67.9136 791.369,79.9872 C 801.026,83.035 812.162,92.0609 812.162,112.887 C 812.162,123.37 812.162,150.219 812.151,178.229 L 812.151,196.699 C 812.162,224.71 812.162,251.553 812.162,262.041 Z"/><path fill="currentColor" d="M 804.928,112.881 C 804.928,90.2244 790.041,86.6074 785.006,86.0324 C 783.594,67.9749 769.232,65.8929 764.599,65.6919 C 763.767,60.8245 759.664,45.971 740.172,39.2895 C 727.378,34.1765 716.873,21.9911 716.773,21.8683 L 715.5,20.3835 L 714.233,21.8683 C 714.127,21.9911 703.622,34.1765 690.912,39.256 C 671.353,45.9655 667.239,60.8189 666.407,65.6919 C 661.774,65.8873 647.412,67.9694 646,86.0268 C 641.037,86.5906 626.078,90.1686 626.078,112.876 C 626.078,123.359 626.078,150.202 626.089,178.218 L 626.089,196.688 C 626.078,224.704 626.078,251.547 626.078,262.03 C 626.078,275.745 631.693,282.332 636.404,285.441 C 640.122,287.897 643.901,288.65 646,288.885 C 647.412,306.937 661.774,309.019 666.407,309.214 C 667.239,314.082 671.342,328.935 690.834,335.622 C 703.627,340.735 714.127,352.92 714.233,353.043 L 715.506,354.528 L 716.773,353.043 C 716.879,352.92 727.384,340.735 740.094,335.656 C 759.653,328.946 763.767,314.087 764.599,309.22 C 769.232,309.024 783.594,306.942 785.006,288.885 C 789.968,288.321 804.928,284.743 804.928,262.036 C 804.928,251.553 804.928,224.71 804.917,196.694 L 804.917,178.223 C 804.928,150.208 804.928,123.364 804.928,112.881 Z"/></svg>