<svg xmlns="http://www.w3.org/2000/svg" viewBox="1073.5 401.3 212.0 210.8" fill="none"><path fill="currentColor" d="M 1178.87,606.055 L 1172.18,599.17 C 1171.85,598.825 1171.49,598.442 1171.11,598.043 C 1170.38,597.269 1169.63,596.469 1168.9,595.796 C 1165.39,592.532 1160.93,589.706 1154.84,586.905 C 1152.72,585.929 1150.26,584.751 1147.87,583.174 C 1142.1,579.359 1137.89,574.063 1135.64,567.821 C 1131.82,566.664 1128.4,564.692 1125.47,561.949 C 1122.29,558.971 1120.13,555.48 1118.9,551.287 C 1112.35,548.931 1106.83,544.38 1102.91,538.075 C 1101.55,535.896 1100.54,533.684 1099.73,531.913 C 1097.03,526.012 1094.23,521.599 1090.92,518.032 C 1090.28,517.338 1089.48,516.586 1088.64,515.786 C 1088.16,515.336 1087.68,514.882 1087.19,514.411 L 1079.5,506.937 L 1087.45,499.736 C 1087.74,499.471 1088.04,499.206 1088.33,498.949 L 1088.51,498.789 C 1088.93,498.415 1089.34,498.049 1089.74,497.662 C 1092.96,494.533 1095.78,490.503 1098.39,485.342 C 1098.82,484.488 1099.25,483.55 1099.7,482.558 C 1099.99,481.914 1100.28,481.275 1100.58,480.639 C 1102.86,475.79 1105.72,471.92 1109.33,468.812 C 1112.2,466.334 1115.39,464.454 1118.82,463.209 C 1119.98,459.129 1122.04,455.663 1125.09,452.635 C 1127.94,449.808 1131.37,447.789 1135.28,446.628 C 1137.72,439.839 1142.31,434.371 1148.93,430.371 C 1150.85,429.215 1152.75,428.348 1154.42,427.587 L 1154.53,427.536 C 1160.57,424.785 1165.06,421.938 1168.66,418.569 C 1169.33,417.946 1170.05,417.181 1170.81,416.369 C 1171.27,415.877 1171.71,415.423 1172.15,414.964 L 1179.59,407.275 L 1186.8,415.166 C 1187.1,415.49 1187.39,415.814 1187.68,416.133 C 1188.16,416.668 1188.61,417.172 1189.02,417.589 C 1192.54,421.143 1196.93,424.108 1202.85,426.918 C 1203.3,427.133 1203.76,427.339 1204.21,427.549 C 1205.77,428.268 1207.53,429.084 1209.32,430.123 C 1216.04,434.022 1220.88,439.701 1223.39,446.586 C 1227.5,447.768 1230.98,449.812 1233.99,452.824 C 1236.91,455.747 1238.93,459.142 1240.13,463.171 C 1246.97,465.611 1252.45,470.217 1256.44,476.862 C 1257.61,478.801 1258.49,480.728 1259.27,482.431 L 1259.48,482.877 C 1262.13,488.631 1264.88,492.943 1268.14,496.442 C 1268.8,497.145 1269.6,497.902 1270.44,498.701 C 1270.92,499.147 1271.39,499.593 1271.86,500.051 L 1279.5,507.467 L 1271.67,514.676 C 1271.36,514.962 1271.05,515.24 1270.74,515.517 L 1270.66,515.589 C 1270.1,516.098 1269.57,516.573 1269.12,517.019 C 1265.43,520.687 1262.37,525.326 1259.48,531.614 L 1259.2,532.233 C 1258.59,533.566 1257.9,535.076 1257.02,536.628 C 1253.05,543.661 1247.26,548.7 1240.24,551.257 C 1237.75,559.573 1231.79,565.604 1223.73,567.989 C 1221.29,574.669 1216.53,580.271 1209.93,584.229 C 1208.09,585.331 1206.28,586.156 1204.68,586.884 L 1204.52,586.959 C 1199.06,589.441 1194.7,592.133 1191.2,595.182 C 1190.03,596.2 1188.87,597.231 1187.7,598.261 L 1178.87,606.068 L 1178.87,606.055 Z M 1174.59,596.831 L 1179.05,601.42 L 1185.48,595.733 C 1186.64,594.699 1187.81,593.66 1189,592.633 C 1192.75,589.365 1197.37,586.505 1203.13,583.885 L 1203.28,583.817 C 1204.81,583.123 1206.53,582.341 1208.21,581.336 C 1214.48,577.575 1218.74,572.439 1220.84,566.067 L 1221.13,565.196 L 1222.02,564.969 C 1229.72,562.984 1235.12,557.495 1237.25,549.516 L 1237.48,548.641 L 1238.34,548.355 C 1245.03,546.142 1250.34,541.638 1254.11,534.967 C 1254.91,533.545 1255.57,532.102 1256.15,530.828 L 1256.44,530.205 C 1259.5,523.538 1262.78,518.588 1266.76,514.63 C 1267.27,514.121 1267.88,513.574 1268.43,513.09 L 1268.5,513.019 C 1268.8,512.75 1269.1,512.48 1269.4,512.203 L 1274.62,507.395 L 1269.53,502.453 C 1269.07,502.007 1268.61,501.565 1268.15,501.132 C 1267.26,500.295 1266.42,499.504 1265.7,498.722 C 1262.19,494.953 1259.25,490.36 1256.44,484.278 L 1256.24,483.828 C 1255.49,482.204 1254.65,480.366 1253.57,478.583 C 1249.85,472.374 1244.69,468.164 1238.25,466.065 L 1237.38,465.783 L 1237.14,464.9 C 1236.13,461.072 1234.33,457.897 1231.63,455.192 C 1228.84,452.412 1225.59,450.582 1221.69,449.598 L 1220.8,449.371 L 1220.51,448.496 C 1218.37,442.014 1213.92,436.66 1207.65,433.017 C 1205.99,432.054 1204.31,431.276 1202.81,430.59 C 1202.35,430.376 1201.89,430.161 1201.42,429.942 C 1195.14,426.96 1190.44,423.784 1186.64,419.944 C 1186.19,419.49 1185.71,418.943 1185.19,418.367 C 1184.91,418.056 1184.63,417.74 1184.34,417.429 L 1179.53,412.167 L 1174.57,417.29 C 1174.14,417.736 1173.71,418.182 1173.3,418.623 C 1172.46,419.515 1171.7,420.314 1170.96,421.008 C 1167.09,424.634 1162.31,427.675 1155.92,430.582 L 1155.82,430.628 C 1154.22,431.351 1152.42,432.176 1150.67,433.232 C 1144.48,436.971 1140.28,442.115 1138.18,448.517 L 1137.9,449.387 L 1137.01,449.619 C 1133.31,450.578 1130.1,452.391 1127.46,455.003 C 1124.64,457.8 1122.8,461.034 1121.85,464.892 L 1121.62,465.792 L 1120.74,466.082 C 1117.4,467.175 1114.3,468.946 1111.52,471.34 C 1108.28,474.132 1105.7,477.636 1103.62,482.053 C 1103.33,482.675 1103.05,483.298 1102.76,483.925 C 1102.29,484.959 1101.85,485.927 1101.39,486.844 C 1098.61,492.341 1095.57,496.665 1092.09,500.055 C 1091.66,500.476 1091.2,500.88 1090.74,501.288 L 1090.6,501.422 C 1090.28,501.7 1089.99,501.956 1089.71,502.213 L 1084.41,507.012 L 1089.54,511.997 C 1090.01,512.455 1090.48,512.901 1090.95,513.338 C 1091.83,514.175 1092.67,514.962 1093.38,515.74 C 1096.95,519.58 1099.93,524.27 1102.79,530.508 C 1103.56,532.195 1104.52,534.298 1105.76,536.296 C 1109.44,542.197 1114.64,546.378 1120.81,548.384 L 1121.69,548.67 L 1121.92,549.562 C 1122.93,553.512 1124.85,556.759 1127.77,559.493 C 1130.52,562.059 1133.75,563.855 1137.39,564.822 L 1138.26,565.058 L 1138.55,565.924 C 1140.5,571.893 1144.27,576.755 1149.73,580.372 C 1151.93,581.819 1154.25,582.93 1156.26,583.855 C 1162.68,586.812 1167.42,589.824 1171.2,593.34 C 1172,594.089 1172.79,594.926 1173.56,595.742 C 1173.92,596.129 1174.27,596.499 1174.6,596.835 L 1174.59,596.831 Z"/><path fill="currentColor" d="M 1179.36,421.694 C 1180.21,422.624 1181,423.545 1181.85,424.403 C 1186.67,429.269 1192.38,432.828 1198.53,435.747 C 1200.45,436.66 1202.42,437.497 1204.26,438.561 C 1209.67,441.703 1213.31,446.241 1214.7,452.433 C 1214.89,453.312 1215.02,454.204 1215.21,455.217 C 1219.65,455.344 1223.61,456.425 1226.86,459.672 C 1230.06,462.873 1231.12,466.78 1231.32,471.108 C 1232.39,471.306 1233.35,471.441 1234.29,471.664 C 1240.26,473.073 1244.68,476.581 1247.79,481.771 C 1248.76,483.382 1249.54,485.115 1250.33,486.827 C 1253.04,492.72 1256.32,498.255 1260.76,503.033 C 1262.04,504.4 1263.44,505.65 1264.84,507.012 C 1263.87,507.9 1262.91,508.728 1262.01,509.62 C 1256.94,514.672 1253.3,520.687 1250.33,527.147 C 1249.67,528.586 1249.03,530.037 1248.25,531.412 C 1244.79,537.537 1239.73,541.474 1232.66,542.588 C 1232.3,542.647 1231.94,542.723 1231.59,542.799 C 1231.54,542.811 1231.5,542.874 1231.46,542.912 C 1230.9,553.411 1224.55,558.706 1215.69,558.807 C 1215.59,559.106 1215.41,559.426 1215.37,559.766 C 1214.42,566.723 1210.67,571.779 1204.75,575.325 C 1203.35,576.166 1201.84,576.843 1200.35,577.525 C 1194.67,580.107 1189.31,583.207 1184.58,587.321 C 1182.84,588.835 1181.13,590.375 1179.4,591.902 C 1178.37,590.85 1177.13,589.445 1175.75,588.171 C 1170.84,583.599 1165.11,580.297 1159.05,577.504 C 1157.12,576.616 1155.18,575.687 1153.42,574.517 C 1148.35,571.169 1145.18,566.496 1144.13,560.46 C 1144.04,559.926 1143.94,559.396 1143.82,558.723 C 1139.46,558.626 1135.61,557.394 1132.34,554.336 C 1129.01,551.219 1127.91,547.337 1127.77,542.904 C 1127.22,542.778 1126.71,542.626 1126.2,542.542 C 1119.71,541.495 1114.87,537.995 1111.45,532.493 C 1110.45,530.899 1109.66,529.175 1108.88,527.463 C 1106.13,521.448 1102.81,515.795 1098.29,510.924 C 1097.02,509.553 1095.62,508.308 1094.2,506.928 C 1095.08,506.137 1095.95,505.397 1096.76,504.602 C 1101.22,500.261 1104.58,495.134 1107.37,489.611 C 1108.19,487.984 1108.91,486.301 1109.68,484.648 C 1111.2,481.418 1113.16,478.511 1115.89,476.16 C 1118.82,473.636 1122.18,472.029 1126.01,471.432 C 1126.55,471.348 1127.08,471.218 1127.78,471.075 C 1127.82,466.582 1128.96,462.688 1132.17,459.508 C 1135.32,456.387 1139.19,455.318 1143.42,455.243 C 1143.68,453.939 1143.86,452.799 1144.15,451.684 C 1145.64,445.955 1149.13,441.732 1154.12,438.712 C 1155.57,437.833 1157.14,437.127 1158.69,436.424 C 1164.82,433.635 1170.58,430.27 1175.53,425.644 C 1176.85,424.411 1178.05,423.053 1179.37,421.69 M 1179.43,416.802 L 1176.96,419.364 C 1176.53,419.805 1176.11,420.251 1175.7,420.689 C 1174.85,421.585 1174.06,422.43 1173.23,423.2 C 1169.08,427.082 1164.02,430.317 1157.29,433.379 L 1157.2,433.421 C 1155.62,434.144 1153.97,434.889 1152.38,435.852 C 1146.41,439.461 1142.55,444.504 1140.9,450.851 C 1140.79,451.268 1140.7,451.676 1140.61,452.088 C 1136.23,452.622 1132.67,454.288 1129.8,457.135 C 1126.82,460.088 1125.1,463.756 1124.58,468.286 C 1120.55,469.073 1116.89,470.864 1113.69,473.628 C 1110.81,476.109 1108.51,479.247 1106.63,483.226 C 1106.35,483.832 1106.07,484.446 1105.79,485.056 C 1105.31,486.116 1104.85,487.121 1104.36,488.101 C 1101.41,493.935 1098.16,498.549 1094.41,502.2 C 1093.91,502.688 1093.36,503.172 1092.79,503.681 C 1092.51,503.933 1092.22,504.186 1091.93,504.447 L 1089.28,506.848 L 1091.85,509.343 C 1092.31,509.793 1092.77,510.226 1093.22,510.655 C 1094.15,511.53 1095.03,512.358 1095.82,513.212 C 1099.63,517.322 1102.8,522.298 1105.81,528.868 C 1106.58,530.554 1107.45,532.464 1108.58,534.277 C 1112.44,540.481 1117.83,544.313 1124.61,545.68 C 1125.19,550.332 1126.94,553.907 1130.03,556.797 C 1133.07,559.644 1136.67,561.318 1140.97,561.882 C 1142.31,568.372 1145.87,573.563 1151.55,577.323 C 1153.55,578.644 1155.65,579.645 1157.63,580.558 C 1164.38,583.666 1169.41,586.867 1173.45,590.631 C 1174.34,591.452 1175.2,592.373 1175.97,593.189 C 1176.33,593.563 1176.66,593.921 1176.98,594.244 L 1179.21,596.541 L 1181.61,594.421 L 1183.23,592.978 C 1184.41,591.935 1185.59,590.892 1186.77,589.857 C 1190.78,586.37 1195.67,583.338 1201.73,580.583 L 1201.86,580.524 C 1203.38,579.834 1204.94,579.123 1206.47,578.206 C 1212.98,574.307 1216.98,568.856 1218.38,561.987 C 1227.23,560.902 1233.19,554.891 1234.55,545.65 C 1241.71,544.149 1247.29,539.922 1251.17,533.061 C 1251.9,531.762 1252.5,530.445 1253.09,529.175 L 1253.37,528.548 C 1256.61,521.507 1260.11,516.249 1264.38,511.997 C 1264.93,511.45 1265.53,510.911 1266.16,510.339 C 1266.48,510.058 1266.79,509.772 1267.11,509.481 L 1269.72,507.08 L 1267.18,504.606 C 1266.72,504.165 1266.27,503.736 1265.82,503.311 C 1264.89,502.436 1264.02,501.607 1263.22,500.754 C 1259.47,496.716 1256.34,491.845 1253.38,485.426 L 1253.17,484.98 C 1252.43,483.357 1251.66,481.678 1250.68,480.055 C 1246.99,473.901 1241.74,469.985 1235.07,468.408 C 1234.86,468.357 1234.65,468.311 1234.45,468.269 C 1233.99,464.892 1232.75,460.816 1229.24,457.308 C 1226.27,454.334 1222.67,452.643 1218.06,452.075 C 1218.04,451.953 1218.01,451.827 1217.98,451.705 C 1216.43,444.799 1212.38,439.402 1205.95,435.667 C 1204.44,434.788 1202.89,434.073 1201.39,433.383 C 1200.92,433.164 1200.44,432.946 1199.98,432.723 C 1193.33,429.568 1188.33,426.178 1184.25,422.052 C 1183.73,421.526 1183.22,420.954 1182.68,420.348 C 1182.41,420.045 1182.14,419.742 1181.86,419.44 L 1179.45,416.811 L 1179.43,416.802 Z"/></svg>