<svg xmlns="http://www.w3.org/2000/svg" viewBox="1305.5 -2.4 212.0 379.7" fill="none"><path fill="currentColor" d="M 1511.49,178.072 C 1511.5,149.585 1511.5,122.278 1511.5,111.606 C 1511.5,87.3933 1497.19,79.3377 1490.08,76.8341 C 1487.19,65.8889 1479.41,58.1796 1468.55,55.5114 C 1465.73,47.7453 1458.35,34.7393 1439.78,28.2903 C 1429.07,23.9303 1419.77,13.2803 1419.69,13.1781 L 1411.52,3.63513 L 1403.34,13.1554 C 1403.23,13.269 1393.95,23.919 1383.31,28.2562 C 1364.66,34.7393 1357.27,47.7453 1354.45,55.5114 C 1343.59,58.1852 1335.81,65.8889 1332.92,76.8341 C 1325.81,79.3377 1311.5,87.3933 1311.5,111.606 C 1311.5,122.278 1311.5,149.579 1311.51,178.06 L 1311.51,196.851 C 1311.5,225.338 1311.5,252.645 1311.5,263.306 C 1311.5,281.291 1319.43,290.289 1326.07,294.683 C 1328.17,296.062 1330.47,297.197 1332.91,298.043 C 1335.8,309.023 1343.57,316.732 1354.45,319.412 C 1357.27,327.178 1364.65,340.184 1383.22,346.633 C 1393.96,351.004 1403.25,361.654 1403.33,361.756 L 1411.48,371.288 L 1419.66,361.767 C 1419.77,361.654 1429.04,351.004 1439.69,346.667 C 1458.34,340.184 1465.73,327.178 1468.55,319.412 C 1479.41,316.738 1487.19,309.034 1490.08,298.089 C 1497.19,295.585 1511.5,287.53 1511.5,263.306 C 1511.5,252.645 1511.5,225.344 1511.49,196.851 L 1511.49,178.072 Z M 1502.45,263.3 C 1502.45,286.4 1487.23,290.045 1482.18,290.612 C 1480.75,308.972 1466.15,311.089 1461.42,311.293 C 1460.58,316.249 1456.4,331.362 1436.51,338.174 C 1423.57,343.346 1412.89,355.739 1412.79,355.863 L 1411.5,357.368 L 1410.21,355.863 C 1410.11,355.739 1399.43,343.346 1386.41,338.151 C 1366.59,331.35 1362.41,316.249 1361.57,311.293 C 1356.86,311.089 1342.26,308.972 1340.82,290.612 C 1338.68,290.374 1334.84,289.607 1331.06,287.115 C 1326.26,283.959 1320.55,277.254 1320.55,263.3 C 1320.55,252.639 1320.55,225.338 1320.57,196.846 L 1320.57,178.055 C 1320.55,149.579 1320.55,122.261 1320.55,111.6 C 1320.55,88.5117 1335.77,84.8671 1340.82,84.2994 C 1342.25,65.94 1356.85,63.8225 1361.58,63.6181 C 1362.42,58.6621 1366.6,43.55 1386.49,36.7376 C 1399.43,31.5659 1410.11,19.173 1410.21,19.0481 L 1411.5,17.5324 L 1412.79,19.0481 C 1412.89,19.173 1423.57,31.5659 1436.59,36.7603 C 1456.41,43.5613 1460.59,58.6621 1461.43,63.6181 C 1466.14,63.8225 1480.74,65.94 1482.18,84.2994 C 1487.31,84.8898 1502.45,88.5684 1502.45,111.6 C 1502.45,122.261 1502.45,149.573 1502.43,178.066 L 1502.43,196.846 C 1502.45,225.333 1502.45,252.639 1502.45,263.3 Z"/></svg>