<svg xmlns="http://www.w3.org/2000/svg" viewBox="1305.5 401.2 212.0 210.9" fill="none"><path fill="currentColor" d="M 1504.96,501.064 C 1504.48,500.599 1504,500.146 1503.52,499.689 C 1502.64,498.857 1501.79,498.055 1501.09,497.3 C 1497.63,493.571 1494.7,489.005 1491.91,482.938 L 1491.69,482.481 C 1490.91,480.778 1490.02,478.847 1488.87,476.937 C 1484.83,470.198 1479.24,465.645 1472.23,463.355 C 1471.12,459.134 1469.1,455.595 1466.13,452.628 C 1463.06,449.567 1459.45,447.523 1455.15,446.441 C 1452.81,439.375 1448.04,433.601 1441.2,429.63 C 1439.44,428.609 1437.66,427.789 1436.1,427.069 C 1435.63,426.854 1435.16,426.638 1434.69,426.414 C 1428.44,423.448 1423.78,420.296 1420.02,416.506 C 1419.58,416.058 1419.1,415.527 1418.59,414.95 C 1418.3,414.631 1418.01,414.303 1417.71,413.979 L 1411.54,407.232 L 1405.19,413.798 C 1404.74,414.273 1404.3,414.734 1403.87,415.2 C 1403.05,416.058 1402.28,416.868 1401.56,417.554 C 1397.73,421.137 1392.98,424.155 1386.6,427.061 L 1386.5,427.104 C 1384.83,427.867 1382.93,428.729 1381.04,429.872 C 1374.32,433.929 1369.77,439.508 1367.49,446.476 C 1363.4,447.532 1359.86,449.528 1356.93,452.43 C 1353.82,455.508 1351.76,459.126 1350.71,463.381 C 1347.07,464.576 1343.71,466.494 1340.68,469.098 C 1337.17,472.125 1334.38,475.906 1332.15,480.649 C 1331.85,481.296 1331.55,481.947 1331.26,482.594 C 1330.79,483.633 1330.35,484.611 1329.88,485.525 C 1327.13,490.984 1324.12,495.265 1320.69,498.607 C 1320.21,499.072 1319.72,499.508 1319.21,499.956 C 1318.91,500.224 1318.6,500.499 1318.29,500.78 L 1311.5,506.924 L 1318.08,513.309 C 1318.57,513.783 1319.05,514.245 1319.54,514.702 C 1320.42,515.542 1321.26,516.336 1321.95,517.082 C 1325.47,520.88 1328.44,525.55 1331.29,531.771 C 1332.09,533.543 1333.11,535.751 1334.44,537.889 C 1338.46,544.352 1344.07,548.823 1350.8,551.014 C 1351.92,555.373 1354.07,559.007 1357.28,562.017 C 1360.32,564.862 1363.86,566.82 1367.87,567.889 C 1369.97,574.318 1374.12,579.69 1380.02,583.6 C 1382.38,585.148 1384.83,586.325 1386.94,587.295 C 1393.35,590.244 1398.08,593.232 1401.81,596.716 C 1402.59,597.436 1403.38,598.281 1404.14,599.096 C 1404.53,599.501 1404.89,599.876 1405.23,600.23 L 1410.94,606.111 L 1418.76,599.199 C 1419.96,598.143 1421.15,597.078 1422.35,596.026 C 1426.08,592.793 1430.68,589.951 1436.43,587.33 L 1436.59,587.261 C 1438.19,586.541 1440,585.713 1441.8,584.622 C 1448.58,580.574 1453.23,574.9 1455.51,568.044 C 1463.97,565.863 1470.02,559.732 1472.35,550.975 C 1479.56,548.595 1485.41,543.654 1489.46,536.466 C 1490.32,534.944 1491.02,533.431 1491.63,532.09 L 1491.92,531.452 C 1494.97,524.817 1498.22,519.901 1502.15,515.991 C 1502.63,515.517 1503.19,515.012 1503.79,514.469 C 1504.13,514.167 1504.47,513.865 1504.8,513.551 L 1511.5,507.398 L 1504.97,501.064 L 1504.96,501.064 Z M 1499.85,508.178 C 1499.52,508.472 1499.2,508.765 1498.89,509.045 C 1498.22,509.649 1497.59,510.213 1496.99,510.817 C 1492.42,515.357 1488.69,520.949 1485.26,528.404 L 1484.97,529.059 C 1484.39,530.322 1483.79,531.629 1483.09,532.875 C 1479.21,539.743 1473.52,543.818 1466.19,544.969 C 1466.11,544.986 1466.04,544.995 1465.97,545.003 C 1465.12,554.989 1459.05,561.111 1449.52,561.581 C 1448.51,568.751 1444.65,574.395 1438.04,578.357 C 1436.58,579.233 1435.03,579.931 1433.55,580.617 L 1433.39,580.686 C 1426.99,583.592 1421.81,586.812 1417.54,590.52 C 1416.32,591.585 1415.11,592.659 1413.9,593.737 L 1411.31,596.031 L 1410.45,595.147 C 1410.14,594.819 1409.8,594.461 1409.45,594.09 C 1408.64,593.232 1407.73,592.258 1406.77,591.365 C 1402.45,587.351 1397.11,583.95 1389.99,580.664 C 1388.03,579.763 1385.96,578.771 1384.05,577.508 C 1378.48,573.822 1375.09,568.691 1373.97,562.245 C 1373.92,561.995 1373.88,561.745 1373.83,561.491 C 1369.19,561.189 1365.39,559.615 1362.27,556.696 C 1359.16,553.79 1357.56,550.078 1357.23,545.059 C 1357.03,545.008 1356.84,544.964 1356.65,544.939 C 1349.84,543.839 1344.46,540.179 1340.64,534.039 C 1339.55,532.293 1338.69,530.404 1337.93,528.736 C 1334.74,521.79 1331.38,516.504 1327.3,512.123 C 1326.44,511.196 1325.52,510.325 1324.55,509.407 C 1324.09,508.967 1323.62,508.532 1323.16,508.075 L 1322.17,507.122 L 1323.19,506.204 C 1323.48,505.936 1323.77,505.678 1324.06,505.432 C 1324.65,504.906 1325.23,504.393 1325.78,503.85 C 1329.8,499.93 1333.27,495.024 1336.4,488.824 C 1336.93,487.776 1337.43,486.685 1337.91,485.625 C 1338.19,485.004 1338.48,484.387 1338.76,483.766 C 1340.55,479.968 1342.73,476.976 1345.44,474.639 C 1348.67,471.862 1352.37,470.133 1356.47,469.499 C 1356.72,469.456 1356.96,469.413 1357.22,469.353 C 1357.45,464.412 1359.01,460.665 1362.07,457.63 C 1364.98,454.741 1368.71,453.193 1373.44,452.93 C 1373.45,452.844 1373.47,452.766 1373.49,452.689 C 1373.64,451.831 1373.8,451.02 1374.01,450.205 C 1375.55,444.268 1379.19,439.53 1384.82,436.128 C 1386.34,435.21 1387.96,434.477 1389.53,433.765 L 1389.63,433.713 C 1396.74,430.471 1402.12,427.044 1406.54,422.891 C 1407.44,422.059 1408.28,421.163 1409.17,420.218 C 1409.59,419.779 1410.01,419.334 1410.44,418.886 L 1411.39,417.907 L 1412.32,418.912 C 1412.59,419.222 1412.88,419.533 1413.14,419.839 C 1413.72,420.477 1414.26,421.076 1414.83,421.654 C 1419.19,426.073 1424.51,429.682 1431.56,433.024 C 1432.04,433.256 1432.54,433.481 1433.03,433.709 C 1434.52,434.395 1436.07,435.102 1437.53,435.951 C 1443.58,439.465 1447.38,444.527 1448.84,451.011 C 1448.97,451.624 1449.09,452.249 1449.2,452.904 C 1454.19,453.232 1457.95,454.797 1460.96,457.802 C 1463.88,460.717 1465.44,464.403 1465.84,469.344 L 1465.87,469.344 C 1466.59,469.474 1467.27,469.586 1467.96,469.749 C 1474.21,471.228 1479.14,474.915 1482.6,480.701 C 1483.55,482.266 1484.32,483.934 1485.05,485.538 L 1485.27,486.013 C 1488.4,492.803 1491.72,497.969 1495.74,502.284 C 1496.59,503.211 1497.53,504.091 1498.5,505.009 C 1498.95,505.44 1499.41,505.867 1499.86,506.316 L 1500.84,507.26 L 1499.85,508.187 L 1499.85,508.178 Z"/></svg>