<svg xmlns="http://www.w3.org/2000/svg" viewBox="377.5 -6.0 212.0 386.9" fill="none"><path fill="currentColor" d="M 583.489,176.938 L 583.489,197.991 C 583.5,229.912 583.5,260.503 583.5,272.451 C 583.5,300.936 561.928,301.267 560.94,301.267 L 560.9,301.267 C 560.101,323.17 542.297,324.335 538.489,324.335 C 538.032,324.335 537.781,324.324 537.781,324.324 C 537.781,324.324 536.309,345.833 510.906,354.544 C 495.699,360.618 483.5,374.923 483.5,374.923 C 483.5,374.923 471.301,360.618 456.094,354.544 C 430.691,345.833 429.219,324.324 429.219,324.324 C 429.219,324.324 428.968,324.335 428.511,324.335 C 424.703,324.335 406.91,323.17 406.1,301.267 L 406.077,301.267 C 405.072,301.267 383.5,300.936 383.5,272.451 C 383.5,260.503 383.5,229.912 383.511,197.991 L 383.511,176.938 C 383.5,145.017 383.5,114.425 383.5,102.477 C 383.5,73.9925 405.072,73.6614 406.077,73.6614 L 406.1,73.6614 C 406.91,51.7582 424.703,50.5765 428.511,50.5765 C 428.968,50.5765 429.219,50.5994 429.219,50.5994 C 429.219,50.5994 430.691,29.0901 456.094,20.379 C 471.295,14.3053 483.494,0 483.494,0 C 483.494,0 495.693,14.3053 510.9,20.379 C 536.303,29.0901 537.776,50.5994 537.776,50.5994 C 537.776,50.5994 538.027,50.5765 538.483,50.5765 C 542.291,50.5765 560.095,51.7582 560.895,73.6614 L 560.935,73.6614 C 561.922,73.6614 583.494,73.9925 583.494,102.477 C 583.494,114.425 583.494,145.017 583.483,176.938 L 583.489,176.938 Z"/></svg>