<svg xmlns="http://www.w3.org/2000/svg" viewBox="5.2 318.6 96.1 242.7" fill="none"><path fill="currentColor" d="M 70.71,334.31 C 73.11,337.14 75.48,339.93 77.89,342.77 C 81.24,338.81 83.09,333.93 83.38,328.29 C 83.44,327.05 83.47,325.81 83.47,324.57 L 74.34,324.57 C 74.35,325.95 74.16,327.33 73.76,328.71 C 73.13,330.91 72.05,332.77 70.71,334.31 Z M 38.09,334.57 C 40.94,331.23 43.77,327.91 46.62,324.56 L 60.6,324.56 C 55.46,330.62 50.29,336.7 45.1,342.81 C 42.73,340.03 40.38,337.26 38.09,334.56 L 38.09,334.57 Z M 23.25,327.66 C 23.16,326.63 23.06,325.59 23.08,324.57 L 32.22,324.57 C 32.22,326.21 32.53,327.85 33.17,329.43 C 33.84,331.1 34.73,332.75 35.83,334.07 C 41,340.32 46.28,346.45 51.53,352.62 C 51.77,352.9 52.06,353.12 52.23,353.29 C 49.75,356.22 47.36,359.03 44.96,361.87 C 39.7,355.67 34.26,349.38 28.95,342.94 C 26.4,339.85 24.54,336.18 23.76,331.89 C 23.51,330.5 23.39,329.08 23.26,327.67 L 23.25,327.66 Z M 26.55,425.16 C 27.27,424.02 28.03,422.91 28.74,421.84 C 31.18,424.73 33.55,427.52 35.87,430.26 C 35.03,431.62 33.98,432.92 33.34,434.45 C 32.57,436.29 32.2,438.12 32.22,439.93 C 32.22,441.57 32.53,443.21 33.17,444.8 C 33.84,446.47 34.73,448.12 35.83,449.44 C 41,455.69 46.28,461.82 51.53,467.99 C 51.77,468.27 52.06,468.49 52.23,468.66 C 49.75,471.59 47.36,474.4 44.96,477.24 C 39.7,471.04 34.26,464.75 28.95,458.31 C 26.4,455.22 24.54,451.55 23.76,447.26 C 23.51,445.87 23.39,444.45 23.26,443.04 C 23.17,442.01 23.07,440.97 23.09,439.95 C 23.09,439.77 23.09,439.58 23.09,439.4 C 23.21,434.33 23.92,429.41 26.56,425.17 L 26.55,425.16 Z M 38.18,372.78 C 45.88,363.71 53.65,354.55 61.33,345.5 C 63.65,348.23 66.03,351.04 68.37,353.8 C 60.77,362.75 52.99,371.91 45.22,381.08 C 42.87,378.31 40.51,375.53 38.18,372.78 Z M 78.72,380.06 C 78.43,380.48 78.14,380.9 77.91,381.24 C 75.43,378.32 73.1,375.57 70.72,372.77 C 72,371 73.32,369.11 73.87,366.66 C 74.81,362.47 74.38,358.54 71.84,355.31 C 68.44,350.99 64.86,346.87 61.34,342.68 C 59.05,339.95 56.73,337.26 54.42,334.55 C 56.86,331.68 59.22,328.89 61.48,326.23 C 66.37,331.95 71.26,337.83 76.3,343.51 C 79.5,347.12 81.87,351.22 82.88,356.32 C 83.15,357.7 83.31,359.12 83.37,360.54 C 83.45,362.39 83.45,364.25 83.37,366.09 C 83.18,370.77 82.06,375.09 79.56,378.83 C 79.28,379.25 78.98,379.65 78.69,380.07 L 78.72,380.06 Z M 28.91,383.59 C 31.1,386.18 33.28,388.79 35.5,391.34 C 35.98,391.9 35.87,392.21 35.5,392.73 C 34.79,393.7 34.04,394.66 33.5,395.75 C 32.37,398 32.15,400.44 32.42,403.05 C 32.78,406.56 34.35,409.17 36.39,411.56 C 41.45,417.48 46.49,423.44 51.53,429.38 C 51.77,429.66 52.04,429.9 52.22,430.08 C 49.75,432.99 47.36,435.79 44.96,438.62 C 39.62,432.32 34.1,425.95 28.73,419.43 C 26.23,416.39 24.5,412.7 23.7,408.52 C 23.44,407.17 23.38,405.77 23.25,404.39 C 23.18,403.65 23.04,402.89 23.08,402.15 C 23.22,399.73 23.34,397.29 23.64,394.89 C 24.13,390.98 26.28,386.16 28.92,383.58 L 28.91,383.59 Z M 32.84,358.95 C 31.65,363.55 32.28,367.83 35.02,371.4 C 37.86,375.1 40.9,378.58 43.89,382.11 C 46.51,385.2 49.19,388.23 51.85,391.28 C 52.16,391.64 52.41,391.95 51.98,392.44 C 49.74,395.07 47.51,397.71 45.23,400.39 C 44.94,400.07 44.69,399.81 44.46,399.53 C 39.76,394 35.11,388.41 30.35,382.96 C 28.38,380.7 26.63,378.28 25.36,375.44 C 24.34,373.15 23.62,370.69 23.43,368.08 C 23.3,366.33 23.05,364.58 23.09,362.84 C 23.18,358.4 23.63,354.01 25.66,350.12 C 26.59,348.34 27.69,346.69 28.69,345.01 C 31.2,347.97 33.56,350.76 35.99,353.63 C 34.68,355.19 33.41,356.8 32.85,358.94 L 32.84,358.95 Z M 37.87,411 C 45.75,401.94 53.66,392.85 61.5,383.83 C 63.73,386.46 66.11,389.26 68.48,392.05 C 60.76,401.14 52.94,410.36 45.14,419.55 C 42.79,416.78 40.42,414 37.88,411 L 37.87,411 Z M 80.99,414.66 C 80.07,416.41 78.98,418.03 78,419.66 C 75.47,416.68 73.11,413.9 70.71,411.07 C 72.01,409.53 73.09,407.73 73.71,405.56 C 74.86,401.51 74.45,397.73 72.27,394.28 C 71.76,393.48 71.16,392.75 70.56,392.04 C 65.37,385.91 60.18,379.78 54.96,373.68 C 54.4,373.02 54.34,372.64 54.94,371.96 C 57.1,369.49 59.21,366.95 61.41,364.34 C 61.65,364.61 61.87,364.84 62.07,365.09 C 67.33,371.29 72.66,377.42 77.84,383.72 C 80.55,387.01 82.41,390.96 83.02,395.57 C 83.28,397.54 83.59,399.54 83.54,401.52 C 83.42,406.08 83.11,410.66 80.99,414.68 L 80.99,414.66 Z M 90.41,439.93 L 90.41,555.3 L 89.34,555.3 L 89.34,324.56 L 90.41,324.56 L 90.41,439.93 Z M 13.29,439.93 L 13.29,555.3 L 11.16,555.3 L 11.16,324.56 L 13.29,324.56 L 13.29,439.93 Z M 17.06,439.93 L 17.06,555.3 L 15.99,555.3 L 15.99,324.56 L 17.06,324.56 L 17.06,439.93 Z M 83.37,443.66 C 83.08,449.3 81.23,454.18 77.88,458.14 C 75.47,455.3 73.1,452.51 70.7,449.68 C 72.04,448.14 73.12,446.28 73.75,444.08 C 74.15,442.7 74.34,441.31 74.33,439.94 C 74.36,437.09 73.57,434.22 71.88,432.1 C 68.86,428.31 65.7,424.66 62.62,420.93 C 59.93,417.68 57.25,414.41 54.66,411.27 C 56.89,408.64 59.23,405.89 61.81,402.84 C 61.85,402.94 61.95,403.37 62.18,403.64 C 66.82,409.13 71.41,414.69 76.15,420.06 C 78.52,422.75 80.57,425.65 81.8,429.22 C 82.47,431.17 82.85,433.27 83.2,435.34 C 83.46,436.83 83.49,438.41 83.47,439.94 C 83.47,441.18 83.45,442.43 83.38,443.66 L 83.37,443.66 Z M 46.62,439.93 C 51.64,434.01 56.42,428.1 61.44,422.19 C 63.75,424.91 66.12,427.7 68.43,430.42 C 65.75,433.57 63.3,436.76 60.6,439.93 C 55.46,445.99 50.29,452.07 45.1,458.18 C 42.73,455.4 40.38,452.63 38.09,449.93 C 40.94,446.59 43.77,443.27 46.62,439.92 L 46.62,439.93 Z M 68.42,545.79 C 65.74,548.94 63.29,552.13 60.59,555.3 L 46.61,555.3 C 51.63,549.38 56.41,543.47 61.43,537.56 C 63.74,540.28 66.11,543.07 68.42,545.79 Z M 83.19,550.71 C 83.45,552.2 83.48,553.78 83.46,555.31 L 74.33,555.31 C 74.36,552.46 73.57,549.59 71.88,547.47 C 68.86,543.68 65.7,540.03 62.62,536.3 C 59.93,533.05 57.25,529.78 54.66,526.64 C 56.89,524.01 59.23,521.26 61.81,518.21 C 61.85,518.31 61.95,518.74 62.18,519.01 C 66.82,524.5 71.41,530.06 76.15,535.43 C 78.52,538.12 80.57,541.02 81.8,544.59 C 82.47,546.54 82.85,548.64 83.2,550.71 L 83.19,550.71 Z M 33.34,549.83 C 32.57,551.67 32.2,553.5 32.22,555.31 L 23.08,555.31 C 23.08,555.13 23.08,554.94 23.08,554.76 C 23.2,549.69 23.91,544.77 26.55,540.53 C 27.27,539.39 28.03,538.28 28.74,537.21 C 31.18,540.1 33.55,542.89 35.87,545.63 C 35.03,546.99 33.98,548.29 33.34,549.82 L 33.34,549.83 Z M 38.18,488.15 C 45.88,479.08 53.65,469.92 61.33,460.87 C 63.65,463.6 66.03,466.41 68.37,469.17 C 60.77,478.12 52.99,487.28 45.22,496.45 C 42.87,493.68 40.51,490.9 38.18,488.15 Z M 78.72,495.44 C 78.43,495.86 78.14,496.28 77.91,496.62 C 75.43,493.7 73.1,490.95 70.72,488.15 C 72,486.38 73.32,484.49 73.87,482.04 C 74.81,477.85 74.38,473.92 71.84,470.69 C 68.44,466.37 64.86,462.25 61.34,458.06 C 59.05,455.33 56.73,452.64 54.42,449.93 C 56.86,447.06 59.22,444.27 61.48,441.61 C 66.37,447.33 71.26,453.21 76.3,458.89 C 79.5,462.5 81.87,466.6 82.88,471.7 C 83.15,473.08 83.31,474.5 83.37,475.92 C 83.45,477.77 83.45,479.63 83.37,481.47 C 83.18,486.15 82.06,490.47 79.56,494.21 C 79.28,494.63 78.98,495.03 78.69,495.45 L 78.72,495.44 Z M 28.91,498.97 C 31.1,501.56 33.28,504.17 35.5,506.72 C 35.98,507.28 35.87,507.59 35.5,508.11 C 34.79,509.08 34.04,510.04 33.5,511.13 C 32.37,513.38 32.15,515.82 32.42,518.43 C 32.78,521.94 34.35,524.56 36.39,526.94 C 41.45,532.86 46.49,538.82 51.53,544.76 C 51.77,545.04 52.04,545.28 52.22,545.46 C 49.75,548.37 47.36,551.17 44.96,554 C 39.62,547.7 34.1,541.33 28.73,534.81 C 26.23,531.77 24.5,528.08 23.7,523.9 C 23.44,522.55 23.38,521.15 23.25,519.77 C 23.18,519.03 23.04,518.27 23.08,517.53 C 23.22,515.11 23.34,512.67 23.64,510.27 C 24.13,506.36 26.28,501.54 28.92,498.96 L 28.91,498.97 Z M 25.65,465.49 C 26.58,463.71 27.68,462.06 28.68,460.38 C 31.19,463.34 33.55,466.13 35.98,469 C 34.67,470.56 33.4,472.17 32.84,474.31 C 31.65,478.91 32.28,483.19 35.02,486.76 C 37.86,490.46 40.9,493.94 43.89,497.47 C 46.51,500.56 49.19,503.59 51.85,506.64 C 52.16,507 52.41,507.31 51.98,507.8 C 49.74,510.43 47.51,513.07 45.23,515.75 C 44.94,515.43 44.69,515.17 44.46,514.89 C 39.76,509.36 35.11,503.77 30.35,498.32 C 28.38,496.06 26.63,493.64 25.36,490.8 C 24.34,488.51 23.62,486.05 23.43,483.44 C 23.3,481.69 23.05,479.94 23.09,478.2 C 23.18,473.76 23.63,469.37 25.66,465.48 L 25.65,465.49 Z M 68.48,507.43 C 60.76,516.52 52.94,525.74 45.14,534.93 C 42.79,532.16 40.42,529.38 37.88,526.38 C 45.76,517.32 53.67,508.23 61.51,499.21 C 63.74,501.84 66.12,504.64 68.49,507.43 L 68.48,507.43 Z M 73.71,520.93 C 74.86,516.88 74.45,513.1 72.27,509.65 C 71.76,508.85 71.16,508.12 70.56,507.41 C 65.37,501.28 60.18,495.15 54.96,489.05 C 54.4,488.39 54.34,488.01 54.94,487.33 C 57.1,484.86 59.21,482.32 61.41,479.71 C 61.65,479.98 61.87,480.21 62.07,480.46 C 67.33,486.66 72.66,492.79 77.84,499.09 C 80.55,502.38 82.41,506.33 83.02,510.94 C 83.28,512.91 83.59,514.91 83.54,516.89 C 83.42,521.45 83.11,526.03 80.99,530.05 C 80.07,531.8 78.98,533.42 78,535.05 C 75.47,532.07 73.11,529.29 70.71,526.46 C 72.01,524.92 73.09,523.12 73.71,520.95 L 73.71,520.93 Z M 95.25,555.31 L 93.12,555.31 L 93.12,324.57 L 95.25,324.57 L 95.25,555.31 Z"/></svg>