<svg xmlns="http://www.w3.org/2000/svg" viewBox="278.3 643.1 67.9 242.8" fill="none"><path fill="currentColor" d="M 340.13,871.39 C 340.13,844.58 324.81,833.6 318.22,830.11 C 318.62,829.66 319.01,829.21 319.4,828.77 C 322.18,825.63 325.06,822.38 327.67,818.84 C 329.46,816.4 331.08,813.85 332.49,811.24 C 334.64,807.26 336.14,803.26 337,799.28 C 337.03,799.17 337.05,799.05 337.07,798.94 C 337.14,798.62 337.2,798.3 337.26,797.98 C 337.84,794.87 338.03,791.65 337.64,788.38 C 337.64,788.32 337.62,788.26 337.62,788.2 C 337.56,787.74 337.49,787.27 337.41,786.8 C 337.38,786.64 337.35,786.49 337.32,786.33 C 337.26,786 337.19,785.66 337.11,785.33 C 337.05,785.06 336.98,784.79 336.92,784.52 C 336.88,784.35 336.83,784.18 336.78,784.02 C 336.24,782.08 335.51,780.2 334.57,778.43 C 330.94,771.58 324.7,767.86 318.23,767.99 C 315.29,768.05 312.29,768.9 309.47,770.62 C 302.01,775.18 299.31,785.55 303.46,793.75 C 304.88,796.56 307.15,798.79 309.85,800.03 C 310.3,800.24 310.77,800.33 311.24,800.33 C 312.62,800.33 313.94,799.43 314.51,797.94 C 315.26,795.96 314.42,793.68 312.61,792.85 C 311.36,792.27 310.34,791.28 309.68,789.97 C 308.59,787.81 308.33,785.32 308.94,782.95 C 309.56,780.58 310.98,778.61 312.94,777.42 C 314.67,776.36 316.52,775.84 318.33,775.81 C 322.32,775.76 326.18,778.09 328.44,782.34 C 328.6,782.65 328.76,782.97 328.91,783.29 C 334.5,795.4 326.09,808.94 320.57,815.93 C 318.54,818.51 316.32,821.05 314.16,823.5 C 313.65,824.08 313.14,824.67 312.63,825.25 C 311.67,826.34 310.7,827.45 309.76,828.58 C 305.58,833.57 300.94,839.47 298.82,846.48 C 297.71,850.14 297.77,853.82 298.99,856.84 C 299.44,857.96 299.98,858.87 300.56,859.64 C 301.88,861.94 303.82,863.63 306.47,863.67 C 307.65,863.69 308.98,863.21 309.43,862.02 C 310.43,859.38 307.12,857.11 306.01,855.26 C 305.14,853.8 304.62,852.09 304.45,850.36 C 304.1,846.93 305.08,843.31 307.29,840.82 C 309.18,838.7 311.94,837.5 314.63,837.79 C 316.5,837.99 318.27,838.88 319.82,840.05 C 325.71,844.52 329.81,851.72 331.67,859.23 C 332.64,863.18 333.06,867.29 333.06,871.38 L 333.06,879.86 L 340.14,879.86 L 340.14,871.38 L 340.13,871.39 Z M 333.05,656.65 L 333.05,649.31 L 340.13,649.31 L 340.13,656.65 C 340.13,684.67 324.68,695.58 318.11,698.95 C 318.54,699.44 318.98,699.93 319.4,700.42 C 322.18,703.56 325.06,706.81 327.67,710.35 C 329.46,712.78 331.08,715.34 332.49,717.95 C 334.64,721.94 336.14,725.95 337,729.93 C 337.02,730.03 337.04,730.13 337.06,730.22 C 337.13,730.55 337.2,730.88 337.26,731.21 C 337.84,734.31 338.02,737.53 337.64,740.8 C 337.64,740.86 337.62,740.92 337.62,740.97 C 337.56,741.44 337.49,741.91 337.41,742.38 C 337.38,742.53 337.36,742.68 337.33,742.84 C 337.27,743.18 337.19,743.52 337.11,743.86 C 337.05,744.12 336.99,744.39 336.92,744.65 C 336.87,744.83 336.82,745 336.77,745.18 C 336.23,747.12 335.5,748.99 334.57,750.75 C 330.94,757.6 324.7,761.32 318.23,761.19 C 315.29,761.13 312.29,760.28 309.47,758.56 C 305.86,756.35 303.24,752.73 302.1,748.36 C 300.96,743.99 301.45,739.4 303.45,735.43 C 304.87,732.62 307.14,730.39 309.84,729.15 C 310.29,728.94 310.77,728.85 311.23,728.85 C 312.61,728.85 313.93,729.75 314.5,731.24 C 315.25,733.22 314.41,735.5 312.6,736.33 C 311.35,736.91 310.33,737.9 309.67,739.21 C 308.58,741.36 308.32,743.86 308.93,746.23 C 309.55,748.6 310.97,750.57 312.93,751.76 C 314.66,752.82 316.51,753.34 318.32,753.37 C 322.31,753.43 326.17,751.09 328.43,746.83 C 328.59,746.52 328.75,746.21 328.9,745.88 C 334.49,733.77 326.08,720.24 320.56,713.25 C 318.53,710.68 316.31,708.14 314.15,705.68 C 313.64,705.1 313.13,704.52 312.62,703.93 C 311.66,702.83 310.69,701.72 309.74,700.59 C 306.69,696.96 303.4,692.83 301.02,688.14 C 300.97,688.05 300.92,687.97 300.88,687.88 C 300.46,687.21 300.1,686.48 299.83,685.73 C 298.72,683.84 298.19,681.66 298.14,679.44 C 297.85,676.9 298.12,674.45 298.98,672.32 C 300.37,668.88 302.47,667.23 304.54,666.51 C 304.89,666.53 305.24,666.58 305.58,666.66 C 306.12,666.63 306.65,666.72 307.14,666.97 C 307.54,667.18 307.85,667.48 308.09,667.83 C 308.13,667.86 308.18,667.89 308.22,667.92 C 308.24,667.98 308.25,668.05 308.27,668.11 C 308.68,668.9 308.74,669.89 308.39,670.8 C 308.16,671.4 307.83,671.91 307.43,672.37 C 307.41,672.42 307.38,672.46 307.36,672.51 C 306.32,673.77 305.15,675 304.63,676.52 C 304.56,676.71 304.51,676.9 304.46,677.09 C 304.46,677.1 304.46,677.12 304.45,677.13 C 304.45,677.16 304.44,677.18 304.43,677.21 C 304,678.51 303.91,679.93 304.11,681.35 C 304.35,684.53 306.11,687.69 308.54,689.42 C 310.14,690.56 312.06,691.14 313.97,691.1 C 315.68,691.06 318.02,690.33 319.44,689.25 C 325.25,684.84 333.05,675.43 333.05,656.62 L 333.05,656.65 Z M 314.92,873.83 C 312.1,875.55 309.1,876.41 306.16,876.46 C 299.69,876.59 293.45,872.87 289.82,866.02 C 288.88,864.26 288.16,862.38 287.62,860.45 C 287.57,860.27 287.52,860.1 287.47,859.92 C 287.4,859.66 287.34,859.39 287.28,859.13 C 287.2,858.79 287.13,858.45 287.07,858.12 C 287.04,857.97 287.01,857.82 286.99,857.66 C 286.91,857.19 286.84,856.72 286.78,856.25 C 286.78,856.19 286.76,856.13 286.76,856.08 C 286.37,852.82 286.56,849.6 287.14,846.49 C 287.2,846.16 287.27,845.83 287.34,845.5 C 287.36,845.4 287.38,845.3 287.4,845.2 C 288.26,841.22 289.76,837.2 291.91,833.22 C 293.32,830.61 294.94,828.05 296.73,825.62 C 299.33,822.08 302.21,818.83 305,815.69 C 305.43,815.21 305.86,814.71 306.29,814.22 C 299.72,810.85 284.27,799.94 284.27,771.92 L 284.27,756.11 C 284.27,729.3 299.59,718.32 306.18,714.83 C 305.78,714.38 305.39,713.93 305,713.49 C 302.22,710.35 299.34,707.1 296.73,703.56 C 294.94,701.12 293.32,698.57 291.91,695.96 C 289.76,691.98 288.26,687.98 287.4,684 C 287.37,683.89 287.35,683.77 287.33,683.66 C 287.26,683.34 287.2,683.02 287.14,682.7 C 286.56,679.59 286.37,676.37 286.76,673.1 C 286.76,673.04 286.78,672.98 286.78,672.92 C 286.84,672.45 286.91,671.99 286.99,671.52 C 287.02,671.36 287.05,671.21 287.08,671.05 C 287.14,670.72 287.21,670.38 287.29,670.05 C 287.35,669.78 287.41,669.51 287.48,669.24 C 287.52,669.07 287.57,668.9 287.62,668.73 C 288.16,666.79 288.89,664.91 289.83,663.15 C 293.46,656.3 299.7,652.58 306.17,652.71 C 309.12,652.77 312.11,653.62 314.93,655.34 C 322.39,659.9 325.09,670.27 320.94,678.47 C 319.52,681.28 317.25,683.51 314.55,684.75 C 314.1,684.96 313.63,685.05 313.16,685.05 C 311.78,685.05 310.46,684.15 309.89,682.66 C 309.14,680.68 309.98,678.4 311.79,677.57 C 313.04,676.99 314.06,676 314.72,674.69 C 315.81,672.53 316.07,670.04 315.46,667.67 C 314.84,665.3 313.42,663.33 311.46,662.14 C 310.79,661.73 310.11,661.41 309.42,661.16 C 309.35,661.14 309.28,661.11 309.22,661.09 C 308.97,661 308.72,660.93 308.46,660.87 C 308.34,660.84 308.23,660.81 308.11,660.78 C 307.93,660.74 307.75,660.71 307.57,660.68 C 306.52,660.51 305.48,660.5 304.45,660.65 C 303.34,660.81 302.26,661.16 301.24,661.68 C 301.24,661.68 301.24,661.68 301.24,661.69 C 299.13,662.77 297.28,664.58 295.96,667.06 C 295.8,667.37 295.64,667.69 295.49,668.01 C 289.9,680.12 298.31,693.66 303.83,700.65 C 305.86,703.23 308.08,705.77 310.24,708.22 C 310.75,708.8 311.26,709.39 311.78,709.98 C 312.74,711.07 313.7,712.18 314.65,713.31 C 318.83,718.3 323.47,724.2 325.59,731.21 C 326.7,734.87 326.64,738.55 325.42,741.57 C 324.95,742.74 324.39,743.7 323.78,744.49 C 322.46,746.73 320.54,748.36 317.94,748.4 C 316.76,748.42 315.43,747.94 314.98,746.75 C 313.98,744.11 317.29,741.84 318.4,739.99 C 319.27,738.54 319.79,736.82 319.96,735.09 C 320.31,731.66 319.33,728.04 317.12,725.55 C 315.23,723.43 312.47,722.23 309.78,722.52 C 307.91,722.72 306.14,723.61 304.59,724.78 C 298.7,729.25 294.6,736.45 292.74,743.96 C 291.77,747.91 291.35,752.02 291.35,756.11 L 291.35,771.92 C 291.35,790.73 299.15,800.14 304.96,804.55 C 306.38,805.62 308.72,806.36 310.42,806.4 C 312.33,806.44 314.25,805.87 315.85,804.72 C 318.28,802.99 320.04,799.83 320.28,796.65 C 320.49,795.23 320.39,793.81 319.96,792.51 C 319.96,792.48 319.95,792.46 319.94,792.43 C 319.94,792.42 319.94,792.4 319.93,792.39 C 319.88,792.2 319.82,792.01 319.76,791.82 C 319.24,790.3 318.07,789.07 317.03,787.81 C 317.01,787.76 316.98,787.72 316.96,787.67 C 316.57,787.21 316.23,786.7 316,786.1 C 315.45,784.65 315.93,782.96 317.25,782.26 C 318.14,781.79 319.21,781.85 320.13,782.25 C 321.05,782.64 321.84,783.34 322.53,784.11 C 326.35,788.39 327.59,795.82 324.55,801.01 C 324.28,801.76 323.92,802.48 323.5,803.16 C 323.45,803.25 323.4,803.33 323.36,803.42 C 320.98,808.1 317.69,812.23 314.64,815.87 C 313.69,817 312.72,818.11 311.76,819.21 C 311.25,819.79 310.74,820.38 310.24,820.96 C 308.09,823.42 305.87,825.96 303.83,828.53 C 298.32,835.52 289.9,849.06 295.49,861.16 C 295.64,861.48 295.79,861.8 295.96,862.11 C 298.22,866.37 302.08,868.7 306.07,868.65 C 307.88,868.62 309.73,868.1 311.46,867.04 C 313.42,865.84 314.84,863.88 315.46,861.51 C 316.08,859.14 315.81,856.64 314.72,854.49 C 314.06,853.18 313.04,852.18 311.79,851.61 C 309.99,850.78 309.14,848.5 309.89,846.52 C 310.46,845.03 311.77,844.13 313.15,844.13 C 313.61,844.13 314.08,844.22 314.54,844.43 C 317.24,845.67 319.5,847.9 320.93,850.71 C 322.94,854.68 323.42,859.28 322.28,863.64 C 321.14,868.01 318.53,871.63 314.91,873.84 L 314.92,873.83 Z M 298.56,774.67 C 297.46,771.7 296.79,768.29 296.79,764.6 C 296.79,760.91 297.46,757.5 298.56,754.53 C 300.04,758.55 302.36,761.7 305.15,763.35 C 306.06,763.89 306.06,765.32 305.15,765.86 C 302.36,767.5 300.05,770.66 298.56,774.68 L 298.56,774.67 Z M 287.12,722.9 C 286.02,719.93 285.35,716.52 285.35,712.83 C 285.35,709.14 286.02,705.73 287.12,702.76 C 288.6,706.78 290.92,709.93 293.71,711.58 C 294.62,712.12 294.62,713.55 293.71,714.09 C 290.92,715.73 288.61,718.89 287.12,722.91 L 287.12,722.9 Z M 338.36,689.81 C 339.46,692.78 340.13,696.19 340.13,699.88 C 340.13,703.57 339.46,706.98 338.36,709.95 C 336.88,705.93 334.56,702.78 331.77,701.13 C 330.86,700.59 330.86,699.16 331.77,698.62 C 334.56,696.98 336.87,693.82 338.36,689.8 L 338.36,689.81 Z M 338.36,816.36 C 339.46,819.33 340.13,822.74 340.13,826.43 C 340.13,830.12 339.46,833.53 338.36,836.5 C 336.88,832.48 334.56,829.33 331.77,827.68 C 330.86,827.14 330.86,825.71 331.77,825.17 C 334.56,823.53 336.87,820.37 338.36,816.35 L 338.36,816.36 Z M 338.36,755.19 C 339.46,758.16 340.13,761.57 340.13,765.26 C 340.13,768.95 339.46,772.36 338.36,775.33 C 336.88,771.31 334.56,768.16 331.77,766.51 C 330.86,765.97 330.86,764.54 331.77,764 C 334.56,762.36 336.87,759.2 338.36,755.18 L 338.36,755.19 Z M 287.12,826.43 C 286.02,823.46 285.35,820.05 285.35,816.36 C 285.35,812.67 286.02,809.26 287.12,806.29 C 288.6,810.31 290.92,813.46 293.71,815.11 C 294.62,815.65 294.62,817.08 293.71,817.62 C 290.92,819.26 288.61,822.42 287.12,826.44 L 287.12,826.43 Z M 325.73,659.21 C 324.25,655.19 321.93,652.04 319.14,650.39 C 318.68,650.12 318.46,649.62 318.46,649.12 L 327.49,649.12 C 327.49,649.12 327.49,649.12 327.49,649.13 C 327.49,652.82 326.82,656.23 325.72,659.2 L 325.73,659.21 Z M 327.5,879.87 L 318.47,879.87 C 318.47,879.38 318.7,878.9 319.15,878.63 C 321.94,876.99 324.25,873.83 325.74,869.81 C 326.83,872.78 327.51,876.18 327.51,879.87 L 327.5,879.87 Z M 285.35,649.14 C 285.35,649.14 285.35,649.14 285.35,649.13 L 294.38,649.13 C 294.38,649.63 294.16,650.13 293.7,650.4 C 290.91,652.04 288.6,655.2 287.11,659.22 C 286.01,656.25 285.34,652.84 285.34,649.15 L 285.35,649.14 Z M 287.12,869.81 C 288.6,873.83 290.92,876.98 293.71,878.63 C 294.16,878.9 294.38,879.38 294.39,879.87 L 285.36,879.87 C 285.36,876.19 286.03,872.78 287.13,869.81 L 287.12,869.81 Z"/></svg>