<svg xmlns="http://www.w3.org/2000/svg" viewBox="10.2 1292.2 86.0 242.8" fill="none"><path fill="currentColor" d="M 32.29,1507.88 C 34.26,1500.44 38.63,1493.3 44.91,1488.87 C 46.56,1487.71 48.44,1486.83 50.44,1486.63 C 53.3,1486.34 56.24,1487.53 58.25,1489.63 C 60.61,1492.1 61.65,1495.69 61.28,1499.09 C 61.09,1500.8 60.55,1502.5 59.62,1503.94 C 58.44,1505.78 54.91,1508.02 55.98,1510.64 C 56.46,1511.82 57.88,1512.29 59.13,1512.28 C 61.9,1512.24 63.94,1510.63 65.35,1508.41 C 66,1507.63 66.59,1506.68 67.1,1505.52 C 68.4,1502.53 68.46,1498.88 67.28,1495.25 C 65.02,1488.3 60.08,1482.45 55.63,1477.51 C 54.62,1476.39 53.6,1475.3 52.57,1474.21 C 52.02,1473.63 51.48,1473.04 50.93,1472.47 C 48.64,1470.03 46.27,1467.51 44.11,1464.96 C 38.24,1458.03 29.28,1444.61 35.23,1432.6 C 35.39,1432.28 35.55,1431.97 35.73,1431.66 C 37.13,1429.21 39.11,1427.41 41.35,1426.34 C 41.35,1426.34 41.35,1426.34 41.35,1426.33 C 42.44,1425.81 43.59,1425.47 44.77,1425.3 C 45.86,1425.15 46.98,1425.16 48.09,1425.33 C 48.28,1425.36 48.47,1425.39 48.67,1425.43 C 48.79,1425.46 48.92,1425.49 49.04,1425.52 C 49.31,1425.59 49.58,1425.66 49.84,1425.74 C 49.91,1425.76 49.98,1425.79 50.06,1425.81 C 50.8,1426.06 51.52,1426.38 52.23,1426.78 C 54.32,1427.97 55.83,1429.92 56.49,1432.27 C 57.15,1434.62 56.87,1437.09 55.71,1439.23 C 55,1440.53 53.92,1441.52 52.59,1442.09 C 50.67,1442.91 49.77,1445.17 50.57,1447.13 C 51.17,1448.61 52.57,1449.5 54.05,1449.5 C 54.54,1449.5 55.04,1449.41 55.53,1449.2 C 58.4,1447.97 60.82,1445.76 62.33,1442.97 C 66.75,1434.84 63.87,1424.56 55.92,1420.04 C 52.91,1418.33 49.72,1417.49 46.59,1417.43 C 39.7,1417.3 33.06,1420.99 29.19,1427.78 C 28.19,1429.53 27.41,1431.39 26.84,1433.32 C 26.79,1433.49 26.74,1433.65 26.69,1433.82 C 26.62,1434.09 26.55,1434.35 26.48,1434.62 C 26.4,1434.95 26.32,1435.28 26.25,1435.61 C 26.22,1435.76 26.19,1435.92 26.16,1436.07 C 26.07,1436.53 26,1436.99 25.94,1437.46 C 25.94,1437.52 25.92,1437.58 25.92,1437.64 C 25.51,1440.88 25.7,1444.07 26.33,1447.15 C 26.39,1447.47 26.46,1447.78 26.53,1448.1 C 26.56,1448.21 26.58,1448.32 26.61,1448.44 C 27.53,1452.38 29.12,1456.35 31.41,1460.3 C 32.91,1462.89 34.64,1465.42 36.55,1467.83 C 39.32,1471.34 42.39,1474.56 45.35,1477.68 C 45.77,1478.12 46.19,1478.57 46.61,1479.01 C 39.6,1482.46 23.27,1493.35 23.27,1519.93 L 23.27,1529 L 30.81,1529 L 30.81,1519.93 C 30.81,1515.87 31.25,1511.8 32.29,1507.88 Z M 62.08,1508.37 C 62.08,1509.22 61.41,1509.91 60.58,1509.91 C 59.75,1509.91 59.08,1509.22 59.08,1508.37 C 59.08,1507.52 59.75,1506.83 60.58,1506.83 C 61.41,1506.83 62.08,1507.52 62.08,1508.37 Z M 65.22,1503.87 C 65.22,1504.72 64.55,1505.41 63.72,1505.41 C 62.89,1505.41 62.22,1504.72 62.22,1503.87 C 62.22,1503.02 62.89,1502.33 63.72,1502.33 C 64.55,1502.33 65.22,1503.02 65.22,1503.87 Z M 65.89,1497.99 C 65.89,1498.84 65.22,1499.53 64.39,1499.53 C 63.56,1499.53 62.89,1498.84 62.89,1497.99 C 62.89,1497.14 63.56,1496.45 64.39,1496.45 C 65.22,1496.45 65.89,1497.14 65.89,1497.99 Z M 64.77,1492.88 C 64.77,1493.73 64.1,1494.42 63.27,1494.42 C 62.44,1494.42 61.77,1493.73 61.77,1492.88 C 61.77,1492.03 62.44,1491.34 63.27,1491.34 C 64.1,1491.34 64.77,1492.03 64.77,1492.88 Z M 62.31,1488.38 C 62.31,1489.23 61.64,1489.92 60.81,1489.92 C 59.98,1489.92 59.31,1489.23 59.31,1488.38 C 59.31,1487.53 59.98,1486.84 60.81,1486.84 C 61.64,1486.84 62.31,1487.53 62.31,1488.38 Z M 56.02,1444.99 C 56.02,1445.84 55.35,1446.53 54.52,1446.53 C 53.69,1446.53 53.02,1445.84 53.02,1444.99 C 53.02,1444.14 53.69,1443.45 54.52,1443.45 C 55.35,1443.45 56.02,1444.14 56.02,1444.99 Z M 59.69,1441.6 C 59.69,1442.45 59.02,1443.14 58.19,1443.14 C 57.36,1443.14 56.69,1442.45 56.69,1441.6 C 56.69,1440.75 57.36,1440.07 58.19,1440.07 C 59.02,1440.07 59.69,1440.76 59.69,1441.6 Z M 61.84,1436.11 C 61.84,1436.96 61.17,1437.65 60.34,1437.65 C 59.51,1437.65 58.84,1436.96 58.84,1436.11 C 58.84,1435.26 59.51,1434.57 60.34,1434.57 C 61.17,1434.57 61.84,1435.26 61.84,1436.11 Z M 61.04,1430.39 C 61.04,1431.24 60.37,1431.92 59.54,1431.92 C 58.71,1431.92 58.04,1431.23 58.04,1430.39 C 58.04,1429.55 58.71,1428.85 59.54,1428.85 C 60.37,1428.85 61.04,1429.54 61.04,1430.39 Z M 58.58,1426.04 C 58.58,1426.89 57.91,1427.58 57.08,1427.58 C 56.25,1427.58 55.58,1426.89 55.58,1426.04 C 55.58,1425.19 56.25,1424.5 57.08,1424.5 C 57.91,1424.5 58.58,1425.19 58.58,1426.04 Z M 54.77,1422.91 C 54.77,1423.76 54.1,1424.45 53.27,1424.45 C 52.44,1424.45 51.77,1423.76 51.77,1422.91 C 51.77,1422.06 52.44,1421.37 53.27,1421.37 C 54.1,1421.37 54.77,1422.06 54.77,1422.91 Z M 50.29,1421.54 C 50.29,1422.39 49.62,1423.08 48.79,1423.08 C 47.96,1423.08 47.29,1422.39 47.29,1421.54 C 47.29,1420.69 47.96,1420 48.79,1420 C 49.62,1420 50.29,1420.69 50.29,1421.54 Z M 44.09,1419.77 C 44.92,1419.77 45.59,1420.46 45.59,1421.31 C 45.59,1422.16 44.92,1422.84 44.09,1422.84 C 43.26,1422.84 42.59,1422.15 42.59,1421.31 C 42.59,1420.47 43.26,1419.77 44.09,1419.77 Z M 38.03,1422.68 C 38.03,1421.83 38.7,1421.14 39.53,1421.14 C 40.36,1421.14 41.03,1421.83 41.03,1422.68 C 41.03,1423.53 40.36,1424.22 39.53,1424.22 C 38.7,1424.22 38.03,1423.53 38.03,1422.68 Z M 33.71,1425.35 C 33.71,1424.5 34.38,1423.81 35.21,1423.81 C 36.04,1423.81 36.71,1424.5 36.71,1425.35 C 36.71,1426.2 36.04,1426.88 35.21,1426.88 C 34.38,1426.88 33.71,1426.19 33.71,1425.35 Z M 30.87,1429.24 C 30.87,1428.39 31.54,1427.7 32.37,1427.7 C 33.2,1427.7 33.87,1428.39 33.87,1429.24 C 33.87,1430.09 33.2,1430.78 32.37,1430.78 C 31.54,1430.78 30.87,1430.09 30.87,1429.24 Z M 29,1433.67 C 29,1432.82 29.67,1432.13 30.5,1432.13 C 31.33,1432.13 32,1432.82 32,1433.67 C 32,1434.52 31.33,1435.21 30.5,1435.21 C 29.67,1435.21 29,1434.52 29,1433.67 Z M 27.96,1439.01 C 27.96,1438.16 28.63,1437.47 29.46,1437.47 C 30.29,1437.47 30.96,1438.16 30.96,1439.01 C 30.96,1439.86 30.29,1440.55 29.46,1440.55 C 28.63,1440.55 27.96,1439.86 27.96,1439.01 Z M 27.96,1444.05 C 27.96,1443.2 28.63,1442.51 29.46,1442.51 C 30.29,1442.51 30.96,1443.2 30.96,1444.05 C 30.96,1444.9 30.29,1445.59 29.46,1445.59 C 28.63,1445.59 27.96,1444.9 27.96,1444.05 Z M 29.08,1449.54 C 29.08,1448.69 29.75,1448 30.58,1448 C 31.41,1448 32.08,1448.69 32.08,1449.54 C 32.08,1450.39 31.41,1451.07 30.58,1451.07 C 29.75,1451.07 29.08,1450.38 29.08,1449.54 Z M 31.17,1454.35 C 31.17,1453.5 31.84,1452.82 32.67,1452.82 C 33.5,1452.82 34.17,1453.51 34.17,1454.35 C 34.17,1455.19 33.5,1455.89 32.67,1455.89 C 31.84,1455.89 31.17,1455.2 31.17,1454.35 Z M 33.63,1459.31 C 33.63,1458.46 34.3,1457.77 35.13,1457.77 C 35.96,1457.77 36.63,1458.46 36.63,1459.31 C 36.63,1460.16 35.96,1460.85 35.13,1460.85 C 34.3,1460.85 33.63,1460.16 33.63,1459.31 Z M 36.69,1463.66 C 36.69,1462.81 37.36,1462.12 38.19,1462.12 C 39.02,1462.12 39.69,1462.81 39.69,1463.66 C 39.69,1464.51 39.02,1465.2 38.19,1465.2 C 37.36,1465.2 36.69,1464.51 36.69,1463.66 Z M 40.35,1468.01 C 40.35,1467.16 41.02,1466.47 41.85,1466.47 C 42.68,1466.47 43.35,1467.16 43.35,1468.01 C 43.35,1468.86 42.68,1469.54 41.85,1469.54 C 41.02,1469.54 40.35,1468.85 40.35,1468.01 Z M 44.15,1472.13 C 44.15,1471.28 44.82,1470.59 45.65,1470.59 C 46.48,1470.59 47.15,1471.28 47.15,1472.13 C 47.15,1472.98 46.48,1473.67 45.65,1473.67 C 44.82,1473.67 44.15,1472.98 44.15,1472.13 Z M 58.87,1484.18 C 58.87,1485.03 58.2,1485.72 57.37,1485.72 C 56.54,1485.72 55.87,1485.03 55.87,1484.18 C 55.87,1483.33 56.54,1482.64 57.37,1482.64 C 58.2,1482.64 58.87,1483.33 58.87,1484.18 Z M 48.18,1476.25 C 48.18,1475.4 48.85,1474.71 49.68,1474.71 C 50.51,1474.71 51.18,1475.4 51.18,1476.25 C 51.18,1477.1 50.51,1477.79 49.68,1477.79 C 48.85,1477.79 48.18,1477.1 48.18,1476.25 Z M 53.49,1478.83 C 54.32,1478.83 54.99,1479.52 54.99,1480.37 C 54.99,1481.22 54.32,1481.91 53.49,1481.91 C 52.66,1481.91 51.99,1481.22 51.99,1480.37 C 51.99,1479.52 52.66,1478.83 53.49,1478.83 Z M 47.31,1482.63 C 47.31,1481.78 47.98,1481.09 48.81,1481.09 C 49.64,1481.09 50.31,1481.78 50.31,1482.63 C 50.31,1483.48 49.64,1484.17 48.81,1484.17 C 47.98,1484.17 47.31,1483.48 47.31,1482.63 Z M 42.6,1485.29 C 42.6,1484.44 43.27,1483.75 44.1,1483.75 C 44.93,1483.75 45.6,1484.44 45.6,1485.29 C 45.6,1486.14 44.93,1486.82 44.1,1486.82 C 43.27,1486.82 42.6,1486.13 42.6,1485.29 Z M 37.98,1488.61 C 37.98,1487.76 38.65,1487.08 39.48,1487.08 C 40.31,1487.08 40.98,1487.77 40.98,1488.61 C 40.98,1489.45 40.31,1490.15 39.48,1490.15 C 38.65,1490.15 37.98,1489.46 37.98,1488.61 Z M 34.48,1492.32 C 34.48,1491.47 35.15,1490.78 35.98,1490.78 C 36.81,1490.78 37.48,1491.47 37.48,1492.32 C 37.48,1493.17 36.81,1493.86 35.98,1493.86 C 35.15,1493.86 34.48,1493.17 34.48,1492.32 Z M 31.35,1496.41 C 31.35,1495.56 32.02,1494.87 32.85,1494.87 C 33.68,1494.87 34.35,1495.56 34.35,1496.41 C 34.35,1497.26 33.68,1497.94 32.85,1497.94 C 32.02,1497.94 31.35,1497.25 31.35,1496.41 Z M 28.73,1501.26 C 28.73,1500.41 29.4,1499.72 30.23,1499.72 C 31.06,1499.72 31.73,1500.41 31.73,1501.26 C 31.73,1502.11 31.06,1502.8 30.23,1502.8 C 29.4,1502.8 28.73,1502.11 28.73,1501.26 Z M 26.98,1507.14 C 26.98,1506.29 27.65,1505.6 28.48,1505.6 C 29.31,1505.6 29.98,1506.29 29.98,1507.14 C 29.98,1507.99 29.31,1508.68 28.48,1508.68 C 27.65,1508.68 26.98,1507.99 26.98,1507.14 Z M 25.98,1513.28 C 25.98,1512.43 26.65,1511.75 27.48,1511.75 C 28.31,1511.75 28.98,1512.44 28.98,1513.28 C 28.98,1514.12 28.31,1514.82 27.48,1514.82 C 26.65,1514.82 25.98,1514.13 25.98,1513.28 Z M 28.61,1524.78 C 28.61,1525.63 27.94,1526.32 27.11,1526.32 C 26.28,1526.32 25.61,1525.63 25.61,1524.78 C 25.61,1523.93 26.28,1523.25 27.11,1523.25 C 27.94,1523.25 28.61,1523.94 28.61,1524.78 Z M 27.1,1520.43 C 26.27,1520.43 25.6,1519.74 25.6,1518.89 C 25.6,1518.04 26.27,1517.36 27.1,1517.36 C 27.93,1517.36 28.6,1518.05 28.6,1518.89 C 28.6,1519.73 27.93,1520.43 27.1,1520.43 Z M 80.88,1519.01 C 82.05,1521.96 82.77,1525.34 82.77,1528.99 L 80.86,1528.99 C 80.81,1528.18 80.18,1527.54 79.38,1527.54 C 78.58,1527.54 77.94,1528.18 77.9,1528.99 L 73.15,1528.99 C 73.15,1528.5 73.39,1528.02 73.88,1527.75 C 76.85,1526.12 79.32,1522.99 80.9,1519.01 L 80.88,1519.01 Z M 73.86,1462.93 C 72.89,1463.46 72.89,1464.88 73.86,1465.41 C 76.83,1467.04 79.3,1470.17 80.88,1474.15 C 82.05,1471.2 82.77,1467.82 82.77,1464.16 C 82.77,1460.5 82.05,1457.12 80.88,1454.17 C 79.3,1458.15 76.83,1461.28 73.86,1462.91 L 73.86,1462.93 Z M 81.12,1464.15 C 81.12,1465 80.45,1465.69 79.62,1465.69 C 78.79,1465.69 78.12,1465 78.12,1464.15 C 78.12,1463.3 78.79,1462.61 79.62,1462.61 C 80.45,1462.61 81.12,1463.3 81.12,1464.15 Z M 33.31,1478.25 C 34.28,1477.72 34.28,1476.3 33.31,1475.77 C 30.34,1474.14 27.87,1471.01 26.29,1467.03 C 25.12,1469.98 24.4,1473.36 24.4,1477.02 C 24.4,1480.68 25.12,1484.06 26.29,1487.01 C 27.87,1483.03 30.34,1479.9 33.31,1478.27 L 33.31,1478.25 Z M 26.42,1477.24 C 26.42,1476.39 27.09,1475.7 27.92,1475.7 C 28.75,1475.7 29.42,1476.39 29.42,1477.24 C 29.42,1478.09 28.75,1478.78 27.92,1478.78 C 27.09,1478.78 26.42,1478.09 26.42,1477.24 Z M 24.41,1413.86 C 24.41,1417.52 25.13,1420.9 26.3,1423.85 C 27.88,1419.87 30.35,1416.74 33.32,1415.11 C 33.81,1414.84 34.04,1414.45 34.04,1413.67 L 34.05,1413.67 C 34.05,1412.89 33.82,1412.5 33.33,1412.23 C 30.36,1410.6 27.89,1407.47 26.31,1403.49 C 25.14,1406.44 24.42,1409.82 24.42,1413.48 C 24.42,1413.48 24.42,1413.67 24.42,1413.68 L 24.41,1413.68 C 24.41,1413.68 24.41,1413.87 24.41,1413.88 L 24.41,1413.86 Z M 28.62,1411.94 C 29.45,1411.94 30.1,1412.49 30.12,1413.66 L 30.11,1413.66 C 30.09,1414.83 29.44,1415.38 28.61,1415.38 C 27.78,1415.38 27.13,1414.69 27.11,1413.66 L 27.12,1413.66 C 27.14,1412.63 27.79,1411.94 28.62,1411.94 Z M 90.19,1528.99 L 86.46,1528.99 L 86.46,1413.85 L 86.47,1413.85 L 86.47,1298.25 L 90.2,1298.25 L 90.2,1413.95 L 90.19,1413.95 L 90.19,1529 L 90.19,1528.99 Z M 74.64,1345.25 C 76.94,1341.3 78.53,1337.32 79.45,1333.37 C 79.47,1333.27 79.5,1333.18 79.52,1333.08 C 79.59,1332.75 79.67,1332.42 79.73,1332.09 C 80.35,1329.01 80.54,1325.82 80.13,1322.59 C 80.13,1322.53 80.11,1322.48 80.11,1322.42 C 80.05,1321.96 79.97,1321.49 79.89,1321.02 C 79.86,1320.87 79.83,1320.72 79.8,1320.57 C 79.73,1320.23 79.65,1319.9 79.57,1319.56 C 79.51,1319.3 79.44,1319.04 79.37,1318.78 C 79.32,1318.61 79.27,1318.43 79.21,1318.26 C 78.64,1316.34 77.86,1314.49 76.86,1312.74 C 72.99,1305.95 66.35,1302.26 59.45,1302.39 C 56.31,1302.44 53.12,1303.29 50.12,1305 C 46.27,1307.19 43.48,1310.78 42.27,1315.11 C 41.06,1319.44 41.57,1323.99 43.71,1327.93 C 45.23,1330.72 47.64,1332.93 50.51,1334.16 C 50.99,1334.37 51.5,1334.46 51.99,1334.46 C 53.46,1334.46 54.86,1333.57 55.47,1332.09 C 56.27,1330.13 55.37,1327.87 53.45,1327.05 C 52.11,1326.48 51.03,1325.49 50.33,1324.19 C 49.17,1322.05 48.89,1319.58 49.55,1317.23 C 50.21,1314.88 51.72,1312.93 53.81,1311.74 C 55.66,1310.69 57.62,1310.17 59.55,1310.14 C 63.8,1310.09 67.91,1312.4 70.32,1316.62 C 70.49,1316.93 70.66,1317.24 70.82,1317.56 C 76.78,1329.56 67.81,1342.98 61.94,1349.92 C 59.78,1352.47 57.41,1354.99 55.12,1357.43 C 54.58,1358 54.04,1358.58 53.49,1359.16 C 52.46,1360.25 51.43,1361.35 50.42,1362.47 C 47.17,1366.07 43.67,1370.17 41.13,1374.81 C 41.08,1374.9 41.03,1374.98 40.98,1375.06 C 40.53,1375.73 40.15,1376.45 39.86,1377.19 C 38.68,1379.06 38.12,1381.23 38.06,1383.43 C 37.75,1385.95 38.04,1388.38 38.95,1390.49 C 40.43,1393.9 42.67,1395.53 44.87,1396.25 C 45.25,1396.23 45.62,1396.18 45.98,1396.1 C 46.55,1396.13 47.12,1396.04 47.64,1395.79 C 48.06,1395.58 48.39,1395.28 48.65,1394.93 C 48.7,1394.9 48.75,1394.87 48.79,1394.84 C 48.81,1394.78 48.82,1394.71 48.84,1394.65 C 49.28,1393.87 49.34,1392.88 48.97,1391.99 C 48.73,1391.4 48.37,1390.89 47.95,1390.43 C 47.92,1390.38 47.9,1390.34 47.87,1390.29 C 46.76,1389.04 45.52,1387.82 44.96,1386.32 C 44.89,1386.13 44.83,1385.95 44.78,1385.76 C 44.78,1385.75 44.78,1385.73 44.77,1385.72 C 44.77,1385.69 44.76,1385.67 44.75,1385.64 C 44.29,1384.35 44.19,1382.94 44.41,1381.53 C 44.66,1378.38 46.54,1375.24 49.12,1373.53 C 50.83,1372.4 52.87,1371.83 54.9,1371.87 C 56.72,1371.91 59.21,1372.64 60.72,1373.7 C 66.91,1378.07 75.22,1387.4 75.22,1406.05 L 75.22,1414.07 L 75.21,1421.34 C 75.21,1439.99 66.91,1449.32 60.71,1453.69 C 59.2,1454.76 56.71,1455.48 54.89,1455.52 C 52.86,1455.56 50.81,1454.99 49.11,1453.86 C 46.53,1452.15 44.65,1449.01 44.4,1445.86 C 44.18,1444.45 44.28,1443.04 44.74,1441.75 C 44.74,1441.72 44.75,1441.7 44.76,1441.67 C 44.76,1441.66 44.76,1441.64 44.77,1441.63 C 44.82,1441.44 44.88,1441.26 44.95,1441.07 C 45.51,1439.56 46.75,1438.34 47.86,1437.1 C 47.89,1437.05 47.91,1437.01 47.94,1436.96 C 48.36,1436.5 48.72,1435.99 48.96,1435.4 C 49.33,1434.51 49.26,1433.52 48.83,1432.74 C 48.81,1432.68 48.8,1432.61 48.78,1432.55 C 48.73,1432.51 48.68,1432.49 48.64,1432.46 C 48.38,1432.11 48.05,1431.81 47.63,1431.6 C 47.11,1431.35 46.54,1431.26 45.97,1431.29 C 45.61,1431.22 45.24,1431.17 44.86,1431.14 C 42.66,1431.86 40.42,1433.49 38.94,1436.9 C 38.03,1439 37.74,1441.44 38.05,1443.96 C 38.11,1446.16 38.68,1448.33 39.85,1450.2 C 40.14,1450.94 40.52,1451.66 40.97,1452.33 C 41.02,1452.42 41.07,1452.5 41.12,1452.58 C 43.66,1457.22 47.16,1461.32 50.41,1464.92 C 51.42,1466.04 52.45,1467.14 53.48,1468.23 C 54.02,1468.81 54.57,1469.39 55.11,1469.96 C 57.4,1472.4 59.77,1474.92 61.93,1477.47 C 67.8,1484.4 76.77,1497.82 70.81,1509.83 C 70.65,1510.15 70.49,1510.46 70.31,1510.77 C 67.9,1514.99 63.79,1517.31 59.54,1517.25 C 57.61,1517.22 55.64,1516.7 53.8,1515.65 C 51.71,1514.46 50.2,1512.52 49.54,1510.16 C 48.88,1507.81 49.16,1505.34 50.32,1503.2 C 51.03,1501.9 52.11,1500.91 53.44,1500.34 C 55.36,1499.52 56.26,1497.26 55.46,1495.3 C 54.86,1493.82 53.46,1492.93 51.98,1492.93 C 51.49,1492.93 50.98,1493.02 50.5,1493.23 C 47.63,1494.46 45.21,1496.67 43.7,1499.46 C 41.56,1503.4 41.05,1507.95 42.26,1512.28 C 43.47,1516.61 46.26,1520.2 50.11,1522.39 C 53.12,1524.1 56.31,1524.94 59.44,1525 C 66.33,1525.13 72.97,1521.44 76.85,1514.65 C 77.85,1512.9 78.62,1511.05 79.2,1509.13 C 79.25,1508.96 79.31,1508.78 79.36,1508.61 C 79.43,1508.35 79.5,1508.09 79.56,1507.83 C 79.64,1507.49 79.72,1507.16 79.79,1506.82 C 79.82,1506.67 79.85,1506.52 79.88,1506.37 C 79.97,1505.9 80.04,1505.44 80.1,1504.97 C 80.1,1504.91 80.12,1504.86 80.12,1504.8 C 80.53,1501.56 80.34,1498.37 79.72,1495.3 C 79.66,1494.97 79.58,1494.64 79.51,1494.31 C 79.49,1494.21 79.47,1494.12 79.44,1494.02 C 78.52,1490.07 76.93,1486.09 74.63,1482.14 C 73.13,1479.55 71.4,1477.02 69.49,1474.61 C 66.72,1471.1 63.65,1467.88 60.68,1464.76 C 60.23,1464.28 59.76,1463.79 59.3,1463.31 C 66.29,1459.97 82.75,1449.16 82.75,1421.37 L 82.75,1414.16 L 82.76,1414.16 L 82.76,1406.08 C 82.76,1378.3 66.3,1367.48 59.31,1364.14 C 59.77,1363.65 60.23,1363.16 60.69,1362.69 C 63.66,1359.57 66.72,1356.35 69.5,1352.84 C 71.41,1350.43 73.14,1347.89 74.64,1345.31 L 74.64,1345.25 Z M 53.22,1330.33 C 53.22,1331.18 52.55,1331.87 51.72,1331.87 C 50.89,1331.87 50.22,1331.18 50.22,1330.33 C 50.22,1329.48 50.89,1328.79 51.72,1328.79 C 52.55,1328.79 53.22,1329.48 53.22,1330.33 Z M 49.37,1326.84 C 49.37,1327.69 48.7,1328.38 47.87,1328.38 C 47.04,1328.38 46.37,1327.69 46.37,1326.84 C 46.37,1325.99 47.04,1325.3 47.87,1325.3 C 48.7,1325.3 49.37,1325.99 49.37,1326.84 Z M 47.5,1321.98 C 47.5,1322.83 46.83,1323.51 46,1323.51 C 45.17,1323.51 44.5,1322.82 44.5,1321.98 C 44.5,1321.14 45.17,1320.44 46,1320.44 C 46.83,1320.44 47.5,1321.13 47.5,1321.98 Z M 47.62,1316.61 C 47.62,1317.46 46.95,1318.14 46.12,1318.14 C 45.29,1318.14 44.62,1317.45 44.62,1316.61 C 44.62,1315.77 45.29,1315.07 46.12,1315.07 C 46.95,1315.07 47.62,1315.76 47.62,1316.61 Z M 49.87,1311.75 C 49.87,1312.6 49.2,1313.29 48.37,1313.29 C 47.54,1313.29 46.87,1312.6 46.87,1311.75 C 46.87,1310.9 47.54,1310.22 48.37,1310.22 C 49.2,1310.22 49.87,1310.91 49.87,1311.75 Z M 65,1307.03 C 65,1307.88 64.33,1308.57 63.5,1308.57 C 62.67,1308.57 62,1307.88 62,1307.03 C 62,1306.18 62.67,1305.49 63.5,1305.49 C 64.33,1305.49 65,1306.18 65,1307.03 Z M 57.74,1305.23 C 58.57,1305.23 59.24,1305.92 59.24,1306.77 C 59.24,1307.62 58.57,1308.31 57.74,1308.31 C 56.91,1308.31 56.24,1307.62 56.24,1306.77 C 56.24,1305.92 56.91,1305.23 57.74,1305.23 Z M 50.74,1308.3 C 50.74,1307.45 51.41,1306.76 52.24,1306.76 C 53.07,1306.76 53.74,1307.45 53.74,1308.3 C 53.74,1309.15 53.07,1309.83 52.24,1309.83 C 51.41,1309.83 50.74,1309.14 50.74,1308.3 Z M 66.87,1309.07 C 66.87,1308.22 67.54,1307.53 68.37,1307.53 C 69.2,1307.53 69.87,1308.22 69.87,1309.07 C 69.87,1309.92 69.2,1310.61 68.37,1310.61 C 67.54,1310.61 66.87,1309.92 66.87,1309.07 Z M 70.74,1312.65 C 70.74,1311.8 71.41,1311.11 72.24,1311.11 C 73.07,1311.11 73.74,1311.8 73.74,1312.65 C 73.74,1313.5 73.07,1314.19 72.24,1314.19 C 71.41,1314.19 70.74,1313.5 70.74,1312.65 Z M 73.37,1317.51 C 73.37,1316.66 74.04,1315.97 74.87,1315.97 C 75.7,1315.97 76.37,1316.66 76.37,1317.51 C 76.37,1318.36 75.7,1319.05 74.87,1319.05 C 74.04,1319.05 73.37,1318.36 73.37,1317.51 Z M 74.74,1322.75 C 74.74,1321.9 75.41,1321.22 76.24,1321.22 C 77.07,1321.22 77.74,1321.91 77.74,1322.75 C 77.74,1323.59 77.07,1324.29 76.24,1324.29 C 75.41,1324.29 74.74,1323.6 74.74,1322.75 Z M 74.62,1328.37 C 74.62,1327.52 75.29,1326.84 76.12,1326.84 C 76.95,1326.84 77.62,1327.53 77.62,1328.37 C 77.62,1329.21 76.95,1329.91 76.12,1329.91 C 75.29,1329.91 74.62,1329.22 74.62,1328.37 Z M 73.49,1334.12 C 73.49,1333.27 74.16,1332.58 74.99,1332.58 C 75.82,1332.58 76.49,1333.27 76.49,1334.12 C 76.49,1334.97 75.82,1335.66 74.99,1335.66 C 74.16,1335.66 73.49,1334.97 73.49,1334.12 Z M 71.12,1340 C 71.12,1339.15 71.79,1338.46 72.62,1338.46 C 73.45,1338.46 74.12,1339.15 74.12,1340 C 74.12,1340.85 73.45,1341.54 72.62,1341.54 C 71.79,1341.54 71.12,1340.85 71.12,1340 Z M 68.24,1345.62 C 68.24,1344.77 68.91,1344.08 69.74,1344.08 C 70.57,1344.08 71.24,1344.77 71.24,1345.62 C 71.24,1346.47 70.57,1347.16 69.74,1347.16 C 68.91,1347.16 68.24,1346.47 68.24,1345.62 Z M 64.87,1350.22 C 64.87,1349.37 65.54,1348.69 66.37,1348.69 C 67.2,1348.69 67.87,1349.38 67.87,1350.22 C 67.87,1351.06 67.2,1351.76 66.37,1351.76 C 65.54,1351.76 64.87,1351.07 64.87,1350.22 Z M 46,1391.76 C 46,1392.61 45.33,1393.3 44.5,1393.3 C 43.67,1393.3 43,1392.61 43,1391.76 C 43,1390.91 43.67,1390.23 44.5,1390.23 C 45.33,1390.23 46,1390.92 46,1391.76 Z M 43.25,1387.67 C 43.25,1388.52 42.58,1389.21 41.75,1389.21 C 40.92,1389.21 40.25,1388.52 40.25,1387.67 C 40.25,1386.82 40.92,1386.13 41.75,1386.13 C 42.58,1386.13 43.25,1386.82 43.25,1387.67 Z M 42.87,1382.05 C 42.87,1382.9 42.2,1383.59 41.37,1383.59 C 40.54,1383.59 39.87,1382.9 39.87,1382.05 C 39.87,1381.2 40.54,1380.51 41.37,1380.51 C 42.2,1380.51 42.87,1381.2 42.87,1382.05 Z M 44.87,1376.68 C 44.87,1377.53 44.2,1378.22 43.37,1378.22 C 42.54,1378.22 41.87,1377.53 41.87,1376.68 C 41.87,1375.83 42.54,1375.14 43.37,1375.14 C 44.2,1375.14 44.87,1375.83 44.87,1376.68 Z M 42.98,1435.57 C 42.98,1434.72 43.65,1434.03 44.48,1434.03 C 45.31,1434.03 45.98,1434.72 45.98,1435.57 C 45.98,1436.42 45.31,1437.1 44.48,1437.1 C 43.65,1437.1 42.98,1436.41 42.98,1435.57 Z M 40.23,1439.66 C 40.23,1438.81 40.9,1438.12 41.73,1438.12 C 42.56,1438.12 43.23,1438.81 43.23,1439.66 C 43.23,1440.51 42.56,1441.2 41.73,1441.2 C 40.9,1441.2 40.23,1440.51 40.23,1439.66 Z M 39.85,1445.28 C 39.85,1444.43 40.52,1443.74 41.35,1443.74 C 42.18,1443.74 42.85,1444.43 42.85,1445.28 C 42.85,1446.13 42.18,1446.82 41.35,1446.82 C 40.52,1446.82 39.85,1446.13 39.85,1445.28 Z M 41.85,1450.65 C 41.85,1449.8 42.52,1449.11 43.35,1449.11 C 44.18,1449.11 44.85,1449.8 44.85,1450.65 C 44.85,1451.5 44.18,1452.19 43.35,1452.19 C 42.52,1452.19 41.85,1451.5 41.85,1450.65 Z M 50.21,1497 C 50.21,1496.15 50.88,1495.46 51.71,1495.46 C 52.54,1495.46 53.21,1496.15 53.21,1497 C 53.21,1497.85 52.54,1498.54 51.71,1498.54 C 50.88,1498.54 50.21,1497.85 50.21,1497 Z M 46.36,1500.49 C 46.36,1499.64 47.03,1498.95 47.86,1498.95 C 48.69,1498.95 49.36,1499.64 49.36,1500.49 C 49.36,1501.34 48.69,1502.03 47.86,1502.03 C 47.03,1502.03 46.36,1501.34 46.36,1500.49 Z M 44.48,1505.35 C 44.48,1504.5 45.15,1503.82 45.98,1503.82 C 46.81,1503.82 47.48,1504.51 47.48,1505.35 C 47.48,1506.19 46.81,1506.89 45.98,1506.89 C 45.15,1506.89 44.48,1506.2 44.48,1505.35 Z M 44.61,1510.72 C 44.61,1509.87 45.28,1509.19 46.11,1509.19 C 46.94,1509.19 47.61,1509.88 47.61,1510.72 C 47.61,1511.56 46.94,1512.26 46.11,1512.26 C 45.28,1512.26 44.61,1511.57 44.61,1510.72 Z M 46.86,1515.58 C 46.86,1514.73 47.53,1514.04 48.36,1514.04 C 49.19,1514.04 49.86,1514.73 49.86,1515.58 C 49.86,1516.43 49.19,1517.11 48.36,1517.11 C 47.53,1517.11 46.86,1516.42 46.86,1515.58 Z M 50.73,1519.03 C 50.73,1518.18 51.4,1517.5 52.23,1517.5 C 53.06,1517.5 53.73,1518.19 53.73,1519.03 C 53.73,1519.87 53.06,1520.57 52.23,1520.57 C 51.4,1520.57 50.73,1519.88 50.73,1519.03 Z M 56.23,1520.56 C 56.23,1519.71 56.9,1519.02 57.73,1519.02 C 58.56,1519.02 59.23,1519.71 59.23,1520.56 C 59.23,1521.41 58.56,1522.1 57.73,1522.1 C 56.9,1522.1 56.23,1521.41 56.23,1520.56 Z M 63.48,1521.84 C 62.65,1521.84 61.98,1521.15 61.98,1520.3 C 61.98,1519.45 62.65,1518.76 63.48,1518.76 C 64.31,1518.76 64.98,1519.45 64.98,1520.3 C 64.98,1521.15 64.31,1521.84 63.48,1521.84 Z M 69.86,1518.26 C 69.86,1519.11 69.19,1519.8 68.36,1519.8 C 67.53,1519.8 66.86,1519.11 66.86,1518.26 C 66.86,1517.41 67.53,1516.72 68.36,1516.72 C 69.19,1516.72 69.86,1517.41 69.86,1518.26 Z M 73.73,1514.68 C 73.73,1515.53 73.06,1516.22 72.23,1516.22 C 71.4,1516.22 70.73,1515.53 70.73,1514.68 C 70.73,1513.83 71.4,1513.14 72.23,1513.14 C 73.06,1513.14 73.73,1513.83 73.73,1514.68 Z M 76.36,1509.82 C 76.36,1510.67 75.69,1511.36 74.86,1511.36 C 74.03,1511.36 73.36,1510.67 73.36,1509.82 C 73.36,1508.97 74.03,1508.28 74.86,1508.28 C 75.69,1508.28 76.36,1508.97 76.36,1509.82 Z M 77.74,1504.58 C 77.74,1505.43 77.07,1506.11 76.24,1506.11 C 75.41,1506.11 74.74,1505.42 74.74,1504.58 C 74.74,1503.74 75.41,1503.04 76.24,1503.04 C 77.07,1503.04 77.74,1503.73 77.74,1504.58 Z M 77.61,1498.96 C 77.61,1499.81 76.94,1500.49 76.11,1500.49 C 75.28,1500.49 74.61,1499.8 74.61,1498.96 C 74.61,1498.12 75.28,1497.42 76.11,1497.42 C 76.94,1497.42 77.61,1498.11 77.61,1498.96 Z M 76.49,1493.21 C 76.49,1494.06 75.82,1494.75 74.99,1494.75 C 74.16,1494.75 73.49,1494.06 73.49,1493.21 C 73.49,1492.36 74.16,1491.67 74.99,1491.67 C 75.82,1491.67 76.49,1492.36 76.49,1493.21 Z M 74.11,1487.33 C 74.11,1488.18 73.44,1488.87 72.61,1488.87 C 71.78,1488.87 71.11,1488.18 71.11,1487.33 C 71.11,1486.48 71.78,1485.79 72.61,1485.79 C 73.44,1485.79 74.11,1486.48 74.11,1487.33 Z M 71.23,1481.71 C 71.23,1482.56 70.56,1483.25 69.73,1483.25 C 68.9,1483.25 68.23,1482.56 68.23,1481.71 C 68.23,1480.86 68.9,1480.17 69.73,1480.17 C 70.56,1480.17 71.23,1480.86 71.23,1481.71 Z M 67.86,1477.11 C 67.86,1477.96 67.19,1478.64 66.36,1478.64 C 65.53,1478.64 64.86,1477.95 64.86,1477.11 C 64.86,1476.27 65.53,1475.57 66.36,1475.57 C 67.19,1475.57 67.86,1476.26 67.86,1477.11 Z M 64.36,1472.63 C 64.36,1473.48 63.69,1474.17 62.86,1474.17 C 62.03,1474.17 61.36,1473.48 61.36,1472.63 C 61.36,1471.78 62.03,1471.09 62.86,1471.09 C 63.69,1471.09 64.36,1471.78 64.36,1472.63 Z M 60.61,1468.42 C 60.61,1469.27 59.94,1469.96 59.11,1469.96 C 58.28,1469.96 57.61,1469.27 57.61,1468.42 C 57.61,1467.57 58.28,1466.88 59.11,1466.88 C 59.94,1466.88 60.61,1467.57 60.61,1468.42 Z M 56.73,1463.81 C 56.73,1464.66 56.06,1465.35 55.23,1465.35 C 54.4,1465.35 53.73,1464.66 53.73,1463.81 C 53.73,1462.96 54.4,1462.28 55.23,1462.28 C 56.06,1462.28 56.73,1462.97 56.73,1463.81 Z M 50.36,1461 C 49.53,1461 48.86,1460.31 48.86,1459.46 C 48.86,1458.61 49.53,1457.92 50.36,1457.92 C 51.19,1457.92 51.86,1458.61 51.86,1459.46 C 51.86,1460.31 51.19,1461 50.36,1461 Z M 60.55,1458.76 C 60.55,1459.61 59.88,1460.3 59.05,1460.3 C 58.22,1460.3 57.55,1459.61 57.55,1458.76 C 57.55,1457.91 58.22,1457.22 59.05,1457.22 C 59.88,1457.22 60.55,1457.91 60.55,1458.76 Z M 44.98,1455.51 C 44.98,1454.66 45.65,1453.98 46.48,1453.98 C 47.31,1453.98 47.98,1454.67 47.98,1455.51 C 47.98,1456.35 47.31,1457.05 46.48,1457.05 C 45.65,1457.05 44.98,1456.36 44.98,1455.51 Z M 65.75,1455.22 C 65.75,1456.07 65.08,1456.76 64.25,1456.76 C 63.42,1456.76 62.75,1456.07 62.75,1455.22 C 62.75,1454.37 63.42,1453.69 64.25,1453.69 C 65.08,1453.69 65.75,1454.38 65.75,1455.22 Z M 69.79,1451.28 C 69.79,1452.13 69.12,1452.82 68.29,1452.82 C 67.46,1452.82 66.79,1452.13 66.79,1451.28 C 66.79,1450.43 67.46,1449.75 68.29,1449.75 C 69.12,1449.75 69.79,1450.44 69.79,1451.28 Z M 74.03,1446.55 C 74.03,1447.4 73.36,1448.09 72.53,1448.09 C 71.7,1448.09 71.03,1447.4 71.03,1446.55 C 71.03,1445.7 71.7,1445.01 72.53,1445.01 C 73.36,1445.01 74.03,1445.7 74.03,1446.55 Z M 77.3,1441.04 C 77.3,1441.89 76.63,1442.57 75.8,1442.57 C 74.97,1442.57 74.3,1441.88 74.3,1441.04 C 74.3,1440.2 74.97,1439.5 75.8,1439.5 C 76.63,1439.5 77.3,1440.19 77.3,1441.04 Z M 79.04,1434.74 C 79.04,1435.59 78.37,1436.28 77.54,1436.28 C 76.71,1436.28 76.04,1435.59 76.04,1434.74 C 76.04,1433.89 76.71,1433.2 77.54,1433.2 C 78.37,1433.2 79.04,1433.89 79.04,1434.74 Z M 79.81,1429.02 C 79.81,1429.87 79.14,1430.55 78.31,1430.55 C 77.48,1430.55 76.81,1429.86 76.81,1429.02 C 76.81,1428.18 77.48,1427.48 78.31,1427.48 C 79.14,1427.48 79.81,1428.17 79.81,1429.02 Z M 80.19,1423.31 C 80.19,1424.16 79.52,1424.85 78.69,1424.85 C 77.86,1424.85 77.19,1424.16 77.19,1423.31 C 77.19,1422.46 77.86,1421.77 78.69,1421.77 C 79.52,1421.77 80.19,1422.46 80.19,1423.31 Z M 80.58,1417.21 C 80.58,1418.06 79.91,1418.75 79.08,1418.75 C 78.25,1418.75 77.58,1418.06 77.58,1417.21 C 77.58,1416.36 78.25,1415.68 79.08,1415.68 C 79.91,1415.68 80.58,1416.37 80.58,1417.21 Z M 80.59,1410.12 C 80.59,1410.97 79.92,1411.65 79.09,1411.65 C 78.26,1411.65 77.59,1410.96 77.59,1410.12 C 77.59,1409.28 78.26,1408.58 79.09,1408.58 C 79.92,1408.58 80.59,1409.27 80.59,1410.12 Z M 80.21,1404.02 C 80.21,1404.87 79.54,1405.56 78.71,1405.56 C 77.88,1405.56 77.21,1404.87 77.21,1404.02 C 77.21,1403.17 77.88,1402.48 78.71,1402.48 C 79.54,1402.48 80.21,1403.17 80.21,1404.02 Z M 79.82,1398.31 C 79.82,1399.16 79.15,1399.85 78.32,1399.85 C 77.49,1399.85 76.82,1399.16 76.82,1398.31 C 76.82,1397.46 77.49,1396.78 78.32,1396.78 C 79.15,1396.78 79.82,1397.47 79.82,1398.31 Z M 79.05,1392.59 C 79.05,1393.44 78.38,1394.13 77.55,1394.13 C 76.72,1394.13 76.05,1393.44 76.05,1392.59 C 76.05,1391.74 76.72,1391.05 77.55,1391.05 C 78.38,1391.05 79.05,1391.74 79.05,1392.59 Z M 77.32,1386.29 C 77.32,1387.14 76.65,1387.83 75.82,1387.83 C 74.99,1387.83 74.32,1387.14 74.32,1386.29 C 74.32,1385.44 74.99,1384.76 75.82,1384.76 C 76.65,1384.76 77.32,1385.45 77.32,1386.29 Z M 74.04,1380.78 C 74.04,1381.63 73.37,1382.32 72.54,1382.32 C 71.71,1382.32 71.04,1381.63 71.04,1380.78 C 71.04,1379.93 71.71,1379.24 72.54,1379.24 C 73.37,1379.24 74.04,1379.93 74.04,1380.78 Z M 69.8,1376.05 C 69.8,1376.9 69.13,1377.58 68.3,1377.58 C 67.47,1377.58 66.8,1376.89 66.8,1376.05 C 66.8,1375.21 67.47,1374.51 68.3,1374.51 C 69.13,1374.51 69.8,1375.2 69.8,1376.05 Z M 65.76,1372.11 C 65.76,1372.96 65.09,1373.64 64.26,1373.64 C 63.43,1373.64 62.76,1372.95 62.76,1372.11 C 62.76,1371.27 63.43,1370.57 64.26,1370.57 C 65.09,1370.57 65.76,1371.26 65.76,1372.11 Z M 48,1371.82 C 48,1372.67 47.33,1373.35 46.5,1373.35 C 45.67,1373.35 45,1372.66 45,1371.82 C 45,1370.98 45.67,1370.28 46.5,1370.28 C 47.33,1370.28 48,1370.97 48,1371.82 Z M 60.56,1368.57 C 60.56,1369.42 59.89,1370.11 59.06,1370.11 C 58.23,1370.11 57.56,1369.42 57.56,1368.57 C 57.56,1367.72 58.23,1367.03 59.06,1367.03 C 59.89,1367.03 60.56,1367.72 60.56,1368.57 Z M 51.87,1367.86 C 51.87,1368.71 51.2,1369.4 50.37,1369.4 C 49.54,1369.4 48.87,1368.71 48.87,1367.86 C 48.87,1367.01 49.54,1366.32 50.37,1366.32 C 51.2,1366.32 51.87,1367.01 51.87,1367.86 Z M 56.75,1363.52 C 56.75,1364.37 56.08,1365.05 55.25,1365.05 C 54.42,1365.05 53.75,1364.36 53.75,1363.52 C 53.75,1362.68 54.42,1361.98 55.25,1361.98 C 56.08,1361.98 56.75,1362.67 56.75,1363.52 Z M 60.62,1358.91 C 60.62,1359.76 59.95,1360.45 59.12,1360.45 C 58.29,1360.45 57.62,1359.76 57.62,1358.91 C 57.62,1358.06 58.29,1357.37 59.12,1357.37 C 59.95,1357.37 60.62,1358.06 60.62,1358.91 Z M 64.37,1354.7 C 64.37,1355.55 63.7,1356.24 62.87,1356.24 C 62.04,1356.24 61.37,1355.55 61.37,1354.7 C 61.37,1353.85 62.04,1353.16 62.87,1353.16 C 63.7,1353.16 64.37,1353.85 64.37,1354.7 Z M 46.62,1348.33 C 46.2,1348.77 45.78,1349.22 45.36,1349.66 C 42.4,1352.78 39.33,1356 36.56,1359.51 C 34.65,1361.92 32.92,1364.46 31.42,1367.04 C 29.13,1370.98 27.53,1374.96 26.62,1378.9 C 26.59,1379.01 26.57,1379.12 26.54,1379.24 C 26.47,1379.56 26.4,1379.87 26.34,1380.19 C 25.72,1383.27 25.52,1386.46 25.93,1389.7 C 25.93,1389.76 25.95,1389.82 25.95,1389.88 C 26.01,1390.34 26.09,1390.8 26.17,1391.27 C 26.2,1391.43 26.23,1391.58 26.26,1391.73 C 26.33,1392.06 26.4,1392.39 26.49,1392.72 C 26.56,1392.99 26.62,1393.26 26.7,1393.52 C 26.75,1393.69 26.8,1393.85 26.85,1394.02 C 27.42,1395.94 28.2,1397.8 29.2,1399.56 C 33.07,1406.35 39.71,1410.04 46.6,1409.91 C 49.74,1409.86 52.93,1409.01 55.93,1407.3 C 63.88,1402.78 66.75,1392.5 62.34,1384.37 C 60.83,1381.58 58.41,1379.37 55.54,1378.14 C 55.06,1377.93 54.56,1377.84 54.06,1377.84 C 52.59,1377.84 51.19,1378.73 50.58,1380.21 C 49.78,1382.17 50.68,1384.43 52.6,1385.25 C 53.94,1385.82 55.02,1386.81 55.72,1388.11 C 56.88,1390.25 57.16,1392.72 56.5,1395.07 C 55.84,1397.42 54.33,1399.37 52.24,1400.56 C 51.53,1400.96 50.8,1401.28 50.07,1401.53 C 50,1401.55 49.93,1401.58 49.85,1401.6 C 49.58,1401.68 49.31,1401.76 49.05,1401.82 C 48.93,1401.85 48.8,1401.88 48.68,1401.91 C 48.49,1401.95 48.3,1401.98 48.1,1402.01 C 46.99,1402.18 45.87,1402.19 44.77,1402.04 C 43.59,1401.88 42.44,1401.53 41.35,1401.01 C 41.35,1401.01 41.35,1401.01 41.35,1401 C 39.11,1399.93 37.13,1398.13 35.73,1395.68 C 35.55,1395.37 35.39,1395.06 35.23,1394.74 C 29.28,1382.74 38.24,1369.31 44.11,1362.38 C 46.27,1359.83 48.64,1357.31 50.93,1354.87 C 51.47,1354.29 52.02,1353.71 52.57,1353.13 C 53.59,1352.05 54.62,1350.95 55.63,1349.83 C 60.08,1344.89 65.02,1339.03 67.28,1332.09 C 68.46,1328.46 68.39,1324.81 67.1,1321.82 C 66.6,1320.66 66,1319.71 65.35,1318.93 C 63.95,1316.71 61.9,1315.1 59.13,1315.06 C 57.88,1315.04 56.46,1315.52 55.98,1316.7 C 54.91,1319.32 58.44,1321.57 59.62,1323.4 C 60.55,1324.84 61.1,1326.54 61.28,1328.25 C 61.65,1331.65 60.61,1335.24 58.25,1337.71 C 56.24,1339.81 53.3,1341 50.43,1340.71 C 48.44,1340.51 46.55,1339.63 44.9,1338.47 C 38.62,1334.04 34.25,1326.9 32.28,1319.46 C 31.24,1315.54 30.8,1311.47 30.8,1307.41 L 30.8,1298.26 L 27.51,1298.26 C 27.37,1298.3 27.24,1298.35 27.09,1298.35 C 26.94,1298.35 26.81,1298.3 26.67,1298.26 L 23.25,1298.26 L 23.25,1307.41 C 23.25,1333.99 39.57,1344.88 46.59,1348.33 L 46.62,1348.33 Z M 53.03,1382.34 C 53.03,1381.49 53.7,1380.8 54.53,1380.8 C 55.36,1380.8 56.03,1381.49 56.03,1382.34 C 56.03,1383.19 55.36,1383.88 54.53,1383.88 C 53.7,1383.88 53.03,1383.19 53.03,1382.34 Z M 56.7,1385.73 C 56.7,1384.88 57.37,1384.19 58.2,1384.19 C 59.03,1384.19 59.7,1384.88 59.7,1385.73 C 59.7,1386.58 59.03,1387.26 58.2,1387.26 C 57.37,1387.26 56.7,1386.57 56.7,1385.73 Z M 58.85,1391.22 C 58.85,1390.37 59.52,1389.68 60.35,1389.68 C 61.18,1389.68 61.85,1390.37 61.85,1391.22 C 61.85,1392.07 61.18,1392.76 60.35,1392.76 C 59.52,1392.76 58.85,1392.07 58.85,1391.22 Z M 58.05,1396.94 C 58.05,1396.09 58.72,1395.41 59.55,1395.41 C 60.38,1395.41 61.05,1396.1 61.05,1396.94 C 61.05,1397.78 60.38,1398.48 59.55,1398.48 C 58.72,1398.48 58.05,1397.79 58.05,1396.94 Z M 38.05,1404.65 C 38.05,1403.8 38.72,1403.11 39.55,1403.11 C 40.38,1403.11 41.05,1403.8 41.05,1404.65 C 41.05,1405.5 40.38,1406.19 39.55,1406.19 C 38.72,1406.19 38.05,1405.5 38.05,1404.65 Z M 42.6,1406.02 C 42.6,1405.17 43.27,1404.49 44.1,1404.49 C 44.93,1404.49 45.6,1405.18 45.6,1406.02 C 45.6,1406.86 44.93,1407.56 44.1,1407.56 C 43.27,1407.56 42.6,1406.87 42.6,1406.02 Z M 48.8,1407.33 C 47.97,1407.33 47.3,1406.64 47.3,1405.79 C 47.3,1404.94 47.97,1404.25 48.8,1404.25 C 49.63,1404.25 50.3,1404.94 50.3,1405.79 C 50.3,1406.64 49.63,1407.33 48.8,1407.33 Z M 54.78,1404.42 C 54.78,1405.27 54.11,1405.96 53.28,1405.96 C 52.45,1405.96 51.78,1405.27 51.78,1404.42 C 51.78,1403.57 52.45,1402.88 53.28,1402.88 C 54.11,1402.88 54.78,1403.57 54.78,1404.42 Z M 55.59,1401.29 C 55.59,1400.44 56.26,1399.75 57.09,1399.75 C 57.92,1399.75 58.59,1400.44 58.59,1401.29 C 58.59,1402.14 57.92,1402.83 57.09,1402.83 C 56.26,1402.83 55.59,1402.14 55.59,1401.29 Z M 36.72,1401.98 C 36.72,1402.83 36.05,1403.52 35.22,1403.52 C 34.39,1403.52 33.72,1402.83 33.72,1401.98 C 33.72,1401.13 34.39,1400.45 35.22,1400.45 C 36.05,1400.45 36.72,1401.14 36.72,1401.98 Z M 33.89,1398.09 C 33.89,1398.94 33.22,1399.63 32.39,1399.63 C 31.56,1399.63 30.89,1398.94 30.89,1398.09 C 30.89,1397.24 31.56,1396.55 32.39,1396.55 C 33.22,1396.55 33.89,1397.24 33.89,1398.09 Z M 32.02,1393.66 C 32.02,1394.51 31.35,1395.2 30.52,1395.2 C 29.69,1395.2 29.02,1394.51 29.02,1393.66 C 29.02,1392.81 29.69,1392.12 30.52,1392.12 C 31.35,1392.12 32.02,1392.81 32.02,1393.66 Z M 30.97,1388.32 C 30.97,1389.17 30.3,1389.86 29.47,1389.86 C 28.64,1389.86 27.97,1389.17 27.97,1388.32 C 27.97,1387.47 28.64,1386.78 29.47,1386.78 C 30.3,1386.78 30.97,1387.47 30.97,1388.32 Z M 30.97,1383.28 C 30.97,1384.13 30.3,1384.82 29.47,1384.82 C 28.64,1384.82 27.97,1384.13 27.97,1383.28 C 27.97,1382.43 28.64,1381.74 29.47,1381.74 C 30.3,1381.74 30.97,1382.43 30.97,1383.28 Z M 32.09,1377.79 C 32.09,1378.64 31.42,1379.33 30.59,1379.33 C 29.76,1379.33 29.09,1378.64 29.09,1377.79 C 29.09,1376.94 29.76,1376.26 30.59,1376.26 C 31.42,1376.26 32.09,1376.95 32.09,1377.79 Z M 34.18,1372.98 C 34.18,1373.83 33.51,1374.51 32.68,1374.51 C 31.85,1374.51 31.18,1373.82 31.18,1372.98 C 31.18,1372.14 31.85,1371.44 32.68,1371.44 C 33.51,1371.44 34.18,1372.13 34.18,1372.98 Z M 36.65,1368.02 C 36.65,1368.87 35.98,1369.56 35.15,1369.56 C 34.32,1369.56 33.65,1368.87 33.65,1368.02 C 33.65,1367.17 34.32,1366.48 35.15,1366.48 C 35.98,1366.48 36.65,1367.17 36.65,1368.02 Z M 39.71,1363.67 C 39.71,1364.52 39.04,1365.21 38.21,1365.21 C 37.38,1365.21 36.71,1364.52 36.71,1363.67 C 36.71,1362.82 37.38,1362.13 38.21,1362.13 C 39.04,1362.13 39.71,1362.82 39.71,1363.67 Z M 43.36,1359.32 C 43.36,1360.17 42.69,1360.86 41.86,1360.86 C 41.03,1360.86 40.36,1360.17 40.36,1359.32 C 40.36,1358.47 41.03,1357.79 41.86,1357.79 C 42.69,1357.79 43.36,1358.48 43.36,1359.32 Z M 47.17,1355.2 C 47.17,1356.05 46.5,1356.74 45.67,1356.74 C 44.84,1356.74 44.17,1356.05 44.17,1355.2 C 44.17,1354.35 44.84,1353.66 45.67,1353.66 C 46.5,1353.66 47.17,1354.35 47.17,1355.2 Z M 59.09,1318.96 C 59.09,1318.11 59.76,1317.42 60.59,1317.42 C 61.42,1317.42 62.09,1318.11 62.09,1318.96 C 62.09,1319.81 61.42,1320.5 60.59,1320.5 C 59.76,1320.5 59.09,1319.81 59.09,1318.96 Z M 62.23,1323.46 C 62.23,1322.61 62.9,1321.92 63.73,1321.92 C 64.56,1321.92 65.23,1322.61 65.23,1323.46 C 65.23,1324.31 64.56,1325 63.73,1325 C 62.9,1325 62.23,1324.31 62.23,1323.46 Z M 62.9,1329.34 C 62.9,1328.49 63.57,1327.8 64.4,1327.8 C 65.23,1327.8 65.9,1328.49 65.9,1329.34 C 65.9,1330.19 65.23,1330.88 64.4,1330.88 C 63.57,1330.88 62.9,1330.19 62.9,1329.34 Z M 61.78,1334.45 C 61.78,1333.6 62.45,1332.91 63.28,1332.91 C 64.11,1332.91 64.78,1333.6 64.78,1334.45 C 64.78,1335.3 64.11,1335.99 63.28,1335.99 C 62.45,1335.99 61.78,1335.3 61.78,1334.45 Z M 59.32,1338.95 C 59.32,1338.1 59.99,1337.41 60.82,1337.41 C 61.65,1337.41 62.32,1338.1 62.32,1338.95 C 62.32,1339.8 61.65,1340.49 60.82,1340.49 C 59.99,1340.49 59.32,1339.8 59.32,1338.95 Z M 51.2,1351.08 C 51.2,1351.93 50.53,1352.62 49.7,1352.62 C 48.87,1352.62 48.2,1351.93 48.2,1351.08 C 48.2,1350.23 48.87,1349.54 49.7,1349.54 C 50.53,1349.54 51.2,1350.23 51.2,1351.08 Z M 55.01,1346.96 C 55.01,1347.81 54.34,1348.5 53.51,1348.5 C 52.68,1348.5 52.01,1347.81 52.01,1346.96 C 52.01,1346.11 52.68,1345.42 53.51,1345.42 C 54.34,1345.42 55.01,1346.11 55.01,1346.96 Z M 48.82,1346.23 C 47.99,1346.23 47.32,1345.54 47.32,1344.69 C 47.32,1343.84 47.99,1343.15 48.82,1343.15 C 49.65,1343.15 50.32,1343.84 50.32,1344.69 C 50.32,1345.54 49.65,1346.23 48.82,1346.23 Z M 58.89,1343.15 C 58.89,1344 58.22,1344.69 57.39,1344.69 C 56.56,1344.69 55.89,1344 55.89,1343.15 C 55.89,1342.3 56.56,1341.61 57.39,1341.61 C 58.22,1341.61 58.89,1342.3 58.89,1343.15 Z M 45.62,1342.04 C 45.62,1342.89 44.95,1343.58 44.12,1343.58 C 43.29,1343.58 42.62,1342.89 42.62,1342.04 C 42.62,1341.19 43.29,1340.51 44.12,1340.51 C 44.95,1340.51 45.62,1341.2 45.62,1342.04 Z M 40.99,1338.72 C 40.99,1339.57 40.32,1340.25 39.49,1340.25 C 38.66,1340.25 37.99,1339.56 37.99,1338.72 C 37.99,1337.88 38.66,1337.18 39.49,1337.18 C 40.32,1337.18 40.99,1337.87 40.99,1338.72 Z M 37.49,1335.01 C 37.49,1335.86 36.82,1336.55 35.99,1336.55 C 35.16,1336.55 34.49,1335.86 34.49,1335.01 C 34.49,1334.16 35.16,1333.47 35.99,1333.47 C 36.82,1333.47 37.49,1334.16 37.49,1335.01 Z M 34.37,1330.92 C 34.37,1331.77 33.7,1332.46 32.87,1332.46 C 32.04,1332.46 31.37,1331.77 31.37,1330.92 C 31.37,1330.07 32.04,1329.39 32.87,1329.39 C 33.7,1329.39 34.37,1330.08 34.37,1330.92 Z M 31.74,1326.07 C 31.74,1326.92 31.07,1327.61 30.24,1327.61 C 29.41,1327.61 28.74,1326.92 28.74,1326.07 C 28.74,1325.22 29.41,1324.53 30.24,1324.53 C 31.07,1324.53 31.74,1325.22 31.74,1326.07 Z M 29.99,1320.19 C 29.99,1321.04 29.32,1321.73 28.49,1321.73 C 27.66,1321.73 26.99,1321.04 26.99,1320.19 C 26.99,1319.34 27.66,1318.65 28.49,1318.65 C 29.32,1318.65 29.99,1319.34 29.99,1320.19 Z M 28.99,1314.05 C 28.99,1314.9 28.32,1315.58 27.49,1315.58 C 26.66,1315.58 25.99,1314.89 25.99,1314.05 C 25.99,1313.21 26.66,1312.51 27.49,1312.51 C 28.32,1312.51 28.99,1313.2 28.99,1314.05 Z M 25.62,1302.55 C 25.62,1301.7 26.29,1301.01 27.12,1301.01 C 27.95,1301.01 28.62,1301.7 28.62,1302.55 C 28.62,1303.4 27.95,1304.08 27.12,1304.08 C 26.29,1304.08 25.62,1303.39 25.62,1302.55 Z M 27.12,1306.9 C 27.95,1306.9 28.62,1307.59 28.62,1308.44 C 28.62,1309.29 27.95,1309.97 27.12,1309.97 C 26.29,1309.97 25.62,1309.28 25.62,1308.44 C 25.62,1307.6 26.29,1306.9 27.12,1306.9 Z M 73.87,1299.57 C 73.36,1299.29 73.14,1298.76 73.16,1298.25 L 77.87,1298.25 C 77.87,1299.1 78.54,1299.79 79.37,1299.79 C 80.2,1299.79 80.87,1299.1 80.87,1298.25 L 82.76,1298.25 C 82.76,1298.25 82.76,1298.3 82.76,1298.33 C 82.76,1301.99 82.04,1305.37 80.87,1308.32 C 79.29,1304.34 76.82,1301.21 73.85,1299.58 L 73.87,1299.57 Z M 73.87,1364.4 C 76.84,1366.03 79.31,1369.16 80.89,1373.14 C 82.06,1370.19 82.78,1366.81 82.78,1363.15 C 82.78,1359.49 82.06,1356.11 80.89,1353.16 C 79.31,1357.14 76.84,1360.27 73.87,1361.9 C 72.9,1362.43 72.9,1363.85 73.87,1364.38 L 73.87,1364.4 Z M 81.13,1363.18 C 81.13,1364.03 80.46,1364.72 79.63,1364.72 C 78.8,1364.72 78.13,1364.03 78.13,1363.18 C 78.13,1362.33 78.8,1361.64 79.63,1361.64 C 80.46,1361.64 81.13,1362.33 81.13,1363.18 Z M 33.33,1351.56 C 34.3,1351.03 34.3,1349.61 33.33,1349.08 C 30.36,1347.45 27.89,1344.32 26.31,1340.34 C 25.14,1343.29 24.42,1346.67 24.42,1350.33 C 24.42,1353.99 25.14,1357.37 26.31,1360.32 C 27.89,1356.34 30.36,1353.21 33.33,1351.58 L 33.33,1351.56 Z M 26.43,1350.09 C 26.43,1349.24 27.1,1348.55 27.93,1348.55 C 28.76,1348.55 29.43,1349.24 29.43,1350.09 C 29.43,1350.94 28.76,1351.63 27.93,1351.63 C 27.1,1351.63 26.43,1350.94 26.43,1350.09 Z M 69.31,1413.86 C 69.31,1413.86 69.31,1413.67 69.31,1413.66 L 69.32,1413.66 C 69.32,1413.66 69.32,1413.47 69.32,1413.46 C 69.32,1409.8 68.6,1406.42 67.43,1403.47 C 65.85,1407.45 63.38,1410.58 60.41,1412.21 C 59.92,1412.48 59.69,1412.9 59.69,1413.65 L 59.68,1413.65 C 59.68,1414.4 59.91,1414.82 60.4,1415.09 C 63.37,1416.72 65.84,1419.85 67.42,1423.83 C 68.59,1420.88 69.31,1417.5 69.31,1413.84 L 69.31,1413.86 Z M 64.29,1413.66 L 64.3,1413.66 C 64.3,1412.52 64.97,1411.94 65.8,1411.94 C 66.63,1411.94 67.28,1412.52 67.3,1413.66 L 67.29,1413.66 C 67.27,1414.8 66.62,1415.38 65.79,1415.38 C 64.96,1415.38 64.3,1414.8 64.29,1413.66 Z M 19.93,1413.95 L 19.93,1529 L 16.2,1529 L 16.2,1413.86 L 16.21,1413.86 L 16.21,1298.26 L 19.94,1298.26 L 19.94,1413.96 L 19.93,1413.96 L 19.93,1413.95 Z M 45.43,1528.99 L 40.68,1528.99 C 40.63,1528.18 40,1527.54 39.2,1527.54 C 38.4,1527.54 37.76,1528.18 37.72,1528.99 L 35.81,1528.99 C 35.81,1525.34 36.53,1521.96 37.7,1519.01 C 39.28,1522.99 41.75,1526.12 44.72,1527.75 C 45.2,1528.02 45.44,1528.5 45.45,1528.99 L 45.43,1528.99 Z M 35.79,1298.33 C 35.79,1298.33 35.79,1298.28 35.79,1298.25 L 37.68,1298.25 C 37.68,1299.1 38.35,1299.79 39.18,1299.79 C 40.01,1299.79 40.68,1299.1 40.68,1298.25 L 45.39,1298.25 C 45.42,1298.77 45.2,1299.29 44.68,1299.57 C 41.71,1301.2 39.24,1304.33 37.66,1308.31 C 36.49,1305.36 35.77,1301.98 35.77,1298.32 L 35.79,1298.33 Z"/></svg>