<svg xmlns="http://www.w3.org/2000/svg" viewBox="781.7 643.1 97.0 242.8" fill="none"><path fill="currentColor" d="M 818.6,710.54 C 815.74,714.18 812.76,717.98 809.92,721.61 C 821.65,735.62 832.85,748.99 844.36,762.74 C 847.22,758.96 850.19,755.04 852.88,751.49 C 841.19,737.52 830,724.15 818.6,710.53 L 818.6,710.54 Z M 833.44,665 C 837.96,659.63 842.38,654.38 846.81,649.12 L 865.07,649.12 C 864.18,650.6 863.3,652.08 862.25,653.52 C 856.51,661.42 849.81,668.34 843.21,676.1 C 839.96,672.4 836.8,668.81 833.44,664.99 L 833.44,665 Z M 828.05,750.3 C 816.26,759.4 803.3,761.71 789.13,758.15 C 786.1,741.08 787.54,724.67 796.52,710.65 C 803.1,700.37 811.25,691.52 819.13,681.48 C 822.8,685.51 825.99,689 829.4,692.74 C 828.26,694.19 827.39,695.36 826.46,696.46 C 821.64,702.18 816.75,707.82 811.97,713.61 C 805.34,721.65 801.77,731.26 801.61,742.96 C 807.83,743.66 813.21,741.17 818.69,738.16 C 821.74,742.12 824.77,746.06 828.05,750.32 L 828.05,750.3 Z M 858.81,662.85 C 861.55,660.12 864.16,657.22 866.94,654.26 C 869.65,658.77 871.27,664.44 872.06,670.37 C 874.23,686.78 870.68,701.2 860.82,713.16 C 855.14,720.05 849.31,726.79 843.25,733.95 C 840,729.92 837.06,726.26 833.82,722.24 C 835.26,720.52 836.82,718.65 838.38,716.8 C 842.36,712.1 846.34,707.41 850.32,702.71 C 858.36,693.22 860.62,681.86 857.6,669.06 C 856.96,666.38 857.01,664.64 858.81,662.85 Z M 806.01,693.17 C 802.66,696.64 799.26,700.16 795.91,703.63 C 789.22,694.01 785.58,674.79 789.22,657.32 C 804.99,653.48 819.69,656.41 832.25,668.95 C 839.58,676.26 846.09,684.73 853.38,693.16 C 850.27,697.32 847.39,701.18 844.32,705.29 C 843.12,704.03 842.22,703.18 841.4,702.21 C 836.77,696.72 832.14,691.22 827.54,685.7 C 821.94,678.98 815.36,674.43 807.48,672.81 C 805.69,672.44 803.85,672.42 801.8,672.21 C 801.21,679.88 803.6,686.24 806,693.18 L 806.01,693.17 Z M 865.07,879.87 L 846.87,879.87 C 848.36,878.17 849.85,876.47 851.25,874.67 C 858.47,865.4 860.54,854.51 857.67,842.45 C 856.95,839.42 857.08,837.43 859.15,835.44 C 861.74,832.94 864.15,830.18 866.98,827.17 C 871.17,835.23 873.06,844.33 872.67,854.02 C 872.28,863.71 869.51,872.31 865.07,879.88 L 865.07,879.87 Z M 852.88,866.87 C 850.2,870.41 847.22,874.34 844.36,878.12 C 832.84,864.37 821.65,851 809.92,836.99 C 812.77,833.36 815.75,829.56 818.6,825.92 C 830,839.54 841.18,852.91 852.88,866.88 L 852.88,866.87 Z M 846.81,764.5 L 846.86,764.5 C 848.35,762.8 849.84,761.1 851.24,759.3 C 858.46,750.03 860.53,739.14 857.66,727.08 C 856.94,724.05 857.07,722.06 859.14,720.07 C 861.73,717.58 864.14,714.81 866.97,711.8 C 871.16,719.86 873.05,728.96 872.66,738.65 C 872.27,748.34 869.5,756.94 865.06,764.51 C 864.17,765.99 863.29,767.47 862.24,768.91 C 856.5,776.81 849.8,783.73 843.2,791.49 C 839.95,787.79 836.79,784.2 833.43,780.38 C 837.95,775.01 842.37,769.76 846.8,764.5 L 846.81,764.5 Z M 828.05,865.67 C 816.26,874.77 803.3,877.08 789.13,873.52 C 786.1,856.45 787.54,840.04 796.52,826.02 C 803.1,815.74 811.25,806.89 819.13,796.85 C 822.8,800.88 825.99,804.37 829.4,808.11 C 828.26,809.56 827.39,810.73 826.46,811.83 C 821.64,817.55 816.75,823.19 811.97,828.98 C 805.34,837.02 801.77,846.63 801.61,858.33 C 807.83,859.03 813.21,856.54 818.69,853.53 C 821.74,857.49 824.77,861.43 828.05,865.69 L 828.05,865.67 Z M 858.81,778.23 C 861.55,775.5 864.16,772.6 866.94,769.64 C 869.65,774.15 871.27,779.82 872.06,785.75 C 874.23,802.16 870.68,816.58 860.82,828.54 C 855.14,835.43 849.31,842.17 843.25,849.33 C 840,845.3 837.06,841.64 833.82,837.62 C 835.26,835.9 836.82,834.03 838.38,832.18 C 842.36,827.48 846.34,822.79 850.32,818.09 C 858.36,808.6 860.62,797.24 857.6,784.44 C 856.96,781.76 857.01,780.02 858.81,778.23 Z M 806.01,808.54 C 802.66,812.01 799.26,815.53 795.91,819 C 789.22,809.38 785.58,790.16 789.22,772.69 C 804.99,768.85 819.69,771.78 832.25,784.32 C 839.58,791.63 846.09,800.1 853.38,808.53 C 850.27,812.69 847.39,816.55 844.32,820.66 C 843.12,819.4 842.22,818.55 841.4,817.58 C 836.77,812.09 832.14,806.59 827.54,801.07 C 821.94,794.35 815.36,789.8 807.48,788.18 C 805.69,787.81 803.85,787.79 801.8,787.58 C 801.21,795.25 803.6,801.61 806,808.55 L 806.01,808.54 Z"/></svg>