<svg xmlns="http://www.w3.org/2000/svg" viewBox="783.3 967.7 93.9 242.7" fill="none"><path fill="currentColor" d="M 845.9,1080.83 C 845.23,1081.61 844.57,1082.4 843.9,1083.18 L 848.91,1083.18 C 848.51,1082.31 847.98,1081.53 847.35,1080.83 L 845.9,1080.83 Z M 849.53,1084.95 C 849.73,1085.71 849.86,1086.5 849.91,1087.3 L 840.41,1087.3 C 841.08,1086.51 841.74,1085.73 842.41,1084.95 L 849.54,1084.95 L 849.53,1084.95 Z M 814.95,1080.83 C 815.6,1081.61 816.27,1082.39 816.94,1083.18 L 811.63,1083.18 C 811.98,1082.43 812.39,1081.7 812.94,1081.05 C 813,1080.97 813.07,1080.9 813.14,1080.83 L 814.95,1080.83 Z M 818.43,1084.95 C 819.1,1085.74 819.77,1086.53 820.43,1087.3 L 810.59,1087.3 C 810.65,1086.48 810.78,1085.7 810.98,1084.95 L 818.43,1084.95 Z M 817.06,977.81 C 816.42,978.59 815.78,979.38 815.12,980.16 L 812.85,980.16 C 812.33,979.41 811.87,978.64 811.51,977.81 L 817.06,977.81 Z M 820.46,973.69 C 819.8,974.48 819.16,975.26 818.52,976.04 L 810.92,976.04 C 810.73,975.3 810.61,974.51 810.57,973.69 L 820.46,973.69 Z M 849.92,973.69 C 849.88,974.49 849.76,975.27 849.57,976.04 L 842.29,976.04 C 841.65,975.24 841.01,974.45 840.38,973.69 L 849.93,973.69 L 849.92,973.69 Z M 848.99,977.81 C 848.62,978.65 848.13,979.43 847.55,980.16 L 845.64,980.16 C 845,979.38 844.36,978.6 843.72,977.81 L 848.98,977.81 L 848.99,977.81 Z M 836.48,1031.38 C 835.81,1032.16 835.15,1032.95 834.48,1033.73 L 825.71,1033.73 C 825.04,1032.94 824.38,1032.16 823.71,1031.38 L 836.47,1031.38 L 836.48,1031.38 Z M 832.98,1035.5 C 832.32,1036.28 831.65,1037.06 830.98,1037.85 L 829.16,1037.85 C 828.65,1037.23 828.13,1036.59 827.58,1035.93 C 827.46,1035.78 827.33,1035.64 827.21,1035.49 L 832.98,1035.49 L 832.98,1035.5 Z M 831.16,1023.14 C 831.81,1023.93 832.45,1024.72 833.09,1025.49 L 827.41,1025.49 C 828.07,1024.71 828.73,1023.94 829.4,1023.14 L 831.16,1023.14 Z M 834.53,1027.26 C 835.18,1028.05 835.82,1028.84 836.46,1029.61 L 823.92,1029.61 C 824.58,1028.84 825.25,1028.03 825.91,1027.26 L 834.53,1027.26 Z M 846.36,1041.97 C 846.49,1041.82 846.6,1041.69 846.73,1041.54 C 846.86,1041.67 846.95,1041.83 847.07,1041.97 L 846.37,1041.97 L 846.36,1041.97 Z M 848.35,1043.74 C 848.79,1044.49 849.12,1045.28 849.38,1046.09 L 842.85,1046.09 C 843.52,1045.31 844.17,1044.53 844.85,1043.74 L 848.35,1043.74 Z M 849.8,1051.98 C 849.66,1052.79 849.45,1053.58 849.14,1054.33 L 843.51,1054.33 C 842.84,1053.54 842.18,1052.76 841.51,1051.98 L 849.8,1051.98 Z M 848.21,1056.1 C 847.76,1056.79 847.25,1057.45 846.64,1058.02 C 846.09,1057.37 845.56,1056.75 845.01,1056.1 L 848.2,1056.1 L 848.21,1056.1 Z M 849.84,1047.86 C 849.97,1048.64 850.01,1049.43 849.99,1050.21 L 840.02,1050.21 C 839.91,1050.08 839.79,1049.94 839.68,1049.81 C 840.21,1049.18 840.8,1048.49 841.35,1047.85 L 849.84,1047.85 L 849.84,1047.86 Z M 815.72,1043.74 C 816.39,1044.53 817.05,1045.31 817.72,1046.09 L 811.15,1046.09 C 811.42,1045.28 811.76,1044.49 812.21,1043.74 L 815.73,1043.74 L 815.72,1043.74 Z M 819.09,1051.98 C 818.43,1052.75 817.76,1053.55 817.09,1054.33 L 811.38,1054.33 C 811.07,1053.56 810.84,1052.78 810.7,1051.98 L 819.1,1051.98 L 819.09,1051.98 Z M 813.84,1041.52 C 813.97,1041.67 814.09,1041.82 814.22,1041.97 L 813.48,1041.97 C 813.61,1041.82 813.7,1041.66 813.83,1041.52 L 813.84,1041.52 Z M 815.59,1056.1 C 814.99,1056.8 814.43,1057.47 813.83,1058.18 C 813.22,1057.53 812.71,1056.83 812.27,1056.1 L 815.59,1056.1 Z M 819.22,1047.86 C 819.78,1048.52 820.35,1049.19 820.9,1049.84 C 820.8,1049.96 820.69,1050.09 820.59,1050.21 L 810.53,1050.21 C 810.51,1049.42 810.55,1048.64 810.68,1047.86 L 819.22,1047.86 Z M 830.53,1076.7 C 830.44,1076.81 830.34,1076.93 830.24,1077.04 C 830.15,1076.93 830.05,1076.81 829.95,1076.7 L 830.52,1076.7 L 830.53,1076.7 Z M 834.03,1072.58 C 833.36,1073.36 832.7,1074.15 832.03,1074.93 L 828.46,1074.93 C 827.8,1074.15 827.13,1073.37 826.46,1072.58 L 834.03,1072.58 Z M 833.09,1064.34 C 833.76,1065.13 834.42,1065.91 835.09,1066.69 L 825.32,1066.69 C 825.99,1065.9 826.65,1065.12 827.32,1064.34 L 833.09,1064.34 Z M 830.2,1060.94 C 830.66,1061.48 831.13,1062.03 831.59,1062.57 L 828.82,1062.57 C 829.28,1062.03 829.75,1061.47 830.2,1060.94 Z M 836.59,1068.46 C 836.75,1068.64 836.9,1068.83 837.06,1069.01 C 836.56,1069.6 836.04,1070.21 835.53,1070.81 L 824.97,1070.81 C 824.44,1070.19 823.92,1069.58 823.4,1068.96 C 823.54,1068.79 823.68,1068.62 823.83,1068.46 L 836.6,1068.46 L 836.59,1068.46 Z M 814.47,1019.02 C 814.27,1019.26 814.07,1019.5 813.87,1019.73 C 813.65,1019.51 813.49,1019.25 813.29,1019.02 L 814.48,1019.02 L 814.47,1019.02 Z M 820.65,1010.78 C 820.79,1010.94 820.92,1011.1 821.06,1011.26 C 820.52,1011.9 820,1012.51 819.47,1013.13 L 810.67,1013.13 C 810.59,1012.48 810.52,1011.83 810.54,1011.12 C 810.54,1011 810.57,1010.89 810.57,1010.77 L 820.64,1010.77 L 820.65,1010.78 Z M 814.46,1003.5 C 814.85,1003.96 815.25,1004.42 815.64,1004.89 L 812.52,1004.89 C 812.66,1004.69 812.77,1004.48 812.93,1004.29 C 813.12,1004.06 813.38,1003.86 813.5,1003.59 C 813.8,1002.93 814.07,1003.04 814.46,1003.5 Z M 817.15,1006.66 C 817.82,1007.44 818.48,1008.23 819.15,1009.01 L 810.79,1009.01 C 810.95,1008.18 811.21,1007.4 811.53,1006.66 L 817.15,1006.66 Z M 817.97,1014.9 C 817.31,1015.68 816.64,1016.47 815.97,1017.25 L 812.04,1017.25 C 811.62,1016.52 811.3,1015.73 811.05,1014.9 L 817.96,1014.9 L 817.97,1014.9 Z M 847.16,1019.02 C 846.9,1019.31 846.67,1019.64 846.38,1019.9 C 846.15,1019.61 845.92,1019.32 845.69,1019.02 L 847.16,1019.02 Z M 849.93,1010.78 C 849.96,1011.57 849.92,1012.35 849.8,1013.13 L 840.87,1013.13 C 840.43,1012.63 839.98,1012.08 839.57,1011.6 C 839.8,1011.32 840.03,1011.05 840.27,1010.78 L 849.93,1010.78 Z M 849.41,1014.9 C 849.16,1015.73 848.83,1016.51 848.41,1017.25 L 844.29,1017.25 C 843.86,1016.71 843.45,1016.16 843.01,1015.63 C 842.8,1015.37 842.6,1015.15 842.38,1014.9 L 849.4,1014.9 L 849.41,1014.9 Z M 845.26,1004.89 C 845.72,1004.35 846.17,1003.81 846.63,1003.27 C 847.19,1003.75 847.66,1004.3 848.08,1004.89 L 845.26,1004.89 Z M 849.04,1006.66 C 849.36,1007.41 849.61,1008.2 849.77,1009.01 L 841.77,1009.01 C 842.43,1008.23 843.1,1007.44 843.76,1006.66 L 849.04,1006.66 Z M 835.41,994.3 C 834.74,995.09 834.08,995.86 833.41,996.65 L 827.27,996.65 C 826.6,995.86 825.94,995.08 825.27,994.3 L 835.41,994.3 Z M 831.91,998.42 C 831.39,999.04 830.86,999.66 830.34,1000.27 C 829.82,999.66 829.29,999.04 828.77,998.42 L 831.91,998.42 Z M 831.86,986.06 C 832.52,986.84 833.18,987.62 833.86,988.41 L 826.73,988.41 C 827.4,987.63 828.06,986.84 828.73,986.06 L 831.86,986.06 Z M 830.23,984.29 C 830.23,984.29 830.27,984.24 830.3,984.21 C 830.32,984.24 830.35,984.26 830.37,984.29 L 830.24,984.29 L 830.23,984.29 Z M 835.36,990.18 C 835.95,990.88 836.54,991.58 837.13,992.27 C 837.06,992.36 836.98,992.45 836.91,992.53 L 823.77,992.53 C 823.68,992.43 823.59,992.32 823.5,992.22 C 824.06,991.56 824.65,990.86 825.23,990.18 L 835.36,990.18 Z M 857.98,1033.73 C 857.46,1032.92 856.91,1032.13 856.34,1031.38 L 866.87,1031.38 L 866.87,1033.73 L 857.99,1033.73 L 857.98,1033.73 Z M 861.77,976.05 C 861.78,975.82 861.8,975.58 861.81,975.35 C 861.83,974.8 861.81,974.25 861.79,973.7 L 866.86,973.7 L 866.86,976.05 L 861.76,976.05 L 861.77,976.05 Z M 859.17,1025.49 C 859.58,1024.72 859.96,1023.95 860.26,1023.14 L 866.86,1023.14 L 866.86,1025.49 L 859.16,1025.49 L 859.17,1025.49 Z M 856.59,1029.61 C 857.12,1028.83 857.64,1028.04 858.15,1027.26 L 866.87,1027.26 L 866.87,1029.61 L 856.59,1029.61 Z M 861.71,1087.3 C 861.69,1086.51 861.63,1085.73 861.59,1084.95 L 866.86,1084.95 L 866.86,1087.3 L 861.71,1087.3 Z M 860.77,1021.37 C 860.98,1020.6 861.16,1019.81 861.29,1019.02 L 866.86,1019.02 L 866.86,1021.37 L 860.77,1021.37 Z M 860.38,984.29 C 860.66,983.52 860.89,982.74 861.06,981.94 L 866.86,981.94 L 866.86,984.29 L 860.38,984.29 Z M 861.68,1009.01 C 861.64,1008.22 861.59,1007.44 861.53,1006.66 L 866.86,1006.66 L 866.86,1009.01 L 861.68,1009.01 Z M 861.78,1013.13 C 861.78,1012.35 861.77,1011.56 861.74,1010.78 L 866.86,1010.78 L 866.86,1013.13 L 861.78,1013.13 Z M 858.76,996.65 C 858.76,996.65 858.71,996.55 858.68,996.5 C 858.23,995.73 857.74,994.99 857.26,994.3 L 866.87,994.3 L 866.87,996.65 L 858.76,996.65 Z M 860.59,1000.77 C 860.33,999.96 860.02,999.18 859.67,998.42 L 866.86,998.42 L 866.86,1000.77 L 860.59,1000.77 Z M 858.33,988.41 C 858.79,987.64 859.24,986.86 859.65,986.06 L 866.86,986.06 L 866.86,988.41 L 858.33,988.41 Z M 861.4,1004.89 C 861.33,1004.09 861.21,1003.3 861.05,1002.54 L 866.86,1002.54 L 866.86,1004.89 L 861.4,1004.89 Z M 861.4,980.17 C 861.51,979.39 861.6,978.61 861.66,977.82 L 866.86,977.82 L 866.86,980.17 L 861.4,980.17 Z M 855.92,992.39 C 856.37,991.64 856.83,990.91 857.28,990.18 L 866.86,990.18 L 866.86,992.53 L 856.02,992.53 C 856.02,992.53 855.95,992.43 855.92,992.39 Z M 861.57,1017.25 C 861.65,1016.47 861.69,1015.69 861.73,1014.9 L 866.86,1014.9 L 866.86,1017.25 L 861.57,1017.25 Z M 856.14,1068.46 L 866.87,1068.46 L 866.87,1070.81 L 857.05,1070.81 C 856.81,1070.49 856.6,1070.14 856.34,1069.83 C 855.87,1069.26 855.88,1068.93 856.15,1068.46 L 856.14,1068.46 Z M 861.8,1050.21 C 861.8,1049.42 861.78,1048.64 861.75,1047.86 L 866.86,1047.86 L 866.86,1050.21 L 861.8,1050.21 Z M 859.55,1074.94 C 859.18,1074.13 858.78,1073.34 858.31,1072.59 L 866.87,1072.59 L 866.87,1074.94 L 859.56,1074.94 L 859.55,1074.94 Z M 861.65,1046.09 C 861.64,1045.95 861.64,1045.8 861.63,1045.66 C 861.58,1045.01 861.44,1044.38 861.36,1043.74 L 866.86,1043.74 L 866.86,1046.09 L 861.65,1046.09 Z M 861.68,1054.34 C 861.73,1053.56 861.77,1052.77 861.8,1051.99 L 866.86,1051.99 L 866.86,1054.34 L 861.68,1054.34 Z M 861.11,1058.46 C 861.27,1057.68 861.41,1056.9 861.5,1056.11 L 866.87,1056.11 L 866.87,1058.46 L 861.12,1058.46 L 861.11,1058.46 Z M 857.3,1066.7 C 857.82,1065.94 858.3,1065.14 858.77,1064.35 L 866.85,1064.35 L 866.85,1066.7 L 857.29,1066.7 L 857.3,1066.7 Z M 859.78,1062.58 C 859.78,1062.58 859.83,1062.5 859.85,1062.45 C 860.19,1061.73 860.45,1060.98 860.68,1060.23 L 866.86,1060.23 L 866.86,1062.58 L 859.77,1062.58 L 859.78,1062.58 Z M 860.12,1037.85 C 859.81,1037.03 859.44,1036.25 859.03,1035.5 L 866.86,1035.5 L 866.86,1037.85 L 860.12,1037.85 Z M 860.95,1079.06 C 860.76,1078.25 860.51,1077.47 860.23,1076.71 L 866.86,1076.71 L 866.86,1079.06 L 860.95,1079.06 Z M 861.5,1083.18 C 861.47,1082.79 861.47,1082.4 861.44,1082.02 C 861.41,1081.61 861.3,1081.23 861.24,1080.83 L 866.86,1080.83 L 866.86,1083.18 L 861.5,1083.18 Z M 861.11,1041.97 C 861.04,1041.52 861.01,1041.07 860.92,1040.63 C 860.85,1040.28 860.72,1039.96 860.63,1039.62 L 866.86,1039.62 L 866.86,1041.97 L 861.11,1041.97 Z M 799.82,1039.62 C 799.6,1040.39 799.43,1041.18 799.28,1041.97 L 793.54,1041.97 L 793.54,1039.62 L 799.83,1039.62 L 799.82,1039.62 Z M 798.73,1047.86 C 798.73,1048.64 798.74,1049.43 798.76,1050.21 L 793.53,1050.21 L 793.53,1047.86 L 798.73,1047.86 Z M 801.46,1035.5 C 801.06,1036.26 800.71,1037.05 800.4,1037.85 L 793.52,1037.85 L 793.52,1035.5 L 801.45,1035.5 L 801.46,1035.5 Z M 799,1043.74 C 798.9,1044.51 798.84,1045.3 798.8,1046.09 L 793.54,1046.09 L 793.54,1043.74 L 799,1043.74 Z M 804.19,1031.38 C 803.97,1031.71 803.74,1032.06 803.5,1032.36 C 803.14,1032.81 802.83,1033.27 802.52,1033.73 L 793.54,1033.73 L 793.54,1031.38 L 804.19,1031.38 Z M 800.3,1023.14 C 800.62,1023.97 801.04,1024.72 801.43,1025.49 L 793.53,1025.49 L 793.53,1023.14 L 800.3,1023.14 Z M 799.23,1019.02 C 799.36,1019.82 799.56,1020.6 799.78,1021.37 L 793.53,1021.37 L 793.53,1019.02 L 799.23,1019.02 Z M 802.32,1027.26 C 802.83,1028.1 803.44,1028.86 804.05,1029.61 L 793.53,1029.61 L 793.53,1027.26 L 802.32,1027.26 Z M 804.14,1068.46 C 804.3,1068.72 804.46,1068.97 804.61,1069.23 C 804.26,1069.7 803.85,1070.25 803.43,1070.81 L 793.52,1070.81 L 793.52,1068.46 L 804.13,1068.46 L 804.14,1068.46 Z M 800.23,1076.7 C 799.96,1077.46 799.75,1078.25 799.56,1079.05 L 793.54,1079.05 L 793.54,1076.7 L 800.24,1076.7 L 800.23,1076.7 Z M 799.21,1080.83 C 799.1,1081.5 798.98,1082.16 798.93,1082.84 C 798.93,1082.95 798.93,1083.07 798.92,1083.18 L 793.54,1083.18 L 793.54,1080.83 L 799.22,1080.83 L 799.21,1080.83 Z M 798.85,1084.95 C 798.82,1085.73 798.77,1086.52 798.76,1087.3 L 793.53,1087.3 L 793.53,1084.95 L 798.85,1084.95 Z M 798.85,1014.9 C 798.87,1015.36 798.89,1015.82 798.9,1016.28 C 798.91,1016.61 798.99,1016.93 799.02,1017.26 L 793.53,1017.26 L 793.53,1014.91 L 798.85,1014.91 L 798.85,1014.9 Z M 802.27,1072.58 C 801.79,1073.34 801.36,1074.12 800.98,1074.93 L 793.53,1074.93 L 793.53,1072.58 L 802.27,1072.58 Z M 799.03,1056.1 C 799.11,1056.9 799.22,1057.68 799.37,1058.45 L 793.52,1058.45 L 793.52,1056.1 L 799.02,1056.1 L 799.03,1056.1 Z M 798.81,1051.98 C 798.84,1052.72 798.87,1053.45 798.89,1054.19 C 798.89,1054.24 798.89,1054.28 798.9,1054.33 L 793.52,1054.33 L 793.52,1051.98 L 798.8,1051.98 L 798.81,1051.98 Z M 799.84,1060.22 C 800.09,1061.03 800.37,1061.82 800.74,1062.57 L 793.53,1062.57 L 793.53,1060.22 L 799.84,1060.22 Z M 801.71,1064.34 C 802.16,1065.13 802.59,1065.92 803.06,1066.69 L 793.52,1066.69 L 793.52,1064.34 L 801.7,1064.34 L 801.71,1064.34 Z M 800.9,998.42 C 800.85,998.53 800.77,998.63 800.72,998.74 C 800.41,999.4 800.17,1000.08 799.94,1000.77 L 793.53,1000.77 L 793.53,998.42 L 800.9,998.42 Z M 800.81,986.06 C 801.17,986.88 801.59,987.67 802.04,988.41 L 793.54,988.41 L 793.54,986.06 L 800.82,986.06 L 800.81,986.06 Z M 803.17,990.18 C 803.64,990.85 804.12,991.49 804.6,992.12 C 804.52,992.26 804.43,992.39 804.34,992.53 L 793.52,992.53 L 793.52,990.18 L 803.16,990.18 L 803.17,990.18 Z M 799.47,1002.54 C 799.29,1003.31 799.15,1004.1 799.05,1004.89 L 793.53,1004.89 L 793.53,1002.54 L 799.47,1002.54 Z M 803.26,994.3 C 802.78,995.07 802.34,995.87 801.88,996.65 L 793.53,996.65 L 793.53,994.3 L 803.26,994.3 Z M 799.58,981.93 C 799.67,982.36 799.73,982.8 799.83,983.23 C 799.92,983.6 800.07,983.93 800.18,984.29 L 793.53,984.29 L 793.53,981.94 L 799.58,981.94 L 799.58,981.93 Z M 798.97,977.81 C 799.04,978.6 799.13,979.38 799.24,980.16 L 793.53,980.16 L 793.53,977.81 L 798.97,977.81 Z M 798.77,973.69 C 798.79,974.48 798.82,975.26 798.87,976.04 L 793.53,976.04 L 793.53,973.69 L 798.77,973.69 Z M 798.75,1010.78 C 798.75,1011.56 798.75,1012.35 798.78,1013.13 L 793.53,1013.13 L 793.53,1010.78 L 798.75,1010.78 Z M 798.85,1006.66 C 798.79,1007.44 798.75,1008.23 798.74,1009.01 L 793.54,1009.01 L 793.54,1006.66 L 798.86,1006.66 L 798.85,1006.66 Z M 790.54,1089.06 L 790.54,1204.43 L 789.26,1204.43 L 789.26,973.69 L 790.54,973.69 L 790.54,1089.06 Z M 847.36,1196.2 C 847.98,1196.9 848.52,1197.68 848.92,1198.55 L 843.91,1198.55 C 844.57,1197.77 845.24,1196.98 845.91,1196.2 L 847.36,1196.2 Z M 849.53,1200.32 C 849.73,1201.08 849.86,1201.87 849.91,1202.67 L 840.41,1202.67 C 841.08,1201.88 841.74,1201.1 842.41,1200.32 L 849.54,1200.32 L 849.53,1200.32 Z M 814.95,1196.2 C 815.6,1196.98 816.27,1197.76 816.94,1198.55 L 811.63,1198.55 C 811.98,1197.8 812.39,1197.07 812.94,1196.42 C 813,1196.34 813.07,1196.27 813.14,1196.2 L 814.95,1196.2 Z M 818.43,1200.32 C 819.1,1201.11 819.77,1201.9 820.43,1202.67 L 810.59,1202.67 C 810.65,1201.85 810.78,1201.07 810.98,1200.32 L 818.43,1200.32 Z M 817.06,1093.19 C 816.42,1093.97 815.78,1094.76 815.12,1095.54 L 812.85,1095.54 C 812.33,1094.79 811.87,1094.02 811.51,1093.19 L 817.06,1093.19 Z M 820.46,1089.07 C 819.8,1089.86 819.16,1090.64 818.52,1091.42 L 810.92,1091.42 C 810.73,1090.68 810.61,1089.89 810.57,1089.07 L 820.46,1089.07 Z M 849.92,1089.07 C 849.88,1089.87 849.76,1090.65 849.57,1091.42 L 842.29,1091.42 C 841.65,1090.62 841.01,1089.83 840.38,1089.07 L 849.93,1089.07 L 849.92,1089.07 Z M 848.99,1093.19 C 848.62,1094.03 848.13,1094.81 847.55,1095.54 L 845.64,1095.54 C 845,1094.76 844.36,1093.98 843.72,1093.19 L 848.98,1093.19 L 848.99,1093.19 Z M 836.48,1146.75 C 835.81,1147.53 835.15,1148.32 834.48,1149.1 L 825.71,1149.1 C 825.04,1148.31 824.38,1147.53 823.71,1146.75 L 836.47,1146.75 L 836.48,1146.75 Z M 832.98,1150.87 C 832.32,1151.65 831.65,1152.43 830.98,1153.22 L 829.16,1153.22 C 828.65,1152.6 828.13,1151.96 827.58,1151.3 C 827.46,1151.15 827.33,1151.01 827.21,1150.86 L 832.98,1150.86 L 832.98,1150.87 Z M 831.16,1138.51 C 831.81,1139.3 832.45,1140.09 833.09,1140.86 L 827.41,1140.86 C 828.07,1140.07 828.73,1139.31 829.4,1138.51 L 831.16,1138.51 Z M 834.53,1142.63 C 835.18,1143.42 835.82,1144.21 836.46,1144.98 L 823.92,1144.98 C 824.58,1144.21 825.25,1143.4 825.91,1142.63 L 834.53,1142.63 Z M 846.36,1157.35 C 846.49,1157.2 846.6,1157.07 846.73,1156.92 C 846.86,1157.05 846.95,1157.21 847.07,1157.35 L 846.37,1157.35 L 846.36,1157.35 Z M 848.35,1159.11 C 848.79,1159.86 849.12,1160.65 849.38,1161.46 L 842.85,1161.46 C 843.52,1160.68 844.17,1159.9 844.85,1159.11 L 848.35,1159.11 Z M 849.8,1167.35 C 849.66,1168.16 849.45,1168.95 849.14,1169.7 L 843.51,1169.7 C 842.84,1168.91 842.18,1168.13 841.51,1167.35 L 849.8,1167.35 Z M 848.21,1171.47 C 847.76,1172.16 847.25,1172.82 846.64,1173.39 C 846.09,1172.74 845.56,1172.12 845.01,1171.47 L 848.2,1171.47 L 848.21,1171.47 Z M 849.84,1163.23 C 849.97,1164.01 850.01,1164.8 849.99,1165.58 L 840.02,1165.58 C 839.91,1165.45 839.79,1165.31 839.68,1165.18 C 840.21,1164.55 840.8,1163.86 841.35,1163.22 L 849.84,1163.22 L 849.84,1163.23 Z M 815.72,1159.11 C 816.39,1159.9 817.05,1160.68 817.72,1161.46 L 811.15,1161.46 C 811.42,1160.65 811.76,1159.86 812.21,1159.11 L 815.73,1159.11 L 815.72,1159.11 Z M 819.09,1167.35 C 818.43,1168.12 817.76,1168.92 817.09,1169.7 L 811.38,1169.7 C 811.07,1168.93 810.84,1168.15 810.7,1167.35 L 819.1,1167.35 L 819.09,1167.35 Z M 813.84,1156.89 C 813.97,1157.04 814.09,1157.19 814.22,1157.34 L 813.48,1157.34 C 813.61,1157.19 813.7,1157.03 813.83,1156.89 L 813.84,1156.89 Z M 815.59,1171.47 C 814.99,1172.17 814.43,1172.84 813.83,1173.55 C 813.22,1172.9 812.71,1172.2 812.27,1171.47 L 815.59,1171.47 Z M 819.22,1163.23 C 819.78,1163.89 820.35,1164.56 820.9,1165.21 C 820.8,1165.33 820.69,1165.46 820.59,1165.58 L 810.53,1165.58 C 810.51,1164.79 810.55,1164.01 810.68,1163.23 L 819.22,1163.23 Z M 830.53,1192.08 C 830.44,1192.19 830.34,1192.31 830.24,1192.42 C 830.15,1192.31 830.05,1192.19 829.95,1192.08 L 830.52,1192.08 L 830.53,1192.08 Z M 834.03,1187.96 C 833.36,1188.74 832.7,1189.53 832.03,1190.31 L 828.46,1190.31 C 827.8,1189.53 827.13,1188.75 826.46,1187.96 L 834.03,1187.96 Z M 833.09,1179.72 C 833.76,1180.51 834.42,1181.29 835.09,1182.07 L 825.32,1182.07 C 825.99,1181.28 826.65,1180.5 827.32,1179.72 L 833.09,1179.72 Z M 830.2,1176.32 C 830.66,1176.86 831.13,1177.41 831.59,1177.95 L 828.82,1177.95 C 829.28,1177.41 829.75,1176.85 830.2,1176.32 Z M 836.59,1183.84 C 836.75,1184.02 836.9,1184.21 837.06,1184.39 C 836.56,1184.98 836.04,1185.59 835.53,1186.19 L 824.97,1186.19 C 824.44,1185.57 823.92,1184.96 823.4,1184.34 C 823.54,1184.17 823.68,1184 823.83,1183.84 L 836.6,1183.84 L 836.59,1183.84 Z M 814.47,1134.39 C 814.27,1134.63 814.07,1134.87 813.87,1135.1 C 813.65,1134.88 813.49,1134.62 813.29,1134.39 L 814.48,1134.39 L 814.47,1134.39 Z M 820.65,1126.15 C 820.79,1126.31 820.92,1126.47 821.06,1126.63 C 820.52,1127.27 820,1127.88 819.47,1128.5 L 810.67,1128.5 C 810.59,1127.85 810.52,1127.2 810.54,1126.49 C 810.54,1126.37 810.57,1126.26 810.57,1126.14 L 820.64,1126.14 L 820.65,1126.15 Z M 814.46,1118.87 C 814.85,1119.33 815.25,1119.79 815.64,1120.26 L 812.52,1120.26 C 812.66,1120.06 812.77,1119.85 812.93,1119.66 C 813.12,1119.43 813.38,1119.23 813.5,1118.96 C 813.8,1118.3 814.07,1118.41 814.46,1118.87 Z M 817.15,1122.03 C 817.82,1122.81 818.48,1123.6 819.15,1124.38 L 810.79,1124.38 C 810.95,1123.55 811.21,1122.77 811.53,1122.03 L 817.15,1122.03 Z M 817.97,1130.27 C 817.31,1131.05 816.64,1131.84 815.97,1132.62 L 812.04,1132.62 C 811.62,1131.89 811.3,1131.1 811.05,1130.27 L 817.96,1130.27 L 817.97,1130.27 Z M 847.16,1134.39 C 846.9,1134.68 846.67,1135.01 846.38,1135.27 C 846.15,1134.98 845.92,1134.69 845.69,1134.39 L 847.16,1134.39 Z M 849.93,1126.15 C 849.96,1126.94 849.92,1127.72 849.8,1128.5 L 840.87,1128.5 C 840.43,1128 839.98,1127.45 839.57,1126.97 C 839.8,1126.69 840.03,1126.42 840.27,1126.15 L 849.93,1126.15 Z M 849.41,1130.27 C 849.16,1131.1 848.83,1131.88 848.41,1132.62 L 844.29,1132.62 C 843.86,1132.08 843.45,1131.53 843.01,1131 C 842.8,1130.74 842.6,1130.52 842.38,1130.27 L 849.4,1130.27 L 849.41,1130.27 Z M 845.26,1120.26 C 845.72,1119.72 846.17,1119.18 846.63,1118.64 C 847.19,1119.12 847.66,1119.67 848.08,1120.26 L 845.26,1120.26 Z M 849.04,1122.03 C 849.36,1122.78 849.61,1123.57 849.77,1124.38 L 841.77,1124.38 C 842.43,1123.6 843.1,1122.81 843.76,1122.03 L 849.04,1122.03 Z M 835.41,1109.67 C 834.74,1110.46 834.08,1111.23 833.41,1112.02 L 827.27,1112.02 C 826.6,1111.23 825.94,1110.45 825.27,1109.67 L 835.41,1109.67 Z M 831.91,1113.79 C 831.39,1114.41 830.86,1115.03 830.34,1115.64 C 829.82,1115.03 829.29,1114.41 828.77,1113.79 L 831.91,1113.79 Z M 831.86,1101.43 C 832.52,1102.21 833.18,1102.99 833.86,1103.78 L 826.73,1103.78 C 827.4,1103 828.06,1102.21 828.73,1101.43 L 831.86,1101.43 Z M 830.23,1099.66 C 830.23,1099.66 830.27,1099.61 830.3,1099.58 C 830.32,1099.61 830.35,1099.63 830.37,1099.66 L 830.24,1099.66 L 830.23,1099.66 Z M 835.36,1105.55 C 835.95,1106.25 836.54,1106.95 837.13,1107.64 C 837.06,1107.73 836.98,1107.82 836.91,1107.9 L 823.77,1107.9 C 823.68,1107.8 823.59,1107.69 823.5,1107.59 C 824.06,1106.93 824.65,1106.23 825.23,1105.55 L 835.36,1105.55 Z M 857.98,1149.11 C 857.46,1148.3 856.91,1147.51 856.34,1146.76 L 866.87,1146.76 L 866.87,1149.11 L 857.99,1149.11 L 857.98,1149.11 Z M 861.77,1091.42 C 861.78,1091.19 861.8,1090.95 861.81,1090.72 C 861.83,1090.17 861.81,1089.62 861.79,1089.07 L 866.86,1089.07 L 866.86,1091.42 L 861.76,1091.42 L 861.77,1091.42 Z M 859.17,1140.86 C 859.58,1140.09 859.96,1139.32 860.26,1138.51 L 866.86,1138.51 L 866.86,1140.86 L 859.16,1140.86 L 859.17,1140.86 Z M 856.59,1144.98 C 857.12,1144.2 857.64,1143.41 858.15,1142.63 L 866.87,1142.63 L 866.87,1144.98 L 856.59,1144.98 Z M 861.71,1202.67 C 861.69,1201.88 861.63,1201.1 861.59,1200.32 L 866.86,1200.32 L 866.86,1202.67 L 861.71,1202.67 Z M 860.77,1136.74 C 860.98,1135.97 861.16,1135.18 861.29,1134.39 L 866.86,1134.39 L 866.86,1136.74 L 860.77,1136.74 Z M 860.38,1099.66 C 860.66,1098.89 860.89,1098.11 861.06,1097.31 L 866.86,1097.31 L 866.86,1099.66 L 860.38,1099.66 Z M 861.68,1124.38 C 861.64,1123.6 861.59,1122.81 861.53,1122.03 L 866.86,1122.03 L 866.86,1124.38 L 861.68,1124.38 Z M 861.78,1128.5 C 861.78,1127.72 861.77,1126.93 861.74,1126.15 L 866.86,1126.15 L 866.86,1128.5 L 861.78,1128.5 Z M 858.76,1112.02 C 858.76,1112.02 858.71,1111.92 858.68,1111.87 C 858.23,1111.1 857.74,1110.36 857.26,1109.67 L 866.87,1109.67 L 866.87,1112.02 L 858.76,1112.02 Z M 860.59,1116.14 C 860.33,1115.33 860.02,1114.55 859.67,1113.79 L 866.86,1113.79 L 866.86,1116.14 L 860.59,1116.14 Z M 858.33,1103.78 C 858.79,1103.01 859.24,1102.23 859.65,1101.43 L 866.86,1101.43 L 866.86,1103.78 L 858.33,1103.78 Z M 861.4,1120.26 C 861.33,1119.46 861.21,1118.67 861.05,1117.91 L 866.86,1117.91 L 866.86,1120.26 L 861.4,1120.26 Z M 861.4,1095.54 C 861.51,1094.76 861.6,1093.98 861.66,1093.19 L 866.86,1093.19 L 866.86,1095.54 L 861.4,1095.54 Z M 855.92,1107.76 C 856.37,1107.01 856.83,1106.28 857.28,1105.55 L 866.86,1105.55 L 866.86,1107.9 L 856.02,1107.9 C 856.02,1107.9 855.95,1107.8 855.92,1107.76 Z M 861.57,1132.62 C 861.65,1131.84 861.69,1131.06 861.73,1130.27 L 866.86,1130.27 L 866.86,1132.62 L 861.57,1132.62 Z M 856.14,1183.84 L 866.87,1183.84 L 866.87,1186.19 L 857.05,1186.19 C 856.81,1185.87 856.6,1185.52 856.34,1185.21 C 855.87,1184.64 855.88,1184.3 856.15,1183.84 L 856.14,1183.84 Z M 861.8,1165.59 C 861.8,1164.8 861.78,1164.02 861.75,1163.24 L 866.86,1163.24 L 866.86,1165.59 L 861.8,1165.59 Z M 859.55,1190.31 C 859.18,1189.5 858.78,1188.71 858.31,1187.96 L 866.87,1187.96 L 866.87,1190.31 L 859.56,1190.31 L 859.55,1190.31 Z M 861.65,1161.47 C 861.64,1161.33 861.64,1161.18 861.63,1161.04 C 861.58,1160.39 861.44,1159.76 861.36,1159.12 L 866.86,1159.12 L 866.86,1161.47 L 861.65,1161.47 Z M 861.68,1169.71 C 861.73,1168.93 861.77,1168.14 861.8,1167.36 L 866.86,1167.36 L 866.86,1169.71 L 861.68,1169.71 Z M 861.11,1173.83 C 861.27,1173.05 861.41,1172.27 861.5,1171.48 L 866.87,1171.48 L 866.87,1173.83 L 861.12,1173.83 L 861.11,1173.83 Z M 857.3,1182.07 C 857.82,1181.31 858.3,1180.51 858.77,1179.72 L 866.85,1179.72 L 866.85,1182.07 L 857.29,1182.07 L 857.3,1182.07 Z M 859.78,1177.95 C 859.78,1177.95 859.83,1177.87 859.85,1177.82 C 860.19,1177.1 860.45,1176.35 860.68,1175.6 L 866.86,1175.6 L 866.86,1177.95 L 859.77,1177.95 L 859.78,1177.95 Z M 860.12,1153.23 C 859.81,1152.41 859.44,1151.63 859.03,1150.88 L 866.86,1150.88 L 866.86,1153.23 L 860.12,1153.23 Z M 860.95,1194.43 C 860.76,1193.62 860.51,1192.84 860.23,1192.08 L 866.86,1192.08 L 866.86,1194.43 L 860.95,1194.43 Z M 861.5,1198.55 C 861.47,1198.16 861.47,1197.77 861.44,1197.39 C 861.41,1196.98 861.3,1196.6 861.24,1196.2 L 866.86,1196.2 L 866.86,1198.55 L 861.5,1198.55 Z M 861.11,1157.35 C 861.04,1156.9 861.01,1156.45 860.92,1156.01 C 860.85,1155.66 860.72,1155.34 860.63,1155 L 866.86,1155 L 866.86,1157.35 L 861.11,1157.35 Z M 799.82,1154.99 C 799.6,1155.76 799.43,1156.55 799.28,1157.34 L 793.54,1157.34 L 793.54,1154.99 L 799.83,1154.99 L 799.82,1154.99 Z M 798.73,1163.23 C 798.73,1164.01 798.74,1164.8 798.76,1165.58 L 793.53,1165.58 L 793.53,1163.23 L 798.73,1163.23 Z M 801.46,1150.87 C 801.06,1151.63 800.71,1152.42 800.4,1153.22 L 793.52,1153.22 L 793.52,1150.87 L 801.45,1150.87 L 801.46,1150.87 Z M 799,1159.11 C 798.9,1159.88 798.84,1160.67 798.8,1161.46 L 793.54,1161.46 L 793.54,1159.11 L 799,1159.11 Z M 804.19,1146.75 C 803.97,1147.08 803.74,1147.43 803.5,1147.73 C 803.14,1148.18 802.83,1148.64 802.52,1149.1 L 793.54,1149.1 L 793.54,1146.75 L 804.19,1146.75 Z M 800.3,1138.51 C 800.62,1139.34 801.04,1140.09 801.43,1140.86 L 793.53,1140.86 L 793.53,1138.51 L 800.3,1138.51 Z M 799.23,1134.39 C 799.36,1135.19 799.56,1135.97 799.78,1136.74 L 793.53,1136.74 L 793.53,1134.39 L 799.23,1134.39 Z M 802.32,1142.63 C 802.83,1143.47 803.44,1144.23 804.05,1144.98 L 793.53,1144.98 L 793.53,1142.63 L 802.32,1142.63 Z M 804.14,1183.84 C 804.3,1184.1 804.46,1184.35 804.61,1184.61 C 804.26,1185.08 803.85,1185.63 803.43,1186.19 L 793.52,1186.19 L 793.52,1183.84 L 804.13,1183.84 L 804.14,1183.84 Z M 800.23,1192.08 C 799.96,1192.84 799.75,1193.63 799.56,1194.43 L 793.54,1194.43 L 793.54,1192.08 L 800.24,1192.08 L 800.23,1192.08 Z M 799.21,1196.2 C 799.1,1196.87 798.98,1197.53 798.93,1198.21 C 798.93,1198.32 798.93,1198.44 798.92,1198.55 L 793.54,1198.55 L 793.54,1196.2 L 799.22,1196.2 L 799.21,1196.2 Z M 798.85,1200.32 C 798.82,1201.1 798.77,1201.89 798.76,1202.67 L 793.53,1202.67 L 793.53,1200.32 L 798.85,1200.32 Z M 798.85,1130.27 C 798.87,1130.73 798.89,1131.19 798.9,1131.65 C 798.91,1131.98 798.99,1132.3 799.02,1132.63 L 793.53,1132.63 L 793.53,1130.28 L 798.85,1130.28 L 798.85,1130.27 Z M 802.27,1187.96 C 801.79,1188.72 801.36,1189.5 800.98,1190.31 L 793.53,1190.31 L 793.53,1187.96 L 802.27,1187.96 Z M 799.03,1171.47 C 799.11,1172.27 799.22,1173.05 799.37,1173.82 L 793.52,1173.82 L 793.52,1171.47 L 799.02,1171.47 L 799.03,1171.47 Z M 798.81,1167.35 C 798.84,1168.09 798.87,1168.82 798.89,1169.56 C 798.89,1169.61 798.89,1169.65 798.9,1169.7 L 793.52,1169.7 L 793.52,1167.35 L 798.8,1167.35 L 798.81,1167.35 Z M 799.84,1175.6 C 800.09,1176.41 800.37,1177.2 800.74,1177.95 L 793.53,1177.95 L 793.53,1175.6 L 799.84,1175.6 Z M 801.71,1179.72 C 802.16,1180.51 802.59,1181.3 803.06,1182.07 L 793.52,1182.07 L 793.52,1179.72 L 801.7,1179.72 L 801.71,1179.72 Z M 800.9,1113.79 C 800.85,1113.9 800.77,1114 800.72,1114.11 C 800.41,1114.77 800.17,1115.45 799.94,1116.14 L 793.53,1116.14 L 793.53,1113.79 L 800.9,1113.79 Z M 800.81,1101.43 C 801.17,1102.25 801.59,1103.04 802.04,1103.78 L 793.54,1103.78 L 793.54,1101.43 L 800.82,1101.43 L 800.81,1101.43 Z M 803.17,1105.55 C 803.64,1106.22 804.12,1106.86 804.6,1107.49 C 804.52,1107.63 804.43,1107.76 804.34,1107.9 L 793.52,1107.9 L 793.52,1105.55 L 803.16,1105.55 L 803.17,1105.55 Z M 799.47,1117.91 C 799.29,1118.68 799.15,1119.47 799.05,1120.26 L 793.53,1120.26 L 793.53,1117.91 L 799.47,1117.91 Z M 803.26,1109.67 C 802.78,1110.44 802.34,1111.24 801.88,1112.02 L 793.53,1112.02 L 793.53,1109.67 L 803.26,1109.67 Z M 799.58,1097.31 C 799.67,1097.74 799.73,1098.18 799.83,1098.61 C 799.92,1098.98 800.07,1099.31 800.18,1099.67 L 793.53,1099.67 L 793.53,1097.32 L 799.58,1097.32 L 799.58,1097.31 Z M 798.97,1093.19 C 799.04,1093.98 799.13,1094.76 799.24,1095.54 L 793.53,1095.54 L 793.53,1093.19 L 798.97,1093.19 Z M 798.77,1089.07 C 798.79,1089.86 798.82,1090.64 798.87,1091.42 L 793.53,1091.42 L 793.53,1089.07 L 798.77,1089.07 Z M 798.75,1126.15 C 798.75,1126.93 798.75,1127.72 798.78,1128.5 L 793.53,1128.5 L 793.53,1126.15 L 798.75,1126.15 Z M 798.85,1122.03 C 798.79,1122.81 798.75,1123.6 798.74,1124.38 L 793.54,1124.38 L 793.54,1122.03 L 798.86,1122.03 L 798.85,1122.03 Z M 871.15,1204.43 L 869.87,1204.43 L 869.87,973.69 L 871.15,973.69 L 871.15,1204.43 Z"/></svg>