<svg xmlns="http://www.w3.org/2000/svg" viewBox="779.0 318.6 102.3 242.7" fill="none"><path fill="currentColor" d="M 869.03,439.1 C 868.81,439.58 868.64,439.97 868.65,439.94 L 864.76,439.94 C 869.16,432.38 871.92,423.77 872.31,414.09 C 872.7,404.4 870.82,395.3 866.66,387.24 C 863.85,390.25 861.45,393.01 858.88,395.51 C 856.82,397.51 856.69,399.49 857.41,402.52 C 860.27,414.58 858.21,425.47 851.03,434.74 C 849.64,436.54 848.16,438.24 846.68,439.94 L 840.18,439.94 C 836.79,435.66 833.68,431.87 830.59,427.97 C 817.24,438.75 802.6,440.59 786.8,436.66 C 783.15,417.79 784.96,399.99 794.5,383.33 C 785.21,367.15 783.11,349.28 786.77,329.87 C 802.33,325.41 817.06,327.75 830.63,338.39 C 834.28,333.8 837.75,329.45 840.91,325.48 C 840.67,325.18 840.42,324.87 840.19,324.57 L 846.63,324.57 C 842.22,329.82 837.83,335.08 833.34,340.45 C 836.68,344.27 839.81,347.86 843.05,351.56 C 849.62,343.8 856.27,336.88 861.98,328.98 C 863.02,327.54 863.9,326.06 864.78,324.58 L 868.69,324.58 C 870.71,331.49 873.02,337.58 874.22,343.96 C 876.6,356.65 874.96,368.9 869.65,380.32 C 868.73,382.29 868.51,383.79 869.49,385.97 C 877.46,403.74 877.21,421.5 869.04,439.11 L 869.03,439.1 Z M 796.03,379.07 C 799.36,375.6 802.73,372.09 806.07,368.61 C 803.69,361.67 801.31,355.31 801.89,347.64 C 803.93,347.85 805.76,347.88 807.54,348.24 C 815.38,349.86 821.92,354.41 827.48,361.13 C 832.05,366.65 836.65,372.15 841.25,377.64 C 842.06,378.61 842.96,379.47 844.15,380.72 C 847.2,376.61 850.06,372.76 853.15,368.59 C 845.9,360.16 839.43,351.69 832.15,344.38 C 819.66,331.84 805.05,328.91 789.38,332.75 C 785.76,350.21 789.38,369.43 796.03,379.06 L 796.03,379.07 Z M 827.98,425.73 C 824.73,421.48 821.71,417.53 818.68,413.57 C 813.23,416.58 807.88,419.07 801.7,418.37 C 801.87,406.68 805.41,397.06 812,389.02 C 816.74,383.24 821.6,377.6 826.4,371.87 C 827.32,370.77 828.18,369.61 829.32,368.15 C 825.93,364.42 822.77,360.92 819.11,356.89 C 811.28,366.92 803.18,375.78 796.64,386.05 C 787.71,400.07 786.29,416.48 789.29,433.55 C 803.38,437.11 816.26,434.8 827.98,425.7 L 827.98,425.73 Z M 818.59,385.98 C 815.75,389.62 812.79,393.42 809.96,397.05 C 821.62,411.06 832.75,424.43 844.19,438.18 C 847.03,434.4 849.99,430.48 852.66,426.93 C 841.04,412.96 829.92,399.59 818.59,385.97 L 818.59,385.98 Z M 871.72,345.81 C 870.94,339.88 869.33,334.22 866.64,329.71 C 863.88,332.66 861.28,335.57 858.56,338.3 C 856.77,340.09 856.72,341.83 857.35,344.51 C 860.36,357.31 858.11,368.66 850.12,378.16 C 846.17,382.86 842.21,387.55 838.25,392.25 C 836.69,394.1 835.15,395.97 833.71,397.69 C 836.93,401.72 839.86,405.37 843.08,409.4 C 849.11,402.24 854.89,395.51 860.54,388.61 C 870.33,376.66 873.87,362.24 871.71,345.83 L 871.72,345.81 Z M 851.08,550.1 C 849.69,551.9 848.21,553.6 846.73,555.3 L 840.23,555.3 C 836.84,551.02 833.73,547.23 830.64,543.33 C 817.29,554.11 802.65,555.95 786.85,552.02 C 783.2,533.15 785.01,515.35 794.55,498.69 C 785.26,482.51 783.16,464.64 786.82,445.23 C 802.38,440.77 817.11,443.11 830.68,453.75 C 834.33,449.16 837.8,444.81 840.96,440.84 C 840.72,440.54 840.47,440.23 840.24,439.93 L 846.68,439.93 C 842.27,445.18 837.88,450.44 833.39,455.81 C 836.73,459.63 839.86,463.22 843.1,466.92 C 849.67,459.16 856.32,452.24 862.03,444.34 C 863.07,442.9 863.95,441.42 864.83,439.94 L 868.74,439.94 C 870.76,446.85 873.07,452.94 874.27,459.32 C 876.65,472.01 875.01,484.26 869.7,495.68 C 868.78,497.65 868.56,499.15 869.54,501.33 C 877.51,519.1 877.26,536.86 869.09,554.47 C 868.87,554.95 868.7,555.34 868.71,555.31 L 864.82,555.31 C 869.22,547.75 871.98,539.14 872.37,529.45 C 872.76,519.76 870.88,510.66 866.72,502.6 C 863.91,505.61 861.51,508.37 858.94,510.87 C 856.88,512.87 856.75,514.85 857.47,517.88 C 860.33,529.94 858.27,540.83 851.09,550.1 L 851.08,550.1 Z M 850.17,493.52 C 846.22,498.22 842.26,502.91 838.3,507.6 C 836.74,509.45 835.2,511.32 833.76,513.04 C 836.98,517.07 839.91,520.72 843.13,524.75 C 849.16,517.59 854.94,510.86 860.59,503.96 C 870.38,492.01 873.92,477.59 871.76,461.18 C 870.98,455.25 869.37,449.59 866.68,445.07 C 863.92,448.02 861.32,450.93 858.6,453.66 C 856.81,455.45 856.76,457.19 857.39,459.87 C 860.4,472.67 858.15,484.02 850.16,493.52 L 850.17,493.52 Z M 796.08,494.44 C 799.41,490.97 802.78,487.46 806.12,483.98 C 803.74,477.04 801.36,470.68 801.94,463.01 C 803.98,463.22 805.81,463.25 807.59,463.61 C 815.43,465.23 821.97,469.78 827.53,476.5 C 832.1,482.03 836.7,487.52 841.3,493.01 C 842.11,493.98 843.01,494.84 844.2,496.09 C 847.25,491.98 850.11,488.13 853.2,483.96 C 845.95,475.53 839.48,467.06 832.2,459.75 C 819.71,447.21 805.1,444.28 789.43,448.12 C 785.81,465.58 789.43,484.8 796.08,494.43 L 796.08,494.44 Z M 828.03,541.11 C 824.78,536.86 821.76,532.91 818.73,528.95 C 813.28,531.96 807.93,534.45 801.75,533.75 C 801.92,522.06 805.46,512.44 812.05,504.4 C 816.79,498.62 821.65,492.98 826.45,487.25 C 827.37,486.15 828.23,484.99 829.37,483.53 C 825.98,479.8 822.82,476.3 819.16,472.27 C 811.33,482.3 803.23,491.16 796.69,501.43 C 787.76,515.45 786.34,531.86 789.34,548.93 C 803.43,552.49 816.31,550.18 828.03,541.08 L 828.03,541.11 Z M 844.24,553.55 C 847.08,549.77 850.04,545.85 852.71,542.3 C 841.09,528.33 829.97,514.96 818.64,501.34 C 815.8,504.98 812.84,508.78 810.01,512.41 C 821.67,526.42 832.8,539.79 844.24,553.54 L 844.24,553.55 Z"/></svg>