<svg xmlns="http://www.w3.org/2000/svg" viewBox="532.5 643.1 77.3 242.8" fill="none"><path fill="currentColor" d="M 591.8,778.36 C 592.7,780.13 593.4,782.01 593.92,783.95 C 593.97,784.12 594.01,784.29 594.05,784.46 C 594.12,784.73 594.18,785 594.24,785.27 C 594.31,785.6 594.38,785.94 594.44,786.27 C 594.47,786.43 594.5,786.58 594.52,786.74 C 594.6,787.21 594.66,787.67 594.72,788.14 C 594.72,788.2 594.74,788.26 594.74,788.32 C 595.11,791.59 594.93,794.82 594.37,797.92 C 594.31,798.24 594.25,798.56 594.19,798.88 C 594.17,798.99 594.14,799.11 594.12,799.22 C 593.29,803.2 591.86,807.21 589.8,811.19 C 588.45,813.8 586.89,816.36 585.17,818.8 C 582.67,822.34 579.91,825.59 577.24,828.74 C 576.86,829.18 576.48,829.64 576.1,830.08 C 582.41,833.56 597.11,844.56 597.11,871.39 L 597.11,879.88 L 603.87,879.88 L 603.87,649.14 L 597.11,649.14 L 597.11,656.48 C 597.11,684.52 582.29,695.44 575.99,698.81 C 576.4,699.3 576.82,699.79 577.23,700.28 C 579.9,703.42 582.66,706.68 585.16,710.22 C 586.88,712.66 588.43,715.22 589.79,717.83 C 591.86,721.82 593.29,725.83 594.12,729.82 C 594.14,729.92 594.16,730.02 594.18,730.11 C 594.25,730.44 594.31,730.77 594.37,731.1 C 594.93,734.21 595.1,737.43 594.73,740.69 C 594.73,740.75 594.72,740.81 594.71,740.86 C 594.65,741.33 594.59,741.8 594.51,742.27 C 594.48,742.42 594.46,742.57 594.43,742.73 C 594.37,743.07 594.3,743.41 594.22,743.75 C 594.16,744.02 594.1,744.28 594.04,744.54 C 594,744.72 593.95,744.89 593.9,745.07 C 593.38,747.01 592.69,748.88 591.79,750.65 C 588.3,757.5 582.33,761.23 576.12,761.1 C 573.3,761.04 570.42,760.19 567.72,758.47 C 564.25,756.26 561.74,752.64 560.65,748.27 C 559.56,743.9 560.02,739.3 561.95,735.33 C 563.31,732.52 565.49,730.28 568.08,729.04 C 568.52,728.83 568.97,728.74 569.41,728.74 C 570.74,728.74 572,729.64 572.54,731.13 C 573.26,733.11 572.45,735.39 570.72,736.22 C 569.52,736.8 568.54,737.8 567.91,739.11 C 566.86,741.27 566.61,743.76 567.21,746.13 C 567.8,748.5 569.16,750.47 571.05,751.67 C 572.71,752.73 574.48,753.25 576.22,753.28 C 580.05,753.34 583.75,751 585.92,746.74 C 586.08,746.43 586.23,746.11 586.37,745.79 C 591.73,733.67 583.66,720.13 578.37,713.13 C 576.42,710.55 574.29,708.01 572.23,705.55 C 571.74,704.97 571.25,704.39 570.76,703.8 C 569.84,702.7 568.91,701.59 568,700.46 C 565.08,696.82 561.92,692.69 559.64,688 C 559.6,687.91 559.55,687.83 559.5,687.74 C 559.09,687.07 558.75,686.34 558.49,685.59 C 557.43,683.7 556.92,681.52 556.87,679.29 C 556.59,676.75 556.85,674.29 557.67,672.17 C 559,668.73 561.02,667.08 563,666.35 C 563.34,666.37 563.67,666.42 564,666.5 C 564.51,666.47 565.03,666.56 565.49,666.81 C 565.87,667.02 566.17,667.32 566.4,667.68 C 566.44,667.71 566.49,667.74 566.53,667.77 C 566.55,667.83 566.56,667.9 566.58,667.96 C 566.97,668.75 567.03,669.75 566.7,670.65 C 566.48,671.25 566.16,671.76 565.78,672.22 C 565.76,672.27 565.73,672.31 565.71,672.36 C 564.71,673.62 563.59,674.85 563.09,676.37 C 563.03,676.56 562.98,676.75 562.93,676.94 C 562.93,676.95 562.93,676.97 562.92,676.98 C 562.92,677.01 562.91,677.03 562.9,677.06 C 562.49,678.36 562.4,679.78 562.6,681.21 C 562.83,684.39 564.52,687.56 566.84,689.29 C 568.38,690.43 570.22,691.01 572.04,690.97 C 573.68,690.93 575.92,690.2 577.28,689.12 C 582.85,684.71 590.33,675.29 590.33,656.46 L 590.33,649.12 L 585.36,649.12 C 585.36,652.78 584.71,656.17 583.67,659.12 C 582.25,655.1 580.03,651.94 577.35,650.29 C 576.94,650.04 576.74,649.58 576.72,649.11 L 553.59,649.11 C 553.57,649.58 553.37,650.03 552.96,650.29 C 550.29,651.94 548.07,655.1 546.64,659.12 C 545.6,656.17 544.95,652.78 544.95,649.12 L 538.54,649.12 L 538.54,879.86 L 544.95,879.86 C 544.96,876.21 545.6,872.84 546.64,869.89 C 548.06,873.91 550.28,877.07 552.96,878.72 C 553.36,878.97 553.56,879.41 553.59,879.86 L 576.73,879.86 C 576.76,879.41 576.96,878.97 577.36,878.72 C 580.03,877.07 582.25,873.92 583.68,869.89 C 584.72,872.84 585.36,876.21 585.37,879.86 L 590.34,879.86 L 590.34,871.37 C 590.34,867.28 589.94,863.17 589.01,859.21 C 587.23,851.7 583.3,844.49 577.65,840.02 C 576.17,838.84 574.47,837.96 572.68,837.76 C 570.1,837.47 567.46,838.67 565.64,840.79 C 563.52,843.28 562.58,846.91 562.91,850.34 C 563.08,852.07 563.57,853.78 564.41,855.24 C 565.48,857.09 568.65,859.36 567.69,862.01 C 567.26,863.2 565.98,863.68 564.85,863.66 C 562.31,863.62 560.45,861.93 559.19,859.63 C 558.63,858.86 558.12,857.95 557.68,856.83 C 556.51,853.81 556.45,850.13 557.52,846.47 C 559.55,839.46 564,833.55 568.01,828.56 C 568.92,827.43 569.84,826.32 570.77,825.23 C 571.26,824.64 571.75,824.06 572.24,823.47 C 574.3,821.01 576.44,818.47 578.38,815.89 C 583.67,808.89 591.74,795.34 586.38,783.23 C 586.24,782.91 586.09,782.59 585.93,782.28 C 583.76,778.02 580.07,775.69 576.24,775.74 C 574.5,775.77 572.73,776.29 571.07,777.35 C 569.19,778.55 567.83,780.52 567.23,782.89 C 566.64,785.26 566.89,787.76 567.94,789.91 C 568.58,791.22 569.55,792.22 570.75,792.8 C 572.48,793.63 573.29,795.91 572.57,797.89 C 572.03,799.38 570.77,800.28 569.44,800.28 C 569,800.28 568.54,800.19 568.11,799.98 C 565.52,798.74 563.35,796.51 561.98,793.69 C 558,785.49 560.59,775.1 567.75,770.54 C 570.46,768.82 573.33,767.96 576.15,767.91 C 582.36,767.78 588.34,771.51 591.82,778.36 L 591.8,778.36 Z M 597.47,826.49 C 597.47,830.18 596.82,833.59 595.77,836.57 C 594.35,832.55 592.13,829.39 589.45,827.74 C 588.58,827.2 588.58,825.77 589.45,825.23 C 592.12,823.58 594.34,820.43 595.77,816.4 C 596.82,819.38 597.47,822.79 597.47,826.48 L 597.47,826.49 Z M 589.46,701.09 C 588.59,700.55 588.59,699.12 589.46,698.58 C 592.13,696.93 594.35,693.78 595.78,689.75 C 596.83,692.73 597.48,696.14 597.48,699.83 C 597.48,703.52 596.83,706.93 595.78,709.91 C 594.36,705.89 592.14,702.73 589.46,701.08 L 589.46,701.09 Z M 544.93,712.79 C 544.93,709.1 545.58,705.69 546.63,702.71 C 548.05,706.73 550.27,709.89 552.95,711.54 C 553.82,712.08 553.82,713.51 552.95,714.05 C 550.28,715.7 548.06,718.85 546.63,722.88 C 545.58,719.9 544.93,716.49 544.93,712.8 L 544.93,712.79 Z M 544.93,816.41 C 544.93,812.72 545.58,809.31 546.63,806.33 C 548.05,810.35 550.27,813.51 552.95,815.16 C 553.82,815.7 553.82,817.13 552.95,817.67 C 550.28,819.32 548.06,822.47 546.63,826.5 C 545.58,823.52 544.93,820.11 544.93,816.42 L 544.93,816.41 Z M 563.39,804.49 C 564.75,805.57 566.99,806.3 568.63,806.34 C 570.46,806.38 572.3,805.8 573.83,804.66 C 576.16,802.93 577.85,799.76 578.07,796.58 C 578.27,795.15 578.18,793.73 577.77,792.43 C 577.77,792.4 577.76,792.38 577.75,792.35 C 577.75,792.34 577.75,792.32 577.74,792.31 C 577.69,792.12 577.64,791.93 577.58,791.74 C 577.08,790.22 575.96,788.99 574.96,787.73 C 574.94,787.68 574.91,787.64 574.89,787.59 C 574.51,787.13 574.19,786.62 573.97,786.02 C 573.44,784.57 573.91,782.87 575.17,782.18 C 576.02,781.71 577.05,781.77 577.93,782.17 C 578.81,782.56 579.57,783.26 580.23,784.04 C 583.89,788.33 585.09,795.76 582.17,800.96 C 581.91,801.71 581.57,802.43 581.16,803.11 C 581.12,803.2 581.07,803.28 581.02,803.37 C 578.74,808.06 575.58,812.19 572.66,815.83 C 571.75,816.96 570.82,818.07 569.9,819.17 C 569.41,819.76 568.92,820.34 568.44,820.92 C 566.38,823.38 564.24,825.92 562.3,828.5 C 557.01,835.5 548.94,849.05 554.3,861.16 C 554.44,861.48 554.59,861.8 554.75,862.11 C 556.92,866.37 560.62,868.71 564.45,868.65 C 566.19,868.62 567.96,868.1 569.62,867.04 C 571.5,865.84 572.86,863.88 573.46,861.5 C 574.05,859.13 573.8,856.63 572.76,854.48 C 572.12,853.17 571.15,852.17 569.95,851.59 C 568.22,850.76 567.41,848.48 568.13,846.5 C 568.67,845.01 569.93,844.11 571.26,844.11 C 571.7,844.11 572.16,844.2 572.59,844.41 C 575.18,845.65 577.35,847.88 578.72,850.7 C 580.65,854.67 581.11,859.27 580.02,863.64 C 578.93,868.01 576.42,871.64 572.95,873.84 C 570.24,875.56 567.37,876.42 564.55,876.47 C 558.34,876.6 552.36,872.87 548.88,866.02 C 547.98,864.25 547.28,862.38 546.77,860.44 C 546.72,860.26 546.67,860.09 546.63,859.91 C 546.57,859.65 546.51,859.38 546.45,859.12 C 546.38,858.78 546.31,858.44 546.24,858.1 C 546.21,857.95 546.19,857.8 546.16,857.64 C 546.08,857.17 546.01,856.7 545.96,856.23 C 545.96,856.17 545.95,856.11 545.94,856.06 C 545.57,852.79 545.75,849.57 546.3,846.47 C 546.36,846.14 546.42,845.81 546.49,845.48 C 546.51,845.38 546.53,845.28 546.55,845.18 C 547.37,841.19 548.81,837.18 550.88,833.19 C 552.23,830.58 553.79,828.02 555.51,825.58 C 558.01,822.04 560.77,818.78 563.44,815.64 C 563.85,815.16 564.26,814.66 564.68,814.17 C 558.38,810.8 543.56,799.88 543.56,771.84 L 543.56,756.02 C 543.56,729.19 558.26,718.2 564.57,714.71 C 564.19,714.26 563.81,713.81 563.43,713.37 C 560.76,710.23 558,706.97 555.5,703.43 C 553.78,700.99 552.22,698.43 550.87,695.82 C 548.81,691.84 547.37,687.83 546.55,683.85 C 546.53,683.74 546.5,683.62 546.48,683.51 C 546.42,683.19 546.35,682.87 546.3,682.55 C 545.74,679.44 545.56,676.22 545.93,672.95 C 545.93,672.89 545.95,672.83 545.95,672.77 C 546.01,672.3 546.07,671.84 546.15,671.37 C 546.18,671.21 546.2,671.06 546.23,670.9 C 546.29,670.57 546.36,670.23 546.43,669.9 C 546.49,669.63 546.55,669.36 546.62,669.09 C 546.66,668.92 546.71,668.75 546.75,668.58 C 547.27,666.64 547.97,664.76 548.87,662.99 C 552.36,656.14 558.33,652.41 564.54,652.54 C 567.36,652.6 570.24,653.45 572.94,655.17 C 580.1,659.73 582.68,670.11 578.71,678.32 C 577.35,681.13 575.17,683.37 572.58,684.61 C 572.14,684.82 571.69,684.91 571.25,684.91 C 569.92,684.91 568.66,684.01 568.12,682.52 C 567.4,680.54 568.21,678.26 569.94,677.43 C 571.14,676.85 572.12,675.85 572.75,674.54 C 573.8,672.38 574.05,669.89 573.46,667.52 C 572.87,665.15 571.51,663.18 569.62,661.98 C 568.98,661.57 568.33,661.25 567.66,661 C 567.6,660.98 567.53,660.95 567.47,660.93 C 567.23,660.84 566.99,660.77 566.75,660.71 C 566.64,660.68 566.53,660.65 566.42,660.62 C 566.25,660.58 566.07,660.55 565.9,660.52 C 564.9,660.35 563.89,660.34 562.91,660.49 C 561.85,660.65 560.81,661 559.83,661.52 C 559.83,661.52 559.83,661.52 559.83,661.53 C 557.81,662.61 556.03,664.43 554.77,666.9 C 554.61,667.21 554.46,667.53 554.32,667.85 C 548.96,679.97 557.03,693.52 562.32,700.51 C 564.27,703.09 566.4,705.63 568.46,708.09 C 568.95,708.67 569.44,709.26 569.93,709.85 C 570.85,710.94 571.78,712.05 572.68,713.18 C 576.69,718.17 581.14,724.08 583.17,731.09 C 584.23,734.76 584.17,738.44 583.01,741.45 C 582.56,742.62 582.02,743.58 581.44,744.37 C 580.18,746.61 578.34,748.24 575.84,748.28 C 574.71,748.3 573.43,747.82 573,746.63 C 572.04,743.99 575.21,741.72 576.28,739.86 C 577.12,738.4 577.61,736.69 577.78,734.96 C 578.12,731.53 577.18,727.9 575.05,725.41 C 573.24,723.29 570.59,722.09 568.01,722.38 C 566.22,722.58 564.52,723.47 563.03,724.64 C 557.38,729.11 553.44,736.32 551.67,743.83 C 550.73,747.79 550.34,751.9 550.34,755.99 L 550.34,771.81 C 550.34,790.64 557.82,800.06 563.39,804.47 L 563.39,804.49 Z M 557.6,774.68 C 556.55,771.7 555.9,768.29 555.9,764.6 C 555.9,760.91 556.55,757.5 557.6,754.52 C 559.02,758.54 561.24,761.7 563.92,763.35 C 564.79,763.89 564.79,765.32 563.92,765.86 C 561.25,767.51 559.03,770.66 557.6,774.69 L 557.6,774.68 Z M 589.46,766.52 C 588.59,765.98 588.59,764.55 589.46,764.01 C 592.13,762.36 594.35,759.21 595.78,755.18 C 596.83,758.16 597.48,761.57 597.48,765.26 C 597.48,768.95 596.83,772.36 595.78,775.34 C 594.36,771.32 592.14,768.16 589.46,766.51 L 589.46,766.52 Z"/></svg>