<svg xmlns="http://www.w3.org/2000/svg" viewBox="265.0 318.6 94.4 242.8" fill="none"><path fill="currentColor" d="M 323.98,420.88 C 314.76,416.03 305.02,415.57 295.05,418.44 C 293.83,425.82 293.52,432.97 294.18,439.93 C 294.98,448.58 297.27,456.96 301.52,465 C 304.68,460.83 307.6,456.96 310.66,452.92 C 308.68,446.12 307.69,442.56 307.29,439.92 C 307.01,437.77 306.93,435.55 307.02,433.16 C 308.56,433.29 310.03,433.25 311.45,433.55 C 316.58,434.63 320.99,436.86 324.9,439.92 C 333.49,446.68 338.96,457.84 339.78,472.01 C 340.35,481.8 340.3,491.66 340.41,501.49 C 340.56,514.79 340.7,528.11 336.3,540.45 C 339.59,544.35 342.65,547.99 345.88,551.81 C 350.01,543.79 352.33,535.19 352.68,526.12 C 353.26,510.76 353.38,495.37 353.38,479.99 C 353.38,474.32 352.81,468.57 351.94,463 C 350.58,454.31 347.69,446.54 343.74,439.93 C 338.9,431.82 332.55,425.38 323.98,420.88 Z M 301.52,349.64 C 297.27,341.59 294.98,333.22 294.18,324.56 L 307.29,324.56 C 307.69,327.2 308.68,330.76 310.66,337.56 C 307.6,341.6 304.68,345.46 301.52,349.64 Z M 324.91,324.56 L 343.75,324.56 C 347.7,331.17 350.59,338.94 351.95,347.63 C 352.82,353.21 353.39,358.95 353.39,364.62 C 353.39,380 353.27,395.39 352.69,410.75 C 352.35,419.83 350.03,428.42 345.89,436.44 C 342.67,432.62 339.6,428.98 336.31,425.08 C 340.71,412.74 340.56,399.42 340.42,386.12 C 340.31,376.29 340.36,366.44 339.79,356.64 C 338.97,342.47 333.5,331.3 324.91,324.55 L 324.91,324.56 Z M 332.36,338.39 C 321.64,351.78 311.08,364.96 299.98,378.82 C 297.36,375.49 294.54,371.91 291.99,368.69 C 302.92,355.07 313.5,341.9 324.35,328.4 C 327.51,330.62 330.25,334.45 332.36,338.39 Z M 272.7,359.7 C 271.77,353.98 271.29,348.08 271.18,342.24 C 271.07,336.35 271.03,330.46 271.02,324.56 L 284.18,324.56 C 284.18,333.38 284.19,342.25 284.84,351.02 C 286.43,372.61 299.07,387.55 316.43,388.94 C 316.66,388.96 316.9,388.8 317.14,388.72 C 317.99,383.57 317.42,380.24 313.74,368.87 C 316.87,365.16 319.99,361.48 323.24,357.62 C 330.68,371.11 332.02,386.69 329.66,403.46 C 305.97,411.12 278.3,394.23 272.69,359.69 L 272.7,359.7 Z M 311.46,548.94 C 310.03,548.64 308.56,548.68 307.03,548.55 C 306.94,550.94 307.01,553.16 307.3,555.31 L 294.19,555.31 C 293.53,548.35 293.85,541.2 295.06,533.82 C 305.02,530.95 314.76,531.41 323.99,536.26 C 332.56,540.77 338.91,547.2 343.75,555.31 L 324.91,555.31 C 321,552.25 316.59,550.02 311.46,548.94 Z M 332.36,453.76 C 321.64,467.14 311.08,480.33 299.98,494.19 C 297.36,490.86 294.54,487.28 291.99,484.06 C 302.92,470.44 313.5,457.27 324.35,443.77 C 327.51,445.99 330.25,449.82 332.36,453.76 Z M 272.7,475.07 C 271.77,469.35 271.29,463.45 271.18,457.61 C 271.07,451.72 271.03,445.83 271.02,439.93 C 271.05,430 271.21,420.05 271.9,410.13 C 272.52,401.2 275.58,391.33 278.94,385.9 C 282.03,389.58 285.11,393.27 288.37,397.16 C 284.36,407.82 283.97,419.34 284.14,430.94 C 284.18,433.94 284.16,436.93 284.18,439.93 C 284.18,448.75 284.19,457.62 284.84,466.39 C 286.43,487.98 299.07,502.92 316.43,504.31 C 316.66,504.33 316.9,504.17 317.14,504.09 C 317.99,498.94 317.42,495.61 313.74,484.24 C 316.87,480.53 319.99,476.85 323.24,472.99 C 330.68,486.48 332.02,502.06 329.66,518.83 C 305.97,526.49 278.3,509.6 272.69,475.06 L 272.7,475.07 Z M 284.15,546.31 C 284.19,549.31 284.17,552.3 284.19,555.3 L 271.03,555.3 C 271.06,545.37 271.22,535.42 271.91,525.5 C 272.53,516.57 275.59,506.7 278.95,501.27 C 282.04,504.96 285.12,508.64 288.38,512.53 C 284.37,523.19 283.98,534.71 284.15,546.31 Z"/></svg>