<svg xmlns="http://www.w3.org/2000/svg" viewBox="519.5 1292.2 103.5 242.8" fill="none"><path fill="currentColor" d="M 548.25,1366.56 C 549.78,1362.37 552.43,1359.33 555.57,1358.49 C 555.8,1358.43 555.8,1358.09 555.57,1358.02 C 552.43,1357.18 549.78,1354.14 548.25,1349.95 C 548.15,1349.68 547.82,1349.75 547.82,1350.04 L 547.82,1366.46 C 547.82,1366.75 548.15,1366.82 548.25,1366.55 L 548.25,1366.56 Z M 594.68,1344.75 L 594.68,1361.17 C 594.68,1361.46 594.35,1361.53 594.25,1361.26 C 592.72,1357.07 590.07,1354.03 586.93,1353.19 C 586.7,1353.13 586.7,1352.79 586.93,1352.72 C 590.07,1351.88 592.72,1348.84 594.25,1344.65 C 594.35,1344.38 594.68,1344.45 594.68,1344.74 L 594.68,1344.75 Z M 547.82,1482 L 547.82,1465.58 C 547.82,1465.29 548.15,1465.22 548.25,1465.49 C 549.78,1469.68 552.43,1472.72 555.57,1473.56 C 555.8,1473.62 555.8,1473.96 555.57,1474.03 C 552.43,1474.87 549.78,1477.91 548.25,1482.1 C 548.15,1482.37 547.82,1482.3 547.82,1482.01 L 547.82,1482 Z M 594.68,1460.29 L 594.68,1476.71 C 594.68,1477 594.35,1477.07 594.25,1476.8 C 592.72,1472.61 590.07,1469.57 586.93,1468.73 C 586.7,1468.67 586.7,1468.33 586.93,1468.26 C 590.07,1467.42 592.72,1464.38 594.25,1460.19 C 594.35,1459.92 594.68,1459.99 594.68,1460.28 L 594.68,1460.29 Z M 547.82,1421.81 L 547.82,1405.39 C 547.82,1405.1 548.15,1405.03 548.25,1405.3 C 549.78,1409.49 552.43,1412.53 555.57,1413.37 C 555.8,1413.43 555.8,1413.77 555.57,1413.84 C 552.43,1414.68 549.78,1417.72 548.25,1421.91 C 548.15,1422.18 547.82,1422.11 547.82,1421.82 L 547.82,1421.81 Z M 594.68,1405.38 L 594.68,1421.8 C 594.68,1422.09 594.35,1422.16 594.25,1421.89 C 592.72,1417.7 590.07,1414.66 586.93,1413.82 C 586.7,1413.76 586.7,1413.42 586.93,1413.35 C 590.07,1412.51 592.72,1409.47 594.25,1405.28 C 594.35,1405.01 594.68,1405.08 594.68,1405.37 L 594.68,1405.38 Z M 555.75,1298.25 C 555.75,1298.35 555.69,1298.45 555.58,1298.48 C 552.44,1299.32 549.79,1302.36 548.26,1306.55 C 548.16,1306.82 547.83,1306.75 547.83,1306.46 L 547.83,1298.25 L 555.75,1298.25 Z M 594.68,1298.25 L 594.68,1306.46 C 594.68,1306.75 594.35,1306.82 594.25,1306.55 C 592.72,1302.36 590.07,1299.32 586.93,1298.48 C 586.81,1298.45 586.76,1298.35 586.76,1298.25 L 594.68,1298.25 Z M 547.82,1528.94 L 547.82,1520.73 C 547.82,1520.44 548.15,1520.37 548.25,1520.64 C 549.78,1524.83 552.43,1527.87 555.57,1528.71 C 555.69,1528.74 555.74,1528.84 555.74,1528.94 L 547.82,1528.94 Z M 586.76,1528.94 C 586.76,1528.84 586.82,1528.74 586.93,1528.71 C 590.07,1527.87 592.72,1524.83 594.25,1520.64 C 594.35,1520.37 594.68,1520.44 594.68,1520.73 L 594.68,1528.94 L 586.76,1528.94 Z M 616.93,1528.99 L 610.93,1528.99 L 610.93,1298.25 L 616.93,1298.25 L 616.93,1528.99 Z M 531.47,1528.94 L 531.47,1529 L 525.47,1529 L 525.47,1298.26 L 531.47,1298.26 L 531.47,1528.95 L 531.47,1528.94 Z M 587.14,1306.9 C 591.93,1312.04 594.57,1318.8 594.57,1325.95 C 594.57,1338.47 586.35,1349.48 575.85,1351.01 C 570.82,1351.75 565.53,1350.14 561.33,1346.59 C 557.97,1343.75 555.39,1339.77 554.08,1335.36 C 552.13,1328.81 553.12,1321.33 556.73,1315.34 C 560.24,1309.51 565.63,1306.02 571.14,1306.02 C 578.8,1306.02 587.85,1313.08 589.12,1323.61 C 589.95,1330.56 587.44,1337.07 582.39,1341.02 C 577.12,1345.14 570.43,1345.49 565.35,1341.92 C 560.59,1338.57 557.93,1332.1 558.71,1325.82 C 559.64,1318.48 565.1,1312.73 571.14,1312.72 C 574.57,1312.72 578.42,1314.8 580.95,1318.03 C 583.09,1320.75 584.13,1324.08 583.91,1327.41 C 583.64,1331.28 581.45,1334.9 578.31,1336.63 C 574.23,1338.88 568.09,1338.29 565.28,1333.44 C 563.39,1330.16 563.64,1325.27 565.84,1322.3 C 567.78,1319.69 570.72,1318.84 573.52,1320.08 C 576.55,1321.42 578.51,1324.75 578.51,1328.56 C 578.51,1329.54 577.84,1330.32 577.01,1330.32 C 576.18,1330.32 575.51,1329.53 575.51,1328.56 C 575.51,1325.73 573.87,1324 572.46,1323.38 C 570.84,1322.66 569.21,1323.13 568.09,1324.62 C 566.76,1326.41 566.61,1329.48 567.76,1331.46 C 569.61,1334.67 574.05,1335.08 577.03,1333.44 C 579.17,1332.26 580.73,1329.72 580.91,1327.13 C 581.11,1324.17 579.84,1321.84 578.73,1320.43 C 576.77,1317.93 573.71,1316.26 571.12,1316.26 C 566.6,1316.26 562.35,1320.79 561.65,1326.35 C 561.04,1331.24 563.13,1336.28 566.87,1338.9 C 570.97,1341.78 576.4,1341.46 580.72,1338.09 C 584.84,1334.87 586.8,1329.78 586.13,1324.12 C 585.08,1315.4 577.52,1309.55 571.12,1309.56 C 566.58,1309.56 562.11,1312.49 559.16,1317.39 C 556.11,1322.45 555.27,1328.73 556.9,1334.2 C 558.01,1337.93 560.2,1341.31 563.07,1343.73 C 566.66,1346.76 571.17,1348.14 575.47,1347.51 C 584.34,1346.21 591.56,1336.54 591.56,1325.95 C 591.56,1319.81 589.27,1313.97 585.11,1309.51 C 581.17,1305.29 576.08,1302.86 571.14,1302.87 C 560.09,1302.87 550.75,1314.64 550.75,1328.56 C 550.75,1338.28 555.22,1347.33 562.13,1351.63 C 563.3,1352.36 564.53,1352.93 565.77,1353.32 C 567.64,1353.91 569.57,1354.14 571.61,1354.39 C 573.87,1354.66 576.22,1354.94 578.49,1355.75 C 582.15,1357.05 585.5,1359.67 588.2,1363.33 C 590.85,1366.93 592.84,1371.5 593.82,1376.2 C 594.32,1378.57 594.56,1381.02 594.56,1383.47 C 594.56,1399.3 583.85,1412.68 571.17,1412.69 C 565.49,1412.69 559.66,1409.94 555.17,1405.13 C 550.38,1399.99 547.74,1393.23 547.74,1386.08 C 547.74,1373.57 555.96,1362.56 566.46,1361.02 C 571.49,1360.28 576.78,1361.89 580.98,1365.44 C 584.34,1368.28 586.91,1372.27 588.22,1376.67 C 590.17,1383.22 589.18,1390.7 585.57,1396.69 C 582.06,1402.52 576.67,1406.01 571.16,1406.01 C 563.5,1406.01 554.45,1398.95 553.18,1388.42 C 552.35,1381.47 554.86,1374.96 559.91,1371.01 C 565.18,1366.89 571.87,1366.54 576.96,1370.11 C 581.72,1373.46 584.4,1379.93 583.6,1386.21 C 582.68,1393.55 577.22,1399.31 571.17,1399.31 C 567.75,1399.31 563.89,1397.23 561.36,1394 C 559.22,1391.28 558.17,1387.95 558.4,1384.62 C 558.67,1380.74 560.86,1377.13 564,1375.4 C 568.08,1373.15 574.22,1373.74 577.02,1378.59 C 578.91,1381.87 578.67,1386.76 576.46,1389.73 C 574.52,1392.34 571.58,1393.19 568.78,1391.95 C 565.74,1390.61 563.78,1387.28 563.78,1383.47 C 563.78,1382.49 564.45,1381.71 565.28,1381.71 C 566.11,1381.71 566.78,1382.5 566.78,1383.47 C 566.78,1386.3 568.42,1388.03 569.83,1388.65 C 571.45,1389.37 573.08,1388.9 574.19,1387.41 C 575.52,1385.62 575.67,1382.56 574.52,1380.58 C 572.67,1377.36 568.23,1376.96 565.25,1378.6 C 563.11,1379.78 561.54,1382.32 561.37,1384.91 C 561.16,1387.9 562.44,1390.2 563.55,1391.61 C 565.51,1394.11 568.57,1395.78 571.16,1395.78 C 575.69,1395.78 579.93,1391.25 580.63,1385.69 C 581.26,1380.8 579.15,1375.76 575.42,1373.13 C 571.32,1370.25 565.89,1370.57 561.57,1373.94 C 557.45,1377.16 555.47,1382.25 556.15,1387.91 C 557.2,1396.63 564.76,1402.48 571.16,1402.47 C 575.7,1402.47 580.17,1399.54 583.12,1394.64 C 586.17,1389.58 587.01,1383.3 585.38,1377.83 C 584.27,1374.11 582.08,1370.72 579.22,1368.3 C 575.63,1365.27 571.11,1363.89 566.82,1364.52 C 557.95,1365.82 550.73,1375.5 550.73,1386.08 C 550.73,1392.22 553.02,1398.06 557.18,1402.52 C 561.12,1406.74 566.21,1409.17 571.15,1409.16 C 582.2,1409.16 591.54,1397.39 591.54,1383.47 C 591.54,1381.3 591.32,1379.14 590.88,1377.04 C 590.01,1372.87 588.25,1368.83 585.91,1365.65 C 583.59,1362.5 580.72,1360.25 577.6,1359.14 C 575.6,1358.43 573.5,1358.18 571.28,1357.91 C 569.21,1357.66 567.06,1357.41 564.96,1356.74 C 563.51,1356.28 562.07,1355.61 560.7,1354.76 C 552.81,1349.86 547.72,1339.58 547.72,1328.57 C 547.72,1312.74 558.43,1299.36 571.11,1299.35 C 576.79,1299.35 582.62,1302.1 587.11,1306.91 L 587.14,1306.9 Z M 587.14,1422.04 C 591.93,1427.18 594.57,1433.94 594.57,1441.09 C 594.57,1453.61 586.35,1464.62 575.85,1466.15 C 570.82,1466.89 565.53,1465.28 561.33,1461.74 C 557.97,1458.9 555.4,1454.91 554.08,1450.51 C 552.13,1443.96 553.12,1436.48 556.73,1430.49 C 560.24,1424.66 565.63,1421.17 571.14,1421.17 C 578.8,1421.17 587.85,1428.23 589.12,1438.76 C 589.95,1445.72 587.44,1452.22 582.39,1456.17 C 577.12,1460.29 570.43,1460.64 565.35,1457.07 C 560.59,1453.72 557.93,1447.25 558.71,1440.97 C 559.64,1433.63 565.1,1427.88 571.14,1427.87 C 574.57,1427.87 578.42,1429.95 580.96,1433.18 C 583.1,1435.9 584.14,1439.25 583.92,1442.56 C 583.65,1446.44 581.46,1450.05 578.32,1451.78 C 574.24,1454.03 568.1,1453.44 565.29,1448.59 C 563.4,1445.31 563.65,1440.42 565.85,1437.45 C 567.79,1434.84 570.73,1433.99 573.53,1435.23 C 576.56,1436.57 578.52,1439.9 578.52,1443.71 C 578.52,1444.69 577.85,1445.47 577.02,1445.47 C 576.19,1445.47 575.52,1444.68 575.52,1443.71 C 575.52,1440.88 573.88,1439.15 572.47,1438.53 C 570.85,1437.81 569.22,1438.28 568.1,1439.77 C 566.78,1441.56 566.63,1444.62 567.77,1446.6 C 569.62,1449.81 574.06,1450.22 577.04,1448.58 C 579.18,1447.4 580.74,1444.87 580.92,1442.27 C 581.13,1439.3 579.85,1436.98 578.74,1435.57 C 576.78,1433.07 573.72,1431.4 571.13,1431.4 C 566.61,1431.4 562.36,1435.93 561.66,1441.49 C 561.05,1446.37 563.14,1451.42 566.88,1454.04 C 570.98,1456.92 576.41,1456.6 580.72,1453.23 C 584.84,1450.01 586.81,1444.92 586.14,1439.26 C 585.09,1430.55 577.53,1424.7 571.13,1424.7 C 566.59,1424.7 562.12,1427.63 559.17,1432.53 C 556.12,1437.59 555.29,1443.88 556.91,1449.34 C 558.02,1453.07 560.21,1456.45 563.08,1458.87 C 566.67,1461.9 571.18,1463.28 575.48,1462.65 C 584.35,1461.35 591.57,1451.68 591.57,1441.09 C 591.57,1434.95 589.28,1429.11 585.12,1424.65 C 581.18,1420.43 576.09,1418 571.15,1418.01 C 560.1,1418.01 550.76,1429.78 550.76,1443.7 C 550.76,1453.42 555.23,1462.47 562.14,1466.77 C 563.31,1467.5 564.54,1468.07 565.78,1468.46 C 567.64,1469.05 569.58,1469.28 571.62,1469.53 C 573.88,1469.8 576.23,1470.08 578.5,1470.89 C 582.16,1472.19 585.51,1474.81 588.21,1478.47 C 590.86,1482.07 592.85,1486.64 593.83,1491.34 C 594.33,1493.71 594.57,1496.15 594.57,1498.61 C 594.57,1514.44 583.86,1527.82 571.18,1527.83 C 565.5,1527.83 559.67,1525.07 555.18,1520.26 C 550.39,1515.12 547.75,1508.36 547.75,1501.21 C 547.75,1488.69 555.97,1477.68 566.47,1476.15 C 571.5,1475.41 576.79,1477.02 580.99,1480.56 C 584.35,1483.4 586.92,1487.39 588.23,1491.79 C 590.18,1498.34 589.19,1505.82 585.58,1511.81 C 582.07,1517.64 576.68,1521.13 571.17,1521.13 C 563.51,1521.13 554.46,1514.07 553.19,1503.54 C 552.36,1496.57 554.87,1490.08 559.92,1486.13 C 565.19,1482.01 571.88,1481.66 576.97,1485.23 C 581.73,1488.58 584.41,1495.06 583.61,1501.33 C 582.69,1508.67 577.23,1514.42 571.18,1514.43 C 567.75,1514.43 563.9,1512.35 561.36,1509.12 C 559.22,1506.4 558.16,1503.07 558.4,1499.75 C 558.67,1495.87 560.86,1492.25 564,1490.53 C 568.08,1488.28 574.22,1488.87 577.02,1493.73 C 578.91,1497.01 578.66,1501.9 576.46,1504.87 C 574.52,1507.48 571.58,1508.33 568.78,1507.1 C 565.74,1505.76 563.78,1502.43 563.78,1498.62 C 563.78,1497.64 564.45,1496.86 565.28,1496.86 C 566.11,1496.86 566.78,1497.65 566.78,1498.62 C 566.78,1501.45 568.42,1503.18 569.83,1503.8 C 571.45,1504.52 573.08,1504.05 574.19,1502.56 C 575.52,1500.78 575.67,1497.71 574.52,1495.73 C 572.67,1492.51 568.23,1492.11 565.25,1493.75 C 563.11,1494.93 561.54,1497.47 561.37,1500.06 C 561.16,1503.05 562.44,1505.35 563.55,1506.76 C 565.51,1509.26 568.57,1510.93 571.16,1510.93 C 575.68,1510.93 579.93,1506.4 580.63,1500.84 C 581.26,1495.94 579.15,1490.91 575.42,1488.28 C 571.32,1485.4 565.89,1485.72 561.57,1489.09 C 557.25,1492.46 555.47,1497.41 556.15,1503.06 C 557.2,1511.77 564.76,1517.62 571.16,1517.62 C 575.7,1517.62 580.17,1514.69 583.12,1509.79 C 586.16,1504.73 587,1498.45 585.38,1492.98 C 584.27,1489.25 582.08,1485.87 579.22,1483.45 C 575.63,1480.42 571.11,1479.04 566.82,1479.67 C 557.95,1480.97 550.73,1490.64 550.73,1501.23 C 550.73,1507.37 553.02,1513.21 557.18,1517.67 C 561.12,1521.89 566.21,1524.32 571.15,1524.31 C 582.2,1524.31 591.54,1512.54 591.54,1498.62 C 591.54,1496.45 591.32,1494.29 590.88,1492.19 C 590.01,1488.02 588.25,1483.97 585.91,1480.8 C 583.59,1477.65 580.72,1475.4 577.6,1474.29 C 575.6,1473.58 573.5,1473.33 571.28,1473.06 C 569.2,1472.81 567.06,1472.56 564.96,1471.89 C 563.5,1471.42 562.07,1470.76 560.7,1469.91 C 552.81,1465.01 547.72,1454.73 547.72,1443.72 C 547.72,1427.89 558.43,1414.51 571.11,1414.5 C 576.79,1414.5 582.62,1417.26 587.11,1422.07 L 587.14,1422.04 Z M 607.22,1300.02 L 599.31,1300.02 L 599.31,1298.26 L 607.22,1298.26 L 607.22,1300.02 Z M 607.22,1303.93 L 607.22,1307.46 L 599.31,1307.46 L 599.31,1303.93 L 607.22,1303.93 Z M 607.22,1314.9 L 599.31,1314.9 L 599.31,1311.37 L 607.22,1311.37 L 607.22,1314.9 Z M 607.22,1322.34 L 599.31,1322.34 L 599.31,1318.81 L 607.22,1318.81 L 607.22,1322.34 Z M 607.22,1329.78 L 599.31,1329.78 L 599.31,1326.25 L 607.22,1326.25 L 607.22,1329.78 Z M 607.22,1337.22 L 599.31,1337.22 L 599.31,1333.69 L 607.22,1333.69 L 607.22,1337.22 Z M 607.22,1341.14 L 607.22,1344.67 L 599.31,1344.67 L 599.31,1341.14 L 607.22,1341.14 Z M 607.22,1352.11 L 599.31,1352.11 L 599.31,1348.58 L 607.22,1348.58 L 607.22,1352.11 Z M 607.22,1359.55 L 599.31,1359.55 L 599.31,1356.02 L 607.22,1356.02 L 607.22,1359.55 Z M 607.22,1366.99 L 599.31,1366.99 L 599.31,1363.46 L 607.22,1363.46 L 607.22,1366.99 Z M 607.22,1374.43 L 599.31,1374.43 L 599.31,1370.9 L 607.22,1370.9 L 607.22,1374.43 Z M 607.22,1381.87 L 599.31,1381.87 L 599.31,1378.34 L 607.22,1378.34 L 607.22,1381.87 Z M 607.22,1389.31 L 599.31,1389.31 L 599.31,1385.78 L 607.22,1385.78 L 607.22,1389.31 Z M 607.22,1396.76 L 599.31,1396.76 L 599.31,1393.23 L 607.22,1393.23 L 607.22,1396.76 Z M 599.31,1404.2 L 599.31,1400.67 L 607.22,1400.67 L 607.22,1404.2 L 599.31,1404.2 Z M 607.22,1411.64 L 599.31,1411.64 L 599.31,1408.11 L 607.22,1408.11 L 607.22,1411.64 Z M 607.22,1419.08 L 599.31,1419.08 L 599.31,1415.55 L 607.22,1415.55 L 607.22,1419.08 Z M 607.22,1426.52 L 599.31,1426.52 L 599.31,1422.99 L 607.22,1422.99 L 607.22,1426.52 Z M 607.22,1433.96 L 599.31,1433.96 L 599.31,1430.43 L 607.22,1430.43 L 607.22,1433.96 Z M 599.31,1441.4 L 599.31,1437.87 L 607.22,1437.87 L 607.22,1441.4 L 599.31,1441.4 Z M 607.22,1448.85 L 599.31,1448.85 L 599.31,1445.32 L 607.22,1445.32 L 607.22,1448.85 Z M 607.22,1456.29 L 599.31,1456.29 L 599.31,1452.76 L 607.22,1452.76 L 607.22,1456.29 Z M 599.31,1463.73 L 599.31,1460.2 L 607.22,1460.2 L 607.22,1463.73 L 599.31,1463.73 Z M 607.22,1471.17 L 599.31,1471.17 L 599.31,1467.64 L 607.22,1467.64 L 607.22,1471.17 Z M 599.31,1478.61 L 599.31,1475.08 L 607.22,1475.08 L 607.22,1478.61 L 599.31,1478.61 Z M 607.22,1486.05 L 599.31,1486.05 L 599.31,1482.52 L 607.22,1482.52 L 607.22,1486.05 Z M 599.31,1493.5 L 599.31,1489.97 L 607.22,1489.97 L 607.22,1493.5 L 599.31,1493.5 Z M 599.31,1500.94 L 599.31,1497.41 L 607.22,1497.41 L 607.22,1500.94 L 599.31,1500.94 Z M 607.22,1508.38 L 599.31,1508.38 L 599.31,1504.85 L 607.22,1504.85 L 607.22,1508.38 Z M 607.22,1515.82 L 599.31,1515.82 L 599.31,1512.29 L 607.22,1512.29 L 607.22,1515.82 Z M 607.22,1519.73 L 607.22,1523.26 L 599.31,1523.26 L 599.31,1519.73 L 607.22,1519.73 Z M 607.22,1527.17 L 607.22,1528.99 L 599.31,1528.99 L 599.31,1527.17 L 607.22,1527.17 Z M 543.02,1298.25 L 543.02,1300.01 L 535.11,1300.01 L 535.11,1298.25 L 543.02,1298.25 Z M 543.02,1303.93 L 543.02,1307.46 L 535.11,1307.46 L 535.11,1303.93 L 543.02,1303.93 Z M 535.11,1311.37 L 543.02,1311.37 L 543.02,1314.9 L 535.11,1314.9 L 535.11,1311.37 Z M 535.11,1318.81 L 543.02,1318.81 L 543.02,1322.34 L 535.11,1322.34 L 535.11,1318.81 Z M 543.02,1326.25 L 543.02,1329.78 L 535.11,1329.78 L 535.11,1326.25 L 543.02,1326.25 Z M 535.11,1333.69 L 543.02,1333.69 L 543.02,1337.22 L 535.11,1337.22 L 535.11,1333.69 Z M 535.11,1341.14 L 543.02,1341.14 L 543.02,1344.67 L 535.11,1344.67 L 535.11,1341.14 Z M 543.02,1348.58 L 543.02,1352.11 L 535.11,1352.11 L 535.11,1348.58 L 543.02,1348.58 Z M 535.11,1356.02 L 543.02,1356.02 L 543.02,1359.55 L 535.11,1359.55 L 535.11,1356.02 Z M 535.11,1366.99 L 535.11,1363.46 L 543.02,1363.46 L 543.02,1366.99 L 535.11,1366.99 Z M 535.11,1370.9 L 543.02,1370.9 L 543.02,1374.43 L 535.11,1374.43 L 535.11,1370.9 Z M 535.11,1378.34 L 543.02,1378.34 L 543.02,1381.87 L 535.11,1381.87 L 535.11,1378.34 Z M 543.02,1385.78 L 543.02,1389.31 L 535.11,1389.31 L 535.11,1385.78 L 543.02,1385.78 Z M 535.11,1393.23 L 543.02,1393.23 L 543.02,1396.76 L 535.11,1396.76 L 535.11,1393.23 Z M 535.11,1400.67 L 543.02,1400.67 L 543.02,1404.2 L 535.11,1404.2 L 535.11,1400.67 Z M 535.11,1408.11 L 543.02,1408.11 L 543.02,1411.64 L 535.11,1411.64 L 535.11,1408.11 Z M 535.11,1415.55 L 543.02,1415.55 L 543.02,1419.08 L 535.11,1419.08 L 535.11,1415.55 Z M 543.02,1422.99 L 543.02,1426.52 L 535.11,1426.52 L 535.11,1422.99 L 543.02,1422.99 Z M 535.11,1430.43 L 543.02,1430.43 L 543.02,1433.96 L 535.11,1433.96 L 535.11,1430.43 Z M 535.11,1437.88 L 543.02,1437.88 L 543.02,1441.41 L 535.11,1441.41 L 535.11,1437.88 Z M 535.11,1445.32 L 543.02,1445.32 L 543.02,1448.85 L 535.11,1448.85 L 535.11,1445.32 Z M 535.11,1452.76 L 543.02,1452.76 L 543.02,1456.29 L 535.11,1456.29 L 535.11,1452.76 Z M 535.11,1460.2 L 543.02,1460.2 L 543.02,1463.73 L 535.11,1463.73 L 535.11,1460.2 Z M 535.11,1467.64 L 543.02,1467.64 L 543.02,1471.17 L 535.11,1471.17 L 535.11,1467.64 Z M 535.11,1475.08 L 543.02,1475.08 L 543.02,1478.61 L 535.11,1478.61 L 535.11,1475.08 Z M 543.02,1482.52 L 543.02,1486.05 L 535.11,1486.05 L 535.11,1482.52 L 543.02,1482.52 Z M 535.11,1489.97 L 543.02,1489.97 L 543.02,1493.5 L 535.11,1493.5 L 535.11,1489.97 Z M 535.11,1497.41 L 543.02,1497.41 L 543.02,1500.94 L 535.11,1500.94 L 535.11,1497.41 Z M 535.11,1504.85 L 543.02,1504.85 L 543.02,1508.38 L 535.11,1508.38 L 535.11,1504.85 Z M 535.11,1512.29 L 543.02,1512.29 L 543.02,1515.82 L 535.11,1515.82 L 535.11,1512.29 Z M 543.02,1519.73 L 543.02,1523.26 L 535.11,1523.26 L 535.11,1519.73 L 543.02,1519.73 Z M 543.02,1527.17 L 543.02,1528.99 L 535.11,1528.99 L 535.11,1527.17 L 543.02,1527.17 Z"/></svg>