<svg xmlns="http://www.w3.org/2000/svg" viewBox="-3.1 967.6 112.5 242.8" fill="none"><path fill="currentColor" d="M 82.83,1048.38 C 84.42,1048.7 85.55,1050.54 85.71,1052.49 C 85.94,1055.37 84.55,1057.93 82.11,1058.69 C 80.18,1059.29 77.96,1058.78 76.7,1056.89 C 75.43,1054.98 75.26,1051.76 76.35,1049.69 C 77.83,1046.85 80.78,1046.81 82.83,1048.38 Z M 83.52,1128.49 C 85.06,1128.98 86.86,1131.31 86.69,1133.31 C 86.8,1133.81 86.79,1134.36 86.65,1134.88 C 86.24,1136.48 84.89,1137.83 83.61,1138.49 C 80.92,1139.88 77.76,1137.83 77.47,1134.43 C 77.16,1130.85 80.47,1127.52 83.51,1128.49 L 83.52,1128.49 Z M 20.44,974.73 C 20.44,974.73 20.41,975.59 20.41,975.8 C 20.41,976.01 20.36,976.81 20.36,976.82 C 20.15,980.79 20.68,985.06 20.72,988.97 C 20.77,993.57 20.82,998.18 20.84,1002.78 C 20.91,1021.47 20.46,1040.19 19.94,1058.87 C 19.44,1076.83 19.96,1094.76 19.57,1112.7 C 19.39,1121.11 19.69,1129.62 19.7,1138.04 C 19.7,1146.68 19.78,1155.32 20.05,1163.95 C 20.3,1171.9 20.32,1179.85 20.43,1187.8 C 20.49,1191.74 20.43,1195.67 20.45,1199.6 C 20.45,1200.7 20.48,1203.57 20.54,1204.42 L 37.83,1204.42 C 32.53,1199.75 27.26,1194.15 25.82,1186.33 C 25.84,1186.41 25.85,1186.5 25.87,1186.59 C 25.85,1186.5 25.84,1186.42 25.82,1186.33 C 25.79,1186.14 25.76,1186.01 25.74,1185.89 C 25.76,1186.01 25.79,1186.15 25.82,1186.32 C 24.38,1178.53 24.62,1171.06 28.06,1163.94 C 32.93,1153.87 41.62,1149.46 51.39,1150.64 C 54.96,1151.07 58.51,1152.08 61.64,1154.1 C 66.86,1157.48 70.06,1163.82 70.66,1170.62 C 71.24,1177.16 69.29,1184.04 65.19,1188.61 C 61.09,1193.18 54.84,1195.19 49.37,1193.29 C 46.88,1192.42 44.58,1190.78 42.95,1188.44 C 40.74,1185.27 39.92,1180.99 40.31,1176.95 C 40.65,1173.47 41.9,1170.03 44.16,1167.69 C 46.42,1165.35 49.76,1164.29 52.62,1165.44 C 55.22,1166.49 57.14,1169.19 58.06,1172.19 C 58.55,1173.78 58.79,1175.51 58.48,1177.16 C 58.18,1178.81 57.27,1180.36 55.94,1181.06 C 54.61,1181.76 52.86,1181.43 51.95,1180.11 C 51.32,1179.21 51.1,1177.49 51.76,1176.52 C 52.37,1175.63 53.6,1176.07 54.16,1175.19 C 54.39,1174.82 54.37,1174.31 54.27,1173.87 C 53.68,1171.33 50.69,1170.25 48.67,1171.48 C 46.65,1172.71 45.67,1175.56 45.82,1178.19 C 46.08,1182.68 49.36,1186.59 53.2,1187.41 C 57.04,1188.22 61.15,1186.1 63.45,1182.47 C 65.75,1178.83 66.28,1173.9 65.14,1169.59 C 64,1165.29 61.3,1161.64 57.96,1159.3 C 50.05,1153.76 41.41,1155.27 35.78,1163.62 C 31.6,1169.82 28.75,1179.58 32.07,1187.04 C 34.99,1193.6 42.13,1199.82 48.1,1202.15 C 55.03,1204.86 63.12,1203.21 69.21,1198.71 C 74.88,1194.52 77.32,1184.64 78.07,1177.29 C 78.83,1169.81 77.08,1160.09 73.67,1153.64 C 70.25,1147.17 64.73,1141.58 58.85,1138.23 C 55.9,1136.55 52.75,1135.43 49.7,1134.02 C 46.52,1132.56 43.7,1130.44 40.6,1128.81 C 34.37,1125.53 29.38,1121.11 26.91,1113.44 C 22.87,1100.9 26.28,1081.7 37.19,1074.79 C 44.47,1070.18 55.14,1072.45 61.79,1077.58 C 68.75,1082.95 72.73,1093.34 70.36,1102.8 C 67.35,1114.78 54.73,1119.94 45.71,1113.15 C 43.94,1111.82 42.36,1110.05 41.44,1107.85 C 40.04,1104.52 40.29,1100.51 41.38,1097.03 C 42.64,1093.01 45.26,1089.26 48.86,1088.22 C 52.29,1087.23 56.2,1089.11 57.99,1092.62 C 59.26,1095.1 59.44,1098.43 58.02,1100.8 C 56.43,1103.44 51.65,1104.49 50.07,1101.18 C 49.7,1100.4 49.87,1099.24 50.59,1098.9 C 51.89,1098.29 53.51,1100.52 54.22,1098.26 C 54.62,1096.99 53.42,1095.16 52.46,1094.69 C 51.09,1094.02 49.49,1094.48 48.18,1095.3 C 46.72,1096.22 45.45,1097.64 44.89,1099.45 C 44.07,1102.11 44.96,1105.21 46.69,1107.21 C 50.37,1111.46 57.83,1112.2 61.96,1108.49 C 64.94,1105.81 66.12,1101.12 65.84,1096.78 C 65.37,1089.52 61.05,1082.66 55.05,1080.19 C 42.83,1075.16 31.11,1087.76 31.44,1101.81 C 31.66,1111.01 37.31,1120.12 44.93,1123.12 C 51.53,1125.71 58.89,1126.98 65.58,1123.82 C 71.55,1121 76.22,1113.89 77.82,1106.94 C 81.19,1092.33 76.77,1074.29 65.79,1065.52 C 59.83,1060.76 52.69,1059.32 46.39,1055.33 C 40.32,1051.49 34.79,1046.71 30.76,1040.14 C 26.8,1033.68 24.87,1025.99 25.83,1018.11 C 26.67,1011.23 29.83,1001.36 34.44,996.65 C 44.8,986.05 60.05,993.58 67.14,1005.18 C 70.84,1011.23 71.82,1020.39 68.8,1026.99 C 65.7,1033.76 62.53,1036.67 55.94,1037.98 C 50.09,1039.15 42.98,1034.91 41.56,1028.03 C 40.94,1025.01 40.67,1021.73 41.02,1018.65 C 41.3,1016.2 42.1,1013.75 43.64,1012.02 C 45.43,1010 48.12,1009.15 50.59,1009.65 C 53.06,1010.15 55.28,1011.93 56.7,1014.31 C 57.97,1016.45 58.61,1019.27 57.76,1021.67 C 57.05,1023.69 55.29,1025.16 53.41,1025.32 C 52.53,1025.39 51.62,1025.19 50.9,1024.59 C 50.19,1023.99 49.72,1022.97 49.83,1021.97 C 49.87,1021.64 49.97,1021.31 50.18,1021.08 C 51.4,1019.72 53.85,1022.1 54.33,1019.16 C 54.6,1017.51 53.02,1015.32 51.74,1014.82 C 49.96,1014.13 47.9,1015 46.68,1016.64 C 45.46,1018.28 45.01,1020.55 45.16,1022.71 C 45.38,1025.94 46.91,1029.02 49.22,1030.88 C 55.59,1036.01 63.72,1030.18 64.91,1022.04 C 65.78,1016.1 63.42,1009.99 59.79,1005.65 C 56.21,1001.37 50.99,998.42 45.93,999.55 C 42.77,1000.26 39.95,1002.5 37.91,1005.37 C 32.01,1013.67 31.28,1026.41 36.24,1035.49 C 41.2,1044.58 51.46,1049.35 60.51,1046.77 C 65.36,1045.39 69.74,1042.11 73.01,1037.76 C 76.6,1032.99 78.88,1026.92 79.37,1020.63 C 79.9,1013.82 78.35,1006.88 75.36,1000.96 C 72.37,995.05 68,990.13 63.01,986.43 C 58.85,983.34 54.28,981.08 49.63,979.16 C 48.54,978.71 47.41,978.32 46.29,977.93 C 46.29,977.93 43.08,976.61 40.29,975.11 C 39.59,974.74 38.91,974.35 38.32,973.97 C 38.15,973.86 37.99,973.76 37.84,973.65 L 20.55,973.65 L 20.55,973.88 C 20.55,973.88 20.46,974.67 20.46,974.69 L 20.44,974.73 Z M 35.32,1139.26 C 36.42,1142.63 33.97,1146.83 30.82,1146.8 C 29.22,1146.78 26.96,1145.08 26.67,1143.1 C 26.46,1142.65 26.34,1142.12 26.35,1141.57 C 26.38,1139.9 27.39,1138.2 28.48,1137.17 C 30.77,1135.02 34.27,1136.06 35.32,1139.26 Z M 35.25,1061.09 C 35.9,1062.78 35.48,1065.85 34.04,1066.97 C 33.77,1067.38 33.4,1067.72 32.96,1067.93 C 31.63,1068.59 29.86,1068.23 28.6,1067.51 C 25.96,1066 25.33,1061.89 27.43,1059.47 C 29.64,1056.92 33.97,1057.75 35.25,1061.08 L 35.25,1061.09 Z M 31.18,978.79 C 32.72,979.28 34.52,981.61 34.35,983.61 C 34.46,984.11 34.45,984.66 34.31,985.18 C 33.9,986.78 32.55,988.13 31.27,988.79 C 28.58,990.18 25.42,988.13 25.13,984.73 C 24.82,981.15 28.13,977.82 31.17,978.79 L 31.18,978.79 Z M 14.47,1197.56 L 14.47,1204.44 L 12.56,1204.44 L 12.56,1177.49 C 12.23,1170.51 12,1163.53 11.87,1156.57 C 12.16,1147.67 12.27,1138.72 11.99,1129.81 C 12.21,1125.32 12.43,1120.83 12.56,1116.34 L 12.56,1105.4 C 12.56,1104.77 12.56,1104.15 12.56,1103.52 C 12.54,1103 12.56,1102.49 12.54,1101.98 C 11.99,1090.14 12.07,1078.57 12.46,1066.79 C 12.46,1056.39 12.48,1045.98 12.51,1035.56 C 12.43,1031.19 12.36,1026.83 12.39,1022.46 C 12.41,1019.77 12.48,1017.09 12.56,1014.42 L 12.56,973.7 L 14.47,973.7 L 14.47,995.55 C 14.39,1002.82 13.9,1010.08 14.01,1017.33 C 13.43,1021.64 14.09,1026.11 14.41,1030.51 C 14.41,1030.58 14.41,1030.66 14.42,1030.73 C 14.44,1032.54 14.46,1034.34 14.47,1036.15 L 14.47,1041.26 C 14.64,1046.23 14.76,1051.19 14.76,1056.16 C 14.61,1058.58 14.42,1061 14.11,1063.4 C 14.07,1063.76 14.1,1064.08 14.16,1064.38 C 14.16,1064.4 14.15,1064.41 14.15,1064.44 C 14.08,1066.91 14.23,1069.36 14.46,1071.81 L 14.46,1104.93 C 14.71,1112.85 14.85,1120.77 14.47,1128.67 C 14.47,1128.77 14.47,1128.88 14.46,1128.98 L 14.46,1130.22 C 14.35,1131.69 14.3,1133.17 14.3,1134.65 C 14.14,1134.96 14.02,1135.31 14.03,1135.77 C 14.14,1141.37 14.29,1146.98 14.41,1152.59 C 14.41,1152.66 14.38,1152.72 14.38,1152.8 C 14.38,1152.86 14.41,1152.9 14.42,1152.96 C 14.46,1154.88 14.47,1156.79 14.5,1158.71 C 13.81,1163.66 13.74,1168.79 14.46,1173.75 L 14.46,1184.02 C 14.67,1188.48 14.73,1192.94 14.51,1197.43 C 14.51,1197.49 14.47,1197.52 14.46,1197.57 L 14.47,1197.56 Z M 7.26,1197.56 L 7.26,1204.44 L 4.09,1204.44 L 4.09,1177.49 C 3.54,1170.51 3.16,1163.53 2.94,1156.57 C 3.42,1147.67 3.61,1138.72 3.14,1129.81 C 3.51,1125.32 3.87,1120.83 4.09,1116.34 L 4.09,1105.4 C 4.08,1104.77 4.09,1104.15 4.09,1103.52 C 4.06,1103 4.09,1102.49 4.05,1101.98 C 3.14,1090.14 3.26,1078.57 3.92,1066.79 C 3.92,1056.39 3.95,1045.98 4.01,1035.56 C 3.87,1031.19 3.76,1026.83 3.8,1022.46 C 3.83,1019.77 3.96,1017.09 4.08,1014.42 L 4.08,973.7 L 7.25,973.7 L 7.25,995.55 C 7.12,1002.82 6.3,1010.08 6.48,1017.33 C 5.51,1021.64 6.61,1026.11 7.14,1030.51 C 7.14,1030.58 7.15,1030.66 7.16,1030.73 C 7.19,1032.54 7.23,1034.34 7.25,1036.15 L 7.25,1041.26 C 7.53,1046.23 7.74,1051.19 7.73,1056.16 C 7.48,1058.58 7.16,1061 6.65,1063.4 C 6.58,1063.76 6.63,1064.08 6.74,1064.38 C 6.74,1064.4 6.72,1064.41 6.72,1064.44 C 6.6,1066.91 6.86,1069.36 7.24,1071.81 L 7.24,1104.93 C 7.65,1112.85 7.89,1120.77 7.26,1128.67 C 7.26,1128.77 7.25,1128.88 7.24,1128.98 L 7.24,1130.22 C 7.05,1131.69 6.97,1133.17 6.98,1134.65 C 6.71,1134.96 6.51,1135.31 6.53,1135.77 C 6.72,1141.37 6.96,1146.98 7.16,1152.59 C 7.15,1152.66 7.11,1152.72 7.11,1152.8 C 7.11,1152.86 7.16,1152.9 7.17,1152.96 C 7.24,1154.88 7.25,1156.79 7.3,1158.71 C 6.15,1163.66 6.04,1168.79 7.24,1173.75 L 7.24,1184.02 C 7.59,1188.48 7.68,1192.94 7.33,1197.43 C 7.33,1197.49 7.26,1197.52 7.24,1197.57 L 7.26,1197.56 Z M 94.11,1174.87 L 94.11,1204.44 L 92.2,1204.44 L 92.2,1173.9 C 92.02,1165.42 92.06,1156.92 92.18,1148.43 C 92.06,1142.33 92.13,1136.24 92.2,1130.14 L 92.2,1117.14 C 92.17,1115.7 92.1,1114.28 92.04,1112.86 C 92.73,1104.7 92.32,1096.23 91.96,1087.83 C 92.11,1081.83 92.17,1075.84 91.84,1069.95 C 92.02,1066.41 92.15,1062.89 92.01,1059.46 C 91.97,1058.58 91.97,1057.69 91.94,1056.8 C 92.48,1048.31 92.78,1039.57 92.02,1031.16 C 92.08,1029.35 92.13,1027.54 92.19,1025.74 L 92.19,973.69 L 94.1,973.69 L 94.1,981.27 C 94.07,981.45 94.01,981.61 94.01,981.82 C 94.13,991.49 94.01,1001.2 94.1,1010.89 L 94.1,1039.85 C 94.99,1063.43 94.56,1087.02 94.39,1110.62 C 94.23,1132.02 94.92,1153.5 94.1,1174.87 L 94.11,1174.87 Z M 102.5,1204.43 L 99.11,1204.43 L 99.11,1173.89 C 98.79,1165.41 98.86,1156.91 99.07,1148.42 C 98.85,1142.32 98.98,1136.23 99.11,1130.13 L 99.11,1117.13 C 99.06,1115.69 98.93,1114.27 98.83,1112.85 C 100.05,1104.69 99.33,1096.22 98.68,1087.82 C 98.95,1081.82 99.05,1075.83 98.47,1069.94 C 98.78,1066.4 99.02,1062.88 98.77,1059.45 C 98.71,1058.57 98.69,1057.68 98.64,1056.79 C 99.61,1048.3 100.13,1039.56 98.79,1031.15 C 98.89,1029.34 98.98,1027.53 99.1,1025.73 L 99.1,973.68 L 102.49,973.68 L 102.49,981.26 C 102.43,981.44 102.33,981.6 102.33,981.81 C 102.55,991.48 102.33,1001.19 102.49,1010.88 L 102.49,1039.84 C 104.07,1063.42 103.31,1087.01 103,1110.61 C 102.72,1132.01 103.95,1153.49 102.49,1174.86 L 102.49,1204.43 L 102.5,1204.43 Z"/></svg>