<svg xmlns="http://www.w3.org/2000/svg" viewBox="522.3 318.6 97.9 242.8" fill="none"><path fill="currentColor" d="M 566.14,548.55 C 566.05,550.94 566.12,553.16 566.4,555.31 L 583.58,555.31 C 579.76,552.25 575.48,550.02 570.47,548.94 C 569.08,548.64 567.64,548.68 566.14,548.55 Z M 613.63,525.47 C 614.24,509.63 614.08,493.75 614.13,477.88 C 614.14,474.25 613.76,470.6 613.39,466.99 C 612.38,457.31 609.85,448.28 605.72,439.93 L 605.75,439.93 C 610.49,430.87 613.22,420.77 613.63,410.1 C 614.24,394.26 614.08,378.38 614.13,362.51 C 614.14,358.88 613.76,355.23 613.39,351.62 C 612.38,341.94 609.85,332.91 605.72,324.56 L 602.03,324.56 C 605.89,331.17 608.71,338.94 610.04,347.63 C 610.89,353.21 611.45,358.95 611.45,364.62 C 611.45,380 611.33,395.39 610.76,410.75 C 610.42,419.83 608.16,428.42 604.11,436.44 C 600.96,432.62 597.97,428.98 594.75,425.08 C 599.05,412.74 598.91,399.42 598.77,386.12 C 598.66,376.29 598.71,366.44 598.15,356.64 C 597.35,342.47 592,331.3 583.61,324.55 L 566.39,324.55 C 566.78,327.19 567.75,330.75 569.68,337.55 C 566.69,341.59 563.83,345.46 560.75,349.63 C 556.59,341.58 554.36,333.21 553.58,324.56 L 543.8,324.56 C 543.8,333.38 543.81,342.25 544.44,351.02 C 545.99,372.61 558.35,387.55 575.32,388.94 C 575.55,388.96 575.78,388.8 576.02,388.72 C 576.85,383.57 576.29,380.24 572.7,368.87 C 575.76,365.16 578.81,361.48 581.99,357.62 C 589.26,371.11 590.57,386.69 588.27,403.46 C 565.12,411.12 538.07,394.23 532.58,359.69 C 531.67,353.97 531.2,348.07 531.1,342.23 C 531,336.34 530.95,330.45 530.94,324.55 L 528.3,324.55 C 528.29,328.9 528.28,333.26 528.27,337.61 C 528.23,353.36 529.88,368.6 536.87,382.15 C 531.38,393.15 528.78,405.12 528.57,417.88 C 528.45,425.23 528.34,432.58 528.3,439.93 C 528.29,444.28 528.28,448.64 528.27,452.99 C 528.23,468.74 529.88,483.98 536.87,497.53 C 531.38,508.53 528.78,520.5 528.57,533.26 C 528.45,540.61 528.34,547.96 528.3,555.31 L 530.94,555.31 C 530.97,545.38 531.12,535.43 531.8,525.51 C 532.41,516.58 535.4,506.71 538.68,501.28 C 541.7,504.96 544.71,508.65 547.9,512.54 C 543.98,523.2 543.6,534.72 543.76,546.32 C 543.8,549.32 543.82,552.31 543.84,555.31 L 553.55,555.31 C 552.91,548.35 553.23,541.2 554.43,533.82 C 564.17,530.95 573.69,531.41 582.7,536.26 C 591.07,540.77 597.28,547.2 602.01,555.31 L 605.73,555.31 C 610.47,546.25 613.2,536.15 613.61,525.48 L 613.63,525.47 Z M 559.25,378.83 C 556.69,375.5 553.93,371.92 551.44,368.7 C 562.13,355.08 572.47,341.91 583.07,328.4 C 586.16,330.62 588.83,334.45 590.89,338.39 C 580.41,351.77 570.09,364.96 559.24,378.82 L 559.25,378.83 Z M 532.58,475.07 C 531.67,469.35 531.2,463.45 531.1,457.61 C 531,451.72 530.95,445.83 530.94,439.93 C 530.97,430 531.12,420.05 531.8,410.13 C 532.41,401.2 535.4,391.33 538.68,385.9 C 541.7,389.58 544.71,393.27 547.9,397.16 C 543.98,407.82 543.6,419.34 543.76,430.94 C 543.8,433.94 543.82,436.93 543.84,439.93 L 543.8,439.93 C 543.8,448.75 543.81,457.62 544.44,466.39 C 545.99,487.98 558.35,502.92 575.32,504.31 C 575.55,504.33 575.78,504.17 576.02,504.09 C 576.85,498.94 576.29,495.61 572.7,484.24 C 575.76,480.53 578.81,476.85 581.99,472.99 C 589.26,486.48 590.57,502.06 588.27,518.83 C 565.12,526.49 538.07,509.6 532.58,475.06 L 532.58,475.07 Z M 583.08,443.77 C 586.17,445.99 588.84,449.82 590.9,453.76 C 580.42,467.14 570.1,480.33 559.25,494.19 C 556.69,490.86 553.93,487.28 551.44,484.06 C 562.13,470.44 572.47,457.27 583.07,443.76 L 583.08,443.77 Z M 594.76,540.46 C 599.06,528.12 598.92,514.8 598.78,501.5 C 598.67,491.67 598.72,481.82 598.16,472.02 C 597.36,457.85 592.01,446.68 583.62,439.93 L 583.59,439.93 C 579.77,436.87 575.49,434.64 570.48,433.56 C 569.09,433.26 567.65,433.3 566.15,433.17 C 566.06,435.56 566.13,437.78 566.41,439.93 C 566.8,442.57 567.77,446.13 569.7,452.93 C 566.71,456.97 563.85,460.83 560.77,465.01 C 556.61,456.96 554.38,448.59 553.6,439.94 L 553.58,439.94 C 552.94,432.98 553.26,425.83 554.46,418.45 C 564.2,415.58 573.72,416.04 582.73,420.89 C 591.1,425.4 597.31,431.83 602.04,439.94 C 605.9,446.55 608.72,454.32 610.05,463.01 C 610.9,468.59 611.46,474.33 611.46,480 C 611.46,495.38 611.34,510.77 610.77,526.13 C 610.43,535.21 608.17,543.8 604.12,551.82 C 600.97,548 597.98,544.36 594.76,540.46 Z"/></svg>