<svg xmlns="http://www.w3.org/2000/svg" viewBox="276.0 -6.0 72.5 242.7" fill="none"><path fill="currentColor" d="M 329.6,9.74 C 332,12.57 334.37,15.36 336.78,18.2 C 340.13,14.24 341.98,9.36 342.27,3.72 C 342.33,2.48 342.36,1.24 342.36,0 L 333.23,0 C 333.24,1.38 333.05,2.76 332.65,4.14 C 332.02,6.34 330.94,8.2 329.6,9.74 Z M 296.99,10.01 C 299.84,6.67 302.67,3.35 305.52,0 L 319.5,0 C 314.36,6.06 309.19,12.14 304,18.25 C 301.63,15.47 299.28,12.7 296.99,10 L 296.99,10.01 Z M 319.49,115.37 C 314.35,121.43 309.18,127.51 303.99,133.62 C 301.62,130.84 299.27,128.07 296.98,125.37 C 299.83,122.03 302.66,118.71 305.51,115.36 C 310.53,109.44 315.31,103.53 320.33,97.62 C 322.64,100.34 325.01,103.13 327.32,105.85 C 324.64,109 322.19,112.19 319.49,115.36 L 319.49,115.37 Z M 287.83,18.36 C 285.28,15.27 283.42,11.6 282.64,7.31 C 282.39,5.92 282.27,4.5 282.14,3.09 C 282.05,2.06 281.95,1.02 281.97,0 L 291.11,0 C 291.11,1.64 291.42,3.28 292.06,4.87 C 292.73,6.54 293.62,8.19 294.72,9.51 C 299.89,15.76 305.17,21.89 310.42,28.06 C 310.66,28.34 310.94,28.56 311.12,28.73 C 308.64,31.66 306.25,34.47 303.85,37.31 C 298.59,31.11 293.15,24.82 287.84,18.38 L 287.83,18.36 Z M 335.04,95.5 C 337.41,98.19 339.46,101.09 340.69,104.66 C 341.36,106.61 341.74,108.71 342.09,110.78 C 342.35,112.27 342.38,113.42 342.36,114.95 L 342.36,115.38 C 342.36,116.62 342.34,117.87 342.27,119.1 C 341.98,124.74 340.13,129.62 336.78,133.58 C 334.37,130.74 332,127.95 329.6,125.12 C 330.94,123.58 332.02,121.72 332.65,119.52 C 333.05,118.14 333.24,116.75 333.23,115.38 L 333.24,115.38 C 333.27,112.53 332.47,109.66 330.78,107.54 C 327.76,103.75 324.6,100.1 321.52,96.37 C 318.83,93.12 316.15,89.85 313.56,86.71 C 315.79,84.08 318.13,81.33 320.71,78.28 C 320.75,78.38 320.85,78.81 321.08,79.08 C 325.72,84.57 330.31,90.13 335.05,95.5 L 335.04,95.5 Z M 327.27,29.24 C 319.67,38.19 311.89,47.35 304.12,56.52 C 301.77,53.75 299.41,50.97 297.08,48.22 C 304.78,39.15 312.55,29.99 320.23,20.94 C 322.55,23.67 324.93,26.48 327.27,29.24 Z M 320.38,1.66 C 325.27,7.38 330.16,13.26 335.2,18.94 C 338.4,22.55 340.77,26.65 341.78,31.75 C 342.05,33.13 342.21,34.55 342.27,35.97 C 342.35,37.82 342.35,39.68 342.27,41.52 C 342.08,46.2 340.96,50.52 338.46,54.26 C 338.18,54.68 337.88,55.08 337.59,55.5 C 337.3,55.92 337.01,56.34 336.78,56.68 C 334.3,53.76 331.97,51.01 329.59,48.21 C 330.87,46.44 332.19,44.55 332.74,42.1 C 333.68,37.91 333.25,33.98 330.71,30.75 C 327.31,26.43 323.73,22.31 320.21,18.12 C 317.92,15.39 315.6,12.7 313.29,9.99 C 315.73,7.12 318.09,4.33 320.35,1.67 L 320.38,1.66 Z M 287.63,94.87 C 285.13,91.83 283.4,88.14 282.6,83.96 C 282.34,82.61 282.28,81.21 282.15,79.83 C 282.08,79.09 281.94,78.33 281.98,77.59 C 282.12,75.17 282.24,72.73 282.54,70.33 C 283.03,66.42 285.18,61.6 287.82,59.02 C 290.01,61.61 292.19,64.22 294.41,66.77 C 294.89,67.33 294.78,67.64 294.41,68.16 C 293.7,69.13 292.95,70.09 292.41,71.18 C 291.28,73.43 291.06,75.87 291.33,78.48 C 291.69,81.99 293.26,84.61 295.3,86.99 C 300.36,92.91 305.4,98.87 310.44,104.81 C 310.68,105.09 310.95,105.33 311.13,105.51 C 308.66,108.42 306.27,111.22 303.87,114.05 C 298.53,107.75 293.01,101.38 287.64,94.86 L 287.63,94.87 Z M 289.24,58.4 C 287.27,56.14 285.52,53.72 284.25,50.88 C 283.23,48.59 282.51,46.13 282.32,43.52 C 282.19,41.77 281.94,40.02 281.98,38.28 C 282.07,33.84 282.52,29.45 284.55,25.56 C 285.48,23.78 286.58,22.13 287.58,20.45 C 290.09,23.41 292.45,26.2 294.88,29.07 C 293.57,30.63 292.3,32.24 291.74,34.38 C 290.55,38.98 291.18,43.26 293.92,46.83 C 296.76,50.53 299.8,54.01 302.79,57.54 C 305.41,60.63 308.09,63.66 310.75,66.71 C 311.06,67.07 311.31,67.38 310.88,67.87 C 308.64,70.5 306.41,73.14 304.13,75.82 C 303.84,75.5 303.59,75.24 303.36,74.96 C 298.66,69.43 294.01,63.84 289.25,58.39 L 289.24,58.4 Z M 327.37,67.5 C 319.65,76.59 311.83,85.81 304.03,95 C 301.68,92.23 299.31,89.45 296.77,86.45 C 304.65,77.39 312.56,68.3 320.4,59.28 C 322.63,61.91 325.01,64.71 327.38,67.5 L 327.37,67.5 Z M 336.74,59.14 C 339.45,62.43 341.31,66.38 341.92,70.99 C 342.18,72.96 342.49,74.96 342.44,76.94 C 342.32,81.5 342.01,86.08 339.89,90.1 C 338.97,91.85 337.88,93.47 336.9,95.1 C 334.37,92.12 332.01,89.34 329.61,86.51 C 330.91,84.97 331.99,83.17 332.61,81 C 333.76,76.95 333.35,73.17 331.17,69.72 C 330.66,68.92 330.06,68.19 329.46,67.48 C 324.27,61.35 319.08,55.22 313.86,49.12 C 313.3,48.46 313.24,48.08 313.84,47.4 C 316,44.93 318.11,42.39 320.31,39.78 C 320.55,40.05 320.77,40.28 320.97,40.53 C 326.23,46.73 331.56,52.86 336.74,59.16 L 336.74,59.14 Z M 327.32,221.23 C 324.64,224.38 322.19,227.57 319.49,230.74 L 305.51,230.74 C 310.53,224.82 315.31,218.91 320.33,213 C 322.64,215.72 325.01,218.51 327.32,221.23 Z M 287.83,133.74 C 285.28,130.65 283.42,126.98 282.64,122.69 C 282.39,121.3 282.27,119.88 282.14,118.47 C 282.05,117.44 281.95,116.4 281.97,115.38 L 282,115.38 C 282,115.2 281.97,115.01 281.98,114.83 C 282.1,109.76 282.81,104.84 285.45,100.6 C 286.17,99.46 286.93,98.35 287.64,97.28 C 290.08,100.17 292.45,102.96 294.77,105.7 C 293.93,107.06 292.88,108.36 292.24,109.89 C 291.47,111.73 291.1,113.56 291.12,115.37 C 291.12,117.01 291.43,118.65 292.07,120.24 C 292.74,121.91 293.63,123.56 294.73,124.88 C 299.9,131.13 305.18,137.26 310.43,143.43 C 310.67,143.71 310.95,143.93 311.13,144.1 C 308.65,147.03 306.26,149.84 303.86,152.68 C 298.6,146.48 293.16,140.19 287.85,133.75 L 287.83,133.74 Z M 342.36,230.74 L 333.24,230.74 C 333.27,227.89 332.47,225.02 330.78,222.9 C 327.76,219.11 324.6,215.46 321.52,211.73 C 318.83,208.48 316.15,205.21 313.56,202.07 C 315.79,199.44 318.13,196.69 320.71,193.64 C 320.75,193.74 320.85,194.17 321.08,194.44 C 325.72,199.93 330.31,205.49 335.05,210.86 C 337.42,213.55 339.47,216.45 340.7,220.02 C 341.37,221.97 341.75,224.07 342.1,226.14 C 342.36,227.63 342.39,228.78 342.37,230.31 L 342.37,230.74 L 342.36,230.74 Z M 292.23,225.26 C 291.46,227.1 291.09,228.93 291.11,230.74 L 281.99,230.74 C 281.99,230.56 281.96,230.37 281.97,230.19 C 282.09,225.12 282.8,220.2 285.44,215.96 C 286.16,214.82 286.92,213.71 287.63,212.64 C 290.07,215.53 292.44,218.32 294.76,221.06 C 293.92,222.42 292.87,223.72 292.23,225.25 L 292.23,225.26 Z M 327.27,144.61 C 319.67,153.56 311.89,162.72 304.12,171.89 C 301.77,169.12 299.41,166.34 297.08,163.59 C 304.78,154.52 312.55,145.36 320.23,136.31 C 322.55,139.04 324.93,141.85 327.27,144.61 Z M 320.38,117.04 C 325.27,122.76 330.16,128.64 335.2,134.32 C 338.4,137.93 340.77,142.03 341.78,147.13 C 342.05,148.51 342.21,149.93 342.27,151.35 C 342.35,153.2 342.35,155.06 342.27,156.9 C 342.08,161.58 340.96,165.9 338.46,169.64 C 338.18,170.06 337.88,170.46 337.59,170.88 C 337.3,171.3 337.01,171.72 336.78,172.06 C 334.3,169.14 331.97,166.39 329.59,163.59 C 330.87,161.82 332.19,159.93 332.74,157.48 C 333.68,153.29 333.25,149.36 330.71,146.13 C 327.31,141.81 323.73,137.69 320.21,133.5 C 317.92,130.77 315.6,128.08 313.29,125.37 C 315.73,122.5 318.09,119.71 320.35,117.05 L 320.38,117.04 Z M 287.63,210.25 C 285.13,207.21 283.4,203.52 282.6,199.34 C 282.34,197.99 282.28,196.59 282.15,195.21 C 282.08,194.47 281.94,193.71 281.98,192.97 C 282.12,190.55 282.24,188.11 282.54,185.71 C 283.03,181.8 285.18,176.98 287.82,174.4 C 290.01,176.99 292.19,179.6 294.41,182.15 C 294.89,182.71 294.78,183.02 294.41,183.54 C 293.7,184.51 292.95,185.47 292.41,186.56 C 291.28,188.81 291.06,191.25 291.33,193.86 C 291.69,197.37 293.26,199.99 295.3,202.37 C 300.36,208.29 305.4,214.25 310.44,220.19 C 310.68,220.47 310.95,220.71 311.13,220.89 C 308.66,223.8 306.27,226.6 303.87,229.43 C 298.53,223.13 293.01,216.76 287.64,210.24 L 287.63,210.25 Z M 289.24,173.78 C 287.27,171.52 285.52,169.1 284.25,166.26 C 283.23,163.97 282.51,161.51 282.32,158.9 C 282.19,157.15 281.94,155.4 281.98,153.66 C 282.07,149.22 282.52,144.83 284.55,140.94 C 285.48,139.16 286.58,137.51 287.58,135.83 C 290.09,138.79 292.45,141.58 294.88,144.45 C 293.57,146.01 292.3,147.62 291.74,149.76 C 290.55,154.36 291.18,158.64 293.92,162.21 C 296.76,165.91 299.8,169.39 302.79,172.92 C 305.41,176.01 308.09,179.04 310.75,182.09 C 311.06,182.45 311.31,182.76 310.88,183.25 C 308.64,185.88 306.41,188.52 304.13,191.2 C 303.84,190.88 303.59,190.62 303.36,190.34 C 298.66,184.81 294.01,179.22 289.25,173.77 L 289.24,173.78 Z M 327.37,182.87 C 319.65,191.96 311.83,201.18 304.03,210.37 C 301.68,207.6 299.31,204.82 296.77,201.82 C 304.65,192.76 312.56,183.67 320.4,174.65 C 322.63,177.28 325.01,180.08 327.38,182.87 L 327.37,182.87 Z M 336.74,174.51 C 339.45,177.8 341.31,181.75 341.92,186.36 C 342.18,188.33 342.49,190.33 342.44,192.31 C 342.32,196.87 342.01,201.45 339.89,205.47 C 338.97,207.22 337.88,208.84 336.9,210.47 C 334.37,207.49 332.01,204.71 329.61,201.88 C 330.91,200.34 331.99,198.54 332.61,196.37 C 333.76,192.32 333.35,188.54 331.17,185.09 C 330.66,184.29 330.06,183.56 329.46,182.85 C 324.27,176.72 319.08,170.59 313.86,164.49 C 313.3,163.83 313.24,163.45 313.84,162.77 C 316,160.3 318.11,157.76 320.31,155.15 C 320.55,155.42 320.77,155.65 320.97,155.9 C 326.23,162.1 331.56,168.23 336.74,174.53 L 336.74,174.51 Z"/></svg>