<svg xmlns="http://www.w3.org/2000/svg" viewBox="526.8 967.7 88.7 242.8" fill="none"><path fill="currentColor" d="M 582.8,973.69 C 584.59,976.26 586.39,978.84 588.19,981.44 C 587.24,982.79 586.26,984.2 585.34,985.51 C 582.62,981.59 579.88,977.65 577.13,973.69 L 564.9,973.69 C 566.71,976.3 568.53,978.91 570.36,981.56 C 569.49,982.65 568.44,983.96 567.56,985.07 C 564.98,981.36 562.34,977.55 559.66,973.69 L 532.84,973.69 L 532.84,1204.43 L 559.66,1204.43 C 557.88,1201.87 556.06,1199.3 554.26,1196.72 C 554.98,1195.61 555.92,1194.15 556.97,1192.52 C 559.73,1196.52 562.17,1200.47 564.9,1204.42 L 577.13,1204.42 C 575.35,1201.86 573.77,1199.29 571.96,1196.68 C 572.74,1195.67 573.77,1194.32 574.79,1192.98 C 577.44,1196.79 580.1,1200.6 582.75,1204.42 L 609.54,1204.42 L 609.54,973.68 L 582.79,973.68 L 582.8,973.69 Z M 576.48,974.76 C 577.3,976.13 578.22,977.68 579.12,979.18 C 574.73,985.46 570.26,991.86 565.72,998.37 C 564.82,997.06 563.81,995.61 562.86,994.22 C 567.4,987.73 571.88,981.33 576.49,974.75 L 576.48,974.76 Z M 554.14,1171.24 C 554.99,1170.06 555.98,1168.67 556.85,1167.45 C 561.27,1173.79 565.77,1180.24 570.33,1186.79 C 569.51,1187.95 568.51,1189.34 567.64,1190.58 C 563.13,1184.11 558.62,1177.65 554.15,1171.23 L 554.14,1171.24 Z M 547.85,1177.79 C 547.09,1176.57 546.15,1175.03 545.28,1173.62 C 549.61,1167.42 554.12,1160.96 558.68,1154.43 C 559.56,1155.68 560.55,1157.09 561.44,1158.34 C 556.9,1164.84 552.42,1171.26 547.86,1177.79 L 547.85,1177.79 Z M 562.46,1173.22 C 563.33,1172.25 564.2,1171.5 564.87,1170.5 C 566.66,1167.85 566.62,1164.33 564.8,1161.71 C 561.17,1156.47 557.51,1151.29 553.72,1145.88 C 554.93,1144.45 556.05,1143.15 557.53,1141.4 C 558.04,1142.29 558.77,1143.76 559.64,1145.03 C 562.44,1149.14 565.32,1153.15 568.12,1157.26 C 571.71,1162.52 571.68,1169.79 568.12,1175.07 C 567.43,1176.09 566.8,1177.18 566.16,1178.21 C 564.88,1176.49 563.88,1175.13 562.46,1173.22 Z M 561.31,1004.74 C 556.93,1010.98 552.46,1017.36 547.85,1023.94 C 546.98,1022.65 546.02,1021.22 545.16,1019.93 C 549.63,1013.53 554.13,1007.1 558.73,1000.53 C 559.49,1001.76 560.43,1003.29 561.32,1004.73 L 561.31,1004.74 Z M 554.96,993.61 C 554.6,993.09 554.25,992.53 553.84,991.89 C 554.91,990.47 555.92,989.12 557.05,987.62 C 557.28,987.91 557.64,988.3 557.96,988.75 C 561.28,993.49 564.59,998.23 567.89,1003 C 571.78,1008.62 571.79,1015.74 567.95,1021.46 C 567.34,1022.37 566.78,1023.36 566.13,1024.43 C 564.97,1022.69 563.99,1021.21 562.54,1019.03 C 563.06,1018.57 563.77,1018.16 564.27,1017.45 C 566.91,1013.75 566.87,1010.69 564.24,1006.91 C 561.15,1002.48 558.06,998.05 554.97,993.61 L 554.96,993.61 Z M 554.31,1017.33 C 555.05,1016.34 556.08,1014.93 557.06,1013.61 C 561.34,1019.77 565.84,1026.24 570.38,1032.77 C 569.48,1034 568.47,1035.37 567.64,1036.5 C 563.23,1030.16 558.75,1023.71 554.31,1017.33 Z M 576.6,1026.37 C 577.33,1027.53 578.26,1029 579.22,1030.53 C 574.87,1036.73 570.35,1043.16 565.67,1049.82 C 564.83,1048.51 563.88,1047.04 563.11,1045.84 C 567.61,1039.34 572.1,1032.87 576.6,1026.37 Z M 570.29,1057.91 C 569.27,1059.43 568.25,1060.94 567.27,1062.39 C 562.87,1056.06 558.43,1049.68 553.92,1043.19 C 554.94,1041.9 556.02,1040.54 557.11,1039.17 C 561.42,1045.3 565.94,1051.73 570.29,1057.91 Z M 561.48,1056.01 C 556.97,1062.35 552.45,1068.69 547.88,1075.12 C 547.16,1073.92 546.23,1072.37 545.44,1071.06 C 549.67,1064.98 554.16,1058.53 558.68,1052.04 C 559.49,1053.19 560.48,1054.59 561.48,1056 L 561.48,1056.01 Z M 555.06,1070.76 C 554.66,1070.19 554.12,1069.83 553.48,1069.21 C 554.92,1067.45 555.98,1066.16 557.18,1064.68 C 557.37,1064.93 557.79,1065.44 558.18,1066 C 561.45,1070.7 564.72,1075.39 567.98,1080.11 C 571.73,1085.53 571.74,1092.8 568.04,1098.21 C 567.39,1099.17 566.79,1100.2 566.06,1101.36 C 564.85,1099.63 563.87,1098.22 562.45,1096.17 C 563.22,1095.37 564.05,1094.71 564.71,1093.78 C 566.73,1090.91 566.69,1087.44 564.67,1084.52 C 561.48,1079.91 558.29,1075.32 555.07,1070.76 L 555.06,1070.76 Z M 561.17,1081.44 C 556.81,1087.7 552.32,1094.15 547.74,1100.72 C 547.04,1099.6 546.09,1098.07 545.2,1096.65 C 549.57,1090.4 554.08,1083.94 558.67,1077.36 C 559.48,1078.68 560.4,1080.18 561.16,1081.44 L 561.17,1081.44 Z M 554.06,1094.3 C 554.97,1093.1 556.02,1091.71 556.98,1090.42 C 561.38,1096.74 565.85,1103.16 570.38,1109.67 C 569.45,1110.89 568.4,1112.27 567.44,1113.53 C 563.09,1107.27 558.58,1100.81 554.06,1094.3 Z M 576.48,1103.3 C 577.24,1104.49 578.21,1105.98 579.07,1107.32 C 574.75,1113.49 570.27,1119.88 565.67,1126.45 C 564.85,1125.26 563.88,1123.85 563,1122.58 C 567.48,1116.17 571.96,1109.78 576.48,1103.31 L 576.48,1103.3 Z M 570.39,1135.46 C 569.48,1136.69 568.46,1138.06 567.56,1139.28 C 563.11,1132.87 558.62,1126.4 554.15,1119.97 C 554.99,1118.66 555.93,1117.19 556.75,1115.92 C 561.32,1122.47 565.83,1128.93 570.39,1135.46 Z M 561.31,1133.03 C 556.94,1139.31 552.47,1145.73 547.89,1152.3 C 546.96,1150.92 546.03,1149.53 545.28,1148.42 C 549.73,1142.02 554.21,1135.57 558.81,1128.95 C 559.49,1130.06 560.43,1131.6 561.3,1133.03 L 561.31,1133.03 Z M 574.08,1174.95 C 570.58,1169.87 570.6,1162.43 574.09,1157.31 C 574.81,1156.26 575.51,1155.18 576.24,1154.08 C 577.37,1155.73 578.35,1157.15 579.76,1159.2 C 579.01,1159.99 578.14,1160.71 577.45,1161.69 C 575.53,1164.43 575.53,1167.83 577.45,1170.59 C 581.08,1175.83 584.75,1181 588.5,1186.34 C 587.35,1187.9 586.31,1189.31 585.14,1190.9 C 583.25,1188.15 581.32,1185.34 579.38,1182.54 C 577.62,1180 575.84,1177.49 574.08,1174.94 L 574.08,1174.95 Z M 580.95,1173.79 C 585.38,1167.53 589.9,1161.14 594.53,1154.59 C 595.29,1155.73 596.26,1157.17 597.12,1158.47 C 592.66,1164.88 588.17,1171.35 583.58,1177.94 C 582.76,1176.64 581.82,1175.17 580.95,1173.78 L 580.95,1173.79 Z M 588.08,1161.09 C 587.27,1162.28 586.29,1163.7 585.43,1164.97 C 580.94,1158.52 576.45,1152.06 571.92,1145.56 C 572.79,1144.38 573.79,1143.01 574.65,1141.84 C 579.06,1148.16 583.55,1154.6 588.08,1161.09 Z M 565.78,1152.38 C 564.91,1151.01 563.97,1149.54 563.2,1148.32 C 567.6,1141.98 572.08,1135.52 576.65,1128.94 C 577.41,1130.06 578.4,1131.53 579.34,1132.91 C 574.83,1139.38 570.35,1145.81 565.78,1152.38 Z M 571.92,1120.24 C 572.88,1118.85 573.89,1117.41 574.79,1116.12 C 579.2,1122.46 583.69,1128.93 588.22,1135.45 C 587.34,1136.66 586.34,1138.05 585.34,1139.43 C 580.82,1132.96 576.34,1126.55 571.93,1120.23 L 571.92,1120.24 Z M 580.85,1122.58 C 585.36,1116.13 589.83,1109.73 594.42,1103.16 C 595.23,1104.42 596.19,1105.92 597.05,1107.28 C 592.65,1113.59 588.17,1120 583.62,1126.53 C 582.72,1125.25 581.74,1123.85 580.84,1122.58 L 580.85,1122.58 Z M 588.46,1109.42 C 587.29,1110.9 586.22,1112.26 585.15,1113.62 C 581.41,1108.32 577.44,1102.83 573.61,1097.16 C 572.75,1095.89 572.15,1094.04 571.8,1092.3 C 571.02,1088.41 571.6,1084.72 573.37,1081.57 C 574.24,1080.02 575.33,1078.72 576.4,1077.19 C 577.38,1078.71 578.32,1080.18 579.26,1081.64 C 579.47,1081.87 579.68,1082.09 579.89,1082.32 C 579.15,1083.01 578.3,1083.55 577.69,1084.42 C 575.46,1087.56 575.48,1090.82 577.67,1093.97 C 581.23,1099.09 584.8,1104.19 588.46,1109.43 L 588.46,1109.42 Z M 580.99,1096.94 C 585.43,1090.56 589.92,1084.1 594.4,1077.67 C 595.19,1078.82 596.16,1080.24 597,1081.47 C 592.59,1087.78 588.08,1094.24 583.49,1100.82 C 582.75,1099.67 581.81,1098.21 580.99,1096.94 Z M 588.21,1084.2 C 587.34,1085.34 586.29,1086.73 585.31,1088.02 C 580.91,1081.69 576.43,1075.25 571.85,1068.65 C 572.78,1067.5 573.86,1066.17 574.82,1064.99 C 579.16,1071.22 583.63,1077.64 588.21,1084.2 Z M 565.7,1075.21 C 564.89,1073.97 563.94,1072.52 563.11,1071.26 C 567.53,1064.92 572.01,1058.5 576.6,1051.92 C 577.41,1053.11 578.39,1054.53 579.28,1055.83 C 574.77,1062.26 570.26,1068.71 565.7,1075.22 L 565.7,1075.21 Z M 571.95,1042.9 C 572.78,1041.74 573.78,1040.35 574.66,1039.12 C 579.14,1045.56 583.64,1052.02 588.21,1058.58 C 587.37,1059.76 586.39,1061.16 585.53,1062.37 C 581.02,1055.91 576.55,1049.5 571.95,1042.9 Z M 581.07,1045.61 C 585.42,1039.36 589.91,1032.92 594.5,1026.32 C 595.19,1027.51 596.1,1029.09 596.93,1030.53 C 592.66,1036.65 588.16,1043.1 583.54,1049.73 C 582.74,1048.4 581.84,1046.89 581.07,1045.6 L 581.07,1045.61 Z M 587.21,1030.74 C 587.61,1031.31 587.99,1031.91 588.45,1032.6 C 587.33,1034.04 586.29,1035.38 584.8,1037.3 C 584.41,1036.51 584,1035.35 583.39,1034.46 C 580.41,1030.08 577.37,1025.78 574.36,1021.44 C 570.53,1015.91 570.5,1008.74 574.26,1003.14 C 574.91,1002.18 575.48,1001.1 576.17,999.94 C 577.4,1001.77 578.39,1003.24 579.73,1005.22 C 578.99,1006.06 578.19,1006.79 577.54,1007.72 C 575.55,1010.57 575.54,1013.9 577.52,1016.78 C 580.73,1021.46 583.99,1026.08 587.22,1030.74 L 587.21,1030.74 Z M 581.04,1019.62 C 585.34,1013.5 589.82,1007.13 594.4,1000.61 C 595.3,1001.87 596.3,1003.25 597.26,1004.59 C 592.68,1011.07 588.19,1017.44 583.6,1023.94 C 582.83,1022.64 581.91,1021.08 581.04,1019.62 Z M 588.2,1007.18 C 587.31,1008.39 586.3,1009.75 585.38,1010.99 C 580.98,1004.65 576.49,998.18 572.01,991.72 C 572.85,990.57 573.88,989.17 574.81,987.9 C 579.17,994.17 583.62,1000.59 588.2,1007.17 L 588.2,1007.18 Z M 561.4,978.74 C 556.85,985.23 552.35,991.66 547.83,998.12 C 547.02,996.99 546,995.56 544.97,994.12 C 549.51,987.69 554.02,981.32 558.65,974.77 C 559.56,976.09 560.54,977.5 561.41,978.74 L 561.4,978.74 Z M 535.82,989.99 C 535.73,984.86 535.78,979.72 535.78,974.25 C 539.81,974.25 543.6,974.23 547.38,974.28 C 547.7,974.28 548.07,974.62 548.32,974.95 C 549.8,976.92 551.25,978.94 552.84,981.12 C 551.62,982.7 550.6,984.03 549.34,985.66 C 547.34,980.88 544.17,979.88 540.26,981.22 C 540.26,983.49 540.21,986 540.3,988.5 C 540.32,989.11 540.78,989.76 541.13,990.26 C 544.94,995.74 548.78,1001.19 552.72,1006.83 C 551.56,1008.34 550.51,1009.71 549.28,1011.32 C 548.54,1010.21 547.7,1008.9 546.83,1007.65 C 543.46,1002.79 540.05,997.98 536.72,993.05 C 536.21,992.3 535.83,991.03 535.81,989.99 L 535.82,989.99 Z M 538.55,1003.08 C 539.2,1002.13 539.8,1001.11 540.33,1000.29 C 541.64,1001.99 542.68,1003.32 544,1005.03 C 543.18,1006.01 542.41,1006.78 541.76,1007.72 C 539.84,1010.5 539.86,1014.01 541.79,1016.81 C 545,1021.47 548.23,1026.12 551.47,1030.73 C 551.87,1031.3 552.43,1031.64 553.01,1032.18 C 551.63,1034.07 550.62,1035.44 549.51,1036.96 C 549.19,1036.54 548.8,1036.08 548.45,1035.58 C 545.18,1030.9 541.91,1026.21 538.65,1021.51 C 534.77,1015.93 534.74,1008.69 538.56,1003.07 L 538.55,1003.08 Z M 535.77,1050.21 L 535.77,1045.42 C 535.77,1043.55 535.98,1041.63 535.73,1039.83 C 534.85,1033.4 537.34,1029.54 540.69,1026.01 C 541.67,1027.47 542.64,1028.91 543.8,1030.64 C 540.32,1033.53 539.56,1038.03 540.5,1043.64 C 542.14,1043.64 543.89,1043.74 545.63,1043.58 C 546.1,1043.54 546.59,1042.79 546.98,1042.24 C 550.34,1037.46 553.69,1032.66 557.02,1027.83 C 557.46,1027.2 557.75,1026.37 558.18,1025.48 C 559.51,1027.43 560.5,1028.89 561.71,1030.65 C 557.71,1036.29 553.68,1041.79 549.82,1047.52 C 548.48,1049.51 547.14,1050.41 545.2,1050.27 C 542.15,1050.05 539.08,1050.21 535.77,1050.21 Z M 535.82,1066.89 C 535.73,1061.76 535.78,1056.63 535.78,1051.22 C 539.76,1051.22 543.45,1051.2 547.14,1051.25 C 547.56,1051.25 548.06,1051.56 548.37,1051.96 C 549.85,1053.94 551.28,1056 552.83,1058.16 C 551.69,1059.7 550.67,1061.07 549.42,1062.77 C 547.34,1057.95 544.24,1056.52 540.27,1058.06 C 540.27,1060.3 540.21,1062.75 540.31,1065.18 C 540.34,1065.87 540.78,1066.62 541.16,1067.16 C 544.97,1072.67 548.81,1078.14 552.66,1083.65 C 551.58,1085.19 550.56,1086.62 549.48,1088.17 C 549.23,1087.86 548.9,1087.52 548.62,1087.11 C 544.64,1081.41 540.65,1075.74 536.73,1069.96 C 536.22,1069.21 535.85,1067.93 535.83,1066.89 L 535.82,1066.89 Z M 537.54,1096.57 C 534.81,1092.33 535.17,1085.53 537.82,1081.15 C 538.67,1079.75 539.55,1078.38 540.47,1076.91 C 541.65,1078.72 542.6,1080.18 543.98,1082.29 C 543.32,1082.99 542.49,1083.66 541.84,1084.59 C 539.81,1087.46 539.82,1090.94 541.82,1093.82 C 545.01,1098.43 548.21,1103.02 551.43,1107.59 C 551.83,1108.16 552.38,1108.51 552.93,1109.02 C 551.55,1110.85 550.53,1112.2 549.53,1113.53 C 545.58,1107.99 541.38,1102.53 537.55,1096.57 L 537.54,1096.57 Z M 535.77,1127.1 C 535.77,1122.38 535.88,1117.84 535.73,1113.32 C 535.64,1110.71 536.14,1108.78 537.53,1107.11 C 538.6,1105.83 539.49,1104.25 540.5,1102.75 C 541.71,1104.43 542.67,1105.77 543.89,1107.46 C 540.36,1110.44 539.57,1114.95 540.5,1120.62 C 542.11,1120.62 543.91,1120.7 545.7,1120.56 C 546.12,1120.53 546.56,1119.82 546.91,1119.31 C 550.34,1114.42 553.77,1109.51 557.17,1104.57 C 557.57,1103.99 557.83,1103.21 558.22,1102.38 C 559.51,1104.31 560.47,1105.75 561.51,1107.32 C 561.28,1107.72 561.05,1108.2 560.78,1108.59 C 556.77,1114.35 552.77,1120.11 548.74,1125.84 C 548.36,1126.38 547.82,1127.02 547.35,1127.03 C 543.56,1127.13 539.78,1127.08 535.78,1127.08 L 535.77,1127.1 Z M 535.82,1143.78 C 535.73,1138.71 535.78,1133.64 535.78,1128.21 C 539.77,1128.21 543.56,1128.21 547.34,1128.23 C 547.62,1128.23 547.98,1128.4 548.18,1128.67 C 549.71,1130.79 551.21,1132.95 552.73,1135.12 C 551.63,1136.69 550.65,1138.11 549.43,1139.85 C 547.4,1134.68 544.19,1133.81 540.27,1134.98 C 540.27,1137.33 540.21,1139.91 540.31,1142.48 C 540.33,1143.08 540.84,1143.7 541.19,1144.21 C 545.02,1149.69 548.86,1155.15 552.81,1160.77 C 551.66,1162.27 550.63,1163.6 549.48,1165.1 C 549.26,1164.84 548.9,1164.45 548.59,1164 C 544.62,1158.3 540.63,1152.62 536.71,1146.84 C 536.2,1146.09 535.83,1144.82 535.82,1143.77 L 535.82,1143.78 Z M 538.26,1157.41 C 538.97,1156.33 539.61,1155.16 540.34,1153.93 C 541.56,1155.8 542.53,1157.29 543.8,1159.23 C 543.22,1159.9 542.42,1160.63 541.77,1161.58 C 539.85,1164.38 539.85,1167.9 541.77,1170.68 C 545.02,1175.4 548.3,1180.07 551.57,1184.76 C 551.93,1185.28 552.27,1185.82 552.72,1186.49 C 551.62,1187.89 550.58,1189.21 549.45,1190.66 C 549.27,1190.45 548.94,1190.13 548.66,1189.73 C 545.2,1184.78 541.73,1179.86 538.31,1174.86 C 534.87,1169.83 534.88,1162.51 538.27,1157.4 L 538.26,1157.41 Z M 548.7,1202.88 C 548.32,1203.42 547.78,1204.05 547.31,1204.06 C 543.53,1204.16 539.75,1204.11 535.79,1204.11 C 535.79,1198.33 535.79,1192.76 535.81,1187.19 C 535.81,1186.81 536.03,1186.36 536.23,1186.06 C 537.63,1183.97 539.05,1181.9 540.53,1179.74 C 541.69,1181.36 542.68,1182.76 543.9,1184.47 C 540.29,1187.4 539.65,1192 540.48,1197.63 C 542.13,1197.63 543.92,1197.71 545.71,1197.57 C 546.13,1197.54 546.56,1196.81 546.92,1196.3 C 550.75,1190.84 554.58,1185.36 558.47,1179.79 C 559.45,1181.35 560.4,1182.87 561.6,1184.78 C 560.7,1185.96 559.64,1187.26 558.65,1188.66 C 555.33,1193.38 552.04,1198.16 548.71,1202.87 L 548.7,1202.88 Z M 565.42,1203.54 C 564.72,1202.53 563.72,1201.08 562.81,1199.76 C 567.46,1193.08 571.95,1186.62 576.56,1179.99 C 577.33,1181.32 578.22,1182.85 579.1,1184.38 C 574.75,1190.48 570.18,1196.88 565.42,1203.54 Z M 580.85,1199.44 C 585.33,1193.04 589.8,1186.64 594.41,1180.04 C 595.13,1181.38 596.01,1183 596.9,1184.64 C 592.68,1190.68 588.21,1197.08 583.65,1203.61 C 582.74,1202.25 581.75,1200.78 580.85,1199.43 L 580.85,1199.44 Z M 606.43,1187.16 C 606.49,1192.73 606.47,1198.31 606.47,1204.11 C 602.46,1204.11 598.62,1204.12 594.78,1204.09 C 594.51,1204.09 594.18,1203.82 593.97,1203.54 C 592.45,1201.5 590.96,1199.43 589.39,1197.28 C 590.58,1195.63 591.59,1194.24 592.83,1192.53 C 594.89,1197.36 597.97,1198.76 601.96,1197.29 C 601.96,1195.01 602.02,1192.43 601.92,1189.86 C 601.9,1189.25 601.4,1188.62 601.05,1188.11 C 597.6,1183.13 594.15,1178.16 590.68,1173.22 C 590.32,1172.7 589.85,1172.33 589.38,1171.83 C 590.64,1170.01 591.64,1168.55 592.78,1166.89 C 594.93,1170.01 597.01,1173.03 599.09,1176.03 C 601.25,1179.15 603.44,1182.25 605.59,1185.39 C 605.94,1185.9 606.42,1186.56 606.43,1187.17 L 606.43,1187.16 Z M 603.57,1175.52 C 602.96,1176.42 602.51,1177.54 601.94,1178.66 C 600.57,1176.64 599.59,1175.21 598.5,1173.61 C 598.91,1172.99 599.29,1172.29 599.76,1171.74 C 602.7,1168.31 602.58,1164.2 599.71,1160.41 C 596.58,1156.27 593.66,1151.81 590.65,1147.48 C 590.32,1147.01 590.01,1146.52 589.64,1145.95 C 590.74,1144.41 591.73,1143.02 592.81,1141.51 C 593.05,1141.81 593.41,1142.21 593.72,1142.66 C 596.99,1147.34 600.27,1152.03 603.52,1156.73 C 607.54,1162.53 607.53,1169.69 603.55,1175.51 L 603.57,1175.52 Z M 606.48,1128.21 C 606.48,1133.97 606.48,1139.4 606.47,1144.83 C 606.47,1145.24 606.36,1145.75 606.17,1146.03 C 604.69,1148.2 603.17,1150.33 601.68,1152.44 C 600.6,1150.91 599.6,1149.51 598.39,1147.8 C 601.96,1144.84 602.67,1140.3 601.72,1134.69 C 600.15,1134.69 598.4,1134.61 596.66,1134.74 C 596.23,1134.77 595.77,1135.4 595.43,1135.9 C 591.96,1140.84 588.5,1145.79 585.07,1150.78 C 584.67,1151.36 584.43,1152.15 584.05,1152.98 C 582.74,1151.03 581.77,1149.59 580.75,1148.07 C 580.85,1147.84 580.92,1147.57 581.06,1147.37 C 585.28,1141.3 589.5,1135.22 593.75,1129.19 C 594.08,1128.71 594.62,1128.26 595.06,1128.25 C 598.79,1128.18 602.53,1128.21 606.5,1128.21 L 606.48,1128.21 Z M 606.44,1111.56 C 606.53,1116.62 606.48,1121.69 606.48,1127.1 C 602.48,1127.1 598.7,1127.1 594.91,1127.08 C 594.63,1127.08 594.27,1126.92 594.07,1126.65 C 592.55,1124.52 591.06,1122.35 589.55,1120.17 C 590.63,1118.62 591.61,1117.21 592.83,1115.45 C 594.87,1120.58 598.06,1121.54 601.96,1120.32 C 601.96,1117.95 602.02,1115.36 601.92,1112.79 C 601.9,1112.19 601.38,1111.58 601.03,1111.07 C 597.62,1106.15 594.2,1101.24 590.77,1096.35 C 590.37,1095.78 589.85,1095.37 589.29,1094.8 C 590.58,1093.02 591.59,1091.63 592.7,1090.1 C 593.05,1090.55 593.44,1091.01 593.79,1091.51 C 597.73,1097.15 601.68,1102.77 605.56,1108.49 C 606.06,1109.23 606.42,1110.51 606.44,1111.55 L 606.44,1111.56 Z M 603.64,1098.43 C 603.02,1099.33 602.45,1100.28 601.91,1101.12 C 600.75,1099.43 599.75,1097.97 598.49,1096.13 C 599.03,1095.51 599.77,1094.79 600.39,1093.89 C 602.51,1090.82 602.5,1087.55 600.39,1084.49 C 597.16,1079.83 593.92,1075.2 590.68,1070.55 C 590.32,1070.03 589.98,1069.49 589.52,1068.81 C 590.59,1067.36 591.59,1066 592.73,1064.46 C 593.12,1064.98 593.53,1065.5 593.92,1066.06 C 597.16,1070.7 600.4,1075.35 603.63,1079.99 C 607.52,1085.58 607.52,1092.8 603.64,1098.43 Z M 606.48,1051.22 C 606.48,1057.01 606.48,1062.51 606.46,1068.02 C 606.46,1068.42 606.29,1068.89 606.09,1069.19 C 604.67,1071.36 603.23,1073.5 601.75,1075.71 C 600.62,1074 599.66,1072.55 598.5,1070.8 C 601.96,1067.91 602.64,1063.28 601.73,1057.66 C 600.14,1057.66 598.44,1057.57 596.74,1057.72 C 596.26,1057.76 595.76,1058.44 595.37,1058.98 C 591.54,1064.46 587.73,1069.97 583.86,1075.56 C 582.82,1073.9 581.87,1072.38 580.63,1070.4 C 581.69,1069.04 582.97,1067.52 584.15,1065.86 C 587.3,1061.41 590.4,1056.88 593.55,1052.43 C 593.93,1051.89 594.48,1051.28 594.96,1051.27 C 598.7,1051.17 602.44,1051.22 606.47,1051.22 L 606.48,1051.22 Z M 606.24,1032.9 C 607,1035.52 606.46,1038.92 606.48,1041.98 C 606.49,1044.59 606.48,1047.19 606.48,1050.22 C 605.41,1050.22 604.45,1050.22 603.49,1050.22 C 600.89,1050.22 598.29,1050.26 595.69,1050.19 C 595.11,1050.17 594.38,1050.03 593.97,1049.52 C 592.45,1047.62 591.04,1045.54 589.47,1043.37 C 590.69,1041.87 591.74,1040.58 593,1039.03 C 594.9,1043.57 598.06,1044.62 601.97,1043.3 C 601.97,1040.95 602.03,1038.57 601.93,1036.2 C 601.9,1035.51 601.47,1034.76 601.1,1034.21 C 597.7,1029.27 594.27,1024.37 590.85,1019.46 C 590.45,1018.89 590.07,1018.29 589.61,1017.59 C 590.7,1016.09 591.72,1014.68 592.85,1013.13 C 595.87,1017.47 598.92,1021.84 601.95,1026.23 C 603.45,1028.4 605.49,1030.27 606.25,1032.89 L 606.24,1032.9 Z M 603.88,1021.14 C 603.17,1022.2 602.61,1023.48 601.96,1024.71 C 600.56,1022.69 599.58,1021.27 598.4,1019.55 C 599.1,1018.63 599.81,1017.79 600.45,1016.85 C 602.48,1013.92 602.49,1010.58 600.45,1007.62 C 597.24,1002.96 593.99,998.34 590.76,993.7 C 590.37,993.13 589.99,992.53 589.57,991.9 C 590.68,990.44 591.7,989.09 593.02,987.36 C 593.49,988.17 594.01,989.18 594.62,990.07 C 597.72,994.57 600.88,999 603.96,1003.53 C 607.45,1008.66 607.37,1015.99 603.88,1021.15 L 603.88,1021.14 Z M 605.76,974.26 C 605.95,974.26 606.15,974.41 606.48,974.55 C 606.48,980.07 606.48,985.58 606.46,991.1 C 606.46,991.5 606.3,991.98 606.11,992.28 C 604.7,994.45 603.26,996.58 601.78,998.81 C 600.63,997.01 599.69,995.53 598.58,993.78 C 601.92,991.01 602.64,986.48 601.74,980.88 C 600.11,980.88 598.36,980.78 596.62,980.94 C 596.15,980.98 595.65,981.71 595.26,982.26 C 591.86,987.09 588.48,991.96 585.09,996.82 C 584.69,997.39 584.27,997.94 583.75,998.66 C 582.74,997.05 581.78,995.53 580.7,993.82 C 583.13,990.35 585.64,986.78 588.15,983.21 C 589.96,980.63 591.74,978.01 593.58,975.48 C 594,974.91 594.62,974.31 595.15,974.3 C 598.69,974.2 602.23,974.26 605.76,974.28 L 605.76,974.26 Z"/></svg>