<svg xmlns="http://www.w3.org/2000/svg" viewBox="783.3 -6.0 93.9 242.7" fill="none"><path fill="currentColor" d="M 813.51,107.53 C 813.38,107.81 813.13,108 812.94,108.23 C 811.36,110.13 810.62,112.46 810.54,115.06 C 810.54,115.17 810.56,115.26 810.56,115.37 C 810.56,115.5 810.53,115.61 810.53,115.73 C 810.53,118.87 811.71,121.38 813.48,123.6 C 813.91,124.15 814.19,123.87 814.53,123.47 C 816.63,120.98 818.54,118.53 820.64,116.05 L 821.2,115.37 C 819,112.78 816.66,110.04 814.48,107.44 C 814.09,106.98 813.83,106.87 813.52,107.53 L 813.51,107.53 Z M 810.53,0.36 C 810.53,0.23 810.56,0.12 810.56,0 L 821.19,0 L 820.63,0.68 C 818.53,3.16 816.62,5.61 814.52,8.1 C 814.18,8.5 813.9,8.78 813.47,8.23 C 811.71,6.01 810.52,3.5 810.52,0.36 L 810.53,0.36 Z M 846.58,8.5 C 844.21,5.71 841.93,2.67 839.66,0 L 849.99,0 C 850.06,3.13 848.97,6.3 846.58,8.5 Z M 823.51,57.28 C 825.75,54.65 827.97,52.01 830.29,49.27 C 832.7,52.21 834.99,55.02 837.21,57.72 C 834.85,60.49 832.52,63.24 830.06,66.13 C 829.33,65.24 828.47,64.17 827.59,63.12 C 826.27,61.55 824.95,59.99 823.61,58.44 C 823.29,58.06 823.1,57.76 823.5,57.28 L 823.51,57.28 Z M 846.64,85.21 C 844.3,82.45 841.96,79.7 839.68,77.01 C 841.94,74.36 844.31,71.58 846.73,68.73 C 851.23,73.4 851.02,81.12 846.64,85.21 Z M 813.84,68.71 C 816.22,71.51 818.59,74.31 820.9,77.03 C 818.6,79.74 816.24,82.52 813.83,85.36 C 809.37,80.6 809.4,73.4 813.83,68.7 L 813.84,68.71 Z M 823.4,96.16 C 825.65,93.5 827.97,90.77 830.2,88.14 C 832.46,90.8 834.8,93.55 837.06,96.21 C 834.86,98.8 832.52,101.55 830.24,104.24 C 828.01,101.61 825.67,98.86 823.39,96.16 L 823.4,96.16 Z M 814.47,30.69 C 816.66,33.28 818.86,35.86 821.06,38.44 C 818.62,41.31 816.26,44.1 813.87,46.92 C 811.69,44.71 810.43,41.86 810.54,38.31 C 810.62,35.71 811.36,33.38 812.94,31.48 C 813.13,31.25 813.39,31.05 813.51,30.78 C 813.81,30.12 814.08,30.23 814.47,30.69 Z M 839.58,38.79 C 841.95,36 844.28,33.24 846.63,30.46 C 851.34,34.5 850.97,43.04 846.38,47.08 C 845.26,45.66 844.16,44.22 843.02,42.82 C 841.87,41.41 840.67,40.06 839.59,38.79 L 839.58,38.79 Z M 823.51,19.4 C 825.7,16.82 828.03,14.07 830.31,11.39 C 832.53,14.01 834.86,16.76 837.14,19.45 C 834.9,22.09 832.58,24.83 830.36,27.45 C 828.11,24.8 825.77,22.06 823.52,19.4 L 823.51,19.4 Z M 866.87,115.37 L 866.87,230.74 L 861.77,230.74 C 861.73,228.68 861.62,226.62 861.45,224.57 C 861.05,219.78 859.15,215.79 856.34,212.39 C 855.76,211.69 855.89,211.36 856.35,210.68 C 857.59,208.85 858.9,207.04 859.86,205 C 861.4,201.73 861.7,198.04 861.82,194.37 C 861.88,192.32 861.79,190.26 861.64,188.22 C 861.51,186.53 861.28,184.84 860.94,183.19 C 860.13,179.22 858.08,176.11 855.85,173.27 C 856.87,171.73 857.95,170.27 858.88,168.69 C 861.04,165.02 861.69,160.78 861.81,156.45 C 861.89,153.59 861.65,150.71 861.47,147.84 C 861.26,144.62 860.23,141.7 858.7,139.06 C 857.82,137.54 856.76,136.16 855.94,134.95 C 857.28,132.7 858.72,130.62 859.84,128.31 C 861.38,125.12 861.69,121.5 861.83,117.9 C 861.86,117.06 861.83,116.21 861.81,115.37 L 861.79,115.37 C 861.75,113.31 861.64,111.25 861.47,109.2 C 861.07,104.41 859.17,100.42 856.36,97.02 C 855.78,96.32 855.91,95.99 856.37,95.31 C 857.61,93.48 858.92,91.67 859.88,89.63 C 861.42,86.36 861.72,82.67 861.84,79 C 861.9,76.95 861.81,74.89 861.66,72.85 C 861.53,71.16 861.3,69.47 860.96,67.82 C 860.15,63.85 858.1,60.74 855.87,57.9 C 856.89,56.36 857.97,54.9 858.9,53.32 C 861.06,49.65 861.71,45.41 861.83,41.08 C 861.91,38.22 861.67,35.34 861.49,32.47 C 861.28,29.25 860.25,26.33 858.72,23.69 C 857.84,22.17 856.78,20.79 855.96,19.58 C 857.3,17.33 858.74,15.25 859.86,12.94 C 861.4,9.75 861.71,6.13 861.85,2.53 C 861.88,1.69 861.85,0.84 861.83,0 L 866.91,0 L 866.91,115.37 L 866.87,115.37 Z M 790.54,115.37 L 790.54,230.74 L 789.26,230.74 L 789.26,0 L 790.54,0 L 790.54,115.37 Z M 849.99,230.74 L 839.66,230.74 C 841.99,228 844.29,225.28 846.61,222.55 C 848.84,224.47 850.02,227.55 849.99,230.74 Z M 821.19,230.74 L 810.57,230.74 C 810.57,230.63 810.55,230.54 810.55,230.43 C 810.62,227.83 811.37,225.5 812.95,223.6 C 813.14,223.37 813.4,223.17 813.52,222.9 C 813.82,222.24 814.09,222.35 814.48,222.81 C 816.66,225.41 819,228.15 821.2,230.74 L 821.19,230.74 Z M 839.66,115.37 C 841.99,112.63 844.29,109.91 846.61,107.18 C 848.84,109.1 850.02,112.18 849.99,115.37 C 850.06,118.5 848.97,121.67 846.58,123.87 C 844.21,121.08 841.93,118.04 839.66,115.37 Z M 823.51,172.65 C 825.75,170.02 827.97,167.38 830.29,164.64 C 832.7,167.58 834.99,170.39 837.21,173.09 C 834.85,175.86 832.52,178.61 830.06,181.5 C 829.33,180.61 828.47,179.54 827.59,178.49 C 826.27,176.92 824.95,175.36 823.61,173.81 C 823.29,173.43 823.1,173.13 823.5,172.65 L 823.51,172.65 Z M 846.64,200.58 C 844.3,197.82 841.96,195.07 839.68,192.38 C 841.94,189.73 844.31,186.95 846.73,184.1 C 851.23,188.77 851.02,196.49 846.64,200.58 Z M 813.84,184.08 C 816.22,186.88 818.59,189.68 820.9,192.4 C 818.6,195.11 816.24,197.89 813.83,200.73 C 809.37,195.97 809.4,188.77 813.83,184.07 L 813.84,184.08 Z M 823.4,211.53 C 825.65,208.87 827.97,206.14 830.2,203.51 C 832.46,206.17 834.8,208.92 837.06,211.58 C 834.86,214.17 832.52,216.92 830.24,219.61 C 828.01,216.98 825.67,214.23 823.39,211.53 L 823.4,211.53 Z M 814.47,146.06 C 816.66,148.65 818.86,151.23 821.06,153.81 C 818.62,156.68 816.26,159.47 813.87,162.29 C 811.69,160.08 810.43,157.23 810.54,153.68 C 810.62,151.08 811.36,148.75 812.94,146.85 C 813.13,146.62 813.39,146.42 813.51,146.15 C 813.81,145.49 814.08,145.6 814.47,146.06 Z M 839.58,154.16 C 841.95,151.37 844.28,148.61 846.63,145.83 C 851.34,149.87 850.97,158.41 846.38,162.45 C 845.26,161.03 844.16,159.59 843.02,158.19 C 841.87,156.78 840.67,155.43 839.59,154.16 L 839.58,154.16 Z M 823.51,134.78 C 825.7,132.2 828.03,129.45 830.31,126.77 C 832.53,129.39 834.86,132.14 837.14,134.83 C 834.9,137.47 832.58,140.21 830.36,142.83 C 828.11,140.18 825.77,137.44 823.52,134.78 L 823.51,134.78 Z M 798.93,225.4 C 798.79,227.17 798.74,228.96 798.73,230.74 L 793.53,230.74 L 793.53,0 L 798.73,0 C 798.75,1.53 798.8,3.06 798.92,4.58 C 799.08,6.55 799.37,8.53 799.82,10.42 C 800.68,14 802.68,16.8 804.59,19.3 C 803.26,21.54 801.81,23.61 800.71,25.92 C 799.21,29.08 798.79,32.64 798.72,36.22 C 798.67,38.63 798.79,41.05 798.89,43.46 C 798.99,45.82 799.43,48.1 800.25,50.26 C 801.34,53.11 802.83,55.64 804.74,57.76 C 804.29,58.4 803.91,59.01 803.48,59.55 C 800.04,63.87 798.79,69.15 798.71,74.91 C 798.68,77.07 798.81,79.23 798.88,81.39 C 798.98,84.37 799.48,87.28 800.76,89.86 C 801.89,92.15 803.31,94.25 804.6,96.43 C 804.09,97.12 803.45,97.95 802.85,98.8 C 800.55,102.06 799.25,105.84 798.91,110.03 C 798.77,111.8 798.72,113.59 798.71,115.37 C 798.73,116.9 798.78,118.43 798.9,119.95 C 799.06,121.92 799.35,123.9 799.8,125.79 C 800.66,129.37 802.66,132.17 804.57,134.67 C 803.24,136.91 801.79,138.98 800.69,141.29 C 799.19,144.45 798.77,148.01 798.7,151.59 C 798.65,154 798.77,156.42 798.87,158.83 C 798.97,161.19 799.41,163.47 800.23,165.63 C 801.32,168.48 802.81,171.01 804.72,173.13 C 804.27,173.77 803.89,174.38 803.46,174.92 C 800.02,179.24 798.77,184.52 798.69,190.28 C 798.66,192.44 798.79,194.6 798.86,196.76 C 798.96,199.74 799.46,202.65 800.74,205.23 C 801.87,207.52 803.29,209.62 804.58,211.8 C 804.07,212.49 803.43,213.32 802.83,214.17 C 800.53,217.43 799.23,221.21 798.89,225.4 L 798.93,225.4 Z M 871.15,230.74 L 869.87,230.74 L 869.87,0 L 871.15,0 L 871.15,230.74 Z"/></svg>