<svg xmlns="http://www.w3.org/2000/svg" viewBox="274.5 1292.2 75.4 242.7" fill="none"><path fill="currentColor" d="M 287.17,1510.9 C 287.19,1510.98 287.2,1511.07 287.22,1511.16 C 287.2,1511.07 287.19,1510.99 287.17,1510.9 C 287.13,1510.71 287.11,1510.58 287.09,1510.46 C 287.11,1510.58 287.14,1510.72 287.17,1510.89 C 285.65,1503.1 285.9,1495.63 289.54,1488.51 C 294.69,1478.44 303.87,1474.03 314.2,1475.21 C 317.97,1475.64 321.73,1476.65 325.03,1478.67 C 330.55,1482.05 333.93,1488.39 334.57,1495.19 C 335.18,1501.73 333.13,1508.61 328.79,1513.18 C 324.45,1517.75 317.84,1519.76 312.07,1517.86 C 309.44,1516.99 307,1515.35 305.29,1513.01 C 302.95,1509.84 302.08,1505.56 302.5,1501.52 C 302.86,1498.04 304.18,1494.6 306.57,1492.26 C 308.96,1489.92 312.48,1488.86 315.52,1490.01 C 318.27,1491.06 320.3,1493.76 321.27,1496.76 C 321.78,1498.35 322.04,1500.08 321.72,1501.73 C 321.4,1503.38 320.44,1504.93 319.03,1505.63 C 317.62,1506.33 315.77,1506 314.81,1504.68 C 314.15,1503.78 313.91,1502.06 314.61,1501.09 C 315.25,1500.2 316.55,1500.64 317.14,1499.76 C 317.39,1499.39 317.36,1498.88 317.25,1498.44 C 316.63,1495.89 313.47,1494.82 311.33,1496.05 C 309.19,1497.28 308.16,1500.13 308.32,1502.76 C 308.6,1507.25 312.06,1511.16 316.12,1511.98 C 320.18,1512.8 324.52,1510.67 326.95,1507.04 C 329.38,1503.4 329.94,1498.47 328.73,1494.17 C 327.52,1489.87 324.67,1486.22 321.14,1483.88 C 312.78,1478.34 303.65,1479.85 297.7,1488.2 C 293.28,1494.4 290.27,1504.16 293.78,1511.62 C 296.87,1518.18 304.42,1524.4 310.73,1526.73 C 318.06,1529.44 326.61,1527.79 333.04,1523.29 C 339.03,1519.1 341.61,1509.22 342.4,1501.87 C 343.21,1494.39 341.36,1484.67 337.75,1478.22 C 334.14,1471.75 328.3,1466.16 322.09,1462.81 C 318.97,1461.13 315.64,1460.01 312.42,1458.6 C 309.06,1457.14 306.07,1455.02 302.8,1453.39 C 296.21,1450.11 290.94,1445.69 288.33,1438.02 C 284.06,1425.48 287.66,1406.28 299.2,1399.37 C 306.89,1394.76 318.18,1397.03 325.2,1402.16 C 332.55,1407.53 336.77,1417.92 334.26,1427.38 C 331.08,1439.36 317.74,1444.52 308.2,1437.73 C 306.33,1436.4 304.66,1434.63 303.69,1432.43 C 302.21,1429.1 302.47,1425.09 303.63,1421.61 C 304.97,1417.59 307.73,1413.84 311.54,1412.8 C 315.17,1411.81 319.29,1413.69 321.2,1417.2 C 322.54,1419.68 322.73,1423.01 321.23,1425.38 C 319.55,1428.02 314.5,1429.07 312.82,1425.76 C 312.43,1424.98 312.61,1423.82 313.37,1423.48 C 314.74,1422.87 316.45,1425.1 317.21,1422.84 C 317.63,1421.57 316.36,1419.74 315.35,1419.27 C 313.9,1418.6 312.21,1419.06 310.83,1419.88 C 309.29,1420.8 307.94,1422.22 307.35,1424.03 C 306.48,1426.69 307.43,1429.79 309.25,1431.79 C 313.14,1436.04 321.03,1436.78 325.4,1433.07 C 328.55,1430.39 329.8,1425.7 329.5,1421.36 C 329,1414.1 324.43,1407.24 318.1,1404.77 C 305.18,1399.74 292.79,1412.34 293.15,1426.39 C 293.38,1435.59 299.36,1444.7 307.41,1447.7 C 314.39,1450.29 322.17,1451.56 329.24,1448.4 C 335.56,1445.58 340.48,1438.47 342.18,1431.52 C 345.74,1416.91 341.07,1398.87 329.47,1390.1 C 323.17,1385.34 315.63,1383.9 308.96,1379.91 C 302.55,1376.07 296.7,1371.29 292.44,1364.72 C 288.25,1358.26 286.21,1350.57 287.23,1342.69 C 288.12,1335.81 291.46,1325.94 296.33,1321.23 C 307.28,1310.63 323.4,1318.16 330.9,1329.76 C 334.81,1335.81 335.85,1344.97 332.66,1351.57 C 329.38,1358.34 326.03,1361.25 319.07,1362.56 C 312.88,1363.73 305.37,1359.49 303.87,1352.61 C 303.21,1349.59 302.93,1346.31 303.3,1343.23 C 303.59,1340.78 304.45,1338.33 306.07,1336.6 C 307.96,1334.58 310.8,1333.73 313.41,1334.23 C 316.02,1334.73 318.37,1336.51 319.87,1338.89 C 321.21,1341.03 321.89,1343.85 320.99,1346.25 C 320.24,1348.27 318.38,1349.74 316.39,1349.9 C 315.46,1349.97 314.49,1349.77 313.74,1349.17 C 312.99,1348.57 312.49,1347.55 312.61,1346.55 C 312.65,1346.22 312.76,1345.89 312.98,1345.66 C 314.27,1344.3 316.86,1346.68 317.36,1343.74 C 317.64,1342.09 315.97,1339.9 314.63,1339.4 C 312.75,1338.71 310.57,1339.58 309.28,1341.22 C 307.99,1342.86 307.51,1345.13 307.67,1347.29 C 307.9,1350.52 309.52,1353.6 311.96,1355.46 C 318.7,1360.59 327.29,1354.76 328.54,1346.62 C 329.46,1340.68 326.96,1334.57 323.13,1330.23 C 319.35,1325.95 313.83,1323 308.47,1324.13 C 305.12,1324.84 302.15,1327.08 299.99,1329.95 C 293.75,1338.25 292.99,1350.99 298.22,1360.07 C 303.46,1369.16 314.31,1373.93 323.87,1371.35 C 328.99,1369.97 333.62,1366.69 337.08,1362.34 C 340.87,1357.57 343.28,1351.5 343.8,1345.21 C 344.36,1338.4 342.72,1331.46 339.56,1325.54 C 336.4,1319.63 331.78,1314.71 326.5,1311.01 C 322.1,1307.92 317.27,1305.66 312.36,1303.74 C 311.2,1303.29 310.01,1302.9 308.82,1302.51 C 308.82,1302.51 305.43,1301.19 302.48,1299.7 C 301.74,1299.33 301.02,1298.94 300.4,1298.56 C 300.22,1298.45 300.05,1298.35 299.89,1298.24 L 281.62,1298.24 L 281.62,1298.47 C 281.62,1298.47 281.53,1299.26 281.52,1299.28 C 281.52,1299.3 281.49,1300.14 281.48,1300.35 C 281.48,1300.56 281.42,1301.36 281.42,1301.37 C 281.2,1305.34 281.76,1309.61 281.8,1313.52 C 281.85,1318.12 281.91,1322.73 281.93,1327.33 C 282,1346.02 281.53,1364.74 280.97,1383.42 C 280.44,1401.38 280.99,1419.31 280.58,1437.25 C 280.39,1445.66 280.71,1454.17 280.72,1462.59 C 280.72,1471.23 280.8,1479.87 281.09,1488.5 C 281.36,1496.45 281.37,1504.4 281.49,1512.35 C 281.55,1516.29 281.49,1520.22 281.51,1524.15 C 281.51,1525.25 281.55,1528.12 281.6,1528.97 L 299.87,1528.97 C 294.27,1524.3 288.7,1518.7 287.17,1510.88 L 287.17,1510.9 Z"/></svg>