<svg xmlns="http://www.w3.org/2000/svg" viewBox="15.6 -6.0 75.1 242.8" fill="none"><path fill="currentColor" d="M 84.37,109.2 C 84.54,111.25 84.67,113.31 84.71,115.37 L 83.34,115.37 C 83.37,113.85 83.34,112.27 83.07,110.77 C 82.71,108.7 82.34,106.6 81.67,104.65 C 80.44,101.08 78.39,98.18 76.02,95.49 C 71.28,90.12 66.69,84.56 62.05,79.07 C 61.82,78.8 61.73,78.36 61.68,78.27 C 59.09,81.32 56.76,84.07 54.53,86.7 C 57.12,89.84 59.8,93.11 62.49,96.36 C 65.58,100.08 68.73,103.73 71.75,107.53 C 73.44,109.66 74.25,112.52 74.21,115.37 L 72.89,115.37 C 72.92,112.18 71.76,109.1 69.53,107.18 C 67.21,109.91 65.13,112.63 62.8,115.37 L 60.47,115.37 C 63.16,112.2 65.62,109.01 68.3,105.86 C 65.99,103.14 63.63,100.36 61.31,97.63 C 56.29,103.54 51.51,109.45 46.49,115.37 L 44.12,115.37 L 43.97,115.21 C 41.77,112.62 39.57,110.04 37.39,107.45 C 37,106.99 36.74,106.88 36.43,107.54 C 36.3,107.81 36.05,108.01 35.86,108.24 C 34.28,110.14 33.54,112.47 33.46,115.07 C 33.46,115.18 33.48,115.27 33.48,115.38 L 32.09,115.38 C 32.06,113.57 32.43,111.74 33.21,109.9 C 33.86,108.37 34.91,107.07 35.74,105.71 C 33.42,102.97 31.06,100.18 28.61,97.29 C 27.9,98.36 27.14,99.46 26.42,100.61 C 23.77,104.84 23.07,109.76 22.95,114.84 C 22.95,115.02 22.97,115.21 22.97,115.39 L 21.65,115.39 C 21.65,113.6 21.71,111.82 21.85,110.05 C 22.18,105.86 23.49,102.08 25.79,98.82 C 26.39,97.96 27.03,97.14 27.54,96.45 C 26.25,94.26 24.83,92.17 23.7,89.88 C 22.43,87.3 21.92,84.39 21.82,81.41 C 21.75,79.25 21.62,77.09 21.65,74.93 C 21.73,69.17 22.98,63.9 26.42,59.58 C 26.86,59.03 27.24,58.42 27.68,57.79 C 25.77,55.68 24.28,53.14 23.19,50.29 C 22.37,48.14 21.92,45.85 21.83,43.49 C 21.73,41.08 21.61,38.66 21.66,36.25 C 21.73,32.67 22.15,29.11 23.65,25.95 C 24.75,23.64 26.2,21.57 27.53,19.33 C 25.61,16.83 23.62,14.03 22.76,10.45 C 22.3,8.55 22.02,6.57 21.86,4.61 C 21.74,3.09 21.69,1.56 21.67,0.03 L 22.96,0.03 C 22.94,1.06 23.04,2.1 23.13,3.12 C 23.26,4.53 23.38,5.95 23.63,7.34 C 24.41,11.63 26.27,15.3 28.82,18.39 C 34.13,24.83 39.58,31.13 44.83,37.32 C 47.24,34.48 49.62,31.67 52.1,28.75 C 51.92,28.58 51.64,28.36 51.4,28.08 C 46.15,21.91 40.88,15.78 35.7,9.53 C 34.61,8.21 33.72,6.56 33.04,4.89 C 32.4,3.31 32.09,1.67 32.09,0.03 L 33.47,0.03 C 33.47,0.16 33.44,0.27 33.44,0.39 C 33.44,3.53 34.62,6.04 36.39,8.26 C 36.82,8.81 37.1,8.53 37.44,8.13 C 39.54,5.64 41.65,3.17 43.75,0.68 C 43.85,0.56 43.91,0.4 43.95,0.33 L 44.12,0.03 L 46.49,0.03 C 43.64,3.37 40.81,6.69 37.96,10.04 C 40.26,12.74 42.6,15.5 44.97,18.29 C 50.17,12.15 55.33,6.06 60.47,0 L 62.8,0 C 62.72,0.1 62.63,0.2 62.55,0.3 C 64.81,2.97 67.13,5.71 69.5,8.5 C 71.89,6.3 72.98,3.13 72.91,0 L 74.2,0 C 74.21,1.38 74.02,2.76 73.62,4.14 C 72.99,6.34 71.91,8.2 70.57,9.74 C 72.97,12.57 75.34,15.36 77.75,18.2 C 81.1,14.24 82.95,9.36 83.24,3.72 C 83.3,2.48 83.33,1.24 83.33,0 L 84.7,0 C 84.73,0.85 84.76,1.69 84.72,2.53 C 84.58,6.12 84.28,9.75 82.73,12.94 C 81.61,15.24 80.17,17.33 78.83,19.58 C 79.65,20.79 80.7,22.17 81.59,23.69 C 83.12,26.33 84.16,29.24 84.36,32.47 C 84.54,35.33 84.78,38.21 84.7,41.08 C 84.58,45.41 83.93,49.65 81.77,53.32 C 80.84,54.9 79.77,56.36 78.74,57.9 C 80.97,60.74 83.02,63.85 83.83,67.82 C 84.17,69.47 84.4,71.16 84.53,72.85 C 84.68,74.89 84.78,76.95 84.71,79 C 84.6,82.67 84.29,86.37 82.75,89.63 C 81.79,91.66 80.48,93.48 79.24,95.31 C 78.78,95.99 78.65,96.32 79.23,97.02 C 82.04,100.42 83.94,104.41 84.34,109.2 L 84.37,109.2 Z M 54.3,9.99 C 56.61,12.7 58.93,15.4 61.22,18.12 C 64.74,22.31 68.31,26.44 71.72,30.75 C 74.26,33.97 74.69,37.9 73.75,42.1 C 73.2,44.55 71.88,46.44 70.6,48.21 C 72.97,51.01 75.31,53.76 77.79,56.68 C 78.02,56.34 78.31,55.92 78.6,55.5 C 78.89,55.09 79.18,54.68 79.47,54.26 C 81.97,50.53 83.09,46.21 83.28,41.52 C 83.36,39.67 83.36,37.81 83.28,35.97 C 83.22,34.56 83.06,33.13 82.79,31.75 C 81.78,26.65 79.41,22.55 76.21,18.94 C 71.17,13.26 66.28,7.38 61.39,1.66 C 59.13,4.33 56.76,7.11 54.33,9.98 L 54.3,9.99 Z M 69.56,30.46 C 67.21,33.24 64.87,36 62.51,38.79 C 63.6,40.06 64.79,41.42 65.94,42.82 C 67.09,44.22 68.19,45.66 69.3,47.08 C 73.89,43.03 74.26,34.5 69.55,30.46 L 69.56,30.46 Z M 53.27,27.46 C 55.5,24.83 57.82,22.1 60.05,19.46 C 57.77,16.77 55.44,14.02 53.22,11.4 C 50.95,14.08 48.61,16.83 46.42,19.41 C 48.68,22.07 51.02,24.82 53.26,27.46 L 53.27,27.46 Z M 38.05,48.22 C 40.38,50.96 42.74,53.75 45.09,56.52 C 52.87,47.36 60.64,38.2 68.24,29.24 C 65.9,26.48 63.52,23.68 61.2,20.94 C 53.52,29.99 45.74,39.15 38.05,48.22 Z M 46.43,57.28 C 46.02,57.76 46.21,58.07 46.54,58.44 C 47.87,59.99 49.2,61.55 50.52,63.12 C 51.4,64.17 52.26,65.23 52.99,66.13 C 55.45,63.24 57.78,60.49 60.14,57.72 C 57.93,55.02 55.63,52.21 53.22,49.27 C 50.9,52.02 48.68,54.66 46.44,57.28 L 46.43,57.28 Z M 36.43,30.78 C 36.3,31.06 36.05,31.25 35.86,31.48 C 34.28,33.38 33.55,35.71 33.46,38.31 C 33.35,41.86 34.61,44.71 36.79,46.92 C 39.18,44.11 41.54,41.32 43.98,38.45 C 41.78,35.87 39.58,33.29 37.39,30.7 C 37,30.24 36.74,30.13 36.43,30.79 L 36.43,30.78 Z M 30.22,58.41 C 34.98,63.86 39.63,69.45 44.33,74.98 C 44.56,75.25 44.81,75.51 45.1,75.84 C 47.38,73.15 49.6,70.51 51.85,67.89 C 52.27,67.4 52.03,67.09 51.72,66.73 C 49.06,63.68 46.38,60.65 43.76,57.56 C 40.77,54.03 37.73,50.55 34.89,46.85 C 32.15,43.28 31.52,39 32.71,34.4 C 33.27,32.26 34.53,30.65 35.85,29.09 C 33.42,26.22 31.06,23.43 28.55,20.47 C 27.54,22.15 26.44,23.8 25.52,25.58 C 23.49,29.47 23.04,33.86 22.95,38.3 C 22.91,40.04 23.16,41.79 23.29,43.54 C 23.48,46.16 24.2,48.62 25.22,50.9 C 26.49,53.74 28.24,56.17 30.21,58.42 L 30.22,58.41 Z M 36.76,68.71 C 32.32,73.41 32.29,80.61 36.76,85.37 C 39.18,82.52 41.54,79.74 43.83,77.04 C 41.52,74.31 39.14,71.52 36.77,68.72 L 36.76,68.71 Z M 51.4,104.82 C 46.35,98.88 41.32,92.92 36.26,87 C 34.22,84.61 32.65,82 32.29,78.49 C 32.02,75.89 32.25,73.44 33.37,71.19 C 33.92,70.1 34.67,69.14 35.37,68.17 C 35.74,67.66 35.85,67.34 35.37,66.78 C 33.15,64.22 30.97,61.61 28.78,59.03 C 26.14,61.61 23.99,66.43 23.5,70.34 C 23.2,72.74 23.08,75.17 22.94,77.6 C 22.9,78.34 23.04,79.09 23.11,79.84 C 23.25,81.22 23.3,82.62 23.56,83.97 C 24.37,88.15 26.09,91.84 28.59,94.88 C 33.96,101.41 39.48,107.77 44.82,114.07 C 47.23,111.24 49.61,108.44 52.08,105.53 C 51.89,105.34 51.62,105.11 51.39,104.83 L 51.4,104.82 Z M 53.13,88.13 C 50.9,90.76 48.58,93.5 46.33,96.15 C 48.61,98.84 50.95,101.59 53.18,104.23 C 55.46,101.55 57.79,98.8 60,96.2 C 57.74,93.54 55.4,90.79 53.14,88.13 L 53.13,88.13 Z M 68.35,67.5 C 65.98,64.71 63.61,61.91 61.37,59.28 C 53.53,68.3 45.62,77.39 37.74,86.45 C 40.29,89.45 42.65,92.23 45,95 C 52.8,85.81 60.62,76.6 68.34,67.51 L 68.35,67.5 Z M 69.56,85.21 C 73.94,81.12 74.15,73.4 69.65,68.73 C 67.23,71.57 64.86,74.35 62.61,77.01 C 64.89,79.7 67.22,82.45 69.57,85.21 L 69.56,85.21 Z M 77.88,95.09 C 78.86,93.46 79.95,91.84 80.87,90.09 C 83,86.07 83.3,81.49 83.42,76.93 C 83.47,74.96 83.16,72.95 82.9,70.98 C 82.29,66.37 80.43,62.42 77.72,59.13 C 72.54,52.83 67.22,46.7 61.95,40.5 C 61.74,40.26 61.53,40.02 61.29,39.75 C 59.08,42.36 56.98,44.9 54.82,47.37 C 54.22,48.05 54.27,48.43 54.84,49.09 C 60.06,55.19 65.25,61.32 70.44,67.45 C 71.04,68.16 71.64,68.89 72.15,69.69 C 74.32,73.14 74.73,76.91 73.59,80.97 C 72.98,83.14 71.89,84.95 70.59,86.48 C 72.99,89.31 75.36,92.09 77.88,95.07 L 77.88,95.09 Z M 62.05,194.45 C 61.82,194.18 61.73,193.74 61.68,193.65 C 59.09,196.7 56.76,199.45 54.53,202.08 C 57.12,205.22 59.8,208.49 62.49,211.74 C 65.58,215.46 68.73,219.11 71.75,222.91 C 73.44,225.04 74.25,227.9 74.21,230.75 L 72.89,230.75 C 72.92,227.56 71.76,224.48 69.53,222.56 C 67.21,225.29 65.13,228.01 62.8,230.75 L 60.47,230.75 C 63.16,227.58 65.62,224.39 68.3,221.24 C 65.99,218.52 63.63,215.74 61.31,213.01 C 56.29,218.92 51.51,224.83 46.49,230.75 L 44.12,230.75 L 43.97,230.59 C 41.77,228 39.57,225.42 37.39,222.83 C 37,222.37 36.74,222.26 36.43,222.92 C 36.3,223.19 36.05,223.39 35.86,223.62 C 34.28,225.52 33.54,227.85 33.46,230.45 C 33.46,230.56 33.48,230.65 33.48,230.76 L 32.09,230.76 C 32.06,228.95 32.43,227.12 33.21,225.28 C 33.86,223.75 34.91,222.45 35.74,221.09 C 33.42,218.35 31.06,215.56 28.61,212.67 C 27.9,213.74 27.14,214.84 26.42,215.99 C 23.77,220.22 23.07,225.14 22.95,230.22 C 22.95,230.4 22.97,230.59 22.97,230.77 L 21.65,230.77 C 21.65,228.98 21.71,227.2 21.85,225.43 C 22.18,221.24 23.49,217.46 25.79,214.2 C 26.39,213.34 27.03,212.52 27.54,211.83 C 26.25,209.64 24.83,207.55 23.7,205.26 C 22.43,202.68 21.92,199.77 21.82,196.79 C 21.75,194.63 21.62,192.47 21.65,190.31 C 21.73,184.55 22.98,179.28 26.42,174.96 C 26.86,174.41 27.24,173.8 27.68,173.17 C 25.77,171.06 24.28,168.52 23.19,165.67 C 22.37,163.52 21.92,161.23 21.83,158.87 C 21.73,156.46 21.61,154.04 21.66,151.63 C 21.73,148.05 22.15,144.49 23.65,141.33 C 24.75,139.02 26.2,136.95 27.53,134.71 C 25.61,132.21 23.62,129.41 22.76,125.83 C 22.3,123.93 22.02,121.95 21.86,119.99 C 21.74,118.47 21.69,116.94 21.67,115.41 L 22.96,115.41 C 22.94,116.44 23.04,117.48 23.13,118.5 C 23.26,119.91 23.38,121.33 23.63,122.72 C 24.41,127.01 26.27,130.68 28.82,133.77 C 34.13,140.21 39.58,146.51 44.83,152.7 C 47.24,149.86 49.62,147.05 52.1,144.13 C 51.92,143.96 51.64,143.74 51.4,143.46 C 46.15,137.29 40.88,131.16 35.7,124.91 C 34.61,123.59 33.72,121.94 33.04,120.27 C 32.4,118.69 32.09,117.05 32.09,115.41 L 33.47,115.41 C 33.47,115.54 33.44,115.65 33.44,115.77 C 33.44,118.91 34.62,121.42 36.39,123.64 C 36.82,124.19 37.1,123.91 37.44,123.51 C 39.54,121.02 41.65,118.55 43.75,116.06 C 43.85,115.94 43.91,115.78 43.95,115.71 L 44.12,115.41 L 46.49,115.41 C 43.64,118.75 40.81,122.07 37.96,125.42 C 40.26,128.12 42.6,130.88 44.97,133.67 C 50.16,127.56 55.32,121.47 60.47,115.42 L 62.8,115.42 C 62.72,115.52 62.63,115.62 62.55,115.72 C 64.81,118.39 67.13,121.13 69.5,123.92 C 71.89,121.72 72.98,118.55 72.91,115.42 L 74.2,115.42 C 74.21,116.8 74.02,118.18 73.62,119.56 C 72.99,121.76 71.91,123.62 70.57,125.16 C 72.97,127.99 75.34,130.78 77.75,133.62 C 81.1,129.66 82.95,124.78 83.24,119.14 C 83.3,117.9 83.33,116.66 83.33,115.42 L 84.7,115.42 C 84.73,116.27 84.76,117.11 84.72,117.95 C 84.58,121.54 84.28,125.17 82.73,128.36 C 81.61,130.66 80.17,132.75 78.83,135 C 79.65,136.21 80.7,137.59 81.59,139.11 C 83.12,141.75 84.16,144.66 84.36,147.89 C 84.54,150.75 84.78,153.63 84.7,156.5 C 84.58,160.83 83.93,165.07 81.77,168.74 C 80.84,170.32 79.77,171.78 78.74,173.32 C 80.97,176.16 83.02,179.27 83.83,183.24 C 84.17,184.89 84.4,186.58 84.53,188.27 C 84.68,190.31 84.78,192.37 84.71,194.42 C 84.6,198.09 84.29,201.79 82.75,205.05 C 81.79,207.08 80.48,208.9 79.24,210.73 C 78.78,211.41 78.65,211.74 79.23,212.44 C 82.04,215.84 83.94,219.83 84.34,224.62 C 84.51,226.67 84.64,228.73 84.68,230.79 L 83.31,230.79 C 83.34,229.27 83.31,227.69 83.04,226.19 C 82.68,224.12 82.31,222.02 81.64,220.07 C 80.41,216.5 78.36,213.6 75.99,210.91 C 71.25,205.54 66.66,199.98 62.02,194.49 L 62.05,194.45 Z M 61.96,155.89 C 61.75,155.65 61.54,155.41 61.3,155.14 C 59.09,157.75 56.99,160.29 54.83,162.76 C 54.23,163.44 54.28,163.82 54.85,164.48 C 60.07,170.58 65.26,176.71 70.45,182.84 C 71.05,183.55 71.65,184.28 72.16,185.08 C 74.33,188.53 74.74,192.3 73.6,196.36 C 72.99,198.53 71.9,200.34 70.6,201.87 C 73,204.7 75.37,207.48 77.89,210.46 C 78.87,208.83 79.96,207.21 80.88,205.46 C 83.01,201.44 83.31,196.86 83.43,192.3 C 83.48,190.33 83.17,188.32 82.91,186.35 C 82.3,181.74 80.44,177.79 77.73,174.5 C 72.55,168.2 67.23,162.07 61.96,155.87 L 61.96,155.89 Z M 53.22,164.64 C 50.9,167.39 48.68,170.03 46.44,172.65 C 46.03,173.13 46.22,173.44 46.55,173.81 C 47.88,175.36 49.21,176.92 50.53,178.49 C 51.41,179.54 52.27,180.6 53,181.5 C 55.46,178.61 57.79,175.86 60.15,173.09 C 57.94,170.39 55.64,167.58 53.23,164.64 L 53.22,164.64 Z M 65.94,158.2 C 67.09,159.6 68.19,161.05 69.3,162.46 C 73.89,158.41 74.26,149.88 69.55,145.84 C 67.2,148.62 64.86,151.38 62.5,154.17 C 63.59,155.44 64.78,156.8 65.93,158.2 L 65.94,158.2 Z M 54.3,125.36 C 56.61,128.07 58.93,130.77 61.22,133.49 C 64.74,137.68 68.31,141.81 71.72,146.12 C 74.26,149.34 74.69,153.27 73.75,157.47 C 73.2,159.92 71.88,161.81 70.6,163.58 C 72.97,166.38 75.31,169.13 77.79,172.05 C 78.02,171.71 78.31,171.29 78.6,170.87 C 78.89,170.46 79.18,170.05 79.47,169.63 C 81.97,165.9 83.09,161.58 83.28,156.89 C 83.36,155.04 83.36,153.18 83.28,151.34 C 83.22,149.93 83.06,148.5 82.79,147.12 C 81.78,142.02 79.41,137.92 76.21,134.31 C 71.17,128.63 66.28,122.75 61.39,117.03 C 59.13,119.7 56.76,122.48 54.33,125.35 L 54.3,125.36 Z M 53.27,142.83 C 55.5,140.2 57.82,137.47 60.05,134.83 C 57.77,132.14 55.44,129.39 53.22,126.77 C 50.95,129.45 48.61,132.2 46.42,134.78 C 48.68,137.44 51.02,140.19 53.26,142.83 L 53.27,142.83 Z M 38.05,163.59 C 40.38,166.33 42.74,169.12 45.09,171.89 C 52.87,162.73 60.64,153.57 68.24,144.61 C 65.9,141.85 63.52,139.05 61.2,136.31 C 53.52,145.36 45.74,154.52 38.05,163.59 Z M 36.43,146.16 C 36.3,146.44 36.05,146.63 35.86,146.86 C 34.28,148.76 33.55,151.09 33.46,153.69 C 33.35,157.24 34.61,160.09 36.79,162.3 C 39.18,159.49 41.54,156.7 43.98,153.83 C 41.78,151.25 39.58,148.67 37.39,146.08 C 37,145.62 36.74,145.51 36.43,146.17 L 36.43,146.16 Z M 30.22,173.78 C 34.98,179.23 39.63,184.82 44.33,190.35 C 44.56,190.62 44.81,190.88 45.1,191.21 C 47.38,188.52 49.6,185.88 51.85,183.26 C 52.27,182.77 52.03,182.46 51.72,182.1 C 49.06,179.05 46.38,176.02 43.76,172.93 C 40.77,169.4 37.73,165.92 34.89,162.22 C 32.15,158.65 31.52,154.37 32.71,149.77 C 33.27,147.63 34.53,146.02 35.85,144.46 C 33.42,141.59 31.06,138.8 28.55,135.84 C 27.54,137.52 26.44,139.17 25.52,140.95 C 23.49,144.84 23.04,149.23 22.95,153.67 C 22.91,155.41 23.16,157.16 23.29,158.91 C 23.48,161.53 24.2,163.99 25.22,166.27 C 26.49,169.11 28.24,171.54 30.21,173.79 L 30.22,173.78 Z M 36.76,184.08 C 32.32,188.78 32.29,195.98 36.76,200.74 C 39.18,197.89 41.54,195.11 43.83,192.41 C 41.52,189.68 39.14,186.89 36.77,184.09 L 36.76,184.08 Z M 51.4,220.2 C 46.35,214.26 41.32,208.3 36.26,202.38 C 34.22,199.99 32.65,197.38 32.29,193.87 C 32.02,191.27 32.25,188.82 33.37,186.57 C 33.92,185.48 34.67,184.52 35.37,183.55 C 35.74,183.04 35.85,182.72 35.37,182.16 C 33.15,179.6 30.97,176.99 28.78,174.41 C 26.14,176.99 23.99,181.81 23.5,185.72 C 23.2,188.12 23.08,190.55 22.94,192.98 C 22.9,193.72 23.04,194.47 23.11,195.22 C 23.25,196.6 23.3,198 23.56,199.35 C 24.37,203.53 26.09,207.22 28.59,210.26 C 33.96,216.79 39.48,223.15 44.82,229.45 C 47.23,226.62 49.61,223.82 52.08,220.91 C 51.89,220.72 51.62,220.49 51.39,220.21 L 51.4,220.2 Z M 53.13,203.51 C 50.9,206.14 48.58,208.88 46.33,211.53 C 48.61,214.22 50.95,216.97 53.18,219.61 C 55.46,216.93 57.79,214.18 60,211.58 C 57.74,208.92 55.4,206.17 53.14,203.51 L 53.13,203.51 Z M 68.35,182.87 C 65.98,180.08 63.61,177.28 61.37,174.65 C 53.53,183.67 45.62,192.76 37.74,201.82 C 40.29,204.82 42.65,207.6 45,210.37 C 52.8,201.18 60.62,191.97 68.34,182.88 L 68.35,182.87 Z M 69.56,200.58 C 73.94,196.49 74.15,188.77 69.65,184.1 C 67.23,186.94 64.86,189.72 62.61,192.38 C 64.89,195.07 67.22,197.82 69.57,200.58 L 69.56,200.58 Z"/></svg>