<svg xmlns="http://www.w3.org/2000/svg" viewBox="-6.0 643.1 118.4 242.8" fill="none"><path fill="currentColor" d="M 73.39,751.5 C 62.97,737.53 53,724.16 42.84,710.54 C 40.29,714.18 37.64,717.98 35.1,721.61 C 45.56,735.62 55.53,748.99 65.8,762.74 C 68.35,758.96 71,755.04 73.39,751.49 L 73.39,751.5 Z M 56.06,665 C 60.09,659.63 64.03,654.38 67.98,649.12 L 84.25,649.12 C 83.46,650.6 82.67,652.08 81.74,653.52 C 76.62,661.42 70.66,668.34 64.77,676.1 C 61.87,672.4 59.06,668.81 56.07,664.99 L 56.06,665 Z M 23.16,710.64 C 29.03,700.36 36.29,691.51 43.31,681.47 C 46.59,685.5 49.43,688.99 52.46,692.73 C 51.44,694.18 50.67,695.35 49.84,696.45 C 45.54,702.17 41.18,707.81 36.93,713.6 C 31.02,721.64 27.84,731.25 27.69,742.95 C 33.23,743.65 38.03,741.16 42.92,738.15 C 45.64,742.11 48.34,746.05 51.26,750.31 C 40.75,759.41 29.2,761.72 16.57,758.16 C 13.87,741.09 15.15,724.68 23.16,710.66 L 23.16,710.64 Z M 80.47,713.16 C 75.4,720.05 70.22,726.79 64.81,733.95 C 61.92,729.92 59.29,726.26 56.4,722.24 C 57.68,720.52 59.07,718.65 60.47,716.8 C 64.01,712.1 67.56,707.41 71.11,702.71 C 78.28,693.22 80.29,681.86 77.59,669.06 C 77.02,666.38 77.06,664.64 78.67,662.85 C 81.11,660.12 83.44,657.22 85.92,654.26 C 88.34,658.77 89.78,664.44 90.48,670.37 C 92.41,686.78 89.25,701.2 80.46,713.16 L 80.47,713.16 Z M 32.94,672.8 C 31.34,672.43 29.71,672.41 27.87,672.2 C 27.34,679.87 29.48,686.23 31.61,693.17 C 28.62,696.64 25.6,700.16 22.61,703.63 C 16.64,694.01 13.4,674.79 16.65,657.32 C 30.7,653.48 43.8,656.41 55,668.95 C 61.53,676.26 67.33,684.73 73.83,693.16 C 71.06,697.32 68.49,701.18 65.76,705.29 C 64.69,704.03 63.89,703.18 63.16,702.21 C 59.03,696.72 54.91,691.22 50.81,685.7 C 45.82,678.98 39.96,674.43 32.93,672.81 L 32.94,672.8 Z M 7.15,649.13 L 5.51,649.13 C 5.51,650.56 4.64,651.72 3.57,651.72 C 2.5,651.72 1.63,650.56 1.63,649.13 L 0,649.13 L 0,879.87 L 1.64,879.87 C 1.64,878.44 2.51,877.28 3.58,877.28 C 4.65,877.28 5.52,878.44 5.52,879.87 L 7.16,879.87 L 7.16,649.13 L 7.15,649.13 Z M 1.64,663.55 C 1.64,662.12 2.51,660.96 3.58,660.96 C 4.65,660.96 5.52,662.12 5.52,663.55 C 5.52,664.98 4.65,666.14 3.58,666.14 C 2.51,666.14 1.64,664.98 1.64,663.55 Z M 1.64,677.97 C 1.64,676.54 2.51,675.38 3.58,675.38 C 4.65,675.38 5.52,676.54 5.52,677.97 C 5.52,679.4 4.65,680.56 3.58,680.56 C 2.51,680.56 1.64,679.4 1.64,677.97 Z M 1.64,692.39 C 1.64,690.96 2.51,689.8 3.58,689.8 C 4.65,689.8 5.52,690.96 5.52,692.39 C 5.52,693.82 4.65,694.98 3.58,694.98 C 2.51,694.98 1.64,693.82 1.64,692.39 Z M 1.64,706.81 C 1.64,705.38 2.51,704.22 3.58,704.22 C 4.65,704.22 5.52,705.38 5.52,706.81 C 5.52,708.24 4.65,709.4 3.58,709.4 C 2.51,709.4 1.64,708.24 1.64,706.81 Z M 1.64,721.23 C 1.64,719.8 2.51,718.64 3.58,718.64 C 4.65,718.64 5.52,719.8 5.52,721.23 C 5.52,722.66 4.65,723.82 3.58,723.82 C 2.51,723.82 1.64,722.66 1.64,721.23 Z M 1.64,735.65 C 1.64,734.22 2.51,733.06 3.58,733.06 C 4.65,733.06 5.52,734.22 5.52,735.65 C 5.52,737.08 4.65,738.24 3.58,738.24 C 2.51,738.24 1.64,737.08 1.64,735.65 Z M 1.64,750.08 C 1.64,748.65 2.51,747.49 3.58,747.49 C 4.65,747.49 5.52,748.65 5.52,750.08 C 5.52,751.51 4.65,752.67 3.58,752.67 C 2.51,752.67 1.64,751.51 1.64,750.08 Z M 5.51,865.45 C 5.51,866.88 4.64,868.04 3.57,868.04 C 2.5,868.04 1.63,866.88 1.63,865.45 C 1.63,864.02 2.5,862.86 3.57,862.86 C 4.64,862.86 5.51,864.02 5.51,865.45 Z M 5.51,851.03 C 5.51,852.46 4.64,853.62 3.57,853.62 C 2.5,853.62 1.63,852.46 1.63,851.03 C 1.63,849.6 2.5,848.44 3.57,848.44 C 4.64,848.44 5.51,849.6 5.51,851.03 Z M 5.51,836.6 C 5.51,838.03 4.64,839.19 3.57,839.19 C 2.5,839.19 1.63,838.03 1.63,836.6 C 1.63,835.17 2.5,834.01 3.57,834.01 C 4.64,834.01 5.51,835.17 5.51,836.6 Z M 5.51,822.18 C 5.51,823.61 4.64,824.77 3.57,824.77 C 2.5,824.77 1.63,823.61 1.63,822.18 C 1.63,820.75 2.5,819.59 3.57,819.59 C 4.64,819.59 5.51,820.75 5.51,822.18 Z M 5.51,807.76 C 5.51,809.19 4.64,810.35 3.57,810.35 C 2.5,810.35 1.63,809.19 1.63,807.76 C 1.63,806.33 2.5,805.17 3.57,805.17 C 4.64,805.17 5.51,806.33 5.51,807.76 Z M 5.51,793.34 C 5.51,794.77 4.64,795.93 3.57,795.93 C 2.5,795.93 1.63,794.77 1.63,793.34 C 1.63,791.91 2.5,790.75 3.57,790.75 C 4.64,790.75 5.51,791.91 5.51,793.34 Z M 5.51,778.92 C 5.51,780.35 4.64,781.51 3.57,781.51 C 2.5,781.51 1.63,780.35 1.63,778.92 C 1.63,777.49 2.5,776.33 3.57,776.33 C 4.64,776.33 5.51,777.49 5.51,778.92 Z M 3.58,767.09 C 2.51,767.09 1.64,765.93 1.64,764.5 C 1.64,763.07 2.51,761.91 3.58,761.91 C 4.65,761.91 5.52,763.07 5.52,764.5 C 5.52,765.93 4.65,767.09 3.58,767.09 Z M 95.14,764.5 L 95.14,879.87 L 93.94,879.87 L 93.94,649.13 L 95.14,649.13 L 95.14,764.5 Z M 12.46,764.5 L 12.46,879.87 L 11.26,879.87 L 11.26,649.13 L 12.46,649.13 L 12.46,764.5 Z M 91.02,854.01 C 90.67,863.7 88.2,872.3 84.25,879.87 L 68.03,879.87 C 69.36,878.17 70.68,876.47 71.93,874.67 C 78.37,865.4 80.21,854.51 77.65,842.45 C 77.01,839.42 77.12,837.43 78.97,835.44 C 81.28,832.94 83.43,830.18 85.95,827.17 C 89.69,835.23 91.37,844.33 91.02,854.02 L 91.02,854.01 Z M 65.8,878.12 C 55.54,864.37 45.56,851 35.1,836.99 C 37.64,833.36 40.3,829.56 42.84,825.92 C 53,839.54 62.97,852.91 73.39,866.88 C 71,870.42 68.35,874.35 65.8,878.13 L 65.8,878.12 Z M 81.74,768.9 C 76.62,776.8 70.66,783.72 64.77,791.48 C 61.87,787.78 59.06,784.19 56.07,780.37 C 60.1,775 64.04,769.75 67.99,764.49 L 68.04,764.49 C 69.37,762.79 70.69,761.09 71.94,759.29 C 78.38,750.02 80.22,739.13 77.66,727.07 C 77.02,724.04 77.13,722.05 78.98,720.06 C 81.29,717.57 83.44,714.8 85.96,711.79 C 89.7,719.85 91.38,728.95 91.03,738.64 C 90.68,748.33 88.21,756.93 84.26,764.5 C 83.47,765.98 82.68,767.46 81.75,768.9 L 81.74,768.9 Z M 23.16,826.02 C 29.03,815.74 36.29,806.89 43.31,796.85 C 46.59,800.88 49.43,804.37 52.46,808.11 C 51.44,809.56 50.67,810.73 49.84,811.83 C 45.54,817.55 41.18,823.19 36.93,828.98 C 31.02,837.02 27.84,846.63 27.69,858.33 C 33.23,859.03 38.03,856.54 42.92,853.53 C 45.64,857.49 48.34,861.43 51.26,865.69 C 40.75,874.79 29.2,877.1 16.57,873.54 C 13.87,856.47 15.15,840.06 23.16,826.04 L 23.16,826.02 Z M 64.81,849.32 C 61.92,845.29 59.29,841.63 56.4,837.61 C 57.68,835.89 59.07,834.02 60.47,832.17 C 64.01,827.47 67.56,822.78 71.11,818.08 C 78.28,808.59 80.29,797.23 77.59,784.43 C 77.02,781.75 77.06,780.01 78.67,778.22 C 81.11,775.49 83.44,772.59 85.92,769.63 C 88.34,774.14 89.78,779.81 90.48,785.74 C 92.41,802.15 89.25,816.57 80.46,828.53 C 75.39,835.42 70.21,842.16 64.8,849.32 L 64.81,849.32 Z M 32.94,788.17 C 31.34,787.8 29.71,787.78 27.87,787.57 C 27.34,795.24 29.48,801.6 31.61,808.54 C 28.62,812.01 25.6,815.53 22.61,819 C 16.64,809.38 13.4,790.16 16.65,772.69 C 30.7,768.85 43.8,771.78 55,784.32 C 61.53,791.63 67.33,800.1 73.83,808.53 C 71.06,812.69 68.49,816.55 65.76,820.66 C 64.69,819.4 63.89,818.55 63.16,817.58 C 59.03,812.09 54.91,806.59 50.81,801.07 C 45.82,794.35 39.96,789.8 32.93,788.18 L 32.94,788.17 Z M 104.77,879.87 L 106.41,879.87 L 106.41,649.13 L 104.77,649.13 C 104.77,650.56 103.9,651.72 102.83,651.72 C 101.76,651.72 100.89,650.56 100.89,649.13 L 99.25,649.13 L 99.25,879.87 L 100.89,879.87 C 100.89,878.44 101.76,877.28 102.83,877.28 C 103.9,877.28 104.77,878.44 104.77,879.87 Z M 100.89,663.55 C 100.89,662.12 101.76,660.96 102.83,660.96 C 103.9,660.96 104.77,662.12 104.77,663.55 C 104.77,664.98 103.9,666.14 102.83,666.14 C 101.76,666.14 100.89,664.98 100.89,663.55 Z M 100.89,677.97 C 100.89,676.54 101.76,675.38 102.83,675.38 C 103.9,675.38 104.77,676.54 104.77,677.97 C 104.77,679.4 103.9,680.56 102.83,680.56 C 101.76,680.56 100.89,679.4 100.89,677.97 Z M 100.89,692.39 C 100.89,690.96 101.76,689.8 102.83,689.8 C 103.9,689.8 104.77,690.96 104.77,692.39 C 104.77,693.82 103.9,694.98 102.83,694.98 C 101.76,694.98 100.89,693.82 100.89,692.39 Z M 100.89,706.81 C 100.89,705.38 101.76,704.22 102.83,704.22 C 103.9,704.22 104.77,705.38 104.77,706.81 C 104.77,708.24 103.9,709.4 102.83,709.4 C 101.76,709.4 100.89,708.24 100.89,706.81 Z M 100.89,721.23 C 100.89,719.8 101.76,718.64 102.83,718.64 C 103.9,718.64 104.77,719.8 104.77,721.23 C 104.77,722.66 103.9,723.82 102.83,723.82 C 101.76,723.82 100.89,722.66 100.89,721.23 Z M 100.89,735.65 C 100.89,734.22 101.76,733.06 102.83,733.06 C 103.9,733.06 104.77,734.22 104.77,735.65 C 104.77,737.08 103.9,738.24 102.83,738.24 C 101.76,738.24 100.89,737.08 100.89,735.65 Z M 100.89,750.08 C 100.89,748.65 101.76,747.49 102.83,747.49 C 103.9,747.49 104.77,748.65 104.77,750.08 C 104.77,751.51 103.9,752.67 102.83,752.67 C 101.76,752.67 100.89,751.51 100.89,750.08 Z M 100.89,764.5 C 100.89,763.07 101.76,761.91 102.83,761.91 C 103.9,761.91 104.77,763.07 104.77,764.5 C 104.77,765.93 103.9,767.09 102.83,767.09 C 101.76,767.09 100.89,765.93 100.89,764.5 Z M 100.89,778.92 C 100.89,777.49 101.76,776.33 102.83,776.33 C 103.9,776.33 104.77,777.49 104.77,778.92 C 104.77,780.35 103.9,781.51 102.83,781.51 C 101.76,781.51 100.89,780.35 100.89,778.92 Z M 100.89,793.34 C 100.89,791.91 101.76,790.75 102.83,790.75 C 103.9,790.75 104.77,791.91 104.77,793.34 C 104.77,794.77 103.9,795.93 102.83,795.93 C 101.76,795.93 100.89,794.77 100.89,793.34 Z M 100.89,807.76 C 100.89,806.33 101.76,805.17 102.83,805.17 C 103.9,805.17 104.77,806.33 104.77,807.76 C 104.77,809.19 103.9,810.35 102.83,810.35 C 101.76,810.35 100.89,809.19 100.89,807.76 Z M 100.89,822.18 C 100.89,820.75 101.76,819.59 102.83,819.59 C 103.9,819.59 104.77,820.75 104.77,822.18 C 104.77,823.61 103.9,824.77 102.83,824.77 C 101.76,824.77 100.89,823.61 100.89,822.18 Z M 100.89,836.6 C 100.89,835.17 101.76,834.01 102.83,834.01 C 103.9,834.01 104.77,835.17 104.77,836.6 C 104.77,838.03 103.9,839.19 102.83,839.19 C 101.76,839.19 100.89,838.03 100.89,836.6 Z M 100.89,851.03 C 100.89,849.6 101.76,848.44 102.83,848.44 C 103.9,848.44 104.77,849.6 104.77,851.03 C 104.77,852.46 103.9,853.62 102.83,853.62 C 101.76,853.62 100.89,852.46 100.89,851.03 Z M 100.89,865.45 C 100.89,864.02 101.76,862.86 102.83,862.86 C 103.9,862.86 104.77,864.02 104.77,865.45 C 104.77,866.88 103.9,868.04 102.83,868.04 C 101.76,868.04 100.89,866.88 100.89,865.45 Z"/></svg>