<svg xmlns="http://www.w3.org/2000/svg" viewBox="783.8 1292.2 92.8 242.7" fill="none"><path fill="currentColor" d="M 830.2,1350.76 C 817.56,1350.76 807.29,1340.14 807.29,1327.1 C 807.29,1314.06 817.57,1303.44 830.2,1303.44 C 842.83,1303.44 853.11,1314.06 853.11,1327.1 C 853.11,1340.14 842.83,1350.76 830.2,1350.76 Z M 830.2,1347.05 C 840.85,1347.05 849.52,1338.1 849.52,1327.09 C 849.52,1316.08 840.85,1307.13 830.2,1307.13 C 819.55,1307.13 810.88,1316.08 810.88,1327.09 C 810.88,1338.1 819.55,1347.05 830.2,1347.05 Z M 830.2,1343.72 C 821.32,1343.72 814.1,1336.26 814.1,1327.09 C 814.1,1317.92 821.32,1310.46 830.2,1310.46 C 839.08,1310.46 846.31,1317.92 846.31,1327.09 C 846.31,1336.26 839.08,1343.72 830.2,1343.72 Z M 830.2,1340.02 C 837.1,1340.02 842.72,1334.22 842.72,1327.1 C 842.72,1319.98 837.11,1314.18 830.2,1314.18 C 823.29,1314.18 817.69,1319.98 817.69,1327.1 C 817.69,1334.22 823.3,1340.02 830.2,1340.02 Z M 830.2,1336.69 C 825.07,1336.69 820.91,1332.39 820.91,1327.09 C 820.91,1321.79 825.08,1317.49 830.2,1317.49 C 835.32,1317.49 839.5,1321.79 839.5,1327.09 C 839.5,1332.39 835.33,1336.69 830.2,1336.69 Z M 830.2,1332.98 C 833.35,1332.98 835.91,1330.34 835.91,1327.09 C 835.91,1323.84 833.35,1321.2 830.2,1321.2 C 827.05,1321.2 824.5,1323.84 824.5,1327.09 C 824.5,1330.34 827.06,1332.98 830.2,1332.98 Z M 830.2,1408.44 C 817.56,1408.44 807.29,1397.82 807.29,1384.77 C 807.29,1371.72 817.57,1361.11 830.2,1361.11 C 842.83,1361.11 853.11,1371.73 853.11,1384.77 C 853.11,1397.81 842.83,1408.44 830.2,1408.44 Z M 830.2,1404.74 C 840.85,1404.74 849.52,1395.79 849.52,1384.78 C 849.52,1373.77 840.85,1364.82 830.2,1364.82 C 819.55,1364.82 810.88,1373.77 810.88,1384.78 C 810.88,1395.79 819.55,1404.74 830.2,1404.74 Z M 830.2,1401.41 C 821.32,1401.41 814.1,1393.95 814.1,1384.78 C 814.1,1375.61 821.32,1368.15 830.2,1368.15 C 839.08,1368.15 846.31,1375.61 846.31,1384.78 C 846.31,1393.95 839.08,1401.41 830.2,1401.41 Z M 830.2,1397.7 C 837.1,1397.7 842.72,1391.9 842.72,1384.78 C 842.72,1377.66 837.11,1371.86 830.2,1371.86 C 823.29,1371.86 817.69,1377.66 817.69,1384.78 C 817.69,1391.9 823.3,1397.7 830.2,1397.7 Z M 830.2,1394.38 C 825.07,1394.38 820.91,1390.07 820.91,1384.78 C 820.91,1379.49 825.08,1375.18 830.2,1375.18 C 835.32,1375.18 839.5,1379.48 839.5,1384.78 C 839.5,1390.08 835.33,1394.38 830.2,1394.38 Z M 830.2,1390.67 C 833.35,1390.67 835.91,1388.03 835.91,1384.78 C 835.91,1381.53 833.35,1378.89 830.2,1378.89 C 827.05,1378.89 824.5,1381.53 824.5,1384.78 C 824.5,1388.03 827.06,1390.67 830.2,1390.67 Z M 802.78,1306.97 C 804.61,1302.57 807.79,1299.37 811.54,1298.49 C 811.68,1298.46 811.75,1298.35 811.75,1298.25 L 802.27,1298.25 L 802.27,1306.88 C 802.27,1307.19 802.66,1307.26 802.78,1306.97 Z M 857.83,1306.97 C 857.95,1307.25 858.34,1307.19 858.34,1306.88 L 858.34,1298.25 L 848.86,1298.25 C 848.86,1298.36 848.93,1298.46 849.07,1298.49 C 852.82,1299.37 856,1302.56 857.83,1306.97 Z M 802.78,1364.66 C 804.61,1360.26 807.79,1357.06 811.54,1356.18 C 811.82,1356.11 811.82,1355.76 811.54,1355.69 C 807.79,1354.81 804.61,1351.62 802.78,1347.21 C 802.66,1346.93 802.27,1346.99 802.27,1347.3 L 802.27,1364.55 C 802.27,1364.86 802.66,1364.93 802.78,1364.64 L 802.78,1364.66 Z M 857.83,1347.22 C 856,1351.62 852.82,1354.82 849.07,1355.7 C 848.79,1355.77 848.79,1356.12 849.07,1356.19 C 852.82,1357.07 856,1360.26 857.83,1364.67 C 857.95,1364.95 858.34,1364.89 858.34,1364.58 L 858.34,1347.33 C 858.34,1347.02 857.95,1346.95 857.83,1347.24 L 857.83,1347.22 Z M 811.54,1413.38 C 807.79,1412.5 804.61,1409.31 802.78,1404.9 C 802.66,1404.62 802.27,1404.68 802.27,1404.99 L 802.27,1422.24 C 802.27,1422.55 802.66,1422.62 802.78,1422.33 C 804.61,1417.93 807.79,1414.74 811.54,1413.85 C 811.68,1413.82 811.75,1413.71 811.75,1413.61 C 811.75,1413.5 811.68,1413.4 811.54,1413.37 L 811.54,1413.38 Z M 830.2,1466.13 C 817.56,1466.13 807.29,1455.51 807.29,1442.47 C 807.29,1429.43 817.57,1418.81 830.2,1418.81 C 842.83,1418.81 853.11,1429.43 853.11,1442.47 C 853.11,1455.51 842.83,1466.13 830.2,1466.13 Z M 830.2,1462.42 C 840.85,1462.42 849.52,1453.47 849.52,1442.46 C 849.52,1431.45 840.85,1422.5 830.2,1422.5 C 819.55,1422.5 810.88,1431.45 810.88,1442.46 C 810.88,1453.47 819.55,1462.42 830.2,1462.42 Z M 830.2,1459.1 C 821.32,1459.1 814.1,1451.64 814.1,1442.47 C 814.1,1433.3 821.32,1425.84 830.2,1425.84 C 839.08,1425.84 846.31,1433.3 846.31,1442.47 C 846.31,1451.64 839.08,1459.1 830.2,1459.1 Z M 830.2,1455.39 C 837.1,1455.39 842.72,1449.59 842.72,1442.47 C 842.72,1435.35 837.11,1429.55 830.2,1429.55 C 823.29,1429.55 817.69,1435.35 817.69,1442.47 C 817.69,1449.59 823.3,1455.39 830.2,1455.39 Z M 830.2,1452.06 C 825.07,1452.06 820.91,1447.76 820.91,1442.46 C 820.91,1437.16 825.08,1432.86 830.2,1432.86 C 835.32,1432.86 839.5,1437.16 839.5,1442.46 C 839.5,1447.76 835.33,1452.06 830.2,1452.06 Z M 830.2,1448.36 C 833.35,1448.36 835.91,1445.72 835.91,1442.47 C 835.91,1439.22 833.35,1436.58 830.2,1436.58 C 827.05,1436.58 824.5,1439.22 824.5,1442.47 C 824.5,1445.72 827.06,1448.36 830.2,1448.36 Z M 830.2,1523.82 C 817.56,1523.82 807.29,1513.2 807.29,1500.15 C 807.29,1487.1 817.57,1476.49 830.2,1476.49 C 842.83,1476.49 853.11,1487.11 853.11,1500.15 C 853.11,1513.19 842.83,1523.82 830.2,1523.82 Z M 830.2,1520.11 C 840.85,1520.11 849.52,1511.16 849.52,1500.15 C 849.52,1489.14 840.85,1480.19 830.2,1480.19 C 819.55,1480.19 810.88,1489.14 810.88,1500.15 C 810.88,1511.16 819.55,1520.11 830.2,1520.11 Z M 830.2,1516.78 C 821.32,1516.78 814.1,1509.32 814.1,1500.15 C 814.1,1490.98 821.32,1483.52 830.2,1483.52 C 839.08,1483.52 846.31,1490.98 846.31,1500.15 C 846.31,1509.32 839.08,1516.78 830.2,1516.78 Z M 830.2,1513.07 C 837.1,1513.07 842.72,1507.27 842.72,1500.14 C 842.72,1493.01 837.11,1487.22 830.2,1487.22 C 823.29,1487.22 817.69,1493.02 817.69,1500.14 C 817.69,1507.26 823.3,1513.07 830.2,1513.07 Z M 830.2,1509.75 C 825.07,1509.75 820.91,1505.44 820.91,1500.15 C 820.91,1494.86 825.08,1490.55 830.2,1490.55 C 835.32,1490.55 839.5,1494.85 839.5,1500.15 C 839.5,1505.45 835.33,1509.75 830.2,1509.75 Z M 830.2,1506.04 C 833.35,1506.04 835.91,1503.4 835.91,1500.15 C 835.91,1496.9 833.35,1494.26 830.2,1494.26 C 827.05,1494.26 824.5,1496.9 824.5,1500.15 C 824.5,1503.4 827.06,1506.04 830.2,1506.04 Z M 840.28,1413.62 L 820.14,1413.62 C 808.7,1409.34 800.49,1398.05 800.49,1384.78 C 800.49,1371.51 808.7,1360.21 820.14,1355.94 C 808.7,1351.66 800.49,1340.37 800.49,1327.1 C 800.49,1313.83 808.7,1302.53 820.14,1298.26 L 840.29,1298.26 C 851.73,1302.54 859.94,1313.83 859.94,1327.1 C 859.94,1340.37 851.73,1351.67 840.29,1355.94 C 851.73,1360.22 859.94,1371.51 859.94,1384.78 C 859.94,1398.05 851.73,1409.35 840.29,1413.62 L 840.28,1413.62 Z M 830.2,1354.08 C 844.61,1354.08 856.34,1341.97 856.34,1327.09 C 856.34,1312.21 844.62,1300.1 830.2,1300.1 C 815.78,1300.1 804.07,1312.21 804.07,1327.09 C 804.07,1341.97 815.79,1354.08 830.2,1354.08 Z M 830.2,1411.77 C 844.61,1411.77 856.34,1399.66 856.34,1384.78 C 856.34,1369.9 844.62,1357.79 830.2,1357.79 C 815.78,1357.79 804.07,1369.9 804.07,1384.78 C 804.07,1399.66 815.79,1411.77 830.2,1411.77 Z M 820.13,1528.99 C 808.69,1524.71 800.48,1513.42 800.48,1500.15 C 800.48,1486.88 808.69,1475.58 820.13,1471.31 C 808.69,1467.03 800.48,1455.74 800.48,1442.47 C 800.48,1429.2 808.69,1417.9 820.13,1413.63 L 840.28,1413.63 C 851.72,1417.91 859.93,1429.2 859.93,1442.47 C 859.93,1455.74 851.72,1467.04 840.28,1471.31 C 851.72,1475.59 859.93,1486.88 859.93,1500.15 C 859.93,1513.42 851.72,1524.72 840.28,1528.99 L 820.14,1528.99 L 820.13,1528.99 Z M 830.2,1469.45 C 844.61,1469.45 856.34,1457.34 856.34,1442.46 C 856.34,1427.58 844.62,1415.47 830.2,1415.47 C 815.78,1415.47 804.07,1427.58 804.07,1442.46 C 804.07,1457.34 815.79,1469.45 830.2,1469.45 Z M 830.2,1527.14 C 844.61,1527.14 856.34,1515.03 856.34,1500.15 C 856.34,1485.27 844.62,1473.16 830.2,1473.16 C 815.78,1473.16 804.07,1485.27 804.07,1500.15 C 804.07,1515.03 815.79,1527.14 830.2,1527.14 Z M 858.34,1412.96 L 858.34,1404.99 C 858.34,1404.68 857.95,1404.61 857.83,1404.9 C 856,1409.3 852.82,1412.5 849.07,1413.38 C 848.93,1413.41 848.86,1413.52 848.86,1413.62 C 848.86,1413.73 848.93,1413.83 849.07,1413.86 C 852.82,1414.74 856,1417.93 857.83,1422.34 C 857.95,1422.62 858.34,1422.56 858.34,1422.25 L 858.34,1412.96 Z M 802.78,1480.03 C 804.61,1475.63 807.79,1472.43 811.54,1471.55 C 811.82,1471.48 811.82,1471.13 811.54,1471.06 C 807.79,1470.18 804.61,1466.99 802.78,1462.58 C 802.66,1462.3 802.27,1462.36 802.27,1462.67 L 802.27,1479.92 C 802.27,1480.23 802.66,1480.3 802.78,1480.01 L 802.78,1480.03 Z M 857.83,1462.59 C 856,1466.99 852.82,1470.19 849.07,1471.07 C 848.79,1471.14 848.79,1471.49 849.07,1471.56 C 852.82,1472.44 856,1475.63 857.83,1480.04 C 857.95,1480.32 858.34,1480.26 858.34,1479.95 L 858.34,1462.7 C 858.34,1462.39 857.95,1462.32 857.83,1462.61 L 857.83,1462.59 Z M 802.78,1520.27 C 802.66,1519.99 802.27,1520.05 802.27,1520.36 L 802.27,1528.99 L 811.75,1528.99 C 811.75,1528.88 811.68,1528.78 811.54,1528.75 C 807.79,1527.87 804.61,1524.68 802.78,1520.27 Z M 857.83,1520.27 C 856,1524.67 852.82,1527.87 849.07,1528.75 C 848.93,1528.78 848.86,1528.89 848.86,1528.99 L 858.34,1528.99 L 858.34,1520.36 C 858.34,1520.05 857.95,1519.98 857.83,1520.27 Z M 863.41,1413.62 L 863.41,1528.99 L 870.59,1528.99 L 870.59,1298.25 L 863.41,1298.25 L 863.41,1413.62 Z M 796.99,1412.89 L 796.99,1298.25 L 789.81,1298.25 L 789.81,1528.99 L 796.99,1528.99 L 796.99,1412.88 L 796.99,1412.89 Z"/></svg>