<svg xmlns="http://www.w3.org/2000/svg" viewBox="524.3 -6.0 93.9 242.8" fill="none"><path fill="currentColor" d="M 541.7,7.30998 C 542.48,11.6 544.34,15.27 546.89,18.36 C 552.2,24.81 557.65,31.1 562.9,37.29 C 565.31,34.45 567.69,31.64 570.17,28.71 C 569.99,28.54 569.71,28.32 569.47,28.04 C 564.22,21.87 558.95,15.74 553.77,9.48998 C 552.68,8.16998 551.79,6.51998 551.11,4.84998 C 550.47,3.26998 550.16,1.62998 550.16,-0.0200195 L 541.02,-0.0200195 C 541,1.00998 541.1,2.04998 541.19,3.06998 C 541.32,4.47998 541.44,5.89998 541.69,7.28998 L 541.7,7.30998 Z M 586.38,105.86 C 583.7,109.01 581.25,112.2 578.55,115.37 C 573.41,121.43 568.24,127.51 563.05,133.62 C 560.68,130.84 558.33,128.07 556.04,125.37 C 558.89,122.03 561.72,118.71 564.57,115.36 C 569.59,109.44 574.37,103.53 579.39,97.62 C 581.7,100.34 584.07,103.13 586.38,105.85 L 586.38,105.86 Z M 601.15,110.78 C 601.41,112.27 601.44,113.85 601.42,115.38 C 601.42,116.62 601.4,117.87 601.33,119.1 C 601.04,124.74 599.19,129.62 595.84,133.58 C 593.43,130.74 591.06,127.95 588.66,125.12 C 590,123.58 591.08,121.72 591.71,119.52 C 592.11,118.14 592.3,116.75 592.29,115.38 C 592.32,112.53 591.53,109.66 589.84,107.54 C 586.82,103.75 583.66,100.1 580.58,96.37 C 577.89,93.12 575.21,89.85 572.62,86.71 C 574.85,84.08 577.19,81.33 579.77,78.28 C 579.81,78.38 579.91,78.81 580.14,79.08 C 584.78,84.58 589.37,90.13 594.11,95.5 C 596.48,98.19 598.53,101.09 599.76,104.66 C 600.43,106.61 600.81,108.71 601.16,110.78 L 601.15,110.78 Z M 551.53,0.35998 C 551.53,0.22998 551.56,0.11998 551.56,-1.95317E-05 L 562.19,-1.95317E-05 L 561.63,0.67998 C 559.53,3.15998 557.62,5.60998 555.52,8.09998 C 555.18,8.49998 554.9,8.77998 554.47,8.22998 C 552.71,6.00998 551.53,3.49998 551.52,0.35998 L 551.53,0.35998 Z M 587.58,8.49998 C 585.21,5.70998 582.93,2.66998 580.66,-1.95317E-05 L 590.99,-1.95317E-05 C 591.06,3.12998 589.97,6.29998 587.58,8.49998 Z M 556.04,10.01 C 558.89,6.66998 561.72,3.34998 564.57,-1.95317E-05 L 578.55,-1.95317E-05 C 573.41,6.05998 568.24,12.14 563.05,18.25 C 560.68,15.47 558.33,12.7 556.04,9.99998 L 556.04,10.01 Z M 591.71,4.13998 C 592.11,2.75998 592.3,1.36998 592.29,-1.95317E-05 L 601.42,-1.95317E-05 C 601.42,1.23998 601.4,2.48998 601.33,3.71998 C 601.04,9.35998 599.19,14.24 595.84,18.2 C 593.43,15.36 591.06,12.57 588.66,9.73998 C 590,8.19998 591.08,6.33998 591.71,4.13998 Z M 544.51,100.6 C 545.23,99.46 545.99,98.35 546.7,97.28 C 549.14,100.17 551.51,102.96 553.83,105.7 C 552.99,107.06 551.94,108.36 551.3,109.89 C 550.53,111.73 550.16,113.56 550.18,115.37 C 550.18,117.01 550.49,118.65 551.13,120.24 C 551.8,121.91 552.69,123.56 553.79,124.88 C 558.96,131.13 564.24,137.26 569.49,143.43 C 569.73,143.71 570.02,143.93 570.19,144.1 C 567.71,147.03 565.33,149.84 562.92,152.68 C 557.66,146.48 552.22,140.19 546.91,133.75 C 544.36,130.66 542.5,126.99 541.72,122.7 C 541.47,121.31 541.35,119.89 541.22,118.48 C 541.13,117.45 541.03,116.41 541.05,115.39 C 541.05,115.21 541.05,115.02 541.05,114.84 C 541.17,109.77 541.88,104.85 544.52,100.61 L 544.51,100.6 Z M 578.21,57.72 C 575.85,60.49 573.52,63.24 571.06,66.13 C 570.33,65.24 569.47,64.17 568.59,63.12 C 567.27,61.55 565.95,59.99 564.61,58.44 C 564.29,58.06 564.1,57.76 564.5,57.28 C 566.74,54.65 568.96,52.01 571.28,49.27 C 573.69,52.21 575.98,55.02 578.2,57.72 L 578.21,57.72 Z M 587.64,85.21 C 585.3,82.45 582.96,79.7 580.68,77.01 C 582.94,74.36 585.31,71.58 587.73,68.73 C 592.23,73.4 592.02,81.12 587.64,85.21 Z M 554.84,68.71 C 557.22,71.51 559.59,74.31 561.9,77.03 C 559.6,79.74 557.24,82.52 554.83,85.36 C 550.37,80.6 550.4,73.4 554.83,68.7 L 554.84,68.71 Z M 598.94,90.09 C 598.02,91.84 596.93,93.46 595.95,95.09 C 593.42,92.11 591.06,89.33 588.66,86.5 C 589.96,84.96 591.04,83.16 591.66,80.99 C 592.81,76.94 592.4,73.16 590.22,69.71 C 589.71,68.91 589.11,68.18 588.51,67.47 C 583.32,61.34 578.13,55.21 572.91,49.11 C 572.35,48.45 572.29,48.07 572.89,47.39 C 575.05,44.92 577.16,42.38 579.36,39.77 C 579.6,40.04 579.82,40.27 580.02,40.52 C 585.28,46.72 590.61,52.85 595.79,59.15 C 598.5,62.44 600.36,66.39 600.97,71 C 601.23,72.97 601.54,74.97 601.49,76.95 C 601.37,81.51 601.06,86.09 598.94,90.11 L 598.94,90.09 Z M 578.07,96.21 C 575.87,98.8 573.53,101.55 571.25,104.24 C 569.02,101.61 566.68,98.86 564.4,96.16 C 566.65,93.5 568.97,90.77 571.2,88.14 C 573.46,90.8 575.8,93.55 578.06,96.21 L 578.07,96.21 Z M 586.43,67.5 C 578.71,76.59 570.89,85.81 563.09,95 C 560.74,92.23 558.37,89.45 555.83,86.45 C 563.71,77.39 571.62,68.3 579.46,59.28 C 581.69,61.91 584.07,64.71 586.44,67.5 L 586.43,67.5 Z M 556.13,48.22 C 563.83,39.15 571.6,29.99 579.28,20.94 C 581.6,23.67 583.98,26.48 586.32,29.24 C 578.72,38.19 570.94,47.35 563.17,56.52 C 560.82,53.75 558.46,50.97 556.13,48.22 Z M 555.47,30.69 C 557.66,33.28 559.86,35.86 562.06,38.44 C 559.62,41.31 557.26,44.1 554.87,46.92 C 552.69,44.71 551.43,41.86 551.54,38.31 C 551.62,35.71 552.36,33.38 553.94,31.48 C 554.13,31.25 554.39,31.05 554.51,30.78 C 554.81,30.12 555.08,30.23 555.47,30.69 Z M 553.94,29.07 C 552.63,30.63 551.36,32.24 550.8,34.38 C 549.61,38.98 550.24,43.26 552.98,46.83 C 555.82,50.53 558.86,54.01 561.85,57.54 C 564.47,60.63 567.15,63.66 569.81,66.71 C 570.12,67.07 570.37,67.38 569.94,67.87 C 567.7,70.5 565.47,73.14 563.19,75.82 C 562.9,75.5 562.65,75.24 562.42,74.96 C 557.72,69.43 553.07,63.84 548.31,58.39 C 546.34,56.13 544.59,53.71 543.32,50.87 C 542.3,48.58 541.58,46.12 541.39,43.51 C 541.26,41.76 541.01,40.01 541.05,38.27 C 541.14,33.83 541.59,29.44 543.62,25.55 C 544.55,23.77 545.65,22.12 546.65,20.44 C 549.16,23.4 551.52,26.19 553.95,29.06 L 553.94,29.07 Z M 546.86,59.03 C 549.05,61.62 551.23,64.23 553.45,66.78 C 553.93,67.34 553.82,67.65 553.45,68.17 C 552.74,69.14 551.99,70.1 551.45,71.19 C 550.32,73.44 550.1,75.88 550.37,78.49 C 550.73,82 552.3,84.62 554.34,87 C 559.4,92.92 564.44,98.88 569.48,104.82 C 569.72,105.1 569.99,105.34 570.17,105.52 C 567.7,108.43 565.31,111.23 562.91,114.06 C 557.57,107.76 552.05,101.39 546.68,94.87 C 544.18,91.83 542.45,88.14 541.65,83.96 C 541.39,82.61 541.33,81.21 541.2,79.83 C 541.13,79.09 540.99,78.33 541.03,77.59 C 541.17,75.17 541.29,72.73 541.59,70.33 C 542.08,66.42 544.23,61.6 546.87,59.02 L 546.86,59.03 Z M 584.02,42.82 C 582.87,41.41 581.67,40.06 580.59,38.79 C 582.96,36 585.29,33.24 587.64,30.46 C 592.35,34.5 591.98,43.04 587.39,47.08 C 586.27,45.66 585.17,44.22 584.03,42.82 L 584.02,42.82 Z M 578.14,19.45 C 575.9,22.09 573.58,24.83 571.36,27.45 C 569.11,24.8 566.77,22.06 564.52,19.4 C 566.71,16.82 569.04,14.07 571.32,11.39 C 573.54,14.01 575.87,16.76 578.15,19.45 L 578.14,19.45 Z M 596.67,55.5 C 596.38,55.92 596.09,56.34 595.86,56.68 C 593.38,53.76 591.05,51.01 588.67,48.21 C 589.95,46.44 591.27,44.55 591.82,42.1 C 592.76,37.91 592.33,33.98 589.79,30.75 C 586.39,26.43 582.81,22.31 579.29,18.12 C 577,15.39 574.68,12.7 572.37,9.98998 C 574.81,7.11998 577.17,4.32998 579.43,1.66998 C 584.32,7.38998 589.21,13.27 594.25,18.95 C 597.45,22.56 599.82,26.66 600.83,31.76 C 601.1,33.14 601.26,34.56 601.32,35.98 C 601.4,37.83 601.4,39.69 601.32,41.53 C 601.13,46.21 600.01,50.53 597.51,54.27 C 597.23,54.69 596.93,55.09 596.64,55.51 L 596.67,55.5 Z M 607.87,115.37 L 607.87,230.74 L 602.77,230.74 C 602.73,228.68 602.62,226.62 602.45,224.57 C 602.05,219.78 600.15,215.79 597.34,212.39 C 596.76,211.69 596.89,211.36 597.35,210.68 C 598.59,208.85 599.9,207.04 600.86,205 C 602.4,201.73 602.7,198.04 602.82,194.37 C 602.88,192.32 602.79,190.26 602.64,188.22 C 602.51,186.53 602.28,184.84 601.94,183.19 C 601.13,179.22 599.08,176.11 596.85,173.27 C 597.87,171.73 598.95,170.27 599.88,168.69 C 602.04,165.02 602.69,160.78 602.81,156.45 C 602.89,153.59 602.65,150.71 602.47,147.84 C 602.26,144.62 601.23,141.7 599.7,139.06 C 598.82,137.54 597.76,136.16 596.94,134.95 C 598.28,132.7 599.72,130.62 600.84,128.31 C 602.39,125.12 602.69,121.5 602.83,117.9 C 602.86,117.06 602.83,116.21 602.81,115.37 L 602.79,115.37 C 602.75,113.31 602.64,111.25 602.47,109.2 C 602.07,104.41 600.17,100.42 597.36,97.02 C 596.78,96.32 596.91,95.99 597.37,95.31 C 598.61,93.48 599.92,91.67 600.88,89.63 C 602.42,86.36 602.72,82.67 602.84,79 C 602.9,76.95 602.81,74.89 602.66,72.85 C 602.53,71.16 602.3,69.47 601.96,67.82 C 601.15,63.85 599.1,60.74 596.87,57.9 C 597.89,56.36 598.97,54.9 599.9,53.32 C 602.06,49.65 602.71,45.41 602.83,41.08 C 602.91,38.22 602.67,35.34 602.49,32.47 C 602.28,29.25 601.25,26.33 599.72,23.69 C 598.84,22.17 597.78,20.79 596.96,19.58 C 598.3,17.33 599.74,15.25 600.86,12.94 C 602.41,9.74998 602.71,6.12998 602.85,2.52998 C 602.88,1.68998 602.85,0.83998 602.83,-1.95317E-05 L 607.91,-1.95317E-05 L 607.91,115.37 L 607.87,115.37 Z M 531.54,115.37 L 531.54,230.74 L 530.26,230.74 L 530.26,-1.95317E-05 L 531.54,-1.95317E-05 L 531.54,115.37 Z M 590.99,230.74 L 580.66,230.74 C 582.99,228 585.29,225.28 587.61,222.55 C 589.84,224.47 591.02,227.55 590.99,230.74 Z M 586.38,221.23 C 583.7,224.38 581.25,227.57 578.55,230.74 L 564.57,230.74 C 569.59,224.82 574.37,218.91 579.39,213 C 581.7,215.72 584.07,218.51 586.38,221.23 Z M 601.15,226.15 C 601.41,227.64 601.44,229.22 601.42,230.75 L 592.29,230.75 C 592.32,227.9 591.53,225.03 589.84,222.91 C 586.82,219.12 583.66,215.47 580.58,211.74 C 577.89,208.49 575.21,205.22 572.62,202.08 C 574.85,199.45 577.19,196.7 579.77,193.65 C 579.81,193.75 579.91,194.18 580.14,194.45 C 584.78,199.95 589.37,205.5 594.11,210.87 C 596.48,213.56 598.53,216.46 599.76,220.03 C 600.43,221.98 600.81,224.08 601.16,226.15 L 601.15,226.15 Z M 562.19,230.74 L 551.57,230.74 C 551.57,230.63 551.55,230.54 551.55,230.43 C 551.62,227.83 552.37,225.5 553.95,223.6 C 554.14,223.37 554.4,223.17 554.52,222.9 C 554.82,222.24 555.09,222.35 555.48,222.81 C 557.66,225.41 560,228.15 562.2,230.74 L 562.19,230.74 Z M 551.56,115.37 C 551.56,115.26 551.54,115.17 551.54,115.06 C 551.61,112.46 552.36,110.13 553.94,108.23 C 554.13,108 554.39,107.8 554.51,107.53 C 554.81,106.87 555.08,106.98 555.47,107.44 C 557.65,110.04 559.99,112.78 562.19,115.37 L 561.63,116.05 C 559.53,118.53 557.62,120.98 555.52,123.47 C 555.18,123.87 554.9,124.15 554.47,123.6 C 552.71,121.38 551.53,118.87 551.52,115.73 C 551.52,115.6 551.55,115.49 551.55,115.37 L 551.56,115.37 Z M 580.66,115.37 C 582.99,112.63 585.29,109.91 587.61,107.18 C 589.84,109.1 591.02,112.18 590.99,115.37 C 591.06,118.5 589.97,121.67 587.58,123.87 C 585.21,121.08 582.93,118.04 580.66,115.37 Z M 551.29,225.26 C 550.52,227.1 550.15,228.93 550.17,230.74 L 541.03,230.74 C 541.03,230.56 541.03,230.37 541.03,230.19 C 541.15,225.12 541.86,220.2 544.5,215.96 C 545.22,214.82 545.98,213.71 546.69,212.64 C 549.13,215.53 551.5,218.32 553.82,221.06 C 552.98,222.42 551.93,223.72 551.29,225.25 L 551.29,225.26 Z M 564.51,172.65 C 566.75,170.02 568.97,167.38 571.29,164.64 C 573.7,167.58 575.99,170.39 578.21,173.09 C 575.85,175.86 573.52,178.61 571.06,181.5 C 570.33,180.61 569.47,179.54 568.59,178.49 C 567.27,176.92 565.95,175.36 564.61,173.81 C 564.29,173.43 564.1,173.13 564.5,172.65 L 564.51,172.65 Z M 587.64,200.58 C 585.3,197.82 582.96,195.07 580.68,192.38 C 582.94,189.73 585.31,186.95 587.73,184.1 C 592.23,188.77 592.02,196.49 587.64,200.58 Z M 554.84,184.08 C 557.22,186.88 559.59,189.68 561.9,192.4 C 559.6,195.11 557.24,197.89 554.83,200.73 C 550.37,195.97 550.4,188.77 554.83,184.07 L 554.84,184.08 Z M 588.66,201.88 C 589.96,200.34 591.04,198.54 591.66,196.37 C 592.81,192.32 592.4,188.54 590.22,185.09 C 589.71,184.29 589.11,183.56 588.51,182.85 C 583.32,176.72 578.13,170.59 572.91,164.49 C 572.35,163.83 572.29,163.45 572.89,162.77 C 575.05,160.3 577.16,157.76 579.36,155.15 C 579.6,155.42 579.82,155.65 580.02,155.9 C 585.28,162.1 590.61,168.23 595.79,174.53 C 598.5,177.82 600.36,181.77 600.97,186.38 C 601.23,188.35 601.54,190.35 601.49,192.33 C 601.37,196.89 601.06,201.47 598.94,205.49 C 598.02,207.24 596.93,208.86 595.95,210.49 C 593.42,207.51 591.06,204.73 588.66,201.9 L 588.66,201.88 Z M 578.07,211.58 C 575.87,214.17 573.53,216.92 571.25,219.61 C 569.02,216.98 566.68,214.23 564.4,211.53 C 566.65,208.87 568.97,206.14 571.2,203.51 C 573.46,206.17 575.8,208.92 578.06,211.58 L 578.07,211.58 Z M 586.43,182.87 C 578.71,191.96 570.89,201.18 563.09,210.37 C 560.74,207.6 558.37,204.82 555.83,201.82 C 563.71,192.76 571.62,183.67 579.46,174.65 C 581.69,177.28 584.07,180.08 586.44,182.87 L 586.43,182.87 Z M 586.33,144.61 C 578.73,153.56 570.95,162.72 563.18,171.89 C 560.83,169.12 558.47,166.34 556.14,163.59 C 563.84,154.52 571.61,145.36 579.29,136.31 C 581.61,139.04 583.99,141.85 586.33,144.61 Z M 555.47,146.06 C 557.66,148.65 559.86,151.23 562.06,153.81 C 559.62,156.68 557.26,159.47 554.87,162.29 C 552.69,160.08 551.43,157.23 551.54,153.68 C 551.62,151.08 552.36,148.75 553.94,146.85 C 554.13,146.62 554.39,146.42 554.51,146.15 C 554.81,145.49 555.08,145.6 555.47,146.06 Z M 543.6,140.93 C 544.53,139.15 545.63,137.5 546.63,135.82 C 549.14,138.78 551.5,141.57 553.93,144.44 C 552.62,146 551.35,147.61 550.79,149.75 C 549.6,154.35 550.23,158.63 552.97,162.2 C 555.81,165.9 558.85,169.38 561.84,172.91 C 564.46,176 567.14,179.03 569.8,182.08 C 570.11,182.44 570.36,182.75 569.93,183.24 C 567.69,185.87 565.46,188.51 563.18,191.19 C 562.89,190.87 562.64,190.61 562.41,190.33 C 557.71,184.8 553.06,179.21 548.3,173.76 C 546.33,171.5 544.58,169.08 543.31,166.24 C 542.29,163.95 541.57,161.49 541.38,158.88 C 541.25,157.13 541,155.38 541.04,153.64 C 541.13,149.2 541.58,144.81 543.61,140.92 L 543.6,140.93 Z M 546.86,174.4 C 549.05,176.99 551.23,179.6 553.45,182.15 C 553.93,182.71 553.82,183.02 553.45,183.54 C 552.74,184.51 551.99,185.47 551.45,186.56 C 550.32,188.81 550.1,191.25 550.37,193.86 C 550.73,197.37 552.3,199.99 554.34,202.37 C 559.4,208.29 564.44,214.25 569.48,220.19 C 569.72,220.47 569.99,220.71 570.17,220.89 C 567.7,223.8 565.31,226.6 562.91,229.43 C 557.57,223.13 552.05,216.76 546.68,210.24 C 544.18,207.2 542.45,203.51 541.65,199.33 C 541.39,197.98 541.33,196.58 541.2,195.2 C 541.13,194.46 540.99,193.7 541.03,192.96 C 541.17,190.54 541.29,188.1 541.59,185.7 C 542.08,181.79 544.23,176.97 546.87,174.39 L 546.86,174.4 Z M 584.02,158.19 C 582.87,156.78 581.67,155.43 580.59,154.16 C 582.96,151.37 585.29,148.61 587.64,145.83 C 592.35,149.87 591.98,158.41 587.39,162.45 C 586.27,161.03 585.17,159.59 584.03,158.19 L 584.02,158.19 Z M 578.14,134.83 C 575.9,137.47 573.58,140.21 571.36,142.83 C 569.11,140.18 566.77,137.44 564.52,134.78 C 566.71,132.2 569.04,129.45 571.32,126.77 C 573.54,129.39 575.87,132.14 578.15,134.83 L 578.14,134.83 Z M 596.67,170.87 C 596.38,171.29 596.09,171.71 595.86,172.05 C 593.38,169.13 591.05,166.38 588.67,163.58 C 589.95,161.81 591.27,159.92 591.82,157.47 C 592.76,153.28 592.33,149.35 589.79,146.12 C 586.39,141.8 582.81,137.68 579.29,133.49 C 577,130.76 574.68,128.07 572.37,125.36 C 574.81,122.49 577.17,119.7 579.43,117.04 C 584.32,122.76 589.21,128.64 594.25,134.32 C 597.45,137.93 599.82,142.03 600.83,147.13 C 601.1,148.51 601.26,149.93 601.32,151.35 C 601.4,153.2 601.4,155.06 601.32,156.9 C 601.13,161.58 600.01,165.9 597.51,169.64 C 597.23,170.06 596.93,170.46 596.64,170.88 L 596.67,170.87 Z M 539.93,225.4 C 539.79,227.17 539.74,228.96 539.73,230.74 L 534.53,230.74 L 534.53,-1.95317E-05 L 539.73,-1.95317E-05 C 539.75,1.52998 539.8,3.05998 539.92,4.57998 C 540.08,6.54998 540.37,8.52998 540.82,10.42 C 541.68,14 543.68,16.8 545.59,19.3 C 544.26,21.54 542.81,23.61 541.71,25.92 C 540.21,29.08 539.79,32.64 539.72,36.22 C 539.67,38.63 539.79,41.05 539.89,43.46 C 539.99,45.82 540.43,48.1 541.25,50.26 C 542.34,53.11 543.83,55.64 545.74,57.76 C 545.29,58.4 544.91,59.01 544.48,59.55 C 541.04,63.87 539.79,69.15 539.71,74.91 C 539.68,77.07 539.81,79.23 539.88,81.39 C 539.98,84.37 540.48,87.28 541.76,89.86 C 542.89,92.15 544.31,94.25 545.6,96.43 C 545.09,97.12 544.45,97.95 543.85,98.8 C 541.55,102.06 540.25,105.84 539.91,110.03 C 539.77,111.8 539.72,113.59 539.71,115.37 C 539.73,116.9 539.78,118.43 539.9,119.95 C 540.06,121.92 540.35,123.9 540.8,125.79 C 541.66,129.37 543.66,132.17 545.57,134.67 C 544.24,136.91 542.79,138.98 541.69,141.29 C 540.19,144.45 539.77,148.01 539.7,151.59 C 539.65,154 539.77,156.42 539.87,158.83 C 539.97,161.19 540.41,163.47 541.23,165.63 C 542.32,168.48 543.81,171.01 545.72,173.13 C 545.27,173.77 544.89,174.38 544.46,174.92 C 541.02,179.24 539.77,184.52 539.69,190.28 C 539.66,192.44 539.79,194.6 539.86,196.76 C 539.96,199.74 540.46,202.65 541.74,205.23 C 542.87,207.52 544.29,209.62 545.58,211.8 C 545.07,212.49 544.43,213.32 543.83,214.17 C 541.53,217.43 540.23,221.21 539.89,225.4 L 539.93,225.4 Z M 612.15,230.74 L 610.87,230.74 L 610.87,-1.95317E-05 L 612.15,-1.95317E-05 L 612.15,230.74 Z"/></svg>