<svg xmlns="http://www.w3.org/2000/svg" viewBox="267.1 967.7 90.2 242.8" fill="none"><path fill="currentColor" d="M 305.15,1093.77 C 304.43,1094.7 303.51,1095.36 302.67,1096.16 C 304.24,1098.21 305.32,1099.61 306.65,1101.35 C 307.45,1100.19 308.11,1099.16 308.83,1098.2 C 312.91,1092.78 312.89,1085.52 308.77,1080.1 C 305.18,1075.39 301.59,1070.69 297.99,1065.99 C 297.57,1065.44 297.11,1064.93 296.89,1064.67 C 295.56,1066.15 294.39,1067.44 292.81,1069.2 C 293.51,1069.81 294.11,1070.18 294.55,1070.75 C 298.09,1075.31 301.61,1079.9 305.11,1084.51 C 307.33,1087.43 307.37,1090.9 305.15,1093.77 Z M 283.96,1071.07 C 288.62,1064.99 293.56,1058.54 298.53,1052.05 C 299.43,1053.2 300.51,1054.6 301.62,1056.01 C 296.65,1062.35 291.69,1068.69 286.65,1075.12 C 285.86,1073.92 284.83,1072.37 283.97,1071.06 L 283.96,1071.07 Z M 283.7,1096.66 C 288.51,1090.41 293.47,1083.95 298.53,1077.37 C 299.42,1078.69 300.43,1080.19 301.27,1081.45 C 296.47,1087.71 291.53,1094.16 286.49,1100.73 C 285.72,1099.61 284.67,1098.08 283.7,1096.66 Z M 303.4,1045.84 C 308.35,1039.34 313.29,1032.87 318.25,1026.37 C 319.05,1027.53 320.08,1029 321.13,1030.53 C 316.34,1036.73 311.37,1043.16 306.22,1049.82 C 305.29,1048.51 304.25,1047.04 303.4,1045.84 Z M 293.29,1043.18 C 294.42,1041.89 295.6,1040.53 296.8,1039.16 C 301.55,1045.29 306.52,1051.72 311.31,1057.9 C 310.18,1059.42 309.07,1060.93 307.99,1062.38 C 303.14,1056.05 298.27,1049.67 293.3,1043.18 L 293.29,1043.18 Z M 308.17,1113.53 C 303.38,1107.27 298.43,1100.81 293.44,1094.3 C 294.44,1093.1 295.59,1091.71 296.66,1090.42 C 301.5,1096.74 306.42,1103.16 311.41,1109.67 C 310.39,1110.89 309.23,1112.27 308.17,1113.53 Z M 308.39,1036.51 C 303.54,1030.17 298.6,1023.72 293.72,1017.34 C 294.53,1016.35 295.67,1014.94 296.74,1013.62 C 301.45,1019.78 306.4,1026.25 311.4,1032.78 C 310.41,1034.01 309.3,1035.38 308.39,1036.51 Z M 340.83,1158.47 C 335.93,1164.88 330.98,1171.35 325.93,1177.94 C 325.02,1176.64 324,1175.17 323.03,1173.78 C 327.9,1167.52 332.88,1161.13 337.97,1154.58 C 338.81,1155.72 339.87,1157.16 340.82,1158.46 L 340.83,1158.47 Z M 303.28,1122.57 C 308.21,1116.16 313.14,1109.77 318.11,1103.3 C 318.95,1104.49 320.01,1105.98 320.96,1107.32 C 316.2,1113.49 311.28,1119.88 306.21,1126.45 C 305.31,1125.26 304.24,1123.85 303.28,1122.58 L 303.28,1122.57 Z M 316.1,1141.84 C 320.95,1148.16 325.9,1154.6 330.88,1161.09 C 329.98,1162.28 328.91,1163.7 327.96,1164.97 C 323.02,1158.52 318.07,1152.06 313.09,1145.56 C 314.05,1144.38 315.15,1143.01 316.09,1141.84 L 316.1,1141.84 Z M 321.27,1132.92 C 316.31,1139.39 311.38,1145.82 306.35,1152.39 C 305.39,1151.02 304.36,1149.55 303.51,1148.33 C 308.35,1141.99 313.29,1135.53 318.31,1128.95 C 319.14,1130.07 320.24,1131.54 321.27,1132.92 Z M 283.79,1148.42 C 288.68,1142.02 293.62,1135.57 298.68,1128.95 C 299.43,1130.06 300.46,1131.6 301.42,1133.03 C 296.61,1139.31 291.69,1145.73 286.66,1152.3 C 285.64,1150.92 284.62,1149.53 283.79,1148.42 Z M 293.55,1119.96 C 294.47,1118.65 295.51,1117.18 296.41,1115.91 C 301.44,1122.46 306.4,1128.92 311.42,1135.45 C 310.42,1136.68 309.3,1138.05 308.31,1139.27 C 303.41,1132.86 298.47,1126.39 293.56,1119.96 L 293.55,1119.96 Z M 308.91,1175.07 C 308.15,1176.09 307.46,1177.18 306.75,1178.21 C 305.35,1176.49 304.24,1175.13 302.68,1173.22 C 303.64,1172.25 304.59,1171.5 305.34,1170.5 C 307.3,1167.85 307.27,1164.33 305.27,1161.71 C 301.27,1156.47 297.24,1151.29 293.07,1145.88 C 294.41,1144.45 295.63,1143.15 297.27,1141.4 C 297.84,1142.29 298.64,1143.76 299.59,1145.03 C 302.67,1149.14 305.84,1153.15 308.92,1157.26 C 312.87,1162.52 312.84,1169.79 308.92,1175.07 L 308.91,1175.07 Z M 316.28,987.91 C 321.07,994.18 325.98,1000.6 331.01,1007.18 C 330.03,1008.39 328.92,1009.75 327.91,1010.99 C 323.07,1004.65 318.13,998.18 313.2,991.72 C 314.13,990.57 315.26,989.17 316.28,987.9 L 316.28,987.91 Z M 301.56,1158.34 C 296.56,1164.84 291.63,1171.26 286.61,1177.79 C 285.78,1176.57 284.74,1175.03 283.78,1173.62 C 288.55,1167.42 293.51,1160.96 298.52,1154.43 C 299.49,1155.68 300.58,1157.09 301.56,1158.34 Z M 308.38,1190.59 C 303.41,1184.12 298.46,1177.66 293.53,1171.24 C 294.46,1170.06 295.55,1168.67 296.51,1167.45 C 301.37,1173.79 306.32,1180.24 311.34,1186.79 C 310.43,1187.95 309.34,1189.34 308.38,1190.58 L 308.38,1190.59 Z M 340.98,1004.59 C 335.95,1011.07 331,1017.44 325.95,1023.94 C 325.1,1022.64 324.09,1021.08 323.13,1019.62 C 327.86,1013.5 332.79,1007.13 337.83,1000.61 C 338.82,1001.87 339.92,1003.25 340.98,1004.59 Z M 337.31,1066.06 C 340.87,1070.7 344.44,1075.35 347.99,1079.99 C 352.27,1085.58 352.27,1092.8 348,1098.43 C 347.32,1099.33 346.69,1100.28 346.1,1101.12 C 344.82,1099.43 343.72,1097.97 342.33,1096.13 C 342.92,1095.51 343.74,1094.79 344.42,1093.89 C 346.76,1090.82 346.75,1087.55 344.42,1084.49 C 340.87,1079.83 337.3,1075.2 333.74,1070.55 C 333.34,1070.03 332.97,1069.49 332.47,1068.81 C 333.64,1067.36 334.75,1066 336,1064.46 C 336.43,1064.98 336.88,1065.5 337.31,1066.06 Z M 340.62,1030.54 C 335.92,1036.66 330.97,1043.11 325.88,1049.74 C 325,1048.41 324.01,1046.9 323.16,1045.61 C 327.95,1039.36 332.89,1032.92 337.94,1026.32 C 338.7,1027.51 339.7,1029.09 340.62,1030.53 L 340.62,1030.54 Z M 319.24,1016.78 C 322.78,1021.46 326.36,1026.08 329.92,1030.74 C 330.36,1031.31 330.78,1031.91 331.29,1032.6 C 330.06,1034.04 328.92,1035.38 327.27,1037.3 C 326.84,1036.51 326.38,1035.35 325.72,1034.46 C 322.44,1030.08 319.09,1025.78 315.78,1021.44 C 311.56,1015.91 311.53,1008.74 315.66,1003.14 C 316.37,1002.18 317,1001.1 317.76,999.94 C 319.11,1001.77 320.21,1003.24 321.68,1005.22 C 320.86,1006.06 319.99,1006.79 319.27,1007.72 C 317.08,1010.57 317.07,1013.9 319.25,1016.78 L 319.24,1016.78 Z M 283.65,1019.94 C 288.57,1013.54 293.52,1007.11 298.58,1000.54 C 299.41,1001.77 300.45,1003.3 301.43,1004.74 C 296.61,1010.98 291.69,1017.36 286.62,1023.94 C 285.67,1022.65 284.61,1021.22 283.66,1019.93 L 283.65,1019.94 Z M 304.63,1006.91 C 301.23,1002.48 297.83,998.05 294.43,993.61 C 294.03,993.09 293.65,992.53 293.19,991.89 C 294.36,990.47 295.48,989.12 296.72,987.62 C 296.98,987.91 297.37,988.3 297.72,988.75 C 301.37,993.49 305.02,998.23 308.65,1003 C 312.93,1008.62 312.94,1015.74 308.71,1021.46 C 308.04,1022.37 307.42,1023.36 306.7,1024.43 C 305.43,1022.69 304.35,1021.21 302.75,1019.03 C 303.32,1018.57 304.1,1018.16 304.66,1017.45 C 307.56,1013.75 307.52,1010.69 304.62,1006.91 L 304.63,1006.91 Z M 331.02,1058.58 C 330.1,1059.76 329.01,1061.16 328.08,1062.37 C 323.12,1055.91 318.2,1049.5 313.13,1042.9 C 314.05,1041.74 315.14,1040.35 316.11,1039.12 C 321.04,1045.56 325.99,1052.02 331.02,1058.58 Z M 316.29,1064.99 C 321.07,1071.22 325.99,1077.64 331.02,1084.2 C 330.07,1085.34 328.91,1086.73 327.83,1088.02 C 322.99,1081.69 318.06,1075.25 313.02,1068.65 C 314.04,1067.5 315.24,1066.17 316.29,1064.99 Z M 321.2,1055.82 C 316.24,1062.25 311.28,1068.7 306.26,1075.21 C 305.37,1073.97 304.32,1072.52 303.41,1071.26 C 308.28,1064.92 313.2,1058.5 318.26,1051.92 C 319.15,1053.11 320.23,1054.53 321.21,1055.83 L 321.2,1055.82 Z M 321.31,1182.56 C 319.37,1180.02 317.41,1177.51 315.48,1174.96 C 311.63,1169.88 311.65,1162.44 315.5,1157.32 C 316.29,1156.27 317.06,1155.19 317.87,1154.09 C 319.11,1155.74 320.19,1157.16 321.74,1159.21 C 320.92,1160 319.96,1160.72 319.2,1161.7 C 317.08,1164.44 317.08,1167.84 319.2,1170.6 C 323.2,1175.84 327.24,1181.01 331.36,1186.35 C 330.09,1187.91 328.95,1189.32 327.66,1190.91 C 325.58,1188.16 323.45,1185.35 321.32,1182.55 L 321.31,1182.56 Z M 287.5,1189.74 C 283.7,1184.79 279.87,1179.87 276.11,1174.87 C 272.32,1169.84 272.34,1162.52 276.07,1157.41 C 276.86,1156.33 277.56,1155.16 278.36,1153.93 C 279.7,1155.8 280.77,1157.29 282.17,1159.23 C 281.53,1159.9 280.65,1160.63 279.93,1161.58 C 277.82,1164.38 277.82,1167.9 279.93,1170.68 C 283.51,1175.4 287.12,1180.07 290.71,1184.76 C 291.11,1185.28 291.48,1185.82 291.97,1186.49 C 290.76,1187.89 289.62,1189.21 288.37,1190.66 C 288.18,1190.45 287.81,1190.13 287.5,1189.73 L 287.5,1189.74 Z M 321,1184.39 C 316.21,1190.49 311.18,1196.89 305.95,1203.55 C 305.19,1202.54 304.08,1201.09 303.07,1199.77 C 308.19,1193.09 313.13,1186.63 318.2,1180 C 319.05,1181.33 320.02,1182.86 321,1184.39 Z M 274.35,1146.85 C 273.79,1146.1 273.39,1144.83 273.37,1143.78 C 273.27,1138.71 273.32,1133.64 273.32,1128.21 C 277.71,1128.21 281.88,1128.21 286.04,1128.23 C 286.35,1128.23 286.74,1128.4 286.96,1128.67 C 288.64,1130.79 290.29,1132.95 291.96,1135.12 C 290.75,1136.69 289.67,1138.11 288.33,1139.85 C 286.1,1134.68 282.56,1133.81 278.26,1134.98 C 278.26,1137.33 278.2,1139.91 278.31,1142.48 C 278.34,1143.08 278.89,1143.7 279.28,1144.21 C 283.49,1149.69 287.72,1155.15 292.07,1160.77 C 290.8,1162.27 289.67,1163.6 288.4,1165.1 C 288.16,1164.84 287.77,1164.45 287.42,1164 C 283.05,1158.3 278.66,1152.62 274.35,1146.84 L 274.35,1146.85 Z M 298.49,1188.67 C 294.83,1193.39 291.21,1198.17 287.55,1202.88 C 287.13,1203.42 286.54,1204.05 286.02,1204.06 C 281.86,1204.16 277.7,1204.11 273.34,1204.11 C 273.34,1198.33 273.34,1192.76 273.36,1187.19 C 273.36,1186.81 273.6,1186.36 273.82,1186.06 C 275.36,1183.97 276.93,1181.9 278.55,1179.74 C 279.82,1181.36 280.92,1182.76 282.26,1184.47 C 278.28,1187.4 277.59,1192 278.5,1197.63 C 280.31,1197.63 282.29,1197.71 284.26,1197.57 C 284.72,1197.54 285.19,1196.81 285.59,1196.3 C 289.81,1190.84 294.01,1185.36 298.3,1179.79 C 299.38,1181.35 300.43,1182.87 301.74,1184.78 C 300.75,1185.96 299.58,1187.26 298.49,1188.66 L 298.49,1188.67 Z M 288.46,1113.54 C 284.12,1108 279.49,1102.54 275.27,1096.58 C 272.27,1092.34 272.67,1085.54 275.58,1081.16 C 276.51,1079.76 277.48,1078.39 278.5,1076.92 C 279.8,1078.73 280.85,1080.19 282.37,1082.3 C 281.64,1083 280.73,1083.67 280.01,1084.6 C 277.78,1087.47 277.79,1090.95 279.99,1093.83 C 283.5,1098.44 287.02,1103.03 290.56,1107.6 C 291,1108.17 291.61,1108.52 292.21,1109.03 C 290.69,1110.86 289.57,1112.21 288.47,1113.54 L 288.46,1113.54 Z M 286.05,1127.04 C 281.88,1127.14 277.72,1127.09 273.32,1127.09 C 273.32,1122.37 273.44,1117.83 273.27,1113.31 C 273.18,1110.7 273.72,1108.77 275.25,1107.1 C 276.42,1105.82 277.41,1104.24 278.52,1102.74 C 279.85,1104.42 280.91,1105.76 282.25,1107.45 C 278.37,1110.43 277.5,1114.94 278.52,1120.61 C 280.29,1120.61 282.27,1120.69 284.24,1120.55 C 284.7,1120.52 285.19,1119.81 285.58,1119.3 C 289.36,1114.41 293.13,1109.5 296.87,1104.56 C 297.31,1103.98 297.59,1103.2 298.02,1102.37 C 299.44,1104.3 300.49,1105.74 301.64,1107.31 C 301.39,1107.71 301.14,1108.19 300.83,1108.58 C 296.42,1114.34 292.01,1120.1 287.58,1125.83 C 287.16,1126.37 286.57,1127.01 286.05,1127.02 L 286.05,1127.04 Z M 327.87,985.51 C 324.87,981.59 321.86,977.65 318.83,973.69 L 325.07,973.69 C 327.04,976.26 329.02,978.84 331.01,981.44 C 329.97,982.79 328.89,984.2 327.88,985.51 L 327.87,985.51 Z M 308.32,985.06 C 305.48,981.35 302.57,977.54 299.63,973.68 L 305.39,973.68 C 307.39,976.29 309.38,978.9 311.4,981.55 C 310.44,982.64 309.29,983.95 308.32,985.06 Z M 296.66,1192.53 C 299.7,1196.53 302.38,1200.48 305.38,1204.43 L 299.61,1204.43 C 297.65,1201.87 295.64,1199.3 293.67,1196.72 C 294.46,1195.61 295.5,1194.15 296.66,1192.52 L 296.66,1192.53 Z M 316.27,1192.99 C 319.19,1196.8 322.11,1200.61 325.03,1204.43 L 318.84,1204.43 C 316.89,1201.87 315.14,1199.3 313.15,1196.69 C 314,1195.68 315.14,1194.33 316.27,1192.99 Z M 338.54,1128.25 C 342.65,1128.18 346.76,1128.21 351.12,1128.21 C 351.12,1133.97 351.12,1139.4 351.11,1144.83 C 351.11,1145.24 350.98,1145.75 350.77,1146.03 C 349.14,1148.2 347.47,1150.33 345.83,1152.44 C 344.64,1150.91 343.55,1149.51 342.21,1147.8 C 346.13,1144.84 346.92,1140.3 345.87,1134.69 C 344.15,1134.69 342.22,1134.61 340.31,1134.74 C 339.84,1134.77 339.34,1135.4 338.95,1135.9 C 335.13,1140.84 331.33,1145.79 327.55,1150.78 C 327.11,1151.36 326.84,1152.15 326.42,1152.98 C 324.97,1151.03 323.91,1149.59 322.79,1148.07 C 322.9,1147.84 322.98,1147.57 323.13,1147.37 C 327.77,1141.3 332.42,1135.22 337.09,1129.19 C 337.46,1128.71 338.04,1128.26 338.53,1128.25 L 338.54,1128.25 Z M 340.58,1184.65 C 335.94,1190.69 331.02,1197.09 326,1203.62 C 325,1202.26 323.91,1200.79 322.92,1199.44 C 327.85,1193.04 332.77,1186.64 337.84,1180.04 C 338.64,1181.38 339.6,1183 340.58,1184.64 L 340.58,1184.65 Z M 274.36,1069.96 C 273.8,1069.21 273.39,1067.93 273.37,1066.89 C 273.27,1061.76 273.32,1056.63 273.32,1051.22 C 277.7,1051.22 281.76,1051.2 285.82,1051.25 C 286.28,1051.25 286.83,1051.56 287.17,1051.96 C 288.8,1053.94 290.38,1056 292.07,1058.16 C 290.81,1059.7 289.7,1061.07 288.31,1062.77 C 286.02,1057.95 282.6,1056.52 278.24,1058.06 C 278.24,1060.3 278.17,1062.75 278.28,1065.18 C 278.31,1065.87 278.8,1066.62 279.22,1067.16 C 283.41,1072.67 287.64,1078.14 291.88,1083.65 C 290.69,1085.19 289.57,1086.62 288.38,1088.17 C 288.1,1087.86 287.74,1087.52 287.43,1087.11 C 283.05,1081.41 278.66,1075.74 274.34,1069.96 L 274.36,1069.96 Z M 350.12,1108.5 C 350.68,1109.24 351.07,1110.52 351.09,1111.56 C 351.19,1116.62 351.13,1121.69 351.13,1127.1 C 346.73,1127.1 342.57,1127.1 338.4,1127.08 C 338.09,1127.08 337.69,1126.92 337.48,1126.65 C 335.81,1124.52 334.17,1122.35 332.51,1120.17 C 333.69,1118.62 334.77,1117.21 336.11,1115.45 C 338.36,1120.58 341.86,1121.54 346.16,1120.32 C 346.16,1117.95 346.22,1115.36 346.11,1112.79 C 346.08,1112.19 345.52,1111.58 345.13,1111.07 C 341.38,1106.15 337.62,1101.24 333.84,1096.35 C 333.4,1095.78 332.82,1095.37 332.22,1094.8 C 333.64,1093.02 334.75,1091.63 335.97,1090.1 C 336.35,1090.55 336.78,1091.01 337.17,1091.51 C 341.5,1097.15 345.85,1102.77 350.12,1108.49 L 350.12,1108.5 Z M 337.1,1142.66 C 340.7,1147.34 344.3,1152.03 347.89,1156.73 C 352.31,1162.53 352.3,1169.69 347.93,1175.51 C 347.26,1176.41 346.76,1177.53 346.14,1178.65 C 344.63,1176.63 343.56,1175.2 342.36,1173.6 C 342.82,1172.98 343.23,1172.28 343.75,1171.73 C 346.99,1168.3 346.85,1164.19 343.7,1160.4 C 340.26,1156.26 337.05,1151.8 333.74,1147.47 C 333.38,1147 333.03,1146.51 332.62,1145.94 C 333.83,1144.4 334.92,1143.01 336.11,1141.5 C 336.38,1141.8 336.77,1142.2 337.11,1142.65 L 337.1,1142.66 Z M 343,1176.02 C 345.38,1179.14 347.78,1182.24 350.15,1185.38 C 350.54,1185.89 351.07,1186.55 351.07,1187.16 C 351.14,1192.73 351.11,1198.31 351.11,1204.11 C 346.69,1204.11 342.47,1204.12 338.25,1204.09 C 337.95,1204.09 337.59,1203.82 337.36,1203.54 C 335.69,1201.5 334.05,1199.43 332.32,1197.28 C 333.63,1195.63 334.74,1194.24 336.11,1192.53 C 338.37,1197.36 341.77,1198.76 346.16,1197.29 C 346.16,1195.01 346.22,1192.43 346.11,1189.86 C 346.08,1189.25 345.54,1188.62 345.15,1188.11 C 341.36,1183.13 337.55,1178.16 333.73,1173.22 C 333.33,1172.7 332.82,1172.33 332.3,1171.83 C 333.68,1170.01 334.79,1168.55 336.04,1166.89 C 338.41,1170.01 340.69,1173.03 342.98,1176.03 L 343,1176.02 Z M 340.76,1107.28 C 335.91,1113.59 330.99,1120 325.98,1126.53 C 324.99,1125.25 323.91,1123.85 322.93,1122.58 C 327.89,1116.13 332.82,1109.73 337.87,1103.16 C 338.76,1104.42 339.81,1105.92 340.77,1107.28 L 340.76,1107.28 Z M 338.46,1051.27 C 342.58,1051.17 346.69,1051.22 351.12,1051.22 C 351.12,1057.01 351.12,1062.51 351.1,1068.02 C 351.1,1068.42 350.91,1068.89 350.7,1069.19 C 349.14,1071.36 347.55,1073.5 345.92,1075.71 C 344.68,1074 343.62,1072.55 342.35,1070.8 C 346.16,1067.91 346.9,1063.28 345.91,1057.66 C 344.16,1057.66 342.29,1057.57 340.42,1057.72 C 339.9,1057.76 339.34,1058.44 338.92,1058.98 C 334.71,1064.46 330.52,1069.97 326.26,1075.56 C 325.12,1073.9 324.07,1072.38 322.7,1070.4 C 323.86,1069.04 325.27,1067.52 326.57,1065.86 C 330.04,1061.41 333.45,1056.88 336.92,1052.43 C 337.34,1051.89 337.94,1051.28 338.47,1051.27 L 338.46,1051.27 Z M 340.7,1081.47 C 335.85,1087.78 330.89,1094.24 325.83,1100.82 C 325.02,1099.67 323.98,1098.21 323.08,1096.94 C 327.96,1090.56 332.9,1084.1 337.83,1077.67 C 338.7,1078.82 339.77,1080.24 340.69,1081.47 L 340.7,1081.47 Z M 336.12,1013.15 C 339.44,1017.49 342.8,1021.86 346.14,1026.25 C 347.79,1028.42 350.04,1030.29 350.87,1032.91 C 351.7,1035.53 351.12,1038.93 351.13,1041.99 C 351.14,1044.6 351.13,1047.2 351.13,1050.23 C 349.96,1050.23 348.9,1050.23 347.84,1050.23 C 344.98,1050.23 342.11,1050.27 339.25,1050.2 C 338.61,1050.18 337.8,1050.04 337.36,1049.53 C 335.69,1047.63 334.13,1045.55 332.41,1043.38 C 333.75,1041.88 334.91,1040.59 336.3,1039.04 C 338.39,1043.58 341.86,1044.63 346.17,1043.31 C 346.17,1040.96 346.24,1038.58 346.13,1036.21 C 346.1,1035.52 345.62,1034.77 345.21,1034.22 C 341.47,1029.28 337.69,1024.38 333.93,1019.47 C 333.49,1018.9 333.07,1018.3 332.56,1017.6 C 333.76,1016.1 334.88,1014.69 336.12,1013.14 L 336.12,1013.15 Z M 338.07,990.06 C 341.49,994.56 344.96,998.99 348.35,1003.52 C 352.19,1008.65 352.1,1015.98 348.27,1021.14 C 347.48,1022.2 346.87,1023.48 346.15,1024.71 C 344.61,1022.69 343.54,1021.27 342.23,1019.55 C 343,1018.63 343.78,1017.79 344.49,1016.85 C 346.72,1013.92 346.73,1010.58 344.49,1007.62 C 340.95,1002.96 337.38,998.34 333.83,993.7 C 333.4,993.13 332.98,992.53 332.52,991.9 C 333.74,990.44 334.86,989.09 336.31,987.36 C 336.83,988.17 337.4,989.18 338.07,990.07 L 338.07,990.06 Z M 331.03,1135.45 C 330.06,1136.66 328.96,1138.05 327.86,1139.43 C 322.89,1132.96 317.96,1126.55 313.1,1120.23 C 314.16,1118.84 315.27,1117.4 316.26,1116.11 C 321.11,1122.45 326.05,1128.92 331.04,1135.44 L 331.03,1135.45 Z M 319.42,1093.95 C 323.34,1099.07 327.27,1104.17 331.29,1109.41 C 330.01,1110.89 328.82,1112.25 327.65,1113.61 C 323.53,1108.31 319.17,1102.82 314.95,1097.15 C 314,1095.88 313.34,1094.03 312.96,1092.29 C 312.1,1088.4 312.74,1084.71 314.68,1081.56 C 315.64,1080.01 316.83,1078.71 318.02,1077.18 C 319.1,1078.7 320.13,1080.17 321.17,1081.63 C 321.4,1081.86 321.63,1082.08 321.86,1082.31 C 321.04,1083 320.12,1083.54 319.43,1084.41 C 316.98,1087.55 317,1090.81 319.41,1093.96 L 319.42,1093.95 Z M 338.66,974.28 C 342.55,974.18 346.45,974.24 350.34,974.26 C 350.55,974.26 350.77,974.41 351.13,974.55 C 351.13,980.07 351.13,985.58 351.11,991.1 C 351.11,991.5 350.94,991.98 350.72,992.28 C 349.17,994.45 347.58,996.58 345.95,998.81 C 344.69,997.01 343.65,995.53 342.42,993.78 C 346.09,991.01 346.88,986.48 345.9,980.88 C 344.11,980.88 342.18,980.78 340.27,980.94 C 339.75,980.98 339.2,981.71 338.77,982.26 C 335.03,987.09 331.31,991.96 327.58,996.82 C 327.14,997.39 326.68,997.94 326.1,998.66 C 324.99,997.05 323.93,995.53 322.75,993.82 C 325.43,990.35 328.19,986.78 330.94,983.21 C 332.93,980.63 334.89,978.01 336.91,975.48 C 337.37,974.91 338.05,974.31 338.64,974.3 L 338.66,974.28 Z M 274.37,993.05 C 273.81,992.3 273.39,991.03 273.37,989.99 C 273.27,984.86 273.32,979.72 273.32,974.25 C 277.76,974.25 281.92,974.23 286.08,974.28 C 286.43,974.28 286.84,974.62 287.11,974.95 C 288.74,976.92 290.34,978.94 292.09,981.12 C 290.75,982.7 289.62,984.03 288.24,985.66 C 286.04,980.88 282.55,979.88 278.25,981.22 C 278.25,983.49 278.19,986 278.29,988.5 C 278.32,989.11 278.82,989.76 279.2,990.26 C 283.4,995.74 287.61,1001.19 291.96,1006.83 C 290.68,1008.34 289.53,1009.71 288.17,1011.32 C 287.35,1010.21 286.43,1008.9 285.48,1007.65 C 281.77,1002.79 278.02,997.98 274.36,993.05 L 274.37,993.05 Z M 283.7,1050.27 C 280.34,1050.05 276.97,1050.21 273.32,1050.21 L 273.32,1045.42 C 273.32,1043.55 273.55,1041.63 273.28,1039.83 C 272.31,1033.4 275.05,1029.54 278.74,1026.01 C 279.82,1027.47 280.88,1028.91 282.16,1030.64 C 278.33,1033.53 277.49,1038.03 278.53,1043.64 C 280.33,1043.64 282.26,1043.74 284.18,1043.58 C 284.7,1043.54 285.24,1042.79 285.67,1042.24 C 289.37,1037.46 293.05,1032.66 296.72,1027.83 C 297.2,1027.2 297.52,1026.37 298,1025.48 C 299.46,1027.43 300.56,1028.89 301.88,1030.65 C 297.48,1036.29 293.05,1041.79 288.79,1047.52 C 287.31,1049.51 285.84,1050.41 283.71,1050.27 L 283.7,1050.27 Z M 287.27,1035.59 C 283.67,1030.91 280.07,1026.22 276.48,1021.52 C 272.21,1015.94 272.18,1008.7 276.38,1003.08 C 277.09,1002.13 277.76,1001.11 278.34,1000.29 C 279.79,1001.99 280.92,1003.32 282.38,1005.03 C 281.47,1006.01 280.63,1006.78 279.91,1007.72 C 277.8,1010.5 277.82,1014.01 279.94,1016.81 C 283.48,1021.47 287.02,1026.12 290.59,1030.73 C 291.03,1031.3 291.65,1031.64 292.29,1032.18 C 290.77,1034.07 289.66,1035.44 288.44,1036.96 C 288.09,1036.54 287.66,1036.08 287.28,1035.58 L 287.27,1035.59 Z M 303.12,994.23 C 308.12,987.74 313.05,981.34 318.12,974.76 C 319.02,976.13 320.04,977.68 321.02,979.18 C 316.19,985.46 311.27,991.86 306.27,998.37 C 305.28,997.06 304.17,995.61 303.12,994.22 L 303.12,994.23 Z M 283.44,994.12 C 288.44,987.69 293.39,981.32 298.49,974.77 C 299.49,976.09 300.57,977.5 301.52,978.74 C 296.52,985.23 291.56,991.66 286.59,998.12 C 285.7,996.99 284.57,995.56 283.44,994.12 Z"/></svg>