<svg xmlns="http://www.w3.org/2000/svg" viewBox="21.5 360.4 124.1 124.1" fill="none"><path fill="currentColor" d="M 43.5,366.5 C 43.5,369.833 43.5,373.167 43.5,376.5 C 41.8333,376.5 40.1667,376.5 38.5,376.5 C 38.7678,374.901 38.4345,373.568 37.5,372.5 C 36.1667,372.5 34.8333,372.5 33.5,372.5 C 33.5,375.833 33.5,379.167 33.5,382.5 C 38.8333,382.5 44.1667,382.5 49.5,382.5 C 49.5,377.167 49.5,371.833 49.5,366.5 C 58.5,366.5 67.5,366.5 76.5,366.5 C 76.5,373.5 76.5,380.5 76.5,387.5 C 71.1667,387.5 65.8333,387.5 60.5,387.5 C 60.5,384.167 60.5,380.833 60.5,377.5 C 62.1667,377.5 63.8333,377.5 65.5,377.5 C 65.5,379.167 65.5,380.833 65.5,382.5 C 67.1667,382.5 68.8333,382.5 70.5,382.5 C 71.4816,379.038 71.815,375.371 71.5,371.5 C 65.8333,371.5 60.1667,371.5 54.5,371.5 C 54.5,376.833 54.5,382.167 54.5,387.5 C 45.5,387.5 36.5,387.5 27.5,387.5 C 27.5,380.5 27.5,373.5 27.5,366.5 C 32.8333,366.5 38.1667,366.5 43.5,366.5 Z"/><path fill="currentColor" d="M 97.5,366.5 C 97.5,369.833 97.5,373.167 97.5,376.5 C 95.8333,376.5 94.1667,376.5 92.5,376.5 C 92.7678,374.901 92.4345,373.568 91.5,372.5 C 90.1667,372.5 88.8333,372.5 87.5,372.5 C 87.5,375.833 87.5,379.167 87.5,382.5 C 92.8333,382.5 98.1667,382.5 103.5,382.5 C 103.5,377.167 103.5,371.833 103.5,366.5 C 113.172,366.334 122.839,366.5 132.5,367 C 126.542,373.113 120.709,379.28 115,385.5 C 114.502,382.518 114.335,379.518 114.5,376.5 C 117.89,376.885 120.223,375.552 121.5,372.5 C 117.94,371.499 113.607,371.166 108.5,371.5 C 108.5,376.833 108.5,382.167 108.5,387.5 C 99.5,387.5 90.5,387.5 81.5,387.5 C 81.5,380.5 81.5,373.5 81.5,366.5 C 86.8333,366.5 92.1667,366.5 97.5,366.5 Z"/><path fill="currentColor" d="M 121.5,372.5 C 117.5,372.5 113.5,372.5 109.5,372.5 C 109.821,377.695 109.487,382.695 108.5,387.5 C 108.5,382.167 108.5,376.833 108.5,371.5 C 113.607,371.166 117.94,371.499 121.5,372.5 Z"/><path fill="currentColor" d="M 43.5,366.5 C 44.4816,369.962 44.815,373.629 44.5,377.5 C 42.1667,377.5 39.8333,377.5 37.5,377.5 C 37.5,375.833 37.5,374.167 37.5,372.5 C 38.4345,373.568 38.7678,374.901 38.5,376.5 C 40.1667,376.5 41.8333,376.5 43.5,376.5 C 43.5,373.167 43.5,369.833 43.5,366.5 Z"/><path fill="currentColor" d="M 97.5,366.5 C 98.4816,369.962 98.815,373.629 98.5,377.5 C 96.1667,377.5 93.8333,377.5 91.5,377.5 C 91.5,375.833 91.5,374.167 91.5,372.5 C 92.4345,373.568 92.7678,374.901 92.5,376.5 C 94.1667,376.5 95.8333,376.5 97.5,376.5 C 97.5,373.167 97.5,369.833 97.5,366.5 Z"/><path fill="currentColor" d="M 137.5,373.5 C 138.494,382.986 138.827,392.652 138.5,402.5 C 133.167,402.5 127.833,402.5 122.5,402.5 C 122.5,408.167 122.5,413.833 122.5,419.5 C 125.833,419.5 129.167,419.5 132.5,419.5 C 132.5,417.5 132.5,415.5 132.5,413.5 C 130.833,413.5 129.167,413.5 127.5,413.5 C 127.5,411.833 127.5,410.167 127.5,408.5 C 131.167,408.5 134.833,408.5 138.5,408.5 C 138.5,413.833 138.5,419.167 138.5,424.5 C 131.5,424.5 124.5,424.5 117.5,424.5 C 117.5,415.5 117.5,406.5 117.5,397.5 C 122.833,397.5 128.167,397.5 133.5,397.5 C 133.666,392.821 133.499,388.155 133,383.5 C 131.846,384.743 130.512,385.743 129,386.5 C 128.506,388.134 128.34,389.801 128.5,391.5 C 125.482,391.665 122.482,391.498 119.5,391 C 126.004,385.663 132.004,379.829 137.5,373.5 Z"/><path fill="#F7EFDD" d="M 70.5,382.5 C 70.5,379.167 70.5,375.833 70.5,372.5 C 65.5,372.5 60.5,372.5 55.5,372.5 C 55.8205,377.695 55.4872,382.695 54.5,387.5 C 54.5,382.167 54.5,376.833 54.5,371.5 C 60.1667,371.5 65.8333,371.5 71.5,371.5 C 71.815,375.371 71.4816,379.038 70.5,382.5 Z"/><path fill="currentColor" d="M 65.5,377.5 C 63.8333,377.5 62.1667,377.5 60.5,377.5 C 60.5,380.833 60.5,384.167 60.5,387.5 C 59.5184,384.038 59.185,380.371 59.5,376.5 C 61.7354,376.205 63.7354,376.539 65.5,377.5 Z"/><path fill="#F7EFDD" d="M 137.5,373.5 C 137.56,372.957 137.893,372.624 138.5,372.5 C 139.823,382.659 139.823,392.659 138.5,402.5 C 138.827,392.652 138.494,382.986 137.5,373.5 Z"/><path fill="#F7EFDD" d="M 117.5,397.5 C 122.305,396.513 127.305,396.179 132.5,396.5 C 132.813,393.753 132.48,391.086 131.5,388.5 C 130.265,389.34 129.265,390.34 128.5,391.5 C 128.34,389.801 128.506,388.134 129,386.5 C 130.512,385.743 131.846,384.743 133,383.5 C 133.499,388.155 133.666,392.821 133.5,397.5 C 128.167,397.5 122.833,397.5 117.5,397.5 Z"/><path fill="currentColor" d="M 132.5,468.5 C 131.432,467.566 130.099,467.232 128.5,467.5 C 128.5,465.833 128.5,464.167 128.5,462.5 C 131.833,462.5 135.167,462.5 138.5,462.5 C 138.5,467.833 138.5,473.167 138.5,478.5 C 131.5,478.5 124.5,478.5 117.5,478.5 C 117.5,469.5 117.5,460.5 117.5,451.5 C 122.833,451.5 128.167,451.5 133.5,451.5 C 133.5,446.167 133.5,440.833 133.5,435.5 C 129.833,435.5 126.167,435.5 122.5,435.5 C 122.5,437.167 122.5,438.833 122.5,440.5 C 124.5,440.5 126.5,440.5 128.5,440.5 C 128.5,442.167 128.5,443.833 128.5,445.5 C 124.833,445.5 121.167,445.5 117.5,445.5 C 117.5,440.167 117.5,434.833 117.5,429.5 C 124.5,429.5 131.5,429.5 138.5,429.5 C 138.5,438.5 138.5,447.5 138.5,456.5 C 133.167,456.5 127.833,456.5 122.5,456.5 C 122.5,461.833 122.5,467.167 122.5,472.5 C 125.833,472.5 129.167,472.5 132.5,472.5 C 132.5,471.167 132.5,469.833 132.5,468.5 Z"/><path fill="currentColor" d="M 138.5,478.5 C 138.5,473.167 138.5,467.833 138.5,462.5 C 135.167,462.5 131.833,462.5 128.5,462.5 C 128.5,464.167 128.5,465.833 128.5,467.5 C 130.099,467.232 131.432,467.566 132.5,468.5 C 130.833,468.5 129.167,468.5 127.5,468.5 C 127.5,466.167 127.5,463.833 127.5,461.5 C 131.5,461.5 135.5,461.5 139.5,461.5 C 139.822,467.358 139.489,473.025 138.5,478.5 Z"/></svg>