<svg xmlns="http://www.w3.org/2000/svg" viewBox="15.4 184.5 126.2 126.1" fill="none"><path fill="currentColor" d="M 22.5,190.5 C 42.8333,190.5 63.1667,190.5 83.5,190.5 C 83.5,207.833 83.5,225.167 83.5,242.5 C 100.5,242.5 117.5,242.5 134.5,242.5 C 134.5,262.833 134.5,283.167 134.5,303.5 C 114.167,303.5 93.8333,303.5 73.5,303.5 C 73.5,289.833 73.5,276.167 73.5,262.5 C 87.1667,262.5 100.833,262.5 114.5,262.5 C 114.5,269.167 114.5,275.833 114.5,282.5 C 110.833,282.5 107.167,282.5 103.5,282.5 C 103.81,279.287 103.477,276.287 102.5,273.5 C 96.1667,273.5 89.8333,273.5 83.5,273.5 C 83.5,280.167 83.5,286.833 83.5,293.5 C 96.8333,293.5 110.167,293.5 123.5,293.5 C 123.382,279.819 123.716,266.152 124.5,252.5 C 107.5,252.5 90.5,252.5 73.5,252.5 C 73.5,235.167 73.5,217.833 73.5,200.5 C 60.1667,200.5 46.8333,200.5 33.5,200.5 C 33.5,214.167 33.5,227.833 33.5,241.5 C 40.1667,241.5 46.8333,241.5 53.5,241.5 C 53.5,235.167 53.5,228.833 53.5,222.5 C 50.3752,221.521 47.0419,221.187 43.5,221.5 C 43.5,218.167 43.5,214.833 43.5,211.5 C 50.1667,211.5 56.8333,211.5 63.5,211.5 C 63.5,225.167 63.5,238.833 63.5,252.5 C 49.8333,252.5 36.1667,252.5 22.5,252.5 C 22.5,231.833 22.5,211.167 22.5,190.5 Z"/><path fill="currentColor" d="M 130.5,236.5 C 130.5,223.5 130.5,210.5 130.5,197.5 C 117.5,197.5 104.5,197.5 91.5,197.5 C 91.5,210.5 91.5,223.5 91.5,236.5 C 90.5044,223.344 90.1711,210.01 90.5,196.5 C 104.167,196.5 117.833,196.5 131.5,196.5 C 131.829,210.01 131.496,223.344 130.5,236.5 Z"/><path fill="currentColor" d="M 130.5,236.5 C 117.5,236.5 104.5,236.5 91.5,236.5 C 91.5,223.5 91.5,210.5 91.5,197.5 C 104.5,197.5 117.5,197.5 130.5,197.5 C 130.5,210.5 130.5,223.5 130.5,236.5 Z"/><path fill="currentColor" d="M 43.5,211.5 C 43.5,214.833 43.5,218.167 43.5,221.5 C 47.0419,221.187 50.3752,221.521 53.5,222.5 C 49.8333,222.5 46.1667,222.5 42.5,222.5 C 42.185,218.629 42.5184,214.962 43.5,211.5 Z"/><path fill="currentColor" d="M 100.5,206.5 C 100.5,213.167 100.5,219.833 100.5,226.5 C 107.167,226.5 113.833,226.5 120.5,226.5 C 120.5,219.833 120.5,213.167 120.5,206.5 C 121.491,213.313 121.825,220.313 121.5,227.5 C 114.167,227.5 106.833,227.5 99.5,227.5 C 99.1755,220.313 99.5088,213.313 100.5,206.5 Z"/><path fill="#F7EFDD" d="M 100.5,206.5 C 107.167,206.5 113.833,206.5 120.5,206.5 C 120.5,213.167 120.5,219.833 120.5,226.5 C 113.833,226.5 107.167,226.5 100.5,226.5 C 100.5,219.833 100.5,213.167 100.5,206.5 Z"/><path fill="currentColor" d="M 22.5,190.5 C 22.5,211.167 22.5,231.833 22.5,252.5 C 36.1667,252.5 49.8333,252.5 63.5,252.5 C 49.6766,253.496 35.6766,253.829 21.5,253.5 C 21.1694,232.327 21.5027,211.327 22.5,190.5 Z"/><path fill="currentColor" d="M 102.5,273.5 C 103.477,276.287 103.81,279.287 103.5,282.5 C 107.167,282.5 110.833,282.5 114.5,282.5 C 110.702,283.483 106.702,283.817 102.5,283.5 C 102.5,280.167 102.5,276.833 102.5,273.5 Z"/><path fill="#F7EFDD" d="M 134.5,242.5 C 135.497,262.993 135.831,283.66 135.5,304.5 C 114.66,304.831 93.9933,304.497 73.5,303.5 C 93.8333,303.5 114.167,303.5 134.5,303.5 C 134.5,283.167 134.5,262.833 134.5,242.5 Z"/></svg>