<svg xmlns="http://www.w3.org/2000/svg" viewBox="511.4 374.5 124.2 123.0" fill="none"><path fill="currentColor" d="M 602.5,393.5 C 601.517,389.702 601.183,385.702 601.5,381.5 C 573.833,381.5 546.167,381.5 518.5,381.5 C 518.5,383.833 518.5,386.167 518.5,388.5 C 517.527,386.052 517.194,383.385 517.5,380.5 C 545.833,380.5 574.167,380.5 602.5,380.5 C 602.5,384.833 602.5,389.167 602.5,393.5 Z"/><path fill="currentColor" d="M 602.5,393.5 C 604.5,393.5 606.5,393.5 608.5,393.5 C 609.483,389.702 609.817,385.702 609.5,381.5 C 615.833,381.5 622.167,381.5 628.5,381.5 C 628.5,387.833 628.5,394.167 628.5,400.5 C 624.298,400.183 620.298,400.517 616.5,401.5 C 616.5,403.5 616.5,405.5 616.5,407.5 C 620.298,408.483 624.298,408.817 628.5,408.5 C 628.5,436.167 628.5,463.833 628.5,491.5 C 626.167,491.5 623.833,491.5 621.5,491.5 C 621.5,465.833 621.5,440.167 621.5,414.5 C 619.5,414.5 617.5,414.5 615.5,414.5 C 614.833,436.167 614.167,457.833 613.5,479.5 C 608.309,466.597 603.309,453.597 598.5,440.5 C 598.608,439.558 598.941,438.725 599.5,438 C 602.927,436.204 606.094,434.037 609,431.5 C 609.499,425.843 609.666,420.176 609.5,414.5 C 607.167,414.5 604.833,414.5 602.5,414.5 C 602.5,419.167 602.5,423.833 602.5,428.5 C 595.5,428.5 588.5,428.5 581.5,428.5 C 581.5,421.5 581.5,414.5 581.5,407.5 C 586.167,407.5 590.833,407.5 595.5,407.5 C 595.5,404.833 595.5,402.167 595.5,399.5 C 589.642,399.178 583.975,399.511 578.5,400.5 C 575.799,404.567 572.633,408.234 569,411.5 C 555.161,405.99 541.328,400.657 527.5,395.5 C 549.994,394.503 572.661,394.169 595.5,394.5 C 595.795,392.265 595.461,390.265 594.5,388.5 C 569.167,388.5 543.833,388.5 518.5,388.5 C 518.5,386.167 518.5,383.833 518.5,381.5 C 546.167,381.5 573.833,381.5 601.5,381.5 C 601.183,385.702 601.517,389.702 602.5,393.5 Z"/><path fill="currentColor" d="M 616.5,401.5 C 620.298,400.517 624.298,400.183 628.5,400.5 C 628.5,394.167 628.5,387.833 628.5,381.5 C 622.167,381.5 615.833,381.5 609.5,381.5 C 609.817,385.702 609.483,389.702 608.5,393.5 C 608.5,389.167 608.5,384.833 608.5,380.5 C 615.5,380.5 622.5,380.5 629.5,380.5 C 629.5,387.5 629.5,394.5 629.5,401.5 C 625.167,401.5 620.833,401.5 616.5,401.5 Z"/><path fill="#F7EFDD" d="M 616.5,386.5 C 618.833,386.5 621.167,386.5 623.5,386.5 C 623.5,388.833 623.5,391.167 623.5,393.5 C 621.167,393.5 618.833,393.5 616.5,393.5 C 616.5,391.167 616.5,388.833 616.5,386.5 Z"/><path fill="#F7EFDD" d="M 594.5,388.5 C 595.461,390.265 595.795,392.265 595.5,394.5 C 572.661,394.169 549.994,394.503 527.5,395.5 C 526.957,395.44 526.624,395.107 526.5,394.5 C 549.157,393.5 571.824,393.167 594.5,393.5 C 594.5,391.833 594.5,390.167 594.5,388.5 Z"/><path fill="currentColor" d="M 578.5,400.5 C 583.975,399.511 589.642,399.178 595.5,399.5 C 595.5,402.167 595.5,404.833 595.5,407.5 C 590.833,407.5 586.167,407.5 581.5,407.5 C 581.5,414.5 581.5,421.5 581.5,428.5 C 588.5,428.5 595.5,428.5 602.5,428.5 C 595.352,429.492 588.019,429.825 580.5,429.5 C 580.5,421.833 580.5,414.167 580.5,406.5 C 585.167,406.5 589.833,406.5 594.5,406.5 C 594.5,404.5 594.5,402.5 594.5,400.5 C 589.167,400.5 583.833,400.5 578.5,400.5 Z"/><path fill="#F7EFDD" d="M 602.5,400.5 C 604.833,400.5 607.167,400.5 609.5,400.5 C 609.5,402.833 609.5,405.167 609.5,407.5 C 607.167,407.5 604.833,407.5 602.5,407.5 C 602.5,405.167 602.5,402.833 602.5,400.5 Z"/><path fill="currentColor" d="M 616.5,407.5 C 620.833,407.5 625.167,407.5 629.5,407.5 C 629.831,435.672 629.498,463.672 628.5,491.5 C 628.5,463.833 628.5,436.167 628.5,408.5 C 624.298,408.817 620.298,408.483 616.5,407.5 Z"/><path fill="#F7EFDD" d="M 587.5,413.5 C 590.5,413.5 593.5,413.5 596.5,413.5 C 596.5,416.5 596.5,419.5 596.5,422.5 C 593.5,422.5 590.5,422.5 587.5,422.5 C 587.5,419.5 587.5,416.5 587.5,413.5 Z"/><path fill="#F7EFDD" d="M 588.5,414.5 C 590.833,414.5 593.167,414.5 595.5,414.5 C 595.5,416.833 595.5,419.167 595.5,421.5 C 593.167,421.5 590.833,421.5 588.5,421.5 C 588.5,419.167 588.5,416.833 588.5,414.5 Z"/><path fill="currentColor" d="M 615.5,414.5 C 615.667,437.169 615.5,459.836 615,482.5 C 613.961,481.756 613.461,480.756 613.5,479.5 C 614.167,457.833 614.833,436.167 615.5,414.5 Z"/></svg>