<svg xmlns="http://www.w3.org/2000/svg" viewBox="341.4 54.4 125.1 125.2" fill="none"><path fill="#C9A24B" d="M 430.5,61.5 C 403.167,61.5 375.833,61.5 348.5,61.5 C 348.5,64.1667 348.5,66.8333 348.5,69.5 C 347.523,66.7131 347.19,63.7131 347.5,60.5 C 375.338,60.1687 403.005,60.5021 430.5,61.5 Z"/><path fill="#C9A24B" d="M 446.5,84.5 C 445.532,86.6074 445.198,88.9407 445.5,91.5 C 450.5,91.5 455.5,91.5 460.5,91.5 C 460.5,118.5 460.5,145.5 460.5,172.5 C 457.833,172.5 455.167,172.5 452.5,172.5 C 452.831,148.328 452.498,124.328 451.5,100.5 C 449.833,100.5 448.167,100.5 446.5,100.5 C 445.833,119.167 445.167,137.833 444.5,156.5 C 436.85,146.544 429.683,136.211 423,125.5 C 422.5,117.507 422.334,109.507 422.5,101.5 C 415.825,101.666 409.158,101.5 402.5,101 C 394.392,96.0495 386.725,90.5495 379.5,84.5 C 380.871,82.2946 382.704,80.628 385,79.5 C 390.902,83.203 396.736,87.0363 402.5,91 C 408.825,91.4995 415.158,91.6662 421.5,91.5 C 422.492,84.3524 422.825,77.0191 422.5,69.5 C 397.833,69.5 373.167,69.5 348.5,69.5 C 348.5,66.8333 348.5,64.1667 348.5,61.5 C 375.833,61.5 403.167,61.5 430.5,61.5 C 430.5,66.5 430.5,71.5 430.5,76.5 C 433.167,76.5 435.833,76.5 438.5,76.5 C 438.5,71.1667 438.5,65.8333 438.5,60.5 C 445.833,60.5 453.167,60.5 460.5,60.5 C 460.5,68.5 460.5,76.5 460.5,84.5 C 455.833,84.5 451.167,84.5 446.5,84.5 Z"/><path fill="#F7EFDD" d="M 348.5,69.5 C 373.167,69.5 397.833,69.5 422.5,69.5 C 422.825,77.0191 422.492,84.3524 421.5,91.5 C 421.5,84.5 421.5,77.5 421.5,70.5 C 396.994,70.831 372.661,70.4976 348.5,69.5 Z"/><path fill="#F7EFDD" d="M 445.5,69.5 C 448.167,69.5 450.833,69.5 453.5,69.5 C 453.5,71.8333 453.5,74.1667 453.5,76.5 C 450.833,76.5 448.167,76.5 445.5,76.5 C 445.5,74.1667 445.5,71.8333 445.5,69.5 Z"/><path fill="#F7EFDD" d="M 430.5,84.5 C 432.833,84.5 435.167,84.5 437.5,84.5 C 437.5,86.5 437.5,88.5 437.5,90.5 C 435.167,90.5 432.833,90.5 430.5,90.5 C 430.5,88.5 430.5,86.5 430.5,84.5 Z"/><path fill="#C9A24B" d="M 430.5,84.5 C 432.948,83.5269 435.615,83.1936 438.5,83.5 C 438.5,86.1667 438.5,88.8333 438.5,91.5 C 435.615,91.8064 432.948,91.4731 430.5,90.5 C 432.833,90.5 435.167,90.5 437.5,90.5 C 437.5,88.5 437.5,86.5 437.5,84.5 C 435.167,84.5 432.833,84.5 430.5,84.5 Z"/><path fill="#C9A24B" d="M 446.5,84.5 C 446.5,86.5 446.5,88.5 446.5,90.5 C 451.363,90.1805 456.03,90.5139 460.5,91.5 C 455.5,91.5 450.5,91.5 445.5,91.5 C 445.198,88.9407 445.532,86.6074 446.5,84.5 Z"/><path fill="#F7EFDD" d="M 446.5,100.5 C 446.667,119.836 446.5,139.17 446,158.5 C 445.283,157.956 444.783,157.289 444.5,156.5 C 445.167,137.833 445.833,119.167 446.5,100.5 Z"/><path fill="#F7EFDD" d="M 430.5,100.5 C 432.5,100.5 434.5,100.5 436.5,100.5 C 436.666,109.173 436.5,117.84 436,126.5 C 434.333,124.167 432.667,121.833 431,119.5 C 430.5,113.175 430.334,106.842 430.5,100.5 Z"/><path fill="#C9A24B" d="M 451.5,100.5 C 452.498,124.328 452.831,148.328 452.5,172.5 C 455.167,172.5 457.833,172.5 460.5,172.5 C 457.713,173.477 454.713,173.81 451.5,173.5 C 451.5,149.167 451.5,124.833 451.5,100.5 Z"/></svg>