<svg xmlns="http://www.w3.org/2000/svg" viewBox="341.4 204.5 125.2 125.0" fill="none"><path fill="#C9A24B" d="M 407.5,239.5 C 406.506,230.348 406.173,221.015 406.5,211.5 C 387.167,211.5 367.833,211.5 348.5,211.5 C 348.5,212.833 348.5,214.167 348.5,215.5 C 347.549,214.081 347.216,212.415 347.5,210.5 C 367.5,210.5 387.5,210.5 407.5,210.5 C 407.5,220.167 407.5,229.833 407.5,239.5 Z"/><path fill="#C9A24B" d="M 407.5,239.5 C 411.833,239.5 416.167,239.5 420.5,239.5 C 421.494,230.348 421.827,221.015 421.5,211.5 C 434.167,211.5 446.833,211.5 459.5,211.5 C 459.5,224.167 459.5,236.833 459.5,249.5 C 450.167,249.5 440.833,249.5 431.5,249.5 C 431.5,254.5 431.5,259.5 431.5,264.5 C 436.833,264.5 442.167,264.5 447.5,264.5 C 451.298,265.483 455.298,265.817 459.5,265.5 C 459.5,284.833 459.5,304.167 459.5,323.5 C 456.5,323.5 453.5,323.5 450.5,323.5 C 450.5,314.167 450.5,304.833 450.5,295.5 C 450.5,288.5 450.5,281.5 450.5,274.5 C 443.978,274.177 437.645,274.51 431.5,275.5 C 430.833,290.833 430.167,306.167 429.5,321.5 C 427.217,318.044 424.717,314.71 422,311.5 C 417.292,321.736 410.126,323.902 400.5,318 C 399.54,316.581 398.707,315.081 398,313.5 C 397.501,307.509 397.334,301.509 397.5,295.5 C 397.5,288.5 397.5,281.5 397.5,274.5 C 384.833,274.5 372.167,274.5 359.5,274.5 C 350.656,270.135 348.49,263.468 353,254.5 C 355.08,252.877 357.246,251.377 359.5,250 C 356.31,247.636 353.31,245.136 350.5,242.5 C 365.833,241.833 381.167,241.167 396.5,240.5 C 396.5,234.167 396.5,227.833 396.5,221.5 C 380.5,221.5 364.5,221.5 348.5,221.5 C 348.5,219.5 348.5,217.5 348.5,215.5 C 348.5,214.167 348.5,212.833 348.5,211.5 C 367.833,211.5 387.167,211.5 406.5,211.5 C 406.173,221.015 406.506,230.348 407.5,239.5 Z"/><path fill="#C9A24B" d="M 459.5,249.5 C 459.5,236.833 459.5,224.167 459.5,211.5 C 446.833,211.5 434.167,211.5 421.5,211.5 C 421.827,221.015 421.494,230.348 420.5,239.5 C 420.5,229.833 420.5,220.167 420.5,210.5 C 433.833,210.5 447.167,210.5 460.5,210.5 C 460.829,223.677 460.495,236.677 459.5,249.5 Z"/><path fill="#F7EFDD" d="M 431.5,220.5 C 437.833,220.5 444.167,220.5 450.5,220.5 C 450.5,227.167 450.5,233.833 450.5,240.5 C 444.167,240.5 437.833,240.5 431.5,240.5 C 431.5,233.833 431.5,227.167 431.5,220.5 Z"/><path fill="#C9A24B" d="M 396.5,240.5 C 381.167,241.167 365.833,241.833 350.5,242.5 C 349.957,242.44 349.624,242.107 349.5,241.5 C 365.152,240.501 380.819,240.167 396.5,240.5 Z"/><path fill="#C9A24B" d="M 420.5,265.5 C 420.5,260.5 420.5,255.5 420.5,250.5 C 416.167,250.5 411.833,250.5 407.5,250.5 C 407.5,255.5 407.5,260.5 407.5,265.5 C 406.512,260.36 406.179,255.026 406.5,249.5 C 411.5,249.5 416.5,249.5 421.5,249.5 C 421.821,255.026 421.488,260.36 420.5,265.5 Z"/><path fill="#F7EFDD" d="M 420.5,265.5 C 416.167,265.5 411.833,265.5 407.5,265.5 C 407.5,260.5 407.5,255.5 407.5,250.5 C 411.833,250.5 416.167,250.5 420.5,250.5 C 420.5,255.5 420.5,260.5 420.5,265.5 Z"/><path fill="#F7EFDD" d="M 372.5,250.5 C 380.833,250.5 389.167,250.5 397.5,250.5 C 397.5,255.5 397.5,260.5 397.5,265.5 C 389.167,265.5 380.833,265.5 372.5,265.5 C 372.5,260.5 372.5,255.5 372.5,250.5 Z"/><path fill="#F7EFDD" d="M 373.5,251.5 C 381.167,251.5 388.833,251.5 396.5,251.5 C 396.5,255.833 396.5,260.167 396.5,264.5 C 388.833,264.5 381.167,264.5 373.5,264.5 C 373.5,260.167 373.5,255.833 373.5,251.5 Z"/><path fill="#C9A24B" d="M 447.5,264.5 C 451.833,264.5 456.167,264.5 460.5,264.5 C 460.83,284.34 460.497,304.007 459.5,323.5 C 459.5,304.167 459.5,284.833 459.5,265.5 C 455.298,265.817 451.298,265.483 447.5,264.5 Z"/><path fill="#F7EFDD" d="M 359.5,274.5 C 372.167,274.5 384.833,274.5 397.5,274.5 C 397.5,281.5 397.5,288.5 397.5,295.5 C 396.509,289.021 396.176,282.354 396.5,275.5 C 383.989,275.829 371.655,275.495 359.5,274.5 Z"/><path fill="#C9A24B" d="M 420.5,298.5 C 420.5,290.833 420.5,283.167 420.5,275.5 C 416.167,275.5 411.833,275.5 407.5,275.5 C 407.5,283.167 407.5,290.833 407.5,298.5 C 406.508,290.684 406.174,282.684 406.5,274.5 C 411.5,274.5 416.5,274.5 421.5,274.5 C 421.826,282.684 421.492,290.684 420.5,298.5 Z"/><path fill="#F7EFDD" d="M 420.5,298.5 C 416.167,298.5 411.833,298.5 407.5,298.5 C 407.5,290.833 407.5,283.167 407.5,275.5 C 411.833,275.5 416.167,275.5 420.5,275.5 C 420.5,283.167 420.5,290.833 420.5,298.5 Z"/><path fill="#C9A24B" d="M 431.5,275.5 C 431.667,291.503 431.5,307.503 431,323.5 C 430.283,322.956 429.783,322.289 429.5,321.5 C 430.167,306.167 430.833,290.833 431.5,275.5 Z"/><path fill="#C9A24B" d="M 431.5,275.5 C 437.645,274.51 443.978,274.177 450.5,274.5 C 450.5,281.5 450.5,288.5 450.5,295.5 C 449.509,289.021 449.176,282.354 449.5,275.5 C 443.5,275.5 437.5,275.5 431.5,275.5 Z"/></svg>