<svg xmlns="http://www.w3.org/2000/svg" viewBox="509.5 35.4 124.0 125.1" fill="none"><path fill="currentColor" d="M 515.5,42.5 C 525.987,41.5056 536.654,41.1722 547.5,41.5 C 547.5,44.8333 547.5,48.1667 547.5,51.5 C 546.523,48.7131 546.19,45.7131 546.5,42.5 C 536.167,42.5 525.833,42.5 515.5,42.5 Z"/><path fill="currentColor" d="M 577.5,66.5 C 577.5,66.8333 577.5,67.1667 577.5,67.5 C 576.507,59.3501 576.174,51.0168 576.5,42.5 C 570.167,42.5 563.833,42.5 557.5,42.5 C 557.81,45.7131 557.477,48.7131 556.5,51.5 C 556.5,48.1667 556.5,44.8333 556.5,41.5 C 563.5,41.5 570.5,41.5 577.5,41.5 C 577.5,49.8333 577.5,58.1667 577.5,66.5 Z"/><path fill="currentColor" d="M 607.5,41.5 C 614.167,41.5 620.833,41.5 627.5,41.5 C 627.5,48.5 627.5,55.5 627.5,62.5 C 622.5,62.5 617.5,62.5 612.5,62.5 C 612.5,64.1667 612.5,65.8333 612.5,67.5 C 617.5,67.5 622.5,67.5 627.5,67.5 C 627.5,74.1667 627.5,80.8333 627.5,87.5 C 620.833,87.5 614.167,87.5 607.5,87.5 C 607.5,82.5 607.5,77.5 607.5,72.5 C 605.585,72.2155 603.919,72.5489 602.5,73.5 C 602.5,79.8333 602.5,86.1667 602.5,92.5 C 610.833,92.5 619.167,92.5 627.5,92.5 C 627.5,99.5 627.5,106.5 627.5,113.5 C 624.167,113.5 620.833,113.5 617.5,113.5 C 617.5,117.167 617.5,120.833 617.5,124.5 C 620.833,124.5 624.167,124.5 627.5,124.5 C 627.5,134.5 627.5,144.5 627.5,154.5 C 625.833,154.5 624.167,154.5 622.5,154.5 C 622.5,146.167 622.5,137.833 622.5,129.5 C 619.167,129.5 615.833,129.5 612.5,129.5 C 612.5,122.5 612.5,115.5 612.5,108.5 C 615.833,108.5 619.167,108.5 622.5,108.5 C 622.5,105.167 622.5,101.833 622.5,98.5 C 614.167,98.5 605.833,98.5 597.5,98.5 C 597.826,89.9832 597.493,81.6499 596.5,73.5 C 588.684,72.5076 580.684,72.1743 572.5,72.5 C 572.826,63.9832 572.493,55.6499 571.5,47.5 C 568.5,47.5 565.5,47.5 562.5,47.5 C 562.5,50.8333 562.5,54.1667 562.5,57.5 C 555.833,57.5 549.167,57.5 542.5,57.5 C 542.5,54.5 542.5,51.5 542.5,48.5 C 533.5,48.5 524.5,48.5 515.5,48.5 C 515.5,46.5 515.5,44.5 515.5,42.5 C 525.833,42.5 536.167,42.5 546.5,42.5 C 546.19,45.7131 546.523,48.7131 547.5,51.5 C 550.5,51.5 553.5,51.5 556.5,51.5 C 557.477,48.7131 557.81,45.7131 557.5,42.5 C 563.833,42.5 570.167,42.5 576.5,42.5 C 576.174,51.0168 576.507,59.3501 577.5,67.5 C 584.167,67.5 590.833,67.5 597.5,67.5 C 597.5,65.8333 597.5,64.1667 597.5,62.5 C 592.5,62.5 587.5,62.5 582.5,62.5 C 582.5,55.8333 582.5,49.1667 582.5,42.5 C 588.833,42.5 595.167,42.5 601.5,42.5 C 601.5,47.5 601.5,52.5 601.5,57.5 C 603.5,57.5 605.5,57.5 607.5,57.5 C 607.5,52.1667 607.5,46.8333 607.5,41.5 Z"/><path fill="currentColor" d="M 601.5,41.5 C 601.5,41.8333 601.5,42.1667 601.5,42.5 C 595.167,42.5 588.833,42.5 582.5,42.5 C 582.5,49.1667 582.5,55.8333 582.5,62.5 C 582.167,62.5 581.833,62.5 581.5,62.5 C 581.5,55.5 581.5,48.5 581.5,41.5 C 588.167,41.5 594.833,41.5 601.5,41.5 Z"/><path fill="currentColor" d="M 601.5,41.5 C 602.487,46.3054 602.821,51.3054 602.5,56.5 C 603.833,56.5 605.167,56.5 606.5,56.5 C 606.179,51.3054 606.513,46.3054 607.5,41.5 C 607.5,46.8333 607.5,52.1667 607.5,57.5 C 605.5,57.5 603.5,57.5 601.5,57.5 C 601.5,52.5 601.5,47.5 601.5,42.5 C 601.5,42.1667 601.5,41.8333 601.5,41.5 Z"/><path fill="currentColor" d="M 587.5,47.5 C 587.5,50.5 587.5,53.5 587.5,56.5 C 590.5,56.5 593.5,56.5 596.5,56.5 C 596.5,53.5 596.5,50.5 596.5,47.5 C 597.479,50.6248 597.813,53.9581 597.5,57.5 C 593.833,57.5 590.167,57.5 586.5,57.5 C 586.187,53.9581 586.521,50.6248 587.5,47.5 Z"/><path fill="#F7EFDD" d="M 587.5,47.5 C 590.5,47.5 593.5,47.5 596.5,47.5 C 596.5,50.5 596.5,53.5 596.5,56.5 C 593.5,56.5 590.5,56.5 587.5,56.5 C 587.5,53.5 587.5,50.5 587.5,47.5 Z"/><path fill="currentColor" d="M 612.5,47.5 C 612.5,50.5 612.5,53.5 612.5,56.5 C 615.5,56.5 618.5,56.5 621.5,56.5 C 621.5,53.5 621.5,50.5 621.5,47.5 C 622.479,50.6248 622.813,53.9581 622.5,57.5 C 618.833,57.5 615.167,57.5 611.5,57.5 C 611.187,53.9581 611.521,50.6248 612.5,47.5 Z"/><path fill="#F7EFDD" d="M 612.5,47.5 C 615.5,47.5 618.5,47.5 621.5,47.5 C 621.5,50.5 621.5,53.5 621.5,56.5 C 618.5,56.5 615.5,56.5 612.5,56.5 C 612.5,53.5 612.5,50.5 612.5,47.5 Z"/><path fill="#F7EFDD" d="M 602.5,62.5 C 604.167,62.5 605.833,62.5 607.5,62.5 C 607.5,64.1667 607.5,65.8333 607.5,67.5 C 605.833,67.5 604.167,67.5 602.5,67.5 C 602.5,65.8333 602.5,64.1667 602.5,62.5 Z"/><path fill="#F7EFDD" d="M 581.5,62.5 C 581.833,62.5 582.167,62.5 582.5,62.5 C 587.5,62.5 592.5,62.5 597.5,62.5 C 597.5,64.1667 597.5,65.8333 597.5,67.5 C 590.833,67.5 584.167,67.5 577.5,67.5 C 577.5,67.1667 577.5,66.8333 577.5,66.5 C 583.833,66.5 590.167,66.5 596.5,66.5 C 596.5,65.5 596.5,64.5 596.5,63.5 C 591.305,63.8205 586.305,63.4872 581.5,62.5 Z"/><path fill="currentColor" d="M 571.5,47.5 C 572.493,55.6499 572.826,63.9832 572.5,72.5 C 580.684,72.1743 588.684,72.5076 596.5,73.5 C 588.167,73.5 579.833,73.5 571.5,73.5 C 571.5,64.8333 571.5,56.1667 571.5,47.5 Z"/><path fill="#F7EFDD" d="M 611.5,71.5 C 615.167,71.5 618.833,71.5 622.5,71.5 C 622.5,75.1667 622.5,78.8333 622.5,82.5 C 618.833,82.5 615.167,82.5 611.5,82.5 C 611.5,78.8333 611.5,75.1667 611.5,71.5 Z"/><path fill="#F7EFDD" d="M 612.5,72.5 C 615.5,72.5 618.5,72.5 621.5,72.5 C 621.5,75.5 621.5,78.5 621.5,81.5 C 618.5,81.5 615.5,81.5 612.5,81.5 C 612.5,78.5 612.5,75.5 612.5,72.5 Z"/><path fill="currentColor" d="M 602.5,73.5 C 603.919,72.5489 605.585,72.2155 607.5,72.5 C 607.5,77.5 607.5,82.5 607.5,87.5 C 614.167,87.5 620.833,87.5 627.5,87.5 C 620.687,88.4912 613.687,88.8245 606.5,88.5 C 606.5,83.5 606.5,78.5 606.5,73.5 C 605.167,73.5 603.833,73.5 602.5,73.5 Z"/><path fill="currentColor" d="M 596.5,73.5 C 597.493,81.6499 597.826,89.9832 597.5,98.5 C 605.833,98.5 614.167,98.5 622.5,98.5 C 622.5,101.833 622.5,105.167 622.5,108.5 C 619.167,108.5 615.833,108.5 612.5,108.5 C 612.5,115.5 612.5,122.5 612.5,129.5 C 611.508,122.352 611.175,115.019 611.5,107.5 C 614.833,107.5 618.167,107.5 621.5,107.5 C 621.5,104.833 621.5,102.167 621.5,99.5 C 613.167,99.5 604.833,99.5 596.5,99.5 C 596.5,90.8333 596.5,82.1667 596.5,73.5 Z"/><path fill="#F7EFDD" d="M 627.5,113.5 C 624.713,114.477 621.713,114.81 618.5,114.5 C 618.5,117.5 618.5,120.5 618.5,123.5 C 621.713,123.19 624.713,123.523 627.5,124.5 C 624.167,124.5 620.833,124.5 617.5,124.5 C 617.5,120.833 617.5,117.167 617.5,113.5 C 620.833,113.5 624.167,113.5 627.5,113.5 Z"/></svg>