<svg xmlns="http://www.w3.org/2000/svg" viewBox="342.5 374.5 125.0 126.1" fill="none"><path fill="#C9A24B" d="M 461.5,493.5 C 459.167,493.5 456.833,493.5 454.5,493.5 C 454.831,471.993 454.497,450.66 453.5,429.5 C 451.5,429.5 449.5,429.5 447.5,429.5 C 446.503,450.66 446.169,471.993 446.5,493.5 C 444.5,493.5 442.5,493.5 440.5,493.5 C 440.5,472.167 440.5,450.833 440.5,429.5 C 435.5,429.5 430.5,429.5 425.5,429.5 C 425.5,424.833 425.5,420.167 425.5,415.5 C 420.833,415.5 416.167,415.5 411.5,415.5 C 411.5,411.167 411.5,406.833 411.5,402.5 C 390.5,402.5 369.5,402.5 348.5,402.5 C 348.5,399.833 348.5,397.167 348.5,394.5 C 369.5,394.5 390.5,394.5 411.5,394.5 C 411.5,392.167 411.5,389.833 411.5,387.5 C 390.5,387.5 369.5,387.5 348.5,387.5 C 348.5,385.167 348.5,382.833 348.5,380.5 C 371.833,380.5 395.167,380.5 418.5,380.5 C 418.5,385.167 418.5,389.833 418.5,394.5 C 420.833,394.5 423.167,394.5 425.5,394.5 C 425.5,389.833 425.5,385.167 425.5,380.5 C 432.5,380.5 439.5,380.5 446.5,380.5 C 446.5,385.167 446.5,389.833 446.5,394.5 C 451.5,394.5 456.5,394.5 461.5,394.5 C 461.5,401.5 461.5,408.5 461.5,415.5 C 456.833,415.5 452.167,415.5 447.5,415.5 C 447.5,418.167 447.5,420.833 447.5,423.5 C 452.167,423.5 456.833,423.5 461.5,423.5 C 461.5,446.833 461.5,470.167 461.5,493.5 Z"/><path fill="#F7EFDD" d="M 439.5,386.5 C 439.5,389.167 439.5,391.833 439.5,394.5 C 437.167,394.5 434.833,394.5 432.5,394.5 C 432.5,391.833 432.5,389.167 432.5,386.5 C 434.833,386.5 437.167,386.5 439.5,386.5 Z"/><path fill="#C9A24B" d="M 439.5,386.5 C 440.477,389.287 440.81,392.287 440.5,395.5 C 437.615,395.806 434.948,395.473 432.5,394.5 C 434.833,394.5 437.167,394.5 439.5,394.5 C 439.5,391.833 439.5,389.167 439.5,386.5 Z"/><path fill="#F7EFDD" d="M 418.5,401.5 C 420.833,401.5 423.167,401.5 425.5,401.5 C 425.5,403.833 425.5,406.167 425.5,408.5 C 423.167,408.5 420.833,408.5 418.5,408.5 C 418.5,406.167 418.5,403.833 418.5,401.5 Z"/><path fill="#F7EFDD" d="M 454.5,401.5 C 454.5,403.833 454.5,406.167 454.5,408.5 C 452.167,408.5 449.833,408.5 447.5,408.5 C 447.5,406.167 447.5,403.833 447.5,401.5 C 449.833,401.5 452.167,401.5 454.5,401.5 Z"/><path fill="#C9A24B" d="M 433.5,401.5 C 433.5,403.833 433.5,406.167 433.5,408.5 C 435.5,408.5 437.5,408.5 439.5,408.5 C 439.5,406.167 439.5,403.833 439.5,401.5 C 440.473,403.948 440.806,406.615 440.5,409.5 C 437.833,409.5 435.167,409.5 432.5,409.5 C 432.194,406.615 432.527,403.948 433.5,401.5 Z"/><path fill="#F7EFDD" d="M 433.5,401.5 C 435.5,401.5 437.5,401.5 439.5,401.5 C 439.5,403.833 439.5,406.167 439.5,408.5 C 437.5,408.5 435.5,408.5 433.5,408.5 C 433.5,406.167 433.5,403.833 433.5,401.5 Z"/><path fill="#C9A24B" d="M 454.5,401.5 C 452.167,401.5 449.833,401.5 447.5,401.5 C 447.5,403.833 447.5,406.167 447.5,408.5 C 449.833,408.5 452.167,408.5 454.5,408.5 C 452.052,409.473 449.385,409.806 446.5,409.5 C 446.5,406.5 446.5,403.5 446.5,400.5 C 449.385,400.194 452.052,400.527 454.5,401.5 Z"/><path fill="#C9A24B" d="M 432.5,415.5 C 435.167,415.5 437.833,415.5 440.5,415.5 C 440.5,417.833 440.5,420.167 440.5,422.5 C 437.833,422.5 435.167,422.5 432.5,422.5 C 432.5,420.167 432.5,417.833 432.5,415.5 Z"/><path fill="#F7EFDD" d="M 433.5,416.5 C 435.5,416.5 437.5,416.5 439.5,416.5 C 439.5,418.167 439.5,419.833 439.5,421.5 C 437.5,421.5 435.5,421.5 433.5,421.5 C 433.5,419.833 433.5,418.167 433.5,416.5 Z"/><path fill="#C9A24B" d="M 425.5,429.5 C 430.5,429.5 435.5,429.5 440.5,429.5 C 440.5,450.833 440.5,472.167 440.5,493.5 C 439.503,472.673 439.169,451.673 439.5,430.5 C 434.637,430.819 429.97,430.486 425.5,429.5 Z"/><path fill="#C9A24B" d="M 447.5,429.5 C 447.5,451.167 447.5,472.833 447.5,494.5 C 444.941,494.802 442.607,494.468 440.5,493.5 C 442.5,493.5 444.5,493.5 446.5,493.5 C 446.169,471.993 446.503,450.66 447.5,429.5 Z"/><path fill="#C9A24B" d="M 453.5,429.5 C 454.497,450.66 454.831,471.993 454.5,493.5 C 456.833,493.5 459.167,493.5 461.5,493.5 C 459.052,494.473 456.385,494.806 453.5,494.5 C 453.5,472.833 453.5,451.167 453.5,429.5 Z"/></svg>