<svg xmlns="http://www.w3.org/2000/svg" viewBox="512.4 543.4 126.2 122.2" fill="none"><path fill="currentColor" d="M 546.5,549.5 C 537.682,550.493 528.682,550.827 519.5,550.5 C 519.5,552.833 519.5,555.167 519.5,557.5 C 518.527,555.052 518.194,552.385 518.5,549.5 C 527.833,549.5 537.167,549.5 546.5,549.5 Z"/><path fill="currentColor" d="M 546.5,549.5 C 564.833,549.5 583.167,549.5 601.5,549.5 C 601.5,554.167 601.5,558.833 601.5,563.5 C 603.5,563.5 605.5,563.5 607.5,563.5 C 607.2,558.901 607.533,554.401 608.5,550 C 615.158,549.5 621.825,549.334 628.5,549.5 C 628.5,556.167 628.5,562.833 628.5,569.5 C 624.167,569.5 619.833,569.5 615.5,569.5 C 615.5,571.833 615.5,574.167 615.5,576.5 C 620.167,576.5 624.833,576.5 629.5,576.5 C 630.255,597.491 630.922,618.491 631.5,639.5 C 631.5,645.833 631.5,652.167 631.5,658.5 C 629.167,658.5 626.833,658.5 624.5,658.5 C 623.523,633.843 622.856,609.176 622.5,584.5 C 620.167,584.5 617.833,584.5 615.5,584.5 C 615.5,593.5 615.5,602.5 615.5,611.5 C 615.825,619.019 615.492,626.352 614.5,633.5 C 610.876,628.042 606.376,623.375 601,619.5 C 597.608,613.486 595.108,607.153 593.5,600.5 C 587.106,603.431 580.44,605.431 573.5,606.5 C 573.39,599.383 575.056,592.716 578.5,586.5 C 567.137,585.274 558.137,580.107 551.5,571 C 548.146,568.968 544.813,566.968 541.5,565 C 558.83,564.5 576.163,564.333 593.5,564.5 C 593.5,562.167 593.5,559.833 593.5,557.5 C 568.833,557.5 544.167,557.5 519.5,557.5 C 519.5,555.167 519.5,552.833 519.5,550.5 C 528.682,550.827 537.682,550.493 546.5,549.5 Z"/><path fill="currentColor" d="M 621.5,556.5 C 619.5,556.5 617.5,556.5 615.5,556.5 C 615.5,558.5 615.5,560.5 615.5,562.5 C 617.5,562.5 619.5,562.5 621.5,562.5 C 619.393,563.468 617.059,563.802 614.5,563.5 C 614.5,560.833 614.5,558.167 614.5,555.5 C 617.059,555.198 619.393,555.532 621.5,556.5 Z"/><path fill="#F7EFDD" d="M 621.5,556.5 C 621.5,558.5 621.5,560.5 621.5,562.5 C 619.5,562.5 617.5,562.5 615.5,562.5 C 615.5,560.5 615.5,558.5 615.5,556.5 C 617.5,556.5 619.5,556.5 621.5,556.5 Z"/><path fill="#F7EFDD" d="M 561.5,571.5 C 572.5,571.5 583.5,571.5 594.5,571.5 C 594.5,573.833 594.5,576.167 594.5,578.5 C 585.827,578.666 577.16,578.5 568.5,578 C 566.999,576.748 565.332,575.748 563.5,575 C 562.177,574.184 561.511,573.017 561.5,571.5 Z"/><path fill="#F7EFDD" d="M 607.5,570.5 C 607.5,572.5 607.5,574.5 607.5,576.5 C 605.5,576.5 603.5,576.5 601.5,576.5 C 601.5,574.5 601.5,572.5 601.5,570.5 C 603.5,570.5 605.5,570.5 607.5,570.5 Z"/><path fill="currentColor" d="M 607.5,570.5 C 608.468,572.607 608.802,574.941 608.5,577.5 C 605.941,577.802 603.607,577.468 601.5,576.5 C 603.5,576.5 605.5,576.5 607.5,576.5 C 607.5,574.5 607.5,572.5 607.5,570.5 Z"/><path fill="#F7EFDD" d="M 601.5,584.5 C 603.833,584.5 606.167,584.5 608.5,584.5 C 608.832,595.187 608.499,605.854 607.5,616.5 C 605.196,614.569 603.362,612.236 602,609.5 C 601.5,601.173 601.334,592.84 601.5,584.5 Z"/><path fill="currentColor" d="M 615.5,611.5 C 616.657,619.656 616.823,627.99 616,636.5 C 615.487,635.473 614.987,634.473 614.5,633.5 C 615.492,626.352 615.825,619.019 615.5,611.5 Z"/><path fill="#F7EFDD" d="M 631.5,639.5 C 632.491,645.979 632.824,652.646 632.5,659.5 C 629.615,659.806 626.948,659.473 624.5,658.5 C 626.833,658.5 629.167,658.5 631.5,658.5 C 631.5,652.167 631.5,645.833 631.5,639.5 Z"/></svg>