<svg xmlns="http://www.w3.org/2000/svg" viewBox="12.5 20.4 121.0 126.1" fill="none"><path fill="#C9A24B" d="M 88.5,27.5 C 70.1667,27.5 51.8333,27.5 33.5,27.5 C 33.8287,40.3443 33.4954,53.011 32.5,65.5 C 32.5,52.5 32.5,39.5 32.5,26.5 C 51.3408,26.1698 70.0075,26.5031 88.5,27.5 Z"/><path fill="#C9A24B" d="M 125.5,27.5 C 115.167,27.5 104.833,27.5 94.5,27.5 C 94.5,34.1667 94.5,40.8333 94.5,47.5 C 92.2646,47.7947 90.2646,47.4614 88.5,46.5 C 90.1667,46.5 91.8333,46.5 93.5,46.5 C 93.5,39.8333 93.5,33.1667 93.5,26.5 C 104.346,26.1722 115.013,26.5056 125.5,27.5 Z"/><path fill="#C9A24B" d="M 88.5,27.5 C 88.5,33.8333 88.5,40.1667 88.5,46.5 C 90.2646,47.4614 92.2646,47.7947 94.5,47.5 C 94.5,40.8333 94.5,34.1667 94.5,27.5 C 104.833,27.5 115.167,27.5 125.5,27.5 C 125.5,38.5 125.5,49.5 125.5,60.5 C 119.642,60.1778 113.975,60.5111 108.5,61.5 C 108.5,62.8333 108.5,64.1667 108.5,65.5 C 113.975,66.4889 119.642,66.8222 125.5,66.5 C 125.5,84.8333 125.5,103.167 125.5,121.5 C 113.5,121.5 101.5,121.5 89.5,121.5 C 89.5,127.833 89.5,134.167 89.5,140.5 C 88.5,140.5 87.5,140.5 86.5,140.5 C 86.5,133.167 86.5,125.833 86.5,118.5 C 98.5,118.5 110.5,118.5 122.5,118.5 C 122.5,102.167 122.5,85.8333 122.5,69.5 C 111.167,69.5 99.8333,69.5 88.5,69.5 C 88.5,72.1667 88.5,74.8333 88.5,77.5 C 97.8333,77.5 107.167,77.5 116.5,77.5 C 116.5,88.5 116.5,99.5 116.5,110.5 C 103.833,110.5 91.1667,110.5 78.5,110.5 C 78.5,120.5 78.5,130.5 78.5,140.5 C 77.5,140.5 76.5,140.5 75.5,140.5 C 75.5,129.167 75.5,117.833 75.5,106.5 C 88.1667,106.5 100.833,106.5 113.5,106.5 C 113.5,98.1667 113.5,89.8333 113.5,81.5 C 111.5,81.5 109.5,81.5 107.5,81.5 C 107.5,87.1667 107.5,92.8333 107.5,98.5 C 96.8333,98.5 86.1667,98.5 75.5,98.5 C 75.5,92.5 75.5,86.5 75.5,80.5 C 68.8333,80.5 62.1667,80.5 55.5,80.5 C 55.5,69.1667 55.5,57.8333 55.5,46.5 C 62.1667,46.5 68.8333,46.5 75.5,46.5 C 75.5,44.8333 75.5,43.1667 75.5,41.5 C 66.5,41.5 57.5,41.5 48.5,41.5 C 48.5,54.5 48.5,67.5 48.5,80.5 C 38.5,80.5 28.5,80.5 18.5,80.5 C 18.5,79.1667 18.5,77.8333 18.5,76.5 C 27.5,76.5 36.5,76.5 45.5,76.5 C 45.3334,63.8289 45.5001,51.1623 46,38.5 C 56.7517,37.513 67.585,37.1797 78.5,37.5 C 78.5,40.5 78.5,43.5 78.5,46.5 C 80.8333,46.5 83.1667,46.5 85.5,46.5 C 85.4971,41.4725 85.1637,36.4725 84.5,31.5 C 68.3419,30.5036 52.0085,30.1702 35.5,30.5 C 35.5,43.5 35.5,56.5 35.5,69.5 C 29.8333,69.5 24.1667,69.5 18.5,69.5 C 18.5,68.1667 18.5,66.8333 18.5,65.5 C 23.1667,65.5 27.8333,65.5 32.5,65.5 C 33.4954,53.011 33.8287,40.3443 33.5,27.5 C 51.8333,27.5 70.1667,27.5 88.5,27.5 Z"/><path fill="#F7EFDD" d="M 97.5,30.5 C 105.833,30.5 114.167,30.5 122.5,30.5 C 122.5,39.1667 122.5,47.8333 122.5,56.5 C 117.5,56.5 112.5,56.5 107.5,56.5 C 107.5,54.1667 107.5,51.8333 107.5,49.5 C 110.833,49.5 114.167,49.5 117.5,49.5 C 117.5,45.5 117.5,41.5 117.5,37.5 C 112.833,37.5 108.167,37.5 103.5,37.5 C 103.5,46.8333 103.5,56.1667 103.5,65.5 C 101.5,65.5 99.5,65.5 97.5,65.5 C 97.5,53.8333 97.5,42.1667 97.5,30.5 Z"/><path fill="#F7EFDD" d="M 84.5,31.5 C 68.5,31.5 52.5,31.5 36.5,31.5 C 36.8287,44.3443 36.4954,57.011 35.5,69.5 C 35.5,56.5 35.5,43.5 35.5,30.5 C 52.0085,30.1702 68.3419,30.5036 84.5,31.5 Z"/><path fill="#C9A24B" d="M 55.5,46.5 C 61.6446,45.5098 67.9779,45.1765 74.5,45.5 C 74.5,44.5 74.5,43.5 74.5,42.5 C 66.1667,42.5 57.8333,42.5 49.5,42.5 C 49.8287,55.3443 49.4954,68.011 48.5,80.5 C 48.5,67.5 48.5,54.5 48.5,41.5 C 57.5,41.5 66.5,41.5 75.5,41.5 C 75.5,43.1667 75.5,44.8333 75.5,46.5 C 68.8333,46.5 62.1667,46.5 55.5,46.5 Z"/><path fill="#C9A24B" d="M 108.5,42.5 C 110.265,41.5386 112.265,41.2053 114.5,41.5 C 114.5,43.1667 114.5,44.8333 114.5,46.5 C 112.265,46.7947 110.265,46.4614 108.5,45.5 C 110.167,45.5 111.833,45.5 113.5,45.5 C 113.5,44.5 113.5,43.5 113.5,42.5 C 111.833,42.5 110.167,42.5 108.5,42.5 Z"/><path fill="#F7EFDD" d="M 108.5,42.5 C 110.167,42.5 111.833,42.5 113.5,42.5 C 113.5,43.5 113.5,44.5 113.5,45.5 C 111.833,45.5 110.167,45.5 108.5,45.5 C 108.5,44.5 108.5,43.5 108.5,42.5 Z"/><path fill="#F7EFDD" d="M 66.5,57.5 C 66.1667,57.5 65.8333,57.5 65.5,57.5 C 74.6517,56.5064 83.985,56.1731 93.5,56.5 C 93.5,54.5 93.5,52.5 93.5,50.5 C 82.1667,50.5 70.8333,50.5 59.5,50.5 C 59.5,59.1667 59.5,67.8333 59.5,76.5 C 59.1667,76.5 58.8333,76.5 58.5,76.5 C 58.5,67.5 58.5,58.5 58.5,49.5 C 70.5,49.5 82.5,49.5 94.5,49.5 C 94.5,52.1667 94.5,54.8333 94.5,57.5 C 85.1667,57.5 75.8333,57.5 66.5,57.5 Z"/><path fill="#F7EFDD" d="M 65.5,57.5 C 65.5,61.5 65.5,65.5 65.5,69.5 C 68.5,69.5 71.5,69.5 74.5,69.5 C 74.5,71.8333 74.5,74.1667 74.5,76.5 C 69.5,76.5 64.5,76.5 59.5,76.5 C 59.5,67.8333 59.5,59.1667 59.5,50.5 C 70.8333,50.5 82.1667,50.5 93.5,50.5 C 93.5,52.5 93.5,54.5 93.5,56.5 C 83.985,56.1731 74.6517,56.5064 65.5,57.5 Z"/><path fill="#F7EFDD" d="M 108.5,61.5 C 113.844,61.334 119.177,61.5006 124.5,62 C 121.833,63 121.833,64 124.5,65 C 119.177,65.4994 113.844,65.666 108.5,65.5 C 108.5,64.1667 108.5,62.8333 108.5,61.5 Z"/><path fill="#C9A24B" d="M 125.5,27.5 C 126.176,38.9019 126.843,50.4019 127.5,62 C 126.875,81.715 126.209,101.548 125.5,121.5 C 125.5,103.167 125.5,84.8333 125.5,66.5 C 119.642,66.8222 113.975,66.4889 108.5,65.5 C 113.844,65.666 119.177,65.4994 124.5,65 C 121.833,64 121.833,63 124.5,62 C 119.177,61.5006 113.844,61.334 108.5,61.5 C 113.975,60.5111 119.642,60.1778 125.5,60.5 C 125.5,49.5 125.5,38.5 125.5,27.5 Z"/><path fill="#C9A24B" d="M 68.5,61.5 C 70.6074,60.5318 72.9407,60.1984 75.5,60.5 C 75.7845,62.4147 75.4511,64.0813 74.5,65.5 C 74.5,64.1667 74.5,62.8333 74.5,61.5 C 72.5,61.5 70.5,61.5 68.5,61.5 Z"/><path fill="#F7EFDD" d="M 68.5,61.5 C 70.5,61.5 72.5,61.5 74.5,61.5 C 74.5,62.8333 74.5,64.1667 74.5,65.5 C 72.5,65.5 70.5,65.5 68.5,65.5 C 68.5,64.1667 68.5,62.8333 68.5,61.5 Z"/><path fill="#F7EFDD" d="M 88.5,61.5 C 90.5,61.5 92.5,61.5 94.5,61.5 C 94.5,62.8333 94.5,64.1667 94.5,65.5 C 92.5,65.5 90.5,65.5 88.5,65.5 C 88.5,64.1667 88.5,62.8333 88.5,61.5 Z"/><path fill="#C9A24B" d="M 65.5,57.5 C 65.8333,57.5 66.1667,57.5 66.5,57.5 C 66.5,61.1667 66.5,64.8333 66.5,68.5 C 69.3854,68.1936 72.0521,68.5269 74.5,69.5 C 71.5,69.5 68.5,69.5 65.5,69.5 C 65.5,65.5 65.5,61.5 65.5,57.5 Z"/><path fill="#C9A24B" d="M 74.5,69.5 C 75.4731,71.9479 75.8064,74.6146 75.5,77.5 C 69.642,77.8222 63.9753,77.4889 58.5,76.5 C 58.8333,76.5 59.1667,76.5 59.5,76.5 C 64.5,76.5 69.5,76.5 74.5,76.5 C 74.5,74.1667 74.5,71.8333 74.5,69.5 Z"/><path fill="#C9A24B" d="M 88.5,82.5 C 90.6074,81.5318 92.9407,81.1984 95.5,81.5 C 95.7678,83.099 95.4345,84.4324 94.5,85.5 C 94.5,84.5 94.5,83.5 94.5,82.5 C 92.5,82.5 90.5,82.5 88.5,82.5 Z"/><path fill="#C9A24B" d="M 104.5,82.5 C 102.167,82.5 99.8333,82.5 97.5,82.5 C 97.7947,84.7354 97.4614,86.7354 96.5,88.5 C 96.5,86.1667 96.5,83.8333 96.5,81.5 C 99.3854,81.1936 102.052,81.5269 104.5,82.5 Z"/><path fill="#F7EFDD" d="M 84.5,61.5 C 84.5,70.5 84.5,79.5 84.5,88.5 C 88.5,88.5 92.5,88.5 96.5,88.5 C 97.4614,86.7354 97.7947,84.7354 97.5,82.5 C 99.8333,82.5 102.167,82.5 104.5,82.5 C 104.5,86.8333 104.5,91.1667 104.5,95.5 C 96.1667,95.5 87.8333,95.5 79.5,95.5 C 79.5,84.1667 79.5,72.8333 79.5,61.5 C 81.1667,61.5 82.8333,61.5 84.5,61.5 Z"/><path fill="#F7EFDD" d="M 88.5,82.5 C 90.5,82.5 92.5,82.5 94.5,82.5 C 94.5,83.5 94.5,84.5 94.5,85.5 C 92.5,85.5 90.5,85.5 88.5,85.5 C 88.5,84.5 88.5,83.5 88.5,82.5 Z"/><path fill="#C9A24B" d="M 84.5,61.5 C 82.8333,61.5 81.1667,61.5 79.5,61.5 C 79.5,72.8333 79.5,84.1667 79.5,95.5 C 87.8333,95.5 96.1667,95.5 104.5,95.5 C 96.0161,96.493 87.3494,96.8264 78.5,96.5 C 78.5,84.5 78.5,72.5 78.5,60.5 C 80.7354,60.2053 82.7354,60.5386 84.5,61.5 Z"/></svg>