<svg xmlns="http://www.w3.org/2000/svg" viewBox="173.5 206.5 126.1 125.0" fill="none"><path fill="#C9A24B" d="M 248.5,241.5 C 243.695,240.513 238.695,240.179 233.5,240.5 C 233.5,231.167 233.5,221.833 233.5,212.5 C 241.833,212.5 250.167,212.5 258.5,212.5 C 258.5,217.5 258.5,222.5 258.5,227.5 C 260.607,228.468 262.941,228.802 265.5,228.5 C 265.5,223.167 265.5,217.833 265.5,212.5 C 274.5,212.5 283.5,212.5 292.5,212.5 C 292.5,232.167 292.5,251.833 292.5,271.5 C 283.833,271.5 275.167,271.5 266.5,271.5 C 266.5,266.167 266.5,260.833 266.5,255.5 C 264.167,255.5 261.833,255.5 259.5,255.5 C 259.175,263.019 259.508,270.352 260.5,277.5 C 271.167,277.5 281.833,277.5 292.5,277.5 C 292.5,293.167 292.5,308.833 292.5,324.5 C 290.5,324.5 288.5,324.5 286.5,324.5 C 286.5,310.833 286.5,297.167 286.5,283.5 C 275.833,283.5 265.167,283.5 254.5,283.5 C 254.5,272.833 254.5,262.167 254.5,251.5 C 243.167,251.5 231.833,251.5 220.5,251.5 C 220.5,240.5 220.5,229.5 220.5,218.5 C 206.833,218.5 193.167,218.5 179.5,218.5 C 179.5,216.5 179.5,214.5 179.5,212.5 C 194.833,212.5 210.167,212.5 225.5,212.5 C 225.5,223.833 225.5,235.167 225.5,246.5 C 233.167,246.5 240.833,246.5 248.5,246.5 C 248.5,244.833 248.5,243.167 248.5,241.5 Z"/><path fill="#F7EFDD" d="M 233.5,212.5 C 233.5,221.833 233.5,231.167 233.5,240.5 C 238.695,240.179 243.695,240.513 248.5,241.5 C 243.167,241.5 237.833,241.5 232.5,241.5 C 232.173,231.652 232.506,221.986 233.5,212.5 Z"/><path fill="#C9A24B" d="M 265.5,212.5 C 265.5,217.833 265.5,223.167 265.5,228.5 C 262.941,228.802 260.607,228.468 258.5,227.5 C 260.5,227.5 262.5,227.5 264.5,227.5 C 264.179,222.305 264.513,217.305 265.5,212.5 Z"/><path fill="#F7EFDD" d="M 280.5,229.5 C 280.5,227.5 280.5,225.5 280.5,223.5 C 278.833,223.5 277.167,223.5 275.5,223.5 C 275.5,225.5 275.5,227.5 275.5,229.5 C 274.532,227.393 274.198,225.059 274.5,222.5 C 276.833,222.5 279.167,222.5 281.5,222.5 C 281.802,225.059 281.468,227.393 280.5,229.5 Z"/><path fill="#F7EFDD" d="M 280.5,229.5 C 278.833,229.5 277.167,229.5 275.5,229.5 C 275.5,227.5 275.5,225.5 275.5,223.5 C 277.167,223.5 278.833,223.5 280.5,223.5 C 280.5,225.5 280.5,227.5 280.5,229.5 Z"/><path fill="#F7EFDD" d="M 242.5,223.5 C 244.833,223.5 247.167,223.5 249.5,223.5 C 249.5,225.5 249.5,227.5 249.5,229.5 C 247.167,229.5 244.833,229.5 242.5,229.5 C 242.5,227.5 242.5,225.5 242.5,223.5 Z"/><path fill="#C9A24B" d="M 259.5,239.5 C 261.833,239.5 264.167,239.5 266.5,239.5 C 266.5,241.833 266.5,244.167 266.5,246.5 C 264.167,246.5 261.833,246.5 259.5,246.5 C 259.5,244.167 259.5,241.833 259.5,239.5 Z"/><path fill="#F7EFDD" d="M 275.5,256.5 C 277.833,256.5 280.167,256.5 282.5,256.5 C 282.5,258.5 282.5,260.5 282.5,262.5 C 280.167,262.5 277.833,262.5 275.5,262.5 C 275.5,260.5 275.5,258.5 275.5,256.5 Z"/><path fill="#C9A24B" d="M 266.5,271.5 C 265.513,266.695 265.179,261.695 265.5,256.5 C 263.833,256.5 262.167,256.5 260.5,256.5 C 260.5,263.5 260.5,270.5 260.5,277.5 C 259.508,270.352 259.175,263.019 259.5,255.5 C 261.833,255.5 264.167,255.5 266.5,255.5 C 266.5,260.833 266.5,266.167 266.5,271.5 Z"/><path fill="#C9A24B" d="M 292.5,277.5 C 293.496,293.325 293.83,309.325 293.5,325.5 C 290.833,325.5 288.167,325.5 285.5,325.5 C 285.5,311.833 285.5,298.167 285.5,284.5 C 274.986,284.828 264.653,284.494 254.5,283.5 C 265.167,283.5 275.833,283.5 286.5,283.5 C 286.5,297.167 286.5,310.833 286.5,324.5 C 288.5,324.5 290.5,324.5 292.5,324.5 C 292.5,308.833 292.5,293.167 292.5,277.5 Z"/></svg>