<svg xmlns="http://www.w3.org/2000/svg" viewBox="173.4 546.4 126.1 125.1" fill="none"><path fill="#C9A24B" d="M 260.5,552.5 C 260.5,557.5 260.5,562.5 260.5,567.5 C 263.167,567.5 265.833,567.5 268.5,567.5 C 268.5,562.833 268.5,558.167 268.5,553.5 C 276.833,553.5 285.167,553.5 293.5,553.5 C 293.5,562.167 293.5,570.833 293.5,579.5 C 288.833,579.5 284.167,579.5 279.5,579.5 C 278.539,581.265 278.205,583.265 278.5,585.5 C 283.5,585.5 288.5,585.5 293.5,585.5 C 293.5,612.167 293.5,638.833 293.5,665.5 C 290.833,665.5 288.167,665.5 285.5,665.5 C 285.5,641.833 285.5,618.167 285.5,594.5 C 283.5,594.5 281.5,594.5 279.5,594.5 C 278.833,614.167 278.167,633.833 277.5,653.5 C 272.752,638.273 264.586,625.273 253,614.5 C 252.5,607.842 252.334,601.175 252.5,594.5 C 245.825,594.666 239.158,594.5 232.5,594 C 218.878,581.854 203.212,573.354 185.5,568.5 C 207.327,567.503 229.327,567.169 251.5,567.5 C 252.461,565.735 252.795,563.735 252.5,561.5 C 228.5,561.5 204.5,561.5 180.5,561.5 C 180.5,558.833 180.5,556.167 180.5,553.5 C 206.995,552.502 233.661,552.169 260.5,552.5 Z"/><path fill="#C9A24B" d="M 180.5,553.5 C 180.5,556.167 180.5,558.833 180.5,561.5 C 204.5,561.5 228.5,561.5 252.5,561.5 C 252.795,563.735 252.461,565.735 251.5,567.5 C 251.5,567.167 251.5,566.833 251.5,566.5 C 251.5,565.167 251.5,563.833 251.5,562.5 C 227.5,562.5 203.5,562.5 179.5,562.5 C 179.19,559.287 179.523,556.287 180.5,553.5 Z"/><path fill="#F7EFDD" d="M 279.5,560.5 C 281.5,560.5 283.5,560.5 285.5,560.5 C 285.5,562.833 285.5,565.167 285.5,567.5 C 283.5,567.5 281.5,567.5 279.5,567.5 C 279.5,565.167 279.5,562.833 279.5,560.5 Z"/><path fill="#F7EFDD" d="M 251.5,566.5 C 251.5,566.833 251.5,567.167 251.5,567.5 C 229.327,567.169 207.327,567.503 185.5,568.5 C 184.957,568.44 184.624,568.107 184.5,567.5 C 206.823,566.5 229.157,566.167 251.5,566.5 Z"/><path fill="#C9A24B" d="M 260.5,552.5 C 261.486,556.97 261.819,561.637 261.5,566.5 C 263.5,566.5 265.5,566.5 267.5,566.5 C 267.182,561.968 267.515,557.634 268.5,553.5 C 268.5,558.167 268.5,562.833 268.5,567.5 C 265.833,567.5 263.167,567.5 260.5,567.5 C 260.5,562.5 260.5,557.5 260.5,552.5 Z"/><path fill="#F7EFDD" d="M 226.5,580.5 C 234.984,579.507 243.651,579.174 252.5,579.5 C 252.5,581.5 252.5,583.5 252.5,585.5 C 245.825,585.666 239.158,585.5 232.5,585 C 230.649,583.248 228.649,581.748 226.5,580.5 Z"/><path fill="#C9A24B" d="M 260.5,579.5 C 263.167,579.5 265.833,579.5 268.5,579.5 C 268.5,581.5 268.5,583.5 268.5,585.5 C 265.833,585.5 263.167,585.5 260.5,585.5 C 260.5,583.5 260.5,581.5 260.5,579.5 Z"/><path fill="#C9A24B" d="M 279.5,579.5 C 279.5,581.167 279.5,582.833 279.5,584.5 C 284.363,584.181 289.03,584.514 293.5,585.5 C 288.5,585.5 283.5,585.5 278.5,585.5 C 278.205,583.265 278.539,581.265 279.5,579.5 Z"/><path fill="#F7EFDD" d="M 266.5,619.5 C 264.863,617.525 263.196,615.525 261.5,613.5 C 261.5,607.5 261.5,601.5 261.5,595.5 C 263.5,595.5 265.5,595.5 267.5,595.5 C 267.826,603.684 267.492,611.684 266.5,619.5 Z"/><path fill="#C9A24B" d="M 266.5,619.5 C 267.492,611.684 267.826,603.684 267.5,595.5 C 265.5,595.5 263.5,595.5 261.5,595.5 C 261.5,601.5 261.5,607.5 261.5,613.5 C 260.51,607.355 260.177,601.022 260.5,594.5 C 263.167,594.5 265.833,594.5 268.5,594.5 C 268.666,603.506 268.5,612.506 268,621.5 C 267.283,620.956 266.783,620.289 266.5,619.5 Z"/><path fill="#C9A24B" d="M 279.5,594.5 C 279.667,615.503 279.5,636.503 279,657.5 C 278.209,656.255 277.709,654.922 277.5,653.5 C 278.167,633.833 278.833,614.167 279.5,594.5 Z"/></svg>