<svg xmlns="http://www.w3.org/2000/svg" viewBox="342.4 544.4 126.1 126.1" fill="none"><path fill="#F7EFDD" d="M 415.5,551.5 C 393.5,551.5 371.5,551.5 349.5,551.5 C 349.5,554.167 349.5,556.833 349.5,559.5 C 348.523,556.713 348.19,553.713 348.5,550.5 C 371.006,550.169 393.34,550.503 415.5,551.5 Z"/><path fill="#F7EFDD" d="M 462.5,551.5 C 449.833,551.5 437.167,551.5 424.5,551.5 C 424.5,556.5 424.5,561.5 424.5,566.5 C 421.615,566.806 418.948,566.473 416.5,565.5 C 418.833,565.5 421.167,565.5 423.5,565.5 C 423.5,560.5 423.5,555.5 423.5,550.5 C 436.677,550.171 449.677,550.505 462.5,551.5 Z"/><path fill="#C9A24B" d="M 415.5,551.5 C 416.486,555.97 416.819,560.637 416.5,565.5 C 418.948,566.473 421.615,566.806 424.5,566.5 C 424.5,561.5 424.5,556.5 424.5,551.5 C 437.167,551.5 449.833,551.5 462.5,551.5 C 462.5,563.833 462.5,576.167 462.5,588.5 C 457.5,588.5 452.5,588.5 447.5,588.5 C 447.5,591.167 447.5,593.833 447.5,596.5 C 452.5,596.5 457.5,596.5 462.5,596.5 C 462.5,619.167 462.5,641.833 462.5,664.5 C 459.833,664.5 457.167,664.5 454.5,664.5 C 454.5,644.5 454.5,624.5 454.5,604.5 C 452.167,604.5 449.833,604.5 447.5,604.5 C 446.503,621.659 446.17,638.992 446.5,656.5 C 444.5,656.5 442.5,656.5 440.5,656.5 C 440.5,638.833 440.5,621.167 440.5,603.5 C 435.167,603.5 429.833,603.5 424.5,603.5 C 424.5,598.833 424.5,594.167 424.5,589.5 C 419.833,589.5 415.167,589.5 410.5,589.5 C 410.5,584.5 410.5,579.5 410.5,574.5 C 392.833,574.5 375.167,574.5 357.5,574.5 C 357.5,571.833 357.5,569.167 357.5,566.5 C 374.833,566.5 392.167,566.5 409.5,566.5 C 409.5,564.167 409.5,561.833 409.5,559.5 C 389.5,559.5 369.5,559.5 349.5,559.5 C 349.5,556.833 349.5,554.167 349.5,551.5 C 371.5,551.5 393.5,551.5 415.5,551.5 Z"/><path fill="#F7EFDD" d="M 446.5,566.5 C 442.03,565.514 437.363,565.181 432.5,565.5 C 432.5,563.167 432.5,560.833 432.5,558.5 C 439.845,558.371 447.178,558.038 454.5,557.5 C 454.5,565.167 454.5,572.833 454.5,580.5 C 451.833,580.5 449.167,580.5 446.5,580.5 C 446.5,575.833 446.5,571.167 446.5,566.5 Z"/><path fill="#F7EFDD" d="M 432.5,558.5 C 432.5,560.833 432.5,563.167 432.5,565.5 C 437.363,565.181 442.03,565.514 446.5,566.5 C 441.5,566.5 436.5,566.5 431.5,566.5 C 431.194,563.615 431.527,560.948 432.5,558.5 Z"/><path fill="#C9A24B" d="M 357.5,566.5 C 357.5,569.167 357.5,571.833 357.5,574.5 C 375.167,574.5 392.833,574.5 410.5,574.5 C 410.5,579.5 410.5,584.5 410.5,589.5 C 409.514,585.03 409.181,580.363 409.5,575.5 C 391.833,575.5 374.167,575.5 356.5,575.5 C 356.19,572.287 356.523,569.287 357.5,566.5 Z"/><path fill="#C9A24B" d="M 431.5,573.5 C 434.167,573.5 436.833,573.5 439.5,573.5 C 439.5,576.167 439.5,578.833 439.5,581.5 C 436.833,581.5 434.167,581.5 431.5,581.5 C 431.5,578.833 431.5,576.167 431.5,573.5 Z"/><path fill="#F7EFDD" d="M 416.5,574.5 C 419.167,574.5 421.833,574.5 424.5,574.5 C 424.5,576.833 424.5,579.167 424.5,581.5 C 421.833,581.5 419.167,581.5 416.5,581.5 C 416.5,579.167 416.5,576.833 416.5,574.5 Z"/><path fill="#C9A24B" d="M 432.5,588.5 C 432.5,590.833 432.5,593.167 432.5,595.5 C 434.833,595.5 437.167,595.5 439.5,595.5 C 439.5,593.167 439.5,590.833 439.5,588.5 C 440.473,590.948 440.806,593.615 440.5,596.5 C 437.5,596.5 434.5,596.5 431.5,596.5 C 431.194,593.615 431.527,590.948 432.5,588.5 Z"/><path fill="#F7EFDD" d="M 432.5,588.5 C 434.833,588.5 437.167,588.5 439.5,588.5 C 439.5,590.833 439.5,593.167 439.5,595.5 C 437.167,595.5 434.833,595.5 432.5,595.5 C 432.5,593.167 432.5,590.833 432.5,588.5 Z"/><path fill="#C9A24B" d="M 424.5,603.5 C 429.833,603.5 435.167,603.5 440.5,603.5 C 440.5,621.167 440.5,638.833 440.5,656.5 C 439.503,639.341 439.17,622.008 439.5,604.5 C 434.305,604.821 429.305,604.487 424.5,603.5 Z"/><path fill="#C9A24B" d="M 447.5,604.5 C 447.5,622.167 447.5,639.833 447.5,657.5 C 444.941,657.802 442.607,657.468 440.5,656.5 C 442.5,656.5 444.5,656.5 446.5,656.5 C 446.17,638.992 446.503,621.659 447.5,604.5 Z"/></svg>