<svg xmlns="http://www.w3.org/2000/svg" viewBox="185.5 355.5 122.1 125.1" fill="none"><path fill="#C9A24B" d="M 285.5,392.5 C 290.305,393.487 295.305,393.821 300.5,393.5 C 300.5,401.167 300.5,408.833 300.5,416.5 C 295.5,416.5 290.5,416.5 285.5,416.5 C 285.666,422.842 285.5,429.175 285,435.5 C 283.108,437.054 281.608,438.888 280.5,441 C 281.65,442.981 282.984,444.814 284.5,446.5 C 284.5,455.5 284.5,464.5 284.5,473.5 C 282.5,473.5 280.5,473.5 278.5,473.5 C 278.666,466.159 278.5,458.826 278,451.5 C 275.275,447.832 272.775,447.832 270.5,451.5 C 271.132,453.965 272.632,455.631 275,456.5 C 275.808,460.027 275.641,463.36 274.5,466.5 C 269.658,461.491 264.991,456.324 260.5,451 C 262.833,448 265.167,445 267.5,442 C 266.392,439.888 264.892,438.054 263,436.5 C 262.5,429.842 262.334,423.175 262.5,416.5 C 259.5,416.5 256.5,416.5 253.5,416.5 C 253.5,422.167 253.5,427.833 253.5,433.5 C 246.167,433.5 238.833,433.5 231.5,433.5 C 231.5,425.5 231.5,417.5 231.5,409.5 C 236.5,409.5 241.5,409.5 246.5,409.5 C 246.5,406.5 246.5,403.5 246.5,400.5 C 240.491,400.666 234.491,400.499 228.5,400 C 226.65,397.982 224.65,396.149 222.5,394.5 C 219.728,397.694 216.728,400.694 213.5,403.5 C 208.167,398.833 203.167,393.833 198.5,388.5 C 201.446,387.345 204.446,387.179 207.5,388 C 209.422,389.876 211.589,391.376 214,392.5 C 215.622,392.046 216.788,391.046 217.5,389.5 C 216.352,387.851 215.019,386.351 213.5,385 C 206.174,384.5 198.841,384.334 191.5,384.5 C 191.5,382.167 191.5,379.833 191.5,377.5 C 200.173,377.334 208.84,377.5 217.5,378 C 219.351,379.684 221.018,381.517 222.5,383.5 C 224.04,381.613 225.707,379.78 227.5,378 C 233.825,377.5 240.158,377.334 246.5,377.5 C 246.5,372.167 246.5,366.833 246.5,361.5 C 254.167,361.5 261.833,361.5 269.5,361.5 C 269.5,366.833 269.5,372.167 269.5,377.5 C 274.833,377.5 280.167,377.5 285.5,377.5 C 285.5,382.5 285.5,387.5 285.5,392.5 Z"/><path fill="#C9A24B" d="M 261.5,377.5 C 261.5,374.833 261.5,372.167 261.5,369.5 C 259.167,369.5 256.833,369.5 254.5,369.5 C 254.5,372.167 254.5,374.833 254.5,377.5 C 253.523,374.713 253.19,371.713 253.5,368.5 C 256.5,368.5 259.5,368.5 262.5,368.5 C 262.81,371.713 262.477,374.713 261.5,377.5 Z"/><path fill="#F7EFDD" d="M 261.5,377.5 C 259.167,377.5 256.833,377.5 254.5,377.5 C 254.5,374.833 254.5,372.167 254.5,369.5 C 256.833,369.5 259.167,369.5 261.5,369.5 C 261.5,372.167 261.5,374.833 261.5,377.5 Z"/><path fill="#F7EFDD" d="M 231.5,384.5 C 236.5,384.5 241.5,384.5 246.5,384.5 C 246.5,387.5 246.5,390.5 246.5,393.5 C 241.489,393.666 236.489,393.499 231.5,393 C 227.605,390.178 227.605,387.345 231.5,384.5 Z"/><path fill="#F7EFDD" d="M 253.5,384.5 C 256.5,384.5 259.5,384.5 262.5,384.5 C 262.5,387.5 262.5,390.5 262.5,393.5 C 259.5,393.5 256.5,393.5 253.5,393.5 C 253.5,390.5 253.5,387.5 253.5,384.5 Z"/><path fill="#C9A24B" d="M 270.5,384.5 C 270.5,387.167 270.5,389.833 270.5,392.5 C 272.833,392.5 275.167,392.5 277.5,392.5 C 277.5,389.833 277.5,387.167 277.5,384.5 C 278.477,387.287 278.81,390.287 278.5,393.5 C 275.5,393.5 272.5,393.5 269.5,393.5 C 269.19,390.287 269.523,387.287 270.5,384.5 Z"/><path fill="#F7EFDD" d="M 270.5,384.5 C 272.833,384.5 275.167,384.5 277.5,384.5 C 277.5,387.167 277.5,389.833 277.5,392.5 C 275.167,392.5 272.833,392.5 270.5,392.5 C 270.5,389.833 270.5,387.167 270.5,384.5 Z"/><path fill="#C9A24B" d="M 285.5,392.5 C 290.833,392.5 296.167,392.5 301.5,392.5 C 301.826,400.684 301.492,408.684 300.5,416.5 C 300.5,408.833 300.5,401.167 300.5,393.5 C 295.305,393.821 290.305,393.487 285.5,392.5 Z"/><path fill="#F7EFDD" d="M 262.5,401.5 C 262.5,403.833 262.5,406.167 262.5,408.5 C 259.833,408.5 257.167,408.5 254.5,408.5 C 254.5,406.167 254.5,403.833 254.5,401.5 C 257.167,401.5 259.833,401.5 262.5,401.5 Z"/><path fill="#F7EFDD" d="M 269.5,400.5 C 272.5,400.5 275.5,400.5 278.5,400.5 C 278.5,403.5 278.5,406.5 278.5,409.5 C 275.5,409.5 272.5,409.5 269.5,409.5 C 269.5,406.5 269.5,403.5 269.5,400.5 Z"/><path fill="#F7EFDD" d="M 285.5,400.5 C 288.5,400.5 291.5,400.5 294.5,400.5 C 294.5,403.5 294.5,406.5 294.5,409.5 C 291.5,409.5 288.5,409.5 285.5,409.5 C 285.5,406.5 285.5,403.5 285.5,400.5 Z"/><path fill="#C9A24B" d="M 262.5,401.5 C 259.833,401.5 257.167,401.5 254.5,401.5 C 254.5,403.833 254.5,406.167 254.5,408.5 C 257.167,408.5 259.833,408.5 262.5,408.5 C 259.713,409.477 256.713,409.81 253.5,409.5 C 253.5,406.5 253.5,403.5 253.5,400.5 C 256.713,400.19 259.713,400.523 262.5,401.5 Z"/><path fill="#F7EFDD" d="M 269.5,416.5 C 272.5,416.5 275.5,416.5 278.5,416.5 C 278.666,422.176 278.499,427.843 278,433.5 C 275.049,437.4 272.382,437.067 270,432.5 C 269.501,427.177 269.334,421.844 269.5,416.5 Z"/><path fill="#F7EFDD" d="M 237.5,416.5 C 240.5,416.5 243.5,416.5 246.5,416.5 C 246.5,419.5 246.5,422.5 246.5,425.5 C 243.5,425.5 240.5,425.5 237.5,425.5 C 237.5,422.5 237.5,419.5 237.5,416.5 Z"/><path fill="#C9A24B" d="M 284.5,446.5 C 285.494,455.652 285.827,464.985 285.5,474.5 C 282.941,474.802 280.607,474.468 278.5,473.5 C 280.5,473.5 282.5,473.5 284.5,473.5 C 284.5,464.5 284.5,455.5 284.5,446.5 Z"/><path fill="#C9A24B" d="M 278.5,473.5 C 276.991,472.696 275.657,471.529 274.5,470 C 275.167,469.667 275.833,469.333 276.5,469 C 275.619,468.292 274.953,467.458 274.5,466.5 C 275.641,463.36 275.808,460.027 275,456.5 C 272.632,455.631 271.132,453.965 270.5,451.5 C 272.775,447.832 275.275,447.832 278,451.5 C 278.5,458.826 278.666,466.159 278.5,473.5 Z"/></svg>