<svg xmlns="http://www.w3.org/2000/svg" viewBox="173.5 38.3 125.1 124.2" fill="none"><path fill="currentColor" d="M 197.5,69.5 C 192.025,68.5111 186.358,68.1778 180.5,68.5 C 180.5,67.5 180.5,66.5 180.5,65.5 C 189.5,65.5 198.5,65.5 207.5,65.5 C 209.258,65.8769 210.925,66.5435 212.5,67.5 C 214.276,65.4622 215.943,63.2955 217.5,61 C 224.435,57.043 229.935,58.543 234,65.5 C 235.529,70.6821 234.029,74.6821 229.5,77.5 C 232.21,78.2621 234.71,77.5955 237,75.5 C 242.764,66.4967 240.931,59.3301 231.5,54 C 214.17,53.5001 196.837,53.3334 179.5,53.5 C 179.5,50.5 179.5,47.5 179.5,44.5 C 196.837,44.3334 214.17,44.5001 231.5,45 C 246.049,50.2639 251.549,60.4305 248,75.5 C 245.807,82.0169 241.307,85.8502 234.5,87 C 227.436,88.7452 221.269,87.2452 216,82.5 C 214.097,80.559 213.264,78.2257 213.5,75.5 C 211.5,75.5 209.5,75.5 207.5,75.5 C 207.822,73.2776 207.155,71.4443 205.5,70 C 202.854,69.5026 200.187,69.3359 197.5,69.5 Z"/><path fill="currentColor" d="M 254.5,70.5 C 253.833,68.5 253.167,66.5 252.5,64.5 C 252.356,60.4889 252.023,56.4889 251.5,52.5 C 250.733,45.4319 253.733,42.9319 260.5,45 C 263.894,49.1048 264.394,53.6048 262,58.5 C 259.739,62.6963 257.239,66.6963 254.5,70.5 Z"/><path fill="currentColor" d="M 279.5,44.5 C 289.597,44.2296 293.097,48.8963 290,58.5 C 278.496,65.5842 267.163,72.9175 256,80.5 C 249.369,89.4265 244.036,99.0932 240,109.5 C 238.758,108.128 237.258,107.128 235.5,106.5 C 233.271,107.577 230.937,108.244 228.5,108.5 C 228.344,105.934 228.678,103.434 229.5,101 C 228.073,99.2998 227.24,97.4665 227,95.5 C 250.566,87.6014 266.566,71.9348 275,48.5 C 276.397,46.9297 277.897,45.5964 279.5,44.5 Z"/><path fill="currentColor" d="M 207.5,65.5 C 198.5,65.5 189.5,65.5 180.5,65.5 C 180.5,66.5 180.5,67.5 180.5,68.5 C 186.358,68.1778 192.025,68.5111 197.5,69.5 C 191.5,69.5 185.5,69.5 179.5,69.5 C 179.5,67.8333 179.5,66.1667 179.5,64.5 C 189.015,64.1731 198.348,64.5064 207.5,65.5 Z"/><path fill="currentColor" d="M 252.5,64.5 C 253.167,66.5 253.833,68.5 254.5,70.5 C 254.44,71.0431 254.107,71.3764 253.5,71.5 C 252.526,69.2573 252.192,66.924 252.5,64.5 Z"/><path fill="currentColor" d="M 273.5,83.5 C 270.833,82.8333 268.167,82.1667 265.5,81.5 C 269.463,78.1796 273.796,75.3463 278.5,73 C 283.152,71.8069 287.319,72.6403 291,75.5 C 292.383,81.6235 289.883,84.6235 283.5,84.5 C 280.183,83.9469 276.85,83.6135 273.5,83.5 Z"/><path fill="currentColor" d="M 265.5,81.5 C 268.167,82.1667 270.833,82.8333 273.5,83.5 C 270.428,83.8174 267.428,83.4841 264.5,82.5 C 264.624,81.8933 264.957,81.56 265.5,81.5 Z"/><path fill="currentColor" d="M 261.5,87.5 C 276.34,85.0392 286.507,90.7059 292,104.5 C 292.5,121.83 292.667,139.163 292.5,156.5 C 289.5,156.5 286.5,156.5 283.5,156.5 C 283.667,139.497 283.5,122.497 283,105.5 C 277.793,95.9806 270.626,93.8139 261.5,99 C 258.903,101.317 258.07,104.15 259,107.5 C 261.897,102.845 266.063,101.345 271.5,103 C 278.017,107.245 279.183,112.745 275,119.5 C 272.863,120.479 271.029,121.812 269.5,123.5 C 270,124.5 270.5,125.5 271,126.5 C 271.5,136.494 271.666,146.494 271.5,156.5 C 270.167,156.5 268.833,156.5 267.5,156.5 C 267.666,148.16 267.5,139.827 267,131.5 C 265.758,130.128 264.258,129.128 262.5,128.5 C 261.548,126.955 261.215,125.288 261.5,123.5 C 253.404,121.344 249.07,116.01 248.5,107.5 C 248.893,98.1354 253.226,91.4687 261.5,87.5 Z"/></svg>