<svg xmlns="http://www.w3.org/2000/svg" viewBox="29.4 540.5 124.1 124.9" fill="none"><path fill="#C9A24B" d="M 135.5,653.5 C 107.877,645.474 94.8771,626.807 96.5,597.5 C 72.2756,599.645 54.7756,589.978 44,568.5 C 42.6476,565.28 41.8143,561.947 41.5,558.5 C 39.5,558.5 37.5,558.5 35.5,558.5 C 35.5,554.5 35.5,550.5 35.5,546.5 C 40.5,546.5 45.5,546.5 50.5,546.5 C 52.7139,574.211 67.7139,587.044 95.5,585 C 98.2487,583.877 100.749,582.377 103,580.5 C 103.017,576.107 103.85,571.94 105.5,568 C 109.898,569.894 114.565,570.561 119.5,570 C 123.79,566.193 123.123,563.527 117.5,562 C 105.049,559.396 95.7155,563.562 89.5,574.5 C 79.7456,576.881 71.5789,574.214 65,566.5 C 61.2281,560.852 60.7281,555.018 63.5,549 C 67.408,547.622 71.408,547.622 75.5,549 C 75.9574,549.414 76.2907,549.914 76.5,550.5 C 70.9813,557.167 72.3147,562.167 80.5,565.5 C 94.8285,547.548 112.328,543.881 133,554.5 C 134.649,553.214 135.815,551.547 136.5,549.5 C 143.942,546.462 147.109,548.796 146,556.5 C 143.542,557.64 141.375,559.14 139.5,561 C 149.999,581.684 146.333,599.351 128.5,614 C 132.267,622.387 137.6,623.553 144.5,617.5 C 148.468,632.673 143.134,636.84 128.5,630 C 120.999,623.493 117.832,615.327 119,605.5 C 124.379,601.788 128.713,597.121 132,591.5 C 134.401,584.86 133.901,578.527 130.5,572.5 C 127.933,571.396 125.767,572.063 124,574.5 C 123.847,579.343 124.514,584.01 126,588.5 C 122.022,590.057 117.855,590.89 113.5,591 C 109.555,595.228 107.888,600.228 108.5,606 C 110.643,629.979 123.643,642.479 147.5,643.5 C 147.5,648.5 147.5,653.5 147.5,658.5 C 143.5,658.5 139.5,658.5 135.5,658.5 C 135.5,656.833 135.5,655.167 135.5,653.5 Z"/><path fill="#C9A24B" d="M 36.5,564.5 C 47.0789,588.806 65.7456,601.139 92.5,601.5 C 93.0646,627.831 105.065,646.664 128.5,658 C 127.552,658.483 126.552,658.649 125.5,658.5 C 119.397,658.284 114.064,656.117 109.5,652 C 96.6321,639.948 89.2987,625.115 87.5,607.5 C 64.5607,605.135 47.3941,594.135 36,574.5 C 35.1925,570.973 35.3592,567.64 36.5,564.5 Z"/><path fill="#F7EFDD" d="M 35.5,558.5 C 37.5,558.5 39.5,558.5 41.5,558.5 C 41.8143,561.947 42.6476,565.28 44,568.5 C 54.7756,589.978 72.2756,599.645 96.5,597.5 C 94.8771,626.807 107.877,645.474 135.5,653.5 C 134.5,653.5 133.5,653.5 132.5,653.5 C 132.33,654.822 132.663,655.989 133.5,657 C 132.451,657.492 131.451,657.326 130.5,656.5 C 129.304,656.846 129.304,657.346 130.5,658 C 128.852,659.677 127.185,659.844 125.5,658.5 C 126.552,658.649 127.552,658.483 128.5,658 C 105.065,646.664 93.0646,627.831 92.5,601.5 C 65.7456,601.139 47.0789,588.806 36.5,564.5 C 36.9382,564.565 37.2716,564.399 37.5,564 C 35.7384,562.238 35.0717,560.405 35.5,558.5 Z"/></svg>