<svg xmlns="http://www.w3.org/2000/svg" viewBox="510.5 203.4 125.0 125.1" fill="none"><path fill="#C9A24B" d="M 586.5,239.5 C 587.494,230.014 587.827,220.348 587.5,210.5 C 601.167,210.5 614.833,210.5 628.5,210.5 C 628.5,224.167 628.5,237.833 628.5,251.5 C 618.5,251.5 608.5,251.5 598.5,251.5 C 598.5,254.5 598.5,257.5 598.5,260.5 C 608.319,261.494 618.319,261.827 628.5,261.5 C 628.5,281.5 628.5,301.5 628.5,321.5 C 625.167,321.5 621.833,321.5 618.5,321.5 C 618.83,304.658 618.497,287.992 617.5,271.5 C 607.833,271.5 598.167,271.5 588.5,271.5 C 588.5,264.833 588.5,258.167 588.5,251.5 C 581.5,251.5 574.5,251.5 567.5,251.5 C 567.5,241.5 567.5,231.5 567.5,221.5 C 550.5,221.5 533.5,221.5 516.5,221.5 C 516.5,217.5 516.5,213.5 516.5,209.5 C 536.833,209.5 557.167,209.5 577.5,209.5 C 577.5,219.5 577.5,229.5 577.5,239.5 C 580.5,239.5 583.5,239.5 586.5,239.5 Z"/><path fill="#C9A24B" d="M 628.5,210.5 C 614.833,210.5 601.167,210.5 587.5,210.5 C 587.827,220.348 587.494,230.014 586.5,239.5 C 586.5,229.5 586.5,219.5 586.5,209.5 C 600.677,209.171 614.677,209.504 628.5,210.5 Z"/><path fill="#C9A24B" d="M 617.5,220.5 C 610.833,220.5 604.167,220.5 597.5,220.5 C 597.5,227.167 597.5,233.833 597.5,240.5 C 596.509,233.687 596.175,226.687 596.5,219.5 C 603.687,219.175 610.687,219.509 617.5,220.5 Z"/><path fill="#F7EFDD" d="M 617.5,220.5 C 617.5,227.167 617.5,233.833 617.5,240.5 C 610.833,240.5 604.167,240.5 597.5,240.5 C 597.5,233.833 597.5,227.167 597.5,220.5 C 604.167,220.5 610.833,220.5 617.5,220.5 Z"/><path fill="#F7EFDD" d="M 598.5,260.5 C 608.833,260.5 619.167,260.5 629.5,260.5 C 629.5,281.167 629.5,301.833 629.5,322.5 C 625.5,322.5 621.5,322.5 617.5,322.5 C 617.5,305.5 617.5,288.5 617.5,271.5 C 618.497,287.992 618.83,304.658 618.5,321.5 C 621.833,321.5 625.167,321.5 628.5,321.5 C 628.5,301.5 628.5,281.5 628.5,261.5 C 618.319,261.827 608.319,261.494 598.5,260.5 Z"/></svg>