<svg xmlns="http://www.w3.org/2000/svg" viewBox="-6.0 -6.0 1161.6 108.0" fill="none"><path fill="currentColor" d="M 140.297,4.51038 C 135.232,5.14342 129.693,7.39861 123.68,11.276 C 117.745,15.1533 112.364,18.5559 107.537,21.4837 C 108.882,19.2681 109.555,16.7359 109.555,13.8872 C 109.555,9.61424 107.537,6.09297 103.501,3.32344 C 104.214,2.53214 105.361,2.1365 106.944,2.1365 C 110.267,2.1365 113.511,4.31256 116.677,8.66469 L 120.593,4.27299 C 123.205,1.58259 126.766,0.237386 131.276,0.237386 C 132.779,0.237386 134.441,0.672598 136.261,1.54302 C 138.002,2.17606 139.347,3.16518 140.297,4.51038 Z M 159.288,24.8071 C 159.288,26.3897 159.011,27.8932 158.457,29.3175 C 157.903,30.7418 156.716,32.5222 154.896,34.6587 C 153.155,36.7161 150.742,37.7448 147.656,37.7448 C 145.915,37.7448 144.095,37.1118 142.196,35.8457 C 140.297,34.5796 139.347,33.1157 139.347,31.454 L 139.466,30.9792 L 140.771,31.3353 L 142.433,31.5727 C 144.411,31.5727 146.113,30.9397 147.537,29.6736 C 149.041,28.3284 149.792,26.6271 149.792,24.5697 C 149.792,22.4332 148.961,20.7319 147.3,19.4659 C 145.717,18.1998 143.778,17.5668 141.484,17.5668 C 137.606,17.5668 133.017,19.1494 127.715,22.3145 L 113.947,31.2166 C 111.098,32.7201 108.328,33.907 105.638,34.7774 C 102.948,35.6479 100.455,36.0831 98.1602,36.0831 C 93.729,36.0831 89.6934,34.6587 86.0534,31.8101 C 82.4134,28.8823 80.5935,25.1632 80.5935,20.6528 C 80.5935,17.6459 81.6617,14.8368 83.7982,12.2255 C 86.0138,9.7725 88.7042,8.54599 91.8694,8.54599 C 92.9772,8.54599 94.0059,8.70425 94.9555,9.02077 C 95.905,9.33728 97.0524,9.97032 98.3976,10.9199 C 100.93,12.4233 102.196,14.1246 102.196,16.0237 L 102.077,16.7359 C 99.7824,15.549 98.002,14.8764 96.7359,14.7181 C 92.542,14.7181 90.4451,16.7359 90.4451,20.7715 C 90.4451,22.7497 91.3946,24.5302 93.2938,26.1128 C 95.1137,27.458 97.1711,28.1306 99.4659,28.1306 C 102.948,28.1306 107.26,26.4293 112.404,23.0267 L 126.528,13.6498 C 132.305,10.4055 137.488,8.78338 142.077,8.78338 C 146.904,8.78338 150.979,10.2473 154.303,13.1751 C 157.626,16.1029 159.288,19.9802 159.288,24.8071 Z M 139.941,22.3145 C 137.567,23.4224 135.984,24.5697 135.193,25.7567 C 134.085,27.1019 133.531,29.001 133.531,31.454 C 133.531,34.2235 134.52,36.2018 136.499,37.3887 C 135.945,38.18 134.955,38.5757 133.531,38.5757 C 130.445,38.5757 127.873,37.1513 125.816,34.3027 L 123.917,36.6766 C 121.622,39.4461 118.378,40.8309 114.184,40.8309 C 111.494,40.8309 108.961,40.2374 106.588,39.0504 L 110.03,37.5074 L 124.748,28.4866 C 131.395,24.2136 136.301,22.0771 139.466,22.0771 L 139.941,22.3145 Z M 140.89,73.2344 L 139.466,73.4718 C 136.855,73.4718 133.017,71.8496 127.953,68.6053 L 116.795,61.1276 L 109.08,57.5668 L 106.825,56.3798 C 106.825,55.9842 107.893,55.549 110.03,55.0742 L 114.065,54.4807 C 116.993,54.4807 119.169,54.9159 120.593,55.7863 C 122.018,56.5776 123.956,58.3976 126.409,61.2463 L 128.783,58.8724 C 129.575,58.2394 130.406,57.7646 131.276,57.4481 C 132.146,57.0524 133.056,56.8546 134.006,56.8546 C 135.272,56.8546 136.34,57.2502 137.211,58.0415 L 135.549,59.9406 C 134.599,61.1276 134.125,62.7102 134.125,64.6884 C 134.125,68.724 136.38,71.5727 140.89,73.2344 Z M 160.119,71.454 C 160.119,75.8061 158.457,79.4461 155.133,82.3739 C 151.81,85.2225 147.893,86.6469 143.383,86.6469 C 138.398,86.6469 132.977,84.9852 127.122,81.6617 L 112.997,72.2849 C 110.227,70.544 107.735,69.2779 105.519,68.4866 C 103.304,67.6162 101.207,67.181 99.2285,67.181 C 97.0128,67.181 95.2324,67.7349 93.8872,68.8427 C 92.6211,69.8714 91.7507,70.821 91.2759,71.6914 C 90.8012,72.4827 90.5638,73.4322 90.5638,74.5401 C 90.5638,76.2018 91.2364,77.6261 92.5816,78.813 C 93.9268,79.9209 95.5094,80.4748 97.3294,80.4748 C 98.5954,80.4748 100.257,79.8022 102.315,78.457 L 102.671,78.813 C 102.433,80.7913 101.484,82.4134 99.822,83.6795 C 98.1602,84.9456 96.8546,85.7765 95.905,86.1721 C 94.9555,86.4886 93.8872,86.6469 92.7003,86.6469 C 89.3768,86.6469 86.5282,85.4599 84.1543,83.086 C 81.8595,80.633 80.7122,77.7448 80.7122,74.4214 C 80.7122,70.1484 82.4134,66.4688 85.816,63.3828 C 89.3768,60.455 93.3333,58.9911 97.6855,58.9911 C 102.908,58.9911 108.408,60.6132 114.184,63.8576 L 128.309,73.1157 C 133.61,76.36 138.318,77.9822 142.433,77.9822 C 144.807,77.9822 146.746,77.3492 148.249,76.0831 C 149.753,74.7379 150.504,72.9179 150.504,70.6231 C 150.504,68.724 149.753,67.1414 148.249,65.8754 C 146.746,64.6093 145.084,63.9763 143.264,63.9763 C 142.315,63.9763 141.286,64.2136 140.178,64.6884 L 140.059,64.0949 C 140.059,62.3541 140.851,60.8902 142.433,59.7033 C 144.095,58.5163 145.915,57.9228 147.893,57.9228 C 151.217,57.9228 154.065,59.268 156.439,61.9585 C 158.892,64.6489 160.119,67.814 160.119,71.454 Z M 140.89,91.3947 C 140.89,92.186 139.585,92.9772 136.973,93.7685 C 134.441,94.5598 132.463,95.0346 131.039,95.1929 C 125.025,95.1929 120.514,92.3442 117.507,86.6469 C 117.033,86.9634 115.885,88.1503 114.065,90.2077 C 112.324,92.186 110.227,93.1751 107.774,93.1751 L 104.332,92.4629 L 103.976,92.1068 C 106.034,90.6034 107.577,89.0208 108.605,87.359 C 109.634,85.6182 110.148,83.5608 110.148,81.1869 C 110.148,79.9209 109.397,77.4283 107.893,73.7092 C 109.159,74.4214 110.702,75.3709 112.522,76.5579 C 114.342,77.6657 116.162,78.8922 117.982,80.2374 C 119.802,81.5035 121.899,82.8882 124.273,84.3917 C 126.726,85.8951 128.704,87.0821 130.208,87.9525 C 131.711,88.7438 133.373,89.456 135.193,90.089 C 137.092,90.6429 138.952,90.9199 140.771,90.9199 L 140.89,91.3947 Z M 56.1424,3.08605 C 52.0277,5.85559 49.9703,9.57468 49.9703,14.2433 C 49.9703,15.4303 50.6825,17.6855 52.1068,21.0089 L 51.276,21.0089 L 35.9644,10.8012 C 30.0297,7.00297 24.451,4.74777 19.2285,4.0356 C 19.7033,2.76953 20.9693,1.78041 23.0267,1.06825 C 25.0841,0.356083 26.9041,0 28.4866,0 C 30.8605,0 33.3531,0.633035 35.9644,1.8991 C 38.5757,3.08605 40.4748,4.74777 41.6617,6.88427 L 42.6113,8.54599 C 46.1721,4.11473 49.4955,1.8991 52.5816,1.8991 C 53.2938,1.8991 54.362,2.09693 55.7863,2.49258 L 56.1424,3.08605 Z M 79.1691,20.0593 C 79.1691,24.5697 77.4678,28.3679 74.0653,31.454 C 70.6627,34.5401 66.7062,36.0831 62.1958,36.0831 C 57.2898,36.0831 51.8694,34.4214 45.9347,31.0979 L 31.6914,21.8398 C 26.3897,18.5954 21.8398,16.9733 18.0415,16.9733 C 15.7468,16.9733 13.7685,17.6063 12.1068,18.8724 C 10.4451,20.0593 9.61424,21.8002 9.61424,24.0949 C 9.61424,25.9941 10.3264,27.6558 11.7507,29.0801 C 13.2542,30.3462 15.0346,30.9792 17.092,30.9792 C 18.1207,30.9792 19.0307,30.7814 19.822,30.3858 L 19.9406,31.2166 C 19.9406,32.8783 19.0702,34.2631 17.3294,35.3709 C 15.5885,36.3996 13.8477,36.9139 12.1068,36.9139 C 9.0999,36.9139 6.25124,35.45 3.56083,32.5222 C 1.3452,29.8318 0.237389,26.8249 0.237389,23.5015 C 0.237389,19.2285 1.89911,15.6677 5.22255,12.819 C 8.54599,9.89119 12.4233,8.42729 16.8546,8.42729 C 21.9189,8.42729 27.2997,10.089 32.997,13.4125 L 47.1217,22.908 C 52.4233,26.3106 57.1315,28.0119 61.2463,28.0119 C 63.0663,28.0119 64.8862,27.2997 66.7062,25.8754 C 68.4471,24.2928 69.3175,22.5124 69.3175,20.5341 C 69.3175,16.5776 67.2997,14.5994 63.2641,14.5994 C 61.5232,14.5994 59.6241,15.2324 57.5668,16.4985 L 57.3294,15.905 C 57.3294,14.2433 58.5954,12.5816 61.1276,10.9199 C 63.7389,9.25816 65.9941,8.42729 67.8932,8.42729 C 70.7418,8.42729 73.3135,9.6538 75.6083,12.1068 C 77.9822,14.4807 79.1691,17.1315 79.1691,20.0593 Z M 46.0534,40.4748 C 40.9891,40.4748 36.9931,38.2591 34.0653,33.8279 L 33.5905,33.7092 C 31.454,36.5579 29.0406,37.9822 26.3501,37.9822 C 24.5302,37.9822 23.4224,37.6657 23.0267,37.0326 L 24.3323,35.9644 C 25.4402,34.5401 25.9941,32.6805 25.9941,30.3858 C 25.9941,25.8754 23.8576,23.0267 19.5846,21.8398 L 20.6528,21.7211 C 23.185,21.7211 28.6449,24.3323 37.0326,29.5549 C 45.4995,34.7774 50.8407,37.7448 53.0564,38.457 C 51.2364,39.8022 48.9021,40.4748 46.0534,40.4748 Z M 53.2938,56.0237 C 50.6034,56.6568 45.2225,59.6241 37.1513,64.9258 C 29.0801,70.2275 23.1058,72.8783 19.2285,72.8783 C 20.4946,72.1662 21.5232,71.5727 22.3145,71.0979 C 23.1058,70.544 23.8971,69.8714 24.6884,69.0801 C 25.4797,68.2888 25.8754,66.7062 25.8754,64.3323 C 25.8754,60.9298 24.8467,58.7537 22.7893,57.8041 C 23.0267,56.8546 23.8971,56.3798 25.4006,56.3798 C 28.8032,56.3798 31.5331,57.8437 33.5905,60.7715 L 35.9644,58.0415 C 38.4174,55.3511 41.6221,54.0059 45.5786,54.0059 C 47.7151,54.0059 50.2868,54.6785 53.2938,56.0237 Z M 79.2878,74.8961 C 79.2878,78.3778 78.1404,81.1474 75.8457,83.2047 C 73.6301,85.2621 70.7814,86.2908 67.2997,86.2908 C 65.1632,86.2908 63.185,85.6182 61.365,84.273 C 59.6241,82.8487 58.3185,80.9891 57.4481,78.6944 L 57.6855,78.1009 C 59.268,79.4461 61.1672,80.1187 63.3828,80.1187 C 64.9654,80.1187 66.3501,79.6043 67.5371,78.5757 C 68.724,77.547 69.3175,76.2413 69.3175,74.6587 C 69.3175,72.4431 68.4075,70.6231 66.5875,69.1988 C 65.0049,67.6953 62.908,66.9436 60.2967,66.9436 C 56.815,66.9436 52.3442,68.6449 46.8843,72.0475 L 32.7596,81.3056 C 27.1414,84.6291 21.9189,86.2908 17.092,86.2908 C 12.5816,86.2908 8.58556,84.8665 5.10386,82.0178 C 1.70129,79.09 0,75.3314 0,70.7418 C 0,67.3393 1.14738,64.2928 3.44214,61.6024 C 5.73689,58.8328 8.50643,57.4481 11.7507,57.4481 C 12.6212,57.4481 13.4916,57.5668 14.362,57.8041 C 15.3116,58.0415 16.459,58.5954 17.8042,59.4659 C 19.2285,60.3363 19.9406,61.6024 19.9406,63.2641 L 19.822,64.0949 L 16.8546,63.6202 C 14.7972,63.6202 13.0564,64.2532 11.632,65.5193 C 10.2868,66.7854 9.61424,68.4866 9.61424,70.6231 C 9.61424,72.6805 10.4451,74.3422 12.1068,75.6083 C 13.8477,76.8744 15.8655,77.5074 18.1602,77.5074 C 21.5628,77.5074 25.9149,75.9248 31.2166,72.7596 L 45.5786,63.6202 C 51.4342,60.3759 56.6568,58.7537 61.2463,58.7537 C 66.1523,58.7537 70.3857,60.2572 73.9466,63.2641 C 77.5074,66.271 79.2878,70.1484 79.2878,74.8961 Z M 56.2611,91.632 C 56.0237,92.4233 54.9159,92.819 52.9377,92.819 C 48.9021,92.819 45.7765,90.9594 43.5608,87.2404 L 42.9674,86.2908 L 42.3739,86.4095 C 41.1869,88.8625 39.2878,90.8803 36.6766,92.4629 C 34.1444,93.9664 31.5331,94.7181 28.8427,94.7181 C 25.8358,94.7181 22.8289,93.6894 19.822,91.632 L 19.1098,90.6825 L 22.1958,89.9703 C 26.3897,89.2582 31.4936,86.9238 37.5074,82.9673 L 51.8694,73.3531 C 51.3947,74.3027 50.9594,75.45 50.5638,76.7952 C 50.1681,78.0613 49.9703,79.4065 49.9703,80.8308 C 49.9703,85.7369 52.0673,89.3373 56.2611,91.632 Z"/><path fill="currentColor" d="M 244.237,46.0534 C 244.237,50.5638 243.09,55.6281 240.795,61.2463 C 238.5,66.8645 235.375,69.6736 231.418,69.6736 C 230.548,69.6736 229.915,69.5945 229.519,69.4362 C 228.649,70.3066 228.214,71.5331 228.214,73.1157 C 228.214,73.6696 228.214,74.1444 228.214,74.5401 C 228.214,74.8566 228.332,75.45 228.57,76.3205 C 228.886,77.1118 229.44,78.0218 230.231,79.0504 L 230.706,79.0504 C 233.159,79.0504 234.386,80.7517 234.386,84.1543 C 234.386,85.183 234.307,85.9347 234.148,86.4095 C 234.069,86.8843 233.713,87.7151 233.08,88.9021 C 232.447,90.089 231.537,90.6825 230.35,90.6825 C 229.401,90.6825 228.095,90.4451 226.433,89.9703 C 224.851,89.4164 223.545,88.9812 222.516,88.6647 C 221.488,88.3482 220.657,87.9525 220.024,87.4777 L 219.549,87.003 C 221.606,85.4204 222.912,83.7191 223.466,81.8991 C 223.308,81.6617 222.793,81.3452 221.923,80.9496 L 220.142,80.4748 C 218.322,80.4748 216.819,79.4857 215.632,77.5074 C 214.445,75.5292 213.852,73.4322 213.852,71.2166 C 213.852,69.001 214.485,66.6271 215.751,64.095 C 217.096,61.5628 218.797,60.2967 220.855,60.2967 L 221.685,60.4154 L 226.671,63.1454 C 228.728,61.5628 230.271,59.3867 231.3,56.6172 C 232.328,53.7685 232.961,51.5925 233.199,50.089 C 233.515,48.5064 233.674,46.9634 233.674,45.4599 C 233.674,38.4174 231.141,32.4431 226.077,27.5371 C 225.523,27.5371 224.574,28.0514 223.228,29.0801 C 221.883,30.0297 220.736,30.544 219.786,30.6231 C 217.65,30.6231 215.909,29.2779 214.564,26.5875 C 213.298,23.8971 212.665,21.2463 212.665,18.635 C 212.665,15.3116 213.931,12.7794 216.463,11.0386 C 217.096,11.0386 217.887,10.8803 218.837,10.5638 C 219.786,10.1682 220.696,9.73294 221.567,9.25816 C 221.567,7.35905 220.301,5.65777 217.768,4.15431 C 217.768,3.67953 219.035,2.9278 221.567,1.89911 C 222.991,1.50347 223.941,1.26608 224.415,1.18695 C 224.89,1.02869 225.642,0.712171 226.671,0.237393 L 227.145,0.237393 L 227.858,0.237393 L 228.688,0 C 229.559,0 230.469,0.949557 231.418,2.84867 C 231.814,3.87735 232.051,4.66865 232.131,5.22255 C 232.289,5.69733 232.368,6.2908 232.368,7.00297 C 232.368,9.29773 231.418,10.8012 229.519,11.5134 C 227.699,11.9881 226.789,13.6894 226.789,16.6172 C 226.789,19.4659 227.383,20.9693 228.57,21.1276 L 229.282,21.0089 L 230.231,20.8902 C 234.346,20.8902 237.393,23.185 239.371,27.7745 C 241.349,32.364 242.655,35.9644 243.288,38.5757 C 243.921,41.1078 244.237,43.6004 244.237,46.0534 Z M 195.691,71.9288 C 195.691,75.5687 194.742,78.1009 192.843,79.5252 L 189.401,80.8309 C 187.739,81.3848 186.868,81.8991 186.789,82.3739 C 186.789,83.4817 188.095,85.1039 190.706,87.2404 C 190.706,87.7943 189.084,88.5856 185.84,89.6142 C 182.675,90.6429 180.578,91.1573 179.549,91.1573 C 179.312,90.999 178.639,90.5242 177.531,89.7329 C 176.502,88.9416 175.988,87.1612 175.988,84.3917 C 175.988,82.8091 176.225,81.7013 176.7,81.0683 C 177.175,80.3561 178.283,79.8417 180.024,79.5252 C 181.052,77.9426 181.567,76.2413 181.567,74.4214 C 181.567,72.6805 181.171,71.2562 180.38,70.1484 L 178.125,70.3858 C 174.089,70.3858 170.726,67.458 168.036,61.6024 C 165.424,55.7468 164.119,50.366 164.119,45.4599 C 164.119,40.9496 165.345,35.8457 167.798,30.1484 C 170.251,24.451 173.377,21.6024 177.175,21.6024 L 179.193,21.9585 C 179.984,20.6133 180.38,19.1889 180.38,17.6855 C 180.38,15.8655 179.905,14.1642 178.955,12.5816 L 176.107,11.9881 C 174.841,10.7221 174.208,9.13947 174.208,7.24036 C 174.208,4.15431 175.395,1.93868 177.768,0.593476 C 182.516,1.38477 186.275,2.57172 189.044,4.15431 C 187.145,5.57864 185.879,7.27992 185.246,9.25816 C 185.642,9.49555 186.077,9.77251 186.552,10.089 C 187.106,10.4055 187.501,10.6034 187.739,10.6825 C 192.407,10.6825 194.742,13.9664 194.742,20.5341 C 194.742,22.5915 194.069,24.8467 192.724,27.2997 C 191.458,29.7527 189.796,30.9792 187.739,30.9792 C 187.264,30.9792 186.354,30.5836 185.009,29.7923 L 182.041,28.1306 C 180.538,29.001 178.876,31.3749 177.056,35.2522 C 175.632,38.8131 174.92,41.7804 174.92,44.1543 C 174.92,46.0534 175.039,47.8734 175.276,49.6142 C 175.513,51.276 176.146,53.6499 177.175,56.7359 C 178.204,59.7428 179.984,62.0376 182.516,63.6202 C 183.07,63.541 183.941,63.0267 185.128,62.0772 C 186.394,61.1276 187.462,60.6528 188.332,60.6528 C 190.39,60.6528 192.447,62.3145 194.504,65.638 C 194.504,66.3502 194.702,67.3393 195.098,68.6053 L 195.691,71.9288 Z M 221.804,10.9199 L 221.685,10.4451 C 220.419,10.6825 219.232,11.0781 218.125,11.6321 L 218.599,12.819 C 218.678,13.0564 219.035,13.2542 219.668,13.4125 C 221.092,13.4125 221.804,12.5816 221.804,10.9199 Z M 227.264,21.4837 C 226.473,19.6637 226.077,18.002 226.077,16.4985 L 226.552,14.2433 L 227.027,12.2255 L 223.11,13.2938 C 221.211,14.0059 219.984,14.362 219.43,14.362 C 218.955,14.362 218.441,13.9664 217.887,13.1751 L 216.938,11.9881 L 215.869,12.3442 C 214.208,14.0059 213.377,16.3403 213.377,19.3472 C 213.377,21.7211 214.01,24.0554 215.276,26.3502 C 216.542,28.6449 218.283,29.7923 220.498,29.7923 L 220.973,29.1988 C 220.578,28.6449 220.182,28.2097 219.786,27.8932 C 219.391,27.5767 219.114,27.1414 218.955,26.5875 C 218.955,25.7171 220.103,24.7676 222.398,23.7389 L 227.264,21.4837 Z M 225.009,26.8249 C 224.138,25.8754 222.951,25.4006 221.448,25.4006 C 220.498,25.4006 219.945,25.7567 219.786,26.4688 L 221.923,28.724 L 225.009,26.8249 Z M 225.721,63.9763 L 222.754,62.0772 C 222.675,62.2354 222.556,62.4332 222.398,62.6706 C 222.239,62.908 221.923,63.185 221.448,63.5015 C 221.052,63.818 220.855,64.2532 220.855,64.8071 C 221.092,65.2819 221.488,65.5193 222.041,65.5193 L 222.872,65.4006 L 223.703,65.4006 L 225.721,63.9763 Z M 228.688,78.457 C 227.818,76.9535 227.383,75.2522 227.383,73.3531 L 227.858,71.0979 L 228.332,69.4362 C 227.937,69.0406 227.581,68.7636 227.264,68.6053 L 226.077,67.8932 L 222.398,66.7062 C 220.657,66.2315 219.786,65.5193 219.786,64.5697 C 219.786,64.0158 220.103,63.5015 220.736,63.0267 C 221.448,62.4728 221.804,61.998 221.804,61.6024 C 221.488,61.2067 221.211,61.0089 220.973,61.0089 C 219.074,61.0089 217.531,62.2354 216.344,64.6884 C 215.236,67.1414 214.682,69.3571 214.682,71.3353 C 214.682,72.2057 214.722,72.8783 214.801,73.3531 C 214.88,73.8279 215.197,74.8566 215.751,76.4392 C 216.384,78.0218 217.254,78.8526 218.362,78.9317 C 218.837,78.5361 219.153,78.1009 219.312,77.6261 C 219.549,77.1513 219.826,76.7952 220.142,76.5579 L 220.736,76.5579 C 221.606,76.5579 222.635,76.8348 223.822,77.3887 L 226.552,78.3383 L 228.095,78.5757 L 228.688,78.457 Z M 220.973,77.5074 C 220.578,77.5074 220.261,77.7052 220.024,78.1009 L 219.786,79.2878 L 223.466,80.3561 C 223.466,78.457 222.635,77.5074 220.973,77.5074 Z M 188.807,11.9881 L 185.365,10.9199 L 185.128,11.5134 C 185.128,12.0673 185.523,12.7794 186.314,13.6499 L 187.264,13.7686 L 188.214,13.6499 L 188.807,11.9881 Z M 194.03,20.4154 C 194.03,19.3867 193.99,18.5955 193.911,18.0415 C 193.832,17.4876 193.555,16.6568 193.08,15.549 C 192.368,13.4125 191.418,12.3442 190.231,12.3442 C 189.757,12.819 189.361,13.3729 189.044,14.0059 C 188.728,14.5598 188.253,14.8368 187.62,14.8368 C 187.145,14.8368 186.75,14.7972 186.433,14.7181 C 186.117,14.639 185.325,14.362 184.059,13.8872 L 180.142,12.5816 C 180.459,13.452 180.736,14.4411 180.973,15.549 C 181.211,16.6568 181.329,17.5272 181.329,18.1602 L 180.498,22.3145 C 181.211,22.8685 182.516,23.4619 184.415,24.095 C 186.314,24.5697 187.62,25.1236 188.332,25.7567 L 188.688,26.9436 C 188.688,27.4975 188.372,27.9723 187.739,28.368 L 186.789,29.4362 L 187.145,30.1484 C 189.282,30.1484 191.023,29.001 192.368,26.7062 C 193.476,24.4906 194.03,22.3937 194.03,20.4154 Z M 187.739,26.8249 C 187.739,26.1919 187.185,25.8754 186.077,25.8754 C 185.286,25.8754 184.257,26.271 182.991,27.0623 L 182.991,27.5371 L 185.602,28.9614 C 186.077,28.6449 186.394,28.368 186.552,28.1306 L 187.62,27.181 L 187.739,26.8249 Z M 188.451,64.9258 L 187.264,63.6202 C 187.027,62.908 186.71,62.5519 186.314,62.5519 C 186.077,62.6311 185.879,62.7102 185.721,62.7893 C 185.563,62.7893 185.246,62.9871 184.771,63.3828 L 183.466,64.5697 L 185.484,65.7567 L 187.027,65.8754 C 187.976,65.8754 188.451,65.5589 188.451,64.9258 Z M 195.098,71.6914 C 195.098,69.5549 194.425,67.2997 193.08,64.9258 C 191.814,62.5519 190.073,61.365 187.858,61.365 L 187.264,62.0772 C 187.66,62.6311 188.095,63.0663 188.57,63.3828 C 189.124,63.6993 189.401,64.1741 189.401,64.8071 C 189.401,65.4402 188.293,66.3502 186.077,67.5371 L 181.329,69.6736 C 182.041,70.8605 182.398,72.364 182.398,74.184 C 182.398,75.8457 182.041,77.5074 181.329,79.1691 C 182.516,79.1691 183.901,78.7735 185.484,77.9822 C 187.066,77.3492 188.293,76.9535 189.163,76.7952 C 189.401,76.8744 189.598,76.9535 189.757,77.0326 C 189.915,77.1118 190.113,77.3492 190.35,77.7448 L 191.3,79.0504 C 192.487,79.1296 193.397,78.2591 194.03,76.4392 C 194.742,74.5401 195.098,72.9575 195.098,71.6914 Z M 188.57,77.8635 C 187.224,77.8635 186.552,78.6152 186.552,80.1187 L 186.671,80.7122 L 187.501,80.5935 L 188.214,80.3561 C 188.609,80.3561 189.321,80.0791 190.35,79.5252 C 190.35,78.4965 189.757,77.9426 188.57,77.8635 Z"/><path fill="currentColor" d="M 478.03,9.37685 C 478.03,12.0673 476.882,14.2038 474.587,15.7864 C 472.293,17.3689 469.681,18.1602 466.754,18.1602 C 465.804,18.1602 465.052,18.0811 464.498,17.9228 L 464.024,18.3976 L 464.142,20.6528 C 464.142,25.2423 462.678,29.3175 459.751,32.8783 C 456.823,36.4392 453.104,38.2196 448.593,38.2196 C 445.033,38.2196 441.946,36.9535 439.335,34.4214 C 436.645,32.0475 435.3,29.0801 435.3,25.5193 C 435.3,23.6202 435.656,21.8793 436.368,20.2967 C 435.972,20.0593 435.537,19.9407 435.062,19.9407 C 431.739,19.9407 426.872,21.4045 420.463,24.3323 L 403.015,32.5223 C 399.375,34.0257 396.091,35.1731 393.163,35.9644 C 390.235,36.6766 387.545,37.0326 385.092,37.0326 C 379.474,37.0326 374.686,35.3314 370.73,31.9288 C 366.773,28.5262 364.795,23.8971 364.795,18.0415 C 364.795,13.1355 366.378,8.94164 369.543,5.45994 C 372.708,1.89911 376.704,0.118697 381.531,0.118697 C 386.121,0.118697 389.681,1.38477 392.214,3.91691 C 393.48,5.02473 394.39,6.44906 394.943,8.18991 C 395.497,9.85163 395.774,11.909 395.774,14.362 C 396.17,14.2829 396.803,14.0851 397.673,13.7685 C 398.544,13.452 403.846,11.1177 413.579,6.76558 C 423.391,2.41345 431.778,0.237386 438.742,0.237386 C 443.094,0.237386 447.288,1.26607 451.323,3.32344 C 452.431,3.71909 454.845,5.18299 458.564,7.71513 C 462.362,10.2473 465.25,11.5133 467.228,11.5133 C 468.574,11.5133 469.919,10.6034 471.264,8.78338 C 472.609,6.88427 473.717,5.93472 474.587,5.93472 C 475.458,5.93472 476.249,6.2908 476.961,7.00297 C 477.673,7.636 478.03,8.4273 478.03,9.37685 Z M 477.673,85.6973 C 477.673,88.1503 476.605,89.3768 474.469,89.3768 C 473.519,89.3768 472.372,88.4669 471.027,86.6469 C 469.681,84.7478 468.217,83.7982 466.635,83.7982 C 464.736,83.7982 462.204,84.7873 459.038,86.7656 L 450.255,92.2255 C 446.299,94.1246 442.342,95.0742 438.386,95.0742 C 429.919,95.0742 416.071,90.4055 396.843,81.0682 L 395.537,81.0682 L 395.656,83.7982 C 395.656,87.2799 394.31,90.0099 391.62,91.9881 C 388.93,93.9664 385.685,94.9555 381.887,94.9555 C 376.823,94.9555 372.669,93.1751 369.424,89.6142 C 366.18,86.0534 364.558,81.7013 364.558,76.5579 C 364.558,71.2562 366.417,66.8645 370.136,63.3828 C 374.172,59.9802 378.801,58.2789 384.024,58.2789 C 387.505,58.2789 391.343,58.912 395.537,60.178 C 399.81,61.4441 406.14,64.1741 414.528,68.368 C 422.995,72.4827 430.196,74.7774 436.13,75.2522 L 436.249,74.5401 L 435.774,72.4036 L 435.3,70.2671 C 435.3,66.7854 436.526,63.7389 438.979,61.1276 C 441.432,58.5163 444.32,57.2107 447.644,57.2107 C 452.787,57.2107 456.783,59.0307 459.632,62.6706 C 462.56,66.3106 464.024,70.3462 464.024,74.7774 C 464.024,75.8061 463.984,76.5974 463.905,77.1513 L 465.804,77.0326 C 468.494,77.0326 471.106,77.7448 473.638,79.1691 C 476.328,80.9891 477.673,83.1652 477.673,85.6973 Z M 362.659,17.8042 C 362.659,23.0267 360.839,27.4975 357.199,31.2166 C 353.638,34.8566 349.167,36.6766 343.786,36.6766 C 337.931,36.6766 328.87,33.8675 316.605,28.2493 C 304.34,22.6311 296.269,19.822 292.392,19.822 C 291.838,19.822 291.482,19.9011 291.323,20.0593 C 292.115,21.6419 292.51,23.3037 292.51,25.0445 C 292.51,28.6053 291.244,31.6518 288.712,34.184 C 286.338,36.7161 283.292,37.9822 279.573,37.9822 C 275.141,37.9822 271.422,36.2413 268.415,32.7596 C 265.408,29.2779 263.905,25.2819 263.905,20.7715 C 263.905,19.6637 263.984,18.8328 264.142,18.2789 C 263.826,17.9624 262.758,17.8042 260.938,17.8042 C 258.643,17.8042 256.269,17.0524 253.816,15.549 C 251.442,14.0455 250.255,12.0673 250.255,9.61424 C 250.255,7.16123 251.244,5.93472 253.222,5.93472 C 254.568,5.93472 255.755,6.84471 256.783,8.66469 C 257.812,10.4055 259.355,11.276 261.412,11.276 C 263.311,11.276 265.685,10.3264 268.534,8.4273 L 276.724,3.32344 C 280.206,1.3452 284.043,0.356083 288.237,0.356083 C 294.568,0.356083 302.006,2.05737 310.552,5.45994 L 331.917,14.2433 L 331.798,11.9881 C 331.798,8.50643 333.025,5.65776 335.478,3.44213 C 338.01,1.14738 341.254,0 345.211,0 C 350.196,0 354.35,1.74085 357.673,5.22255 C 360.997,8.62513 362.659,12.819 362.659,17.8042 Z M 362.303,76.9139 C 362.303,81.7408 360.76,85.9347 357.673,89.4955 C 354.667,93.0564 350.71,94.8368 345.804,94.8368 C 342.243,94.8368 338.959,93.8872 335.952,91.9881 C 332.787,89.6934 331.205,86.8447 331.205,83.4421 C 331.205,82.3343 331.284,81.5034 331.442,80.9495 L 331.205,80.3561 L 309.84,89.0208 C 300.186,92.819 293.064,94.7181 288.475,94.7181 C 284.043,94.7181 280.641,94.1642 278.267,93.0564 C 275.893,91.8694 273.796,90.6825 271.976,89.4955 C 270.156,88.3086 268.138,87.003 265.923,85.5786 C 263.786,84.1543 261.729,83.4421 259.751,83.4421 C 257.852,83.4421 256.229,84.3521 254.884,86.1721 C 253.776,87.913 252.629,88.8229 251.442,88.9021 C 249.306,88.9021 248.237,87.7151 248.237,85.3412 C 248.237,80.3561 252.392,77.4283 260.7,76.5579 L 261.768,76.9139 L 262.243,76.3205 L 262.125,73.8279 C 262.125,69.4758 263.628,65.5193 266.635,61.9585 C 269.721,58.3185 273.44,56.4985 277.792,56.4985 C 281.195,56.4985 284.281,57.6855 287.05,60.0593 C 289.899,62.3541 291.323,65.2423 291.323,68.724 C 291.323,70.9397 290.888,72.8783 290.018,74.5401 L 291.086,74.6587 C 293.935,74.6587 302.085,71.8892 315.537,66.3501 C 328.989,60.7319 337.852,57.9228 342.125,57.9228 C 347.98,57.9228 352.807,59.6241 356.605,63.0267 C 360.403,66.4293 362.303,71.0583 362.303,76.9139 Z M 457.377,21.2463 C 457.377,16.7359 455.596,13.2146 452.035,10.6825 C 448.475,8.07121 444.281,6.76558 439.454,6.76558 C 432.807,6.76558 423.272,9.6538 410.849,15.4303 C 398.425,21.1276 390.117,23.9763 385.923,23.9763 C 380.858,23.9763 378.326,22.0772 378.326,18.2789 C 378.326,15.6677 379.078,14.362 380.581,14.362 C 380.74,14.5203 380.938,14.7577 381.175,15.0742 C 381.491,15.3116 381.848,15.7468 382.243,16.3798 C 382.718,17.0129 383.747,17.3294 385.329,17.3294 C 388.02,17.3294 389.365,15.905 389.365,13.0564 C 389.365,11.2364 388.534,9.65381 386.872,8.3086 C 385.448,7.35905 383.668,6.88427 381.531,6.88427 C 378.682,6.88427 376.269,7.99209 374.291,10.2077 C 372.312,12.4233 371.323,15.0346 371.323,18.0415 C 371.323,21.7606 372.708,24.7676 375.478,27.0623 C 378.247,29.3571 381.61,30.5044 385.567,30.5044 C 390.473,30.5044 399.216,27.5767 411.798,21.7211 C 424.38,15.7864 433.4,12.819 438.86,12.819 C 441.551,12.819 443.925,13.452 445.982,14.7181 C 448.672,15.9842 450.018,17.8833 450.018,20.4154 C 450.018,21.2067 449.741,21.8793 449.187,22.4332 C 448.475,21.5628 447.367,21.1276 445.863,21.1276 C 443.173,21.1276 441.828,22.7102 441.828,25.8754 C 441.828,27.458 442.5,28.8032 443.846,29.911 C 445.191,30.9397 446.853,31.454 448.831,31.454 C 450.967,31.454 452.906,30.3858 454.647,28.2493 C 456.467,26.0336 457.377,23.6993 457.377,21.2463 Z M 457.377,73.8279 C 457.377,71.454 456.506,69.1988 454.765,67.0623 C 453.104,64.9258 451.007,63.8576 448.475,63.8576 C 446.576,63.8576 444.953,64.4115 443.608,65.5193 C 442.342,66.6271 441.709,68.091 441.709,69.911 C 441.709,71.0979 442.184,72.1662 443.133,73.1157 C 444.162,73.907 445.309,74.3027 446.576,74.3027 C 447.129,74.3027 448,73.8279 449.187,72.8783 L 449.662,73.3531 L 449.899,74.6587 C 449.899,76.8744 448.672,78.813 446.219,80.4748 C 444.083,81.7408 441.828,82.3739 439.454,82.3739 C 436.21,82.3739 432.293,81.6617 427.703,80.2374 C 423.114,78.813 416.071,75.8853 406.576,71.454 C 397.08,67.0227 389.84,64.8071 384.854,64.8071 C 380.977,64.8071 377.693,65.9941 375.003,68.368 C 372.312,70.6627 370.967,73.6301 370.967,77.27 C 370.967,80.0396 372.075,82.6508 374.291,85.1039 C 376.506,87.3195 379.038,88.4273 381.887,88.4273 C 384.024,88.4273 385.764,87.8734 387.11,86.7656 C 388.534,85.5786 389.246,83.9565 389.246,81.8991 C 389.246,80.7913 388.771,79.8022 387.822,78.9317 C 386.872,78.2196 385.804,77.8635 384.617,77.8635 C 383.351,77.8635 382.441,78.2591 381.887,79.0504 C 381.412,79.7626 381.056,80.2374 380.819,80.4748 C 380.661,80.633 380.542,80.7517 380.463,80.8308 C 378.88,80.8308 378.089,79.5648 378.089,77.0326 C 378.089,75.3709 378.801,73.9861 380.225,72.8783 C 381.65,71.7705 383.272,71.2166 385.092,71.2166 C 388.969,71.2166 394.429,72.7596 401.472,75.8457 L 420.463,84.3917 C 428.138,87.3986 434.587,88.9021 439.81,88.9021 C 444.083,88.9021 448.079,87.4777 451.798,84.6291 C 455.517,81.7013 457.377,78.1009 457.377,73.8279 Z M 356.249,17.6855 C 356.249,14.8368 355.181,12.3046 353.044,10.089 C 350.987,7.79426 348.494,6.64689 345.567,6.64689 C 343.747,6.64689 342.045,7.24036 340.463,8.4273 C 338.88,9.61424 338.089,11.1177 338.089,12.9377 C 338.089,14.2038 338.88,15.4698 340.463,16.7359 L 342.837,17.092 C 343.707,17.092 344.419,16.7359 344.973,16.0237 C 345.606,15.3116 346.041,14.8764 346.279,14.7181 C 346.595,14.5598 346.793,14.4016 346.872,14.2433 C 348.376,14.2433 349.127,15.5094 349.127,18.0415 C 349.127,19.7033 348.494,21.0485 347.228,22.0771 C 345.962,23.1058 344.38,23.6202 342.481,23.6202 C 337.733,23.6202 329.187,20.7715 316.843,15.0742 C 304.498,9.29772 294.924,6.40949 288.119,6.40949 C 283.608,6.40949 279.533,7.79426 275.893,10.5638 C 272.253,13.2542 270.433,16.8942 270.433,21.4837 C 270.433,24.1741 271.422,26.4688 273.4,28.368 C 275.379,30.2671 277.594,31.2166 280.047,31.2166 C 281.788,31.2166 283.213,30.6627 284.32,29.5549 C 285.507,28.4471 286.101,27.0227 286.101,25.2819 C 286.101,24.1741 285.626,23.1454 284.676,22.1958 C 283.806,21.2463 282.856,20.7715 281.828,20.7715 C 280.957,20.7715 279.85,21.2463 278.504,22.1958 C 278.267,21.8793 278.069,21.2463 277.911,20.2967 C 277.911,17.9228 279.098,16.1029 281.472,14.8368 C 283.846,13.5707 286.417,12.9377 289.187,12.9377 C 293.143,12.9377 302.322,15.7863 316.724,21.4837 L 329.306,27.0623 C 331.521,27.9327 333.776,28.6449 336.071,29.1988 C 338.445,29.7527 340.582,30.0297 342.481,30.0297 C 346.279,30.0297 349.563,28.9614 352.332,26.8249 C 354.943,24.5302 356.249,21.4837 356.249,17.6855 Z M 355.774,77.0326 C 355.774,73.4718 354.469,70.4253 351.857,67.8932 C 349.088,65.5984 345.883,64.451 342.243,64.451 C 336.071,64.451 326.773,67.3393 314.35,73.1157 C 301.927,78.8922 293.222,81.7804 288.237,81.7804 C 285.309,81.7804 282.619,81.1078 280.166,79.7626 C 277.713,78.4174 276.487,76.5579 276.487,74.184 C 276.487,73.1553 276.763,72.5222 277.317,72.2849 C 278.267,73.2344 279.256,73.7092 280.285,73.7092 C 281.472,73.7092 282.461,73.3135 283.252,72.5222 C 284.043,71.6518 284.558,70.5836 284.795,69.3175 C 284.795,67.5767 284.162,66.1128 282.896,64.9258 C 281.63,63.7389 280.087,63.1454 278.267,63.1454 C 275.735,63.1454 273.519,64.1741 271.62,66.2315 C 269.721,68.2888 268.771,70.6231 268.771,73.2344 C 268.771,77.8239 270.671,81.5034 274.469,84.273 C 278.267,86.9634 282.5,88.3086 287.169,88.3086 C 292.55,88.3086 298.92,86.8447 306.279,83.9169 L 324.914,75.3709 C 332.035,72.364 337.614,70.8605 341.65,70.8605 C 343.391,70.8605 345.013,71.3749 346.516,72.4036 C 348.02,73.4322 348.771,74.7774 348.771,76.4392 C 348.771,79.1296 347.98,80.4748 346.398,80.4748 C 346.16,80.3165 345.923,80.1582 345.685,80 C 345.448,79.7626 345.131,79.2878 344.736,78.5757 C 344.419,77.8635 343.47,77.5074 341.887,77.5074 C 339.038,77.5074 337.614,78.9713 337.614,81.8991 C 337.614,86.0138 340.265,88.0712 345.567,88.0712 C 348.494,88.0712 350.908,86.9634 352.807,84.7478 C 354.785,82.5321 355.774,79.9604 355.774,77.0326 Z"/><path fill="currentColor" d="M 620.19,31.0979 C 620.19,32.1266 619.834,33.1157 619.121,34.0653 C 618.409,34.9357 617.46,35.4105 616.273,35.4896 C 614.295,35.4896 613.306,34.817 613.306,33.4718 C 615.442,32.997 616.51,32.0079 616.51,30.5044 C 616.51,28.2097 614.611,27.0623 610.813,27.0623 C 607.41,27.0623 602.9,28.8032 597.282,32.2849 C 591.664,35.6874 587.509,37.3887 584.819,37.3887 C 583.869,37.3887 582.999,37.3096 582.208,37.1513 C 581.495,36.9931 580.071,36.5183 577.935,35.727 C 575.798,34.8566 574.69,33.907 574.611,32.8783 C 575.165,31.454 575.442,29.9505 575.442,28.368 C 575.442,25.2028 574.295,22.5124 572,20.2967 C 569.784,18.0811 567.133,16.9733 564.047,16.9733 C 561.911,16.9733 559.695,17.8437 557.4,19.5846 C 555.185,21.2463 554.077,23.1454 554.077,25.2819 C 554.077,28.2888 555.343,29.7923 557.875,29.7923 C 559.695,29.7923 560.605,28.8823 560.605,27.0623 C 560.605,26.0336 559.893,25.0445 558.469,24.095 C 558.469,22.7498 559.695,22.0771 562.148,22.0771 C 563.81,22.0771 565.195,22.7498 566.302,24.095 C 567.489,25.361 568.083,26.8249 568.083,28.4866 C 568.083,30.3858 567.292,32.087 565.709,33.5905 C 564.206,35.094 562.425,35.8457 560.368,35.8457 C 557.836,35.8457 555.699,34.8566 553.958,32.8783 C 552.534,31.0584 551.624,28.724 551.228,25.8754 C 550.754,28.4075 549.725,30.7023 548.142,32.7596 C 546.639,34.817 544.74,35.8457 542.445,35.8457 C 540.308,35.8457 538.37,35.1335 536.629,33.7092 C 534.967,32.2057 534.136,30.4253 534.136,28.368 C 534.136,26.7062 534.651,25.2423 535.679,23.9763 C 536.787,22.6311 538.132,21.9585 539.715,21.9585 C 542.405,21.9585 543.751,22.7102 543.751,24.2136 C 542.326,24.9258 541.614,25.8754 541.614,27.0623 C 541.614,28.8823 542.603,29.7923 544.581,29.7923 C 545.452,29.7923 546.322,29.3175 547.193,28.368 C 547.905,27.4184 548.261,26.4293 548.261,25.4006 C 548.261,22.9476 547.153,20.9693 544.938,19.4659 C 542.722,17.8833 540.348,17.092 537.816,17.092 C 534.651,17.092 532.039,18.2394 529.982,20.5341 C 527.846,22.6706 526.777,25.361 526.777,28.6053 L 527.133,30.8605 L 527.489,32.997 L 527.371,33.5905 C 524.522,36.2018 521.278,37.5074 517.638,37.5074 C 514.71,37.5074 510.556,35.8457 505.175,32.5223 C 499.794,29.1197 495.284,27.4184 491.644,27.4184 C 487.846,27.4184 485.828,28.6449 485.59,31.0979 C 485.59,32.6014 486.698,33.4718 488.914,33.7092 C 489.072,35.1335 488.202,35.8457 486.303,35.8457 C 483.454,35.8457 482.03,34.3818 482.03,31.454 C 482.03,28.9219 483.652,26.9832 486.896,25.638 C 490.14,24.2928 493.266,23.6202 496.273,23.6202 C 497.618,23.6202 498.845,23.6993 499.952,23.8576 C 501.139,24.0158 502.801,24.4115 504.938,25.0445 C 506.204,25.2819 507.668,25.5589 509.329,25.8754 C 510.991,26.1128 512.415,26.2315 513.602,26.2315 C 514.394,26.2315 516.767,24.451 520.724,20.8902 C 524.68,17.2502 528.637,15.0742 532.593,14.362 L 529.745,11.9881 C 528.162,10.8012 527.371,8.98121 527.371,6.52819 C 527.371,3.20475 528.953,1.02869 532.119,0 L 533.187,0 C 533.187,0.553908 532.989,1.22651 532.593,2.0178 L 532.237,4.1543 C 532.237,7.00297 533.859,9.29773 537.104,11.0386 L 546.124,15.7864 C 549.369,18.3185 550.991,21.6815 550.991,25.8754 L 551.584,22.5519 C 552.297,19.3076 554.314,16.7359 557.638,14.8368 L 565.709,10.6825 C 568.399,8.94164 569.745,6.44906 569.745,3.20475 C 569.745,2.09693 569.507,1.18695 569.033,0.47478 L 569.389,0.118697 C 570.734,0.118697 571.723,0.593474 572.356,1.54303 C 573.068,2.41345 573.622,3.24431 574.018,4.03561 C 574.413,4.82691 574.611,5.69733 574.611,6.64689 C 574.611,8.54599 574.176,10.0495 573.305,11.1573 L 569.507,14.2433 L 572.119,14.9555 C 574.097,15.4303 577.104,17.3689 581.139,20.7715 C 585.254,24.1741 587.747,25.9149 588.617,25.9941 L 595.145,24.5697 C 599.339,23.6993 602.742,23.2641 605.353,23.2641 C 608.835,23.2641 611.921,23.818 614.611,24.9258 C 618.33,26.271 620.19,28.3284 620.19,31.0979 Z M 620.308,63.0267 C 620.308,65.9545 618.488,68.2493 614.848,69.911 C 612,71.0188 608.835,71.5727 605.353,71.5727 C 603.533,71.5727 601.357,71.3353 598.825,70.8605 C 596.372,70.3857 594.393,70.0297 592.89,69.7923 C 591.387,69.4758 589.962,69.3175 588.617,69.3175 C 587.351,69.3175 584.977,71.0188 581.495,74.4214 C 578.093,77.8239 574.928,79.8813 572,80.5935 L 569.863,81.0682 C 570.101,81.4639 571.248,82.3343 573.305,83.6795 C 574.492,84.6291 575.086,86.0534 575.086,87.9525 C 575.086,92.3046 573.345,94.7577 569.863,95.3116 L 569.389,95.0742 C 569.942,93.9664 570.219,92.7794 570.219,91.5134 C 570.219,88.5064 568.597,86.093 565.353,84.273 L 556.213,79.6439 C 552.969,77.27 551.347,73.9861 551.347,69.7923 C 551.347,67.3393 552.178,65.0049 553.84,62.7893 C 555.501,60.5737 557.598,59.4659 560.13,59.4659 C 562.188,59.4659 564.047,60.2176 565.709,61.7211 C 567.45,63.1454 568.32,64.9258 568.32,67.0623 C 568.32,68.8032 567.766,70.3066 566.659,71.5727 C 565.551,72.7596 564.245,73.3531 562.742,73.3531 C 560.922,73.3531 559.537,72.7201 558.587,71.454 L 559.893,70.2671 C 560.368,69.9505 560.645,69.2384 560.724,68.1306 C 560.724,66.3897 559.774,65.5193 557.875,65.5193 C 557.005,65.5193 556.174,65.9941 555.383,66.9436 C 554.591,67.814 554.196,68.8427 554.196,70.0297 C 554.196,72.1662 555.343,74.1048 557.638,75.8457 C 559.933,77.5074 562.267,78.3383 564.641,78.3383 C 567.727,78.3383 570.299,77.1909 572.356,74.8961 C 574.572,72.6805 575.679,69.8714 575.679,66.4688 C 575.679,64.8862 575.363,63.4619 574.73,62.1958 C 575.363,61.0089 576.471,60.0989 578.053,59.4659 C 579.715,58.8328 580.981,58.3976 581.852,58.1602 C 582.801,57.9228 583.671,57.8041 584.463,57.8041 C 587.707,57.8041 592.099,59.4659 597.638,62.7893 C 603.256,66.0336 607.727,67.6558 611.05,67.6558 C 614.611,67.6558 616.51,66.3502 616.748,63.7389 C 616.748,62.1563 615.64,61.365 613.424,61.365 C 613.424,59.9407 614.413,59.2285 616.392,59.2285 C 617.42,59.2285 618.291,59.5846 619.003,60.2967 C 619.794,61.0089 620.229,61.9189 620.308,63.0267 Z M 551.228,69.6736 C 551.228,73.7883 549.606,77.1118 546.362,79.6439 L 537.46,84.273 C 534.295,86.2512 532.712,88.8229 532.712,91.9881 C 532.712,92.9377 532.989,93.8081 533.543,94.5994 L 533.543,95.1929 L 532.475,95.1929 C 531.209,95.1929 530.061,94.4016 529.032,92.819 C 528.241,91.3947 527.846,89.9703 527.846,88.546 C 527.846,85.9347 529.547,83.4817 532.949,81.1869 L 527.964,79.8813 C 526.856,79.4065 524.483,77.5865 520.843,74.4214 C 517.282,71.2562 514.829,69.5945 513.484,69.4362 C 512.613,69.4362 511.347,69.6736 509.685,70.1484 L 505.887,71.0979 C 502.168,71.8101 499.28,72.1662 497.222,72.1662 C 493.82,72.1662 490.417,71.5727 487.015,70.3857 C 483.691,69.1988 482.03,67.2206 482.03,64.451 C 482.03,63.4224 482.386,62.4332 483.098,61.4837 C 483.889,60.455 484.918,59.9406 486.184,59.9406 C 487.846,59.9406 488.795,60.6133 489.032,61.9585 C 486.975,62.1958 485.828,63.2245 485.59,65.0445 C 485.59,67.4184 487.569,68.6053 491.525,68.6053 C 494.69,68.6053 499.082,66.8645 504.7,63.3828 C 510.318,59.9011 514.591,58.1602 517.519,58.1602 C 521.476,58.1602 524.839,59.4659 527.608,62.0771 L 526.896,67.2997 C 526.896,70.3857 528.004,73.0366 530.219,75.2522 C 532.435,77.3887 535.125,78.457 538.291,78.457 C 540.902,78.457 543.197,77.6261 545.175,75.9644 C 547.232,74.2235 548.261,72.087 548.261,69.5549 C 548.261,68.5262 547.905,67.6558 547.193,66.9436 C 546.481,66.1523 545.61,65.6775 544.581,65.5193 C 542.682,65.5193 541.733,66.548 541.733,68.6053 C 541.733,69.001 542.089,69.634 542.801,70.5044 L 543.988,71.454 C 543.988,71.8496 543.474,72.2849 542.445,72.7596 L 540.071,73.3531 C 538.488,73.3531 537.104,72.7201 535.917,71.454 C 534.809,70.1088 534.255,68.5658 534.255,66.8249 C 534.255,64.9258 535.046,63.2641 536.629,61.8398 C 538.291,60.3363 540.19,59.5846 542.326,59.5846 C 544.621,59.5846 546.599,60.6133 548.261,62.6706 C 550.002,64.6489 550.991,66.9832 551.228,69.6736 Z"/><path fill="currentColor" d="M 744.546,46.2908 C 744.546,47.636 744.427,49.0603 744.19,50.5638 C 743.952,51.9881 743.319,54.362 742.291,57.6855 C 741.341,60.9298 739.956,62.5519 738.136,62.5519 C 737.266,62.5519 736.396,62.1563 735.525,61.365 L 733.389,59.4659 C 733.151,59.6241 732.914,59.7824 732.677,59.9407 C 732.518,60.0989 732.202,60.4946 731.727,61.1276 L 731.252,62.5519 L 733.389,64.3323 C 734.101,64.8071 734.457,65.5984 734.457,66.7062 C 734.457,70.2671 732.36,73.9861 728.166,77.8635 C 724.051,81.6617 720.253,83.5608 716.772,83.5608 C 715.505,83.5608 714.279,82.9278 713.092,81.6617 C 711.035,82.3739 709.887,84.0752 709.65,86.7656 C 710.362,87.3195 710.758,88.1108 710.837,89.1395 C 710.837,90.089 710.283,91.1177 709.175,92.2255 C 708.146,93.2542 707.157,93.7685 706.208,93.7685 C 705.812,93.7685 705.377,93.4916 704.902,92.9377 L 703.715,91.632 C 703.003,90.8407 702.093,89.2582 700.985,86.8843 L 701.46,86.8843 C 703.201,86.8843 704.427,86.4095 705.139,85.4599 C 704.981,84.9852 704.427,84.273 703.478,83.3234 C 703.003,82.6904 702.686,81.82 702.528,80.7122 C 702.528,78.5757 703.359,76.7161 705.021,75.1335 C 706.683,73.4718 708.542,72.6409 710.599,72.6409 C 711.707,72.6409 712.499,73.274 712.973,74.5401 C 713.448,75.727 713.923,76.5974 714.398,77.1513 C 717.484,76.6766 720.253,75.2918 722.706,72.997 C 725.159,70.6231 726.9,67.9327 727.929,64.9258 C 727.691,64.5302 726.821,64.0158 725.317,63.3828 C 723.893,62.7498 723.181,61.7606 723.181,60.4154 C 723.181,59.1494 723.695,57.6855 724.724,56.0237 C 725.753,54.362 726.94,53.5312 728.285,53.5312 L 728.997,53.7685 L 732.202,56.3798 C 734.18,54.1642 735.169,50.999 735.169,46.8843 C 735.169,43.0861 734.101,39.6439 731.964,36.5579 C 731.648,36.7161 731.292,36.9139 730.896,37.1513 C 730.58,37.3096 730.144,37.7052 729.59,38.3383 C 729.116,38.8922 728.522,39.2087 727.81,39.2878 C 726.623,39.2878 725.594,38.6944 724.724,37.5074 C 723.933,36.2413 723.379,35.2522 723.062,34.5401 C 722.825,33.7488 722.667,32.997 722.588,32.2849 L 722.706,31.2166 C 722.944,30.9001 723.656,30.3462 724.843,29.5549 C 726.03,29.001 726.781,28.5262 727.098,28.1306 C 726.465,25.6775 724.645,23.1058 721.638,20.4154 C 718.71,17.725 715.901,16.3798 713.211,16.3798 L 711.668,19.3472 C 711.272,20.3759 710.322,20.8902 708.819,20.8902 C 706.841,20.8902 705.021,20.0989 703.359,18.5163 C 701.697,16.8546 700.866,15.0742 700.866,13.1751 L 701.223,11.1573 L 703.122,8.30861 C 702.805,7.91296 702.568,7.67557 702.409,7.59644 L 701.697,7.24036 L 699.086,6.88427 C 699.086,6.09298 699.719,4.74778 700.985,2.84867 C 702.33,0.949557 703.359,0 704.071,0 C 705.1,0 706.168,0.514343 707.276,1.54303 C 708.384,2.57171 708.938,3.6004 708.938,4.62909 C 708.938,5.18299 708.74,5.65777 708.344,6.05342 L 707.869,7.12167 C 707.869,7.99209 708.265,8.94164 709.056,9.97033 C 709.927,10.9199 710.797,11.5134 711.668,11.7507 C 712.538,10.4847 713.844,9.85163 715.585,9.85163 C 718.987,9.85163 722.864,11.7903 727.217,15.6677 C 731.569,19.4659 733.745,23.0663 733.745,26.4688 C 733.745,27.6558 732.756,28.8427 730.777,30.0297 L 732.558,33.2344 C 733.033,33.2344 733.745,32.7201 734.694,31.6914 C 735.723,30.6627 736.752,30.1088 737.78,30.0297 C 739.521,30.0297 741.064,32.2057 742.409,36.5579 C 743.834,40.8309 744.546,44.0752 744.546,46.2908 Z M 665.614,93.5312 L 664.783,93.6498 C 663.676,93.6498 662.607,93.1751 661.579,92.2255 C 660.55,91.276 659.957,90.1681 659.798,88.9021 C 660.036,88.3482 660.273,87.9525 660.51,87.7151 C 660.748,87.4777 660.906,87.2799 660.985,87.1217 C 661.064,86.9634 661.143,86.8051 661.223,86.6469 C 661.223,86.0138 660.787,85.1434 659.917,84.0356 C 659.046,82.8487 658.295,82.1761 657.662,82.0178 L 656.237,82.9674 C 655.604,83.4421 654.615,83.7587 653.27,83.9169 C 649.709,83.9169 645.792,82.0178 641.519,78.2196 C 637.246,74.3422 635.11,70.821 635.11,67.6558 C 635.11,66.2315 635.585,65.2423 636.534,64.6884 C 637.563,64.1345 638.117,63.6993 638.196,63.3828 C 638.196,62.275 637.523,61.3254 636.178,60.5341 L 634.042,62.3145 C 633.092,63.2641 632.182,63.7389 631.312,63.7389 C 629.333,63.7389 627.751,61.8793 626.564,58.1602 C 625.456,54.4412 624.704,50.9199 624.309,47.5964 L 624.309,46.8843 C 624.309,45.6973 624.427,44.4313 624.665,43.0861 C 624.902,41.6617 625.535,39.367 626.564,36.2018 C 627.593,32.9575 628.977,31.3353 630.718,31.3353 C 631.589,31.3353 632.499,31.8101 633.448,32.7596 C 634.477,33.7092 635.189,34.2631 635.585,34.4214 C 636.613,33.6301 637.246,32.5223 637.484,31.0979 C 635.347,29.911 634.279,28.6845 634.279,27.4184 C 634.279,23.7784 636.336,20.0198 640.451,16.1424 C 644.645,12.186 648.483,10.2077 651.964,10.2077 C 652.993,10.2077 654.22,10.8803 655.644,12.2255 L 656.119,12.1068 L 656.593,11.7507 C 658.255,10.3264 659.086,8.78339 659.086,7.12167 C 658.374,6.01385 657.978,5.34125 657.899,5.10386 C 657.899,4.07518 658.374,3.00693 659.323,1.89911 C 660.273,0.712168 661.341,0.118697 662.528,0.118697 C 663.161,0.118697 664.111,0.989122 665.377,2.72997 C 666.722,4.39169 667.513,5.7369 667.751,6.76558 L 667.276,6.76558 C 666.01,6.76558 664.823,7.24036 663.715,8.18991 C 663.873,8.82295 664.269,9.53511 664.902,10.3264 C 665.614,11.1177 666.049,11.9486 666.208,12.819 C 666.208,14.7181 665.456,16.5381 663.953,18.2789 C 662.449,20.0198 660.669,20.8902 658.611,20.8902 C 657.266,20.8902 656.356,20.455 655.881,19.5846 L 654.694,16.8546 L 653.863,16.7359 C 651.094,16.7359 648.522,18.0415 646.148,20.6528 C 643.774,23.2641 642.034,25.9149 640.926,28.6053 C 640.926,29.0801 641.678,29.6736 643.181,30.3858 C 644.764,31.0979 645.555,32.1266 645.555,33.4718 C 645.555,34.7379 645.001,36.2018 643.893,37.8635 C 642.864,39.4461 641.757,40.2374 640.57,40.2374 L 639.858,40.1187 L 636.534,37.5074 C 635.664,38.8526 634.952,40.3956 634.398,42.1365 C 633.844,43.7982 633.567,45.5786 633.567,47.4777 C 633.567,51.0386 634.714,54.362 637.009,57.4481 C 638.354,56.5776 639.304,55.7072 639.858,54.8368 L 641.282,54.4807 C 642.469,54.4807 643.616,55.3907 644.724,57.2107 C 645.832,58.9515 646.386,60.4154 646.386,61.6024 C 646.386,62.3937 645.713,63.1454 644.368,63.8576 C 643.102,64.5697 642.271,65.1632 641.875,65.638 C 642.588,68.3284 644.408,70.9792 647.335,73.5905 C 650.342,76.2018 653.072,77.5074 655.525,77.5074 L 656.119,77.3887 L 657.306,74.4214 C 657.622,73.4718 658.413,72.9575 659.68,72.8783 C 661.816,72.8783 663.715,73.6696 665.377,75.2522 C 667.118,76.7557 667.988,78.5757 667.988,80.7122 C 667.988,81.3452 667.632,82.2552 666.92,83.4421 L 665.733,85.6973 C 666.762,86.4095 668.107,86.7656 669.769,86.7656 C 669.848,88.269 668.463,90.5242 665.614,93.5312 Z M 727.454,29.7923 L 727.335,29.0801 C 726.386,29.3175 725.436,29.7923 724.487,30.5045 C 724.645,30.7418 725.041,30.9397 725.674,31.0979 L 726.861,30.8605 C 727.098,30.7023 727.296,30.3462 727.454,29.7923 Z M 731.134,36.0831 C 730.817,35.7666 730.501,35.6083 730.184,35.6083 C 729.788,35.6083 729.511,35.9644 729.353,36.6766 L 729.472,37.1513 L 731.134,36.0831 Z M 704.427,10.089 C 704.427,9.61425 704.19,9.17903 703.715,8.78338 L 702.291,10.8012 L 703.359,11.276 C 703.834,11.1968 704.19,10.8012 704.427,10.089 Z M 712.024,16.4985 L 711.312,16.3798 C 709.887,16.3798 709.175,16.8546 709.175,17.8042 L 709.294,18.2789 L 711.312,18.3976 L 712.024,16.4985 Z M 731.49,33.1157 L 731.015,32.5223 L 730.065,30.5045 C 729.749,30.5836 729.511,30.6627 729.353,30.7418 C 729.195,30.7418 728.799,30.9792 728.166,31.454 C 727.533,31.8497 726.94,32.0475 726.386,32.0475 C 725.832,32.0475 725.278,31.8892 724.724,31.5727 L 723.656,31.0979 L 723.3,31.2166 L 723.062,32.641 C 723.062,33.9862 723.577,35.2918 724.605,36.5579 C 725.634,37.8239 726.861,38.5361 728.285,38.6944 C 728.681,38.3778 728.878,38.1405 728.878,37.9822 L 728.76,37.27 L 728.641,36.4392 C 728.641,36.0435 728.997,35.6083 729.709,35.1335 L 731.727,34.0653 C 731.648,33.5114 731.569,33.1949 731.49,33.1157 Z M 711.193,12.7003 L 708.819,10.4451 C 708.186,9.81207 707.672,8.86251 707.276,7.59644 L 705.496,9.97033 C 704.783,11.2364 704.111,11.9486 703.478,12.1068 L 702.647,11.7507 L 701.697,11.5134 C 701.46,11.7507 701.341,12.1068 701.341,12.5816 C 701.341,14.639 702.093,16.459 703.596,18.0415 C 705.258,19.545 707.078,20.2967 709.056,20.2967 C 709.927,20.2967 710.56,20.1385 710.955,19.822 C 710.481,19.2681 710.045,18.9911 709.65,18.9911 C 708.859,18.9911 708.463,18.6746 708.463,18.0415 C 708.463,17.5668 708.859,16.6963 709.65,15.4303 L 711.193,12.7003 Z M 731.49,57.092 L 729.828,55.7863 L 729.828,56.3798 C 729.828,56.8546 730.184,57.1711 730.896,57.3294 L 731.49,57.092 Z M 732.32,58.9911 C 731.925,58.7537 731.45,58.5163 730.896,58.2789 C 730.421,58.0415 730.026,57.8833 729.709,57.8042 C 729.393,57.6459 729.234,56.6963 729.234,54.9555 C 729.234,54.4807 728.918,54.2038 728.285,54.1246 C 727.414,54.1246 726.425,54.8764 725.317,56.3798 C 724.289,57.8042 723.774,59.0702 723.774,60.178 L 724.012,61.8398 L 725.317,61.4837 L 726.979,61.0089 L 728.878,61.4837 L 730.54,62.4332 L 730.777,62.1958 C 730.777,61.6419 731.292,60.5737 732.32,58.9911 Z M 728.047,63.3828 L 728.047,62.6706 C 727.81,62.1167 727.296,61.8002 726.504,61.7211 C 725.871,61.7211 725.436,61.998 725.199,62.5519 L 727.929,63.8576 L 728.047,63.3828 Z M 713.448,76.9139 L 712.499,74.8961 L 711.193,75.2522 C 710.718,75.2522 710.441,75.4105 710.362,75.727 C 710.362,76.6766 711.153,77.1513 712.736,77.1513 L 713.448,76.9139 Z M 712.617,80.8309 C 712.617,80.4352 712.142,79.6043 711.193,78.3383 C 710.322,77.0722 709.887,76.004 709.887,75.1335 C 710.045,74.6588 710.639,74.4214 711.668,74.4214 C 712.063,74.2631 712.261,74.1048 712.261,73.9466 C 712.261,73.5509 711.668,73.274 710.481,73.1157 C 708.661,73.1157 706.959,73.8675 705.377,75.3709 C 703.794,76.7952 703.003,78.4965 703.003,80.4748 L 703.359,82.1365 L 704.783,81.7804 C 705.654,81.7804 706.445,82.4926 707.157,83.9169 C 707.949,85.2621 708.542,85.9347 708.938,85.9347 C 709.65,83.5608 710.718,82.0574 712.142,81.4243 L 712.617,80.8309 Z M 706.208,83.4421 L 706.089,83.0861 C 705.852,82.6904 705.496,82.4135 705.021,82.2552 L 704.546,82.6113 L 704.071,83.0861 L 704.902,84.0356 C 705.139,84.5104 705.456,84.7478 705.852,84.7478 C 706.089,84.3521 706.208,83.9169 706.208,83.4421 Z M 664.665,10.8012 C 664.19,10.0099 663.676,9.37686 663.122,8.90208 L 662.647,10.089 C 662.647,10.8803 662.963,11.3155 663.596,11.3947 C 664.15,11.1573 664.506,10.9594 664.665,10.8012 Z M 665.733,13.1751 C 665.733,12.6212 665.575,12.0673 665.258,11.5134 L 663.953,12.2255 C 663.399,12.2255 662.607,11.4738 661.579,9.97033 C 660.946,8.62512 660.273,7.83383 659.561,7.59644 C 659.323,9.8912 658.216,11.632 656.237,12.819 C 656.158,13.6103 656.554,14.5598 657.424,15.6677 C 658.374,16.7755 658.849,17.6459 658.849,18.2789 C 658.849,18.7537 658.216,19.0307 656.95,19.1098 L 656.475,19.7033 C 656.475,20.0989 657.068,20.3759 658.255,20.5341 C 660.233,20.5341 661.974,19.7428 663.478,18.1602 C 664.981,16.5776 665.733,14.9159 665.733,13.1751 Z M 658.255,17.9228 L 658.136,17.5668 L 657.424,16.8546 L 656.475,16.7359 L 655.763,16.4985 L 655.407,16.7359 C 655.407,17.2107 655.683,17.8833 656.237,18.7537 L 657.543,18.5163 C 658.018,18.5163 658.255,18.3185 658.255,17.9228 Z M 643.418,31.2166 L 640.807,29.911 L 640.688,30.3858 C 640.688,31.2562 641.163,31.7705 642.113,31.9288 C 642.588,31.7705 642.983,31.6123 643.3,31.454 C 643.3,31.3749 643.339,31.2957 643.418,31.2166 Z M 645.08,33.4718 C 645.08,32.5223 644.843,31.9683 644.368,31.8101 L 643.418,32.4036 L 641.875,32.8783 C 641.321,32.8783 640.649,32.6805 639.858,32.2849 L 638.077,31.454 L 636.415,34.8961 L 638.433,35.9644 C 639.225,36.2018 639.66,36.7557 639.739,37.6261 L 639.739,38.3383 L 639.62,38.9318 C 640.016,39.3274 640.372,39.5252 640.688,39.5252 C 641.559,39.5252 642.548,38.8131 643.656,37.3887 C 644.605,35.9644 645.08,34.6588 645.08,33.4718 Z M 639.145,37.5074 C 639.145,37.0326 638.71,36.7161 637.84,36.5579 L 637.246,36.9139 L 638.552,38.1009 C 638.948,37.8635 639.145,37.6657 639.145,37.5074 Z M 667.513,80.7122 C 667.513,78.8131 666.722,77.1118 665.139,75.6083 C 663.636,74.1048 661.935,73.3531 660.036,73.3531 C 658.611,73.3531 657.899,73.5905 657.899,74.0653 C 657.899,74.5401 658.374,74.7774 659.323,74.7774 C 660.036,74.7774 660.392,75.1335 660.392,75.8457 L 659.205,78.3383 L 657.78,81.1869 C 659.759,82.2948 661.025,83.9565 661.579,86.1721 L 663.596,83.5608 C 664.309,82.453 664.902,81.82 665.377,81.6617 L 666.208,81.8991 L 666.92,82.1365 C 667.316,81.5826 667.513,81.1078 667.513,80.7122 Z M 645.792,61.365 C 645.792,60.0989 645.278,58.7537 644.249,57.3294 C 643.221,55.905 642.152,55.1929 641.045,55.1929 L 640.451,55.3116 C 640.134,55.549 639.976,55.7468 639.976,55.905 L 640.095,56.6172 L 640.332,57.2107 C 640.332,57.7646 639.897,58.3185 639.027,58.8724 L 637.009,59.9407 L 638.789,63.2641 C 639.185,63.185 639.462,63.1058 639.62,63.0267 C 639.858,62.9476 640.253,62.7102 640.807,62.3145 L 642.706,61.8398 C 643.181,61.8398 643.695,61.998 644.249,62.3145 L 645.08,62.6706 C 645.555,62.6706 645.792,62.2354 645.792,61.365 Z M 659.798,75.8457 L 657.662,75.2522 C 657.266,75.727 657.029,76.4787 656.95,77.5074 C 658.69,77.5074 659.64,76.9535 659.798,75.8457 Z M 666.445,82.8487 L 665.377,82.3739 L 664.665,83.0861 L 664.546,83.4421 C 664.546,84.1543 664.744,84.6291 665.139,84.8665 L 666.445,82.8487 Z M 639.62,57.3294 L 639.264,56.7359 L 638.315,57.2107 L 637.721,57.8042 L 638.196,58.2789 L 638.789,58.2789 C 639.343,58.2789 639.62,57.9624 639.62,57.3294 Z M 644.368,63.0267 L 642.944,62.5519 C 641.994,62.5519 641.519,63.0663 641.519,64.095 L 641.638,64.6884 C 642.35,64.451 643.26,63.8971 644.368,63.0267 Z"/><path fill="currentColor" d="M 993.65,47.359 C 993.096,47.8338 991.909,48.5064 990.089,49.3769 C 988.269,50.2473 986.568,51.3155 984.985,52.5816 C 983.482,53.7685 981.306,55.905 978.457,58.9911 C 975.687,62.0771 971.77,66.9041 966.706,73.4718 C 961.721,79.9604 956.38,85.3017 950.682,89.4955 C 945.064,93.6894 937.27,95.7863 927.3,95.7863 C 920.494,95.7863 914.639,93.2146 909.733,88.0712 C 904.906,82.8487 902.492,76.8348 902.492,70.0297 C 902.492,65.4402 903.917,61.4837 906.765,58.1602 C 909.693,54.8368 913.452,53.1751 918.041,53.1751 C 921.365,53.1751 924.332,54.3225 926.943,56.6172 C 929.396,59.0702 930.623,61.9585 930.623,65.2819 C 930.623,66.8645 929.99,68.5658 928.724,70.3857 C 927.537,72.2057 926.034,73.1157 924.214,73.1157 C 922.235,73.1157 920.455,72.4827 918.872,71.2166 C 917.369,69.8714 916.617,68.2097 916.617,66.2315 C 916.617,63.1454 918.16,60.8902 921.246,59.4659 L 921.84,59.4659 C 922.947,59.4659 923.818,59.268 924.451,58.8724 C 923.739,57.2898 922.235,56.4985 919.941,56.4985 C 917.171,56.4985 914.995,57.4085 913.412,59.2285 C 911.83,60.9693 911.038,63.2245 911.038,65.9941 C 911.038,71.2166 913.373,75.2127 918.041,77.9822 C 922.71,80.7517 927.854,82.1365 933.472,82.1365 C 941.147,82.1365 947.557,80.3561 952.7,76.7952 C 957.923,73.1553 963.304,67.6558 968.843,60.2967 L 973.59,53.7685 C 975.173,51.5529 976.914,49.6142 978.813,47.9525 L 978.694,47.003 C 975.766,44.7873 971.098,40.3561 964.688,33.7092 C 958.279,27.0623 953.571,22.6311 950.564,20.4154 C 947.636,18.1998 944.748,16.5776 941.899,15.549 C 939.129,14.4411 936.399,13.8872 933.709,13.8872 C 928.012,13.8872 922.75,15.3116 917.923,18.1602 C 913.096,20.9298 910.682,25.0049 910.682,30.3858 C 910.682,32.8388 911.474,35.094 913.056,37.1513 C 914.718,39.0504 916.775,40 919.228,40 C 921.444,40 923.185,39.2087 924.451,37.6261 C 924.451,37.0722 923.501,36.7952 921.602,36.7952 C 920.336,36.7952 919.189,36.1622 918.16,34.8961 C 917.131,33.6301 916.538,32.3244 916.38,30.9792 C 916.38,29.001 916.973,27.2206 918.16,25.638 C 919.426,23.9763 921.088,23.1454 923.145,23.1454 C 925.124,23.1454 926.825,24.0158 928.249,25.7567 C 929.753,27.4975 930.504,29.3966 930.504,31.454 C 930.504,33.9861 929.199,36.5579 926.587,39.1691 C 924.134,41.8595 921.721,43.2047 919.347,43.2047 C 914.362,43.2047 910.247,41.6617 907.003,38.5757 C 903.917,35.3314 902.374,31.177 902.374,26.1128 C 902.374,18.9911 904.906,12.8586 909.97,7.71513 C 915.035,2.57171 921.207,0 928.487,0 C 938.536,0 945.776,1.93867 950.208,5.81602 C 954.718,9.69337 958.398,13.2542 961.246,16.4985 C 964.095,19.7428 967.616,23.8971 971.81,28.9614 C 976.004,33.9466 979.881,37.9426 983.442,40.9496 C 987.082,43.8773 990.485,46.0138 993.65,47.359 Z M 965.044,47.8338 L 964.926,49.0208 C 963.343,50.9199 961.681,52.5816 959.941,54.0059 C 958.279,55.3511 956.657,56.3798 955.074,57.092 C 953.808,57.092 952.7,56.7359 951.751,56.0237 C 950.88,55.2324 949.852,54.4016 948.665,53.5312 C 947.478,52.6607 946.212,51.8694 944.866,51.1573 C 943.521,50.4451 940.712,50.089 936.439,50.089 C 935.806,50.089 935.331,50.1286 935.015,50.2077 C 934.777,50.2077 934.54,50.2868 934.303,50.4451 L 934.303,51.1573 L 941.306,58.9911 C 944.075,61.5232 947.042,63.1454 950.208,63.8576 L 951.869,65.5193 C 951.869,68.6053 948.902,70.9001 942.967,72.4036 L 939.288,72.4036 C 937.863,72.4036 937.033,71.731 936.795,70.3857 C 937.824,67.7745 938.338,65.4006 938.338,63.2641 C 938.338,59.7033 936.835,56.5776 933.828,53.8872 C 930.9,51.1968 927.339,49.3373 923.145,48.3086 C 926.548,47.4382 929.911,45.5391 933.234,42.6113 C 936.637,39.6835 938.338,36.5579 938.338,33.2344 C 938.338,32.2849 938.061,31.0979 937.507,29.6736 C 937.033,28.091 936.795,26.8645 936.795,25.9941 C 936.795,24.2532 938.259,23.3828 941.187,23.3828 C 943.007,23.3828 945.104,24.0554 947.478,25.4006 C 950.01,26.5875 951.276,28.0514 951.276,29.7923 C 951.276,30.9001 950.287,31.8496 948.309,32.6409 L 944.036,34.5401 C 941.345,36.9139 938.101,40.3165 934.303,44.7478 L 934.303,45.5786 L 938.457,45.9347 C 944.471,45.9347 949.021,43.6795 952.107,39.1691 L 953.887,38.6944 C 955.391,38.6944 957.606,39.8417 960.534,42.1365 C 963.541,44.3521 965.044,46.2512 965.044,47.8338 Z M 818.932,48.0712 C 818.061,48.3086 817.033,48.6647 815.846,49.1395 C 814.659,49.6142 813.393,50.2077 812.047,50.9199 C 810.702,51.632 809.594,52.3838 808.724,53.1751 C 807.933,53.9664 807.062,54.9555 806.113,56.1424 C 804.53,58.6746 803.739,60.9298 803.739,62.908 C 803.739,64.8863 804.253,67.458 805.282,70.6231 C 804.491,71.8892 803.106,72.5222 801.128,72.5222 C 799.07,72.5222 796.775,71.9683 794.243,70.8605 C 791.79,69.6736 790.564,68.1306 790.564,66.2315 C 790.564,65.6775 790.643,65.2423 790.801,64.9258 C 793.254,64.0554 796.38,62.3937 800.178,59.9406 C 802.314,57.8833 803.976,56.1424 805.163,54.7181 C 806.429,53.2146 807.3,51.8694 807.774,50.6825 C 807.3,50.4451 806.35,50.2473 804.926,50.089 C 801.048,50.089 798.121,50.5638 796.142,51.5133 C 794.164,52.4629 791.79,54.5203 789.021,57.6855 C 787.042,57.4481 784.51,56.2216 781.424,54.0059 C 778.417,51.7112 776.914,49.7329 776.914,48.0712 C 776.914,46.726 778.417,44.8665 781.424,42.4926 C 784.51,40.0396 786.805,38.813 788.309,38.813 C 788.783,38.813 789.733,39.4857 791.157,40.8309 C 792.582,42.1761 794.045,43.2443 795.549,44.0356 C 797.052,44.7478 798.398,45.2621 799.584,45.5786 C 800.851,45.8952 802.235,46.0534 803.739,46.0534 C 804.372,46.0534 805.005,46.0534 805.638,46.0534 C 806.667,45.816 807.418,45.6578 807.893,45.5786 C 801.8,37.3492 796.222,32.7596 791.157,31.8101 C 790.841,31.6518 790.643,31.2166 790.564,30.5044 C 790.564,28.9219 791.751,27.3788 794.125,25.8754 C 796.498,24.2928 798.635,23.5015 800.534,23.5015 C 803.541,23.5015 805.044,24.3323 805.044,25.9941 C 805.044,26.7854 804.807,27.9723 804.332,29.5549 C 803.857,31.0584 803.62,32.2453 803.62,33.1157 C 803.62,36.5183 805.242,39.6835 808.487,42.6113 C 811.81,45.4599 815.292,47.2799 818.932,48.0712 Z M 839.822,27.4184 C 839.822,31.7705 838.279,35.45 835.193,38.457 C 832.107,41.4639 828.388,42.9674 824.036,42.9674 C 821.029,42.9674 818.14,41.8991 815.371,39.7626 C 812.839,37.6261 811.573,34.9753 811.573,31.8101 C 811.573,29.6736 812.166,27.6953 813.353,25.8754 C 814.54,24.0554 816.36,23.1454 818.813,23.1454 C 820.712,23.1454 822.334,23.8576 823.679,25.2819 C 825.025,26.6271 825.697,28.2888 825.697,30.2671 C 825.697,32.4036 824.946,34.0653 823.442,35.2522 C 822.255,36.36 820.435,36.9139 817.982,36.9139 L 817.745,37.5074 C 817.745,38.1405 818.338,38.7339 819.525,39.2878 C 820.712,39.8417 821.701,40.1187 822.493,40.1187 C 825.183,40.1187 827.399,39.09 829.139,37.0326 C 830.485,35.0544 831.157,32.6409 831.157,29.7923 C 831.157,24.9654 829.298,21.4837 825.579,19.3472 C 821.939,17.2107 818.892,15.8259 816.439,15.1929 C 813.986,14.4807 811.454,14.1246 808.843,14.1246 C 799.505,14.1246 792.384,16.2216 787.478,20.4154 C 782.651,24.6093 778.101,29.6736 773.828,35.6083 C 769.634,41.4639 766.034,45.6182 763.027,48.0712 L 764.214,49.3769 L 765.757,50.4451 L 769.199,54.5994 L 772.166,59.2285 C 775.094,63.1058 777.784,66.3501 780.237,68.9614 C 782.69,71.5727 786.053,74.4609 790.326,77.6261 C 794.599,80.7913 800.653,82.3739 808.487,82.3739 C 814.342,82.3739 819.565,80.91 824.154,77.9822 C 828.744,75.0544 831.038,70.9001 831.038,65.5193 C 831.038,62.908 830.168,60.7715 828.427,59.1098 C 826.924,57.3689 824.748,56.4985 821.899,56.4985 C 819.525,56.4985 818.022,57.2107 817.389,58.635 C 817.389,59.1098 818.219,59.3472 819.881,59.3472 C 821.385,59.3472 822.69,60.0198 823.798,61.365 C 824.985,62.5519 825.579,63.9763 825.579,65.638 C 825.579,67.8536 824.945,69.6736 823.679,71.0979 C 822.413,72.5222 820.712,73.2344 818.576,73.2344 C 816.597,73.2344 814.936,72.4036 813.59,70.7418 C 812.245,69.0801 811.573,67.2997 811.573,65.4006 C 811.573,62.0771 812.839,59.2285 815.371,56.8546 C 817.982,54.4016 820.989,53.1751 824.392,53.1751 C 829.06,53.1751 832.74,54.9159 835.43,58.3976 C 838.2,61.8002 839.584,65.7962 839.584,70.3857 C 839.584,77.5074 837.092,83.5608 832.107,88.546 C 827.201,93.5312 821.147,96.0237 813.947,96.0237 C 804.055,96.0237 796.419,93.8872 791.038,89.6142 C 785.658,85.2621 779.169,78.3778 771.573,68.9614 C 764.055,59.545 757.211,53.0564 751.038,49.4955 C 750.326,49.3373 749.495,48.8625 748.546,48.0712 C 755.035,45.3808 762.433,38.9317 770.742,28.724 C 779.05,18.4372 785.658,11.1573 790.564,6.88427 C 795.549,2.53215 803.185,0.356083 813.472,0.356083 C 821.147,0.356083 827.438,2.96736 832.344,8.18991 C 837.329,13.3333 839.822,19.7428 839.822,27.4184 Z M 911.513,48.0712 L 906.172,51.632 C 899.842,56.0633 896.676,63.2245 896.676,73.1157 C 896.676,81.8991 899.209,89.2977 904.273,95.3116 L 882.077,95.3116 C 882.077,92.1464 881.919,87.7547 881.602,82.1365 C 881.286,76.5183 881.128,73.3927 881.128,72.7596 C 881.128,60.4946 883.818,52.3442 889.199,48.3086 C 883.66,43.4026 880.89,35.0148 880.89,23.1454 L 881.246,12.7003 L 881.128,2.25519 L 882.077,1.30563 L 903.086,1.30563 C 903.323,1.54302 903.442,1.85954 903.442,2.25519 L 902.374,4.1543 L 900.831,5.81602 C 897.903,10.089 896.439,15.7468 896.439,22.7893 C 896.439,34.8961 901.464,43.3234 911.513,48.0712 Z M 861.068,25.9941 C 861.068,36.36 858.417,43.7982 853.116,48.3086 C 858.338,52.9772 860.949,60.8111 860.949,71.8101 L 860.712,80.1187 L 860.475,88.4273 C 860.475,89.6934 860.475,90.8803 860.475,91.9881 C 860.475,93.0959 860.554,94.2038 860.712,95.3116 L 838.16,95.3116 C 843.224,88.7438 845.757,81.3452 845.757,73.1157 C 845.757,65.2819 843.304,58.9515 838.398,54.1246 L 830.564,48.3086 C 835.232,46.093 838.912,42.7695 841.602,38.3383 C 844.372,33.8279 845.757,28.8823 845.757,23.5015 C 845.757,15.0346 843.304,8.07121 838.398,2.61128 L 838.16,1.66172 L 849.436,1.30563 L 859.881,1.42433 C 860.435,2.84866 860.712,6.05341 860.712,11.0386 L 860.831,18.635 L 861.068,25.9941 Z"/><path fill="currentColor" d="M 1149.58,26.9436 C 1149.58,28.2097 1149.14,29.3175 1148.27,30.2671 C 1147.56,31.2166 1146.53,31.6914 1145.19,31.6914 C 1142.58,31.6914 1141.27,30.3066 1141.27,27.5371 C 1141.27,26.7458 1141.55,26.0732 1142.1,25.5193 L 1143.05,24.3323 C 1143.05,23.6202 1141.78,23.2641 1139.25,23.2641 C 1136.32,23.2641 1132.68,24.8862 1128.33,28.1306 C 1124.06,31.3749 1120.42,32.997 1117.41,32.997 C 1116.38,32.997 1115.51,32.9179 1114.8,32.7596 C 1114.17,32.6014 1113.34,32.2453 1112.31,31.6914 L 1107.44,29.1988 C 1102.14,32.9179 1097.27,34.7774 1092.84,34.7774 C 1087.86,34.7774 1083.47,33.0366 1079.67,29.5549 C 1075.95,25.9941 1074.09,21.7606 1074.09,16.8546 C 1074.09,12.5025 1075.63,8.66468 1078.72,5.34124 C 1081.88,2.0178 1085.68,0.356083 1090.11,0.356083 C 1093.28,0.356083 1096.13,1.50346 1098.66,3.79822 C 1101.35,5.93472 1102.69,8.54599 1102.69,11.632 C 1102.69,13.3729 1102.06,14.9951 1100.8,16.4985 C 1099.61,18.002 1098.07,18.7537 1096.17,18.7537 C 1094.58,18.7537 1093.24,18.2789 1092.13,17.3294 C 1091.02,16.3007 1090.47,14.9159 1090.47,13.1751 C 1090.47,11.1177 1091.73,9.49555 1094.27,8.3086 C 1094.03,6.88427 1092.61,6.17211 1089.99,6.17211 C 1087.07,6.17211 1084.65,7.27992 1082.75,9.49555 C 1080.85,11.632 1079.9,14.2038 1079.9,17.2107 C 1079.9,20.6924 1081.33,23.818 1084.18,26.5875 C 1087.11,29.1197 1090.35,30.3858 1093.91,30.3858 C 1097.16,30.3858 1100.28,29.3966 1103.29,27.4184 C 1106.29,25.361 1108.23,22.8289 1109.1,19.822 L 1112.55,20.7715 C 1111.68,23.3828 1110.69,25.361 1109.58,26.7062 C 1111.64,28.9219 1114.21,30.0297 1117.29,30.0297 C 1118.8,30.0297 1120.26,29.5945 1121.69,28.724 C 1123.11,27.7745 1124.1,26.6667 1124.65,25.4006 L 1122.52,24.3323 C 1121.01,23.6202 1120.26,22.3937 1120.26,20.6528 C 1120.26,17.8833 1121.76,16.4985 1124.77,16.4985 C 1128.33,16.4985 1130.11,18.1207 1130.11,21.365 L 1129.76,23.6202 C 1134.66,20.8506 1138.54,19.4659 1141.39,19.4659 C 1143.68,19.4659 1145.62,20.0989 1147.2,21.365 C 1148.79,22.6311 1149.58,24.4906 1149.58,26.9436 Z M 1076.23,2.84866 C 1076.23,4.66865 1075.36,5.57864 1073.61,5.57864 C 1071.72,5.57864 1070.77,4.54995 1070.77,2.49258 C 1070.77,1.93867 1071,1.42433 1071.48,0.949552 C 1072.03,0.395648 1072.63,0.0791311 1073.26,0 C 1075.24,0 1076.23,0.949554 1076.23,2.84866 Z M 1077.17,30.6231 C 1077.17,33.1553 1076.03,34.4214 1073.73,34.4214 C 1071.12,34.4214 1069.82,33.1157 1069.82,30.5044 C 1069.82,29.5549 1070.17,28.724 1070.88,28.0119 C 1071.68,27.2997 1072.63,26.9436 1073.73,26.9436 C 1076.03,26.9436 1077.17,28.1701 1077.17,30.6231 Z M 1148.15,70.6231 C 1148.15,72.8388 1147.36,74.6192 1145.78,75.9644 C 1144.2,77.3096 1142.3,77.9822 1140.08,77.9822 C 1138.18,77.9822 1136.21,77.4678 1134.15,76.4392 L 1128.57,73.1157 L 1128.81,75.1335 C 1128.81,78.9317 1127.03,80.8308 1123.47,80.8308 C 1122.12,80.8308 1121.05,80.4748 1120.26,79.7626 C 1119.47,78.9713 1119,77.9031 1118.84,76.5579 C 1118.84,75.0544 1119.35,74.0257 1120.38,73.4718 L 1123.11,72.0475 C 1122.87,70.7023 1122.2,69.6736 1121.09,68.9614 C 1120.06,68.2493 1119.15,67.7745 1118.36,67.5371 C 1117.65,67.2997 1116.9,67.181 1116.11,67.181 C 1113.5,67.181 1111.04,68.2097 1108.75,70.2671 L 1108.75,70.8605 C 1109.3,71.6518 1109.82,72.5222 1110.29,73.4718 C 1110.77,74.4214 1111.12,75.2918 1111.36,76.0831 C 1110.25,76.7952 1109.18,77.1513 1108.15,77.1513 C 1104.91,70.1088 1099.92,66.5875 1093.2,66.5875 C 1089.32,66.5875 1086.04,67.8932 1083.35,70.5044 C 1080.66,73.0366 1079.31,76.1622 1079.31,79.8813 C 1079.31,82.4926 1080.26,84.906 1082.16,87.1217 C 1084.06,89.3373 1086.39,90.4451 1089.16,90.4451 L 1091.66,89.9703 C 1092.68,89.6538 1093.24,89.2186 1093.32,88.6647 L 1091.42,87.2404 C 1090.23,86.2908 1089.64,85.0247 1089.64,83.4421 C 1089.64,82.0178 1090.19,80.7517 1091.3,79.6439 C 1092.49,78.5361 1093.83,77.9822 1095.34,77.9822 C 1097,77.9822 1098.42,78.7339 1099.61,80.2374 C 1100.87,81.7408 1101.51,83.363 1101.51,85.1039 C 1101.51,88.1899 1100.2,90.8012 1097.59,92.9377 C 1095.06,94.995 1092.25,96.0237 1089.16,96.0237 C 1084.81,96.0237 1081.13,94.4016 1078.12,91.1573 C 1075.2,87.8338 1073.73,84.0752 1073.73,79.8813 C 1073.73,75.2127 1075.47,71.0979 1078.96,67.5371 C 1082.52,63.9763 1086.63,62.1958 1091.3,62.1958 C 1096.84,62.1958 1101.86,64.095 1106.37,67.8932 C 1107.24,67.6558 1108.59,66.9832 1110.41,65.8754 C 1112.31,64.7676 1114.29,64.2136 1116.34,64.2136 C 1119.59,64.2136 1123.23,65.8754 1127.26,69.1988 C 1131.38,72.4431 1134.9,74.0653 1137.83,74.0653 C 1139.09,74.0653 1140.24,73.8675 1141.27,73.4718 L 1141.51,72.997 L 1140.68,72.0475 C 1140.28,71.5727 1140,70.821 1139.85,69.7923 C 1139.85,68.8427 1140.2,67.8932 1140.91,66.9436 C 1141.63,66.2315 1142.54,65.8358 1143.64,65.7567 C 1146.65,65.7567 1148.15,67.3788 1148.15,70.6231 Z M 1073.02,16.4985 C 1073.02,21.5628 1071.16,25.7962 1067.44,29.1988 C 1063.72,32.6014 1059.37,34.3027 1054.39,34.3027 C 1050.11,34.3027 1045.33,32.364 1040.02,28.4866 L 1035.16,30.9792 C 1033.18,31.7705 1031.48,32.1662 1030.05,32.1662 C 1026.89,32.1662 1023.17,30.5044 1018.9,27.181 C 1014.7,23.8576 1011.14,22.1958 1008.21,22.1958 C 1006.95,22.1958 1005.76,22.4728 1004.65,23.0267 L 1005.48,24.3323 C 1005.88,24.8862 1006.16,25.638 1006.31,26.5875 C 1006.31,27.6162 1005.92,28.5262 1005.13,29.3175 C 1004.42,30.1088 1003.51,30.544 1002.4,30.6231 C 1001.21,30.6231 1000.18,30.1484 999.312,29.1988 C 998.52,28.1701 998.045,26.9436 997.887,25.5193 C 997.887,23.3828 998.758,21.6419 1000.5,20.2967 C 1002.24,18.9515 1004.22,18.2789 1006.43,18.2789 C 1010.07,18.2789 1013.75,19.8615 1017.47,23.0267 L 1017.71,22.5519 L 1017.47,21.8398 L 1017.35,21.0089 C 1017.35,17.3689 1019.13,15.549 1022.69,15.549 C 1025.86,15.549 1027.44,16.9733 1027.44,19.822 C 1027.44,22.1167 1026.1,23.541 1023.41,24.095 C 1023.41,25.5984 1024.24,26.8249 1025.9,27.7745 C 1027.56,28.6449 1029.18,29.0801 1030.77,29.0801 C 1031.79,29.0801 1033.18,28.7636 1034.92,28.1306 C 1036.74,27.4975 1037.65,26.7458 1037.65,25.8754 C 1036.23,23.4224 1035.36,21.4837 1035.04,20.0593 C 1036.38,19.3472 1037.45,18.9911 1038.24,18.9911 C 1039.51,21.998 1041.53,24.6489 1044.3,26.9436 C 1047.15,28.9219 1050.19,29.911 1053.44,29.911 C 1057.08,29.911 1060.32,28.6449 1063.17,26.1128 C 1066.02,23.5015 1067.44,20.455 1067.44,16.9733 C 1067.44,14.2038 1066.49,11.6716 1064.59,9.37685 C 1062.69,7.00297 1060.32,5.81602 1057.47,5.81602 C 1055.49,5.81602 1054.11,6.44906 1053.32,7.71513 L 1055.45,9.13947 C 1056.56,9.85163 1057.12,11.1177 1057.12,12.9377 C 1057.12,14.4411 1056.48,15.7468 1055.22,16.8546 C 1054.03,17.9624 1052.76,18.5163 1051.42,18.5163 C 1049.84,18.5163 1048.41,17.8437 1047.15,16.4985 C 1045.88,15.0742 1045.13,13.3729 1044.89,11.3947 C 1044.89,8.22948 1046.16,5.49951 1048.69,3.20475 C 1051.14,1.14738 1054.11,0.118697 1057.59,0.118697 C 1061.63,0.118697 1065.19,1.78042 1068.27,5.10386 C 1071.44,8.4273 1073.02,12.2255 1073.02,16.4985 Z M 1076.94,66.1128 C 1076.94,68.3284 1075.63,69.4362 1073.02,69.4362 C 1072.07,69.4362 1071.24,69.0801 1070.53,68.368 C 1069.82,67.5767 1069.46,66.7062 1069.46,65.7567 C 1069.46,63.2245 1070.61,61.9585 1072.9,61.9585 C 1075.59,61.9585 1076.94,63.3432 1076.94,66.1128 Z M 1075.75,93.2938 C 1075.75,95.1137 1074.88,96.0237 1073.14,96.0237 C 1071.32,96.0237 1070.41,95.1929 1070.41,93.5312 C 1070.41,91.7903 1071.32,90.9199 1073.14,90.9199 C 1074.88,90.9199 1075.75,91.7112 1075.75,93.2938 Z M 1072.43,79.4065 C 1072.43,83.4421 1071,87.2008 1068.15,90.6825 C 1065.15,93.9268 1061.63,95.549 1057.59,95.549 C 1054.19,95.549 1051.1,94.5598 1048.33,92.5816 C 1045.56,90.6034 1044.18,87.9129 1044.18,84.5104 C 1044.18,82.8487 1044.85,81.2265 1046.2,79.6439 C 1047.54,78.0613 1049.08,77.27 1050.82,77.27 C 1052.25,77.27 1053.36,77.7052 1054.15,78.5757 C 1055.02,79.367 1055.61,80.0396 1055.93,80.5935 C 1056.25,81.0682 1056.4,81.82 1056.4,82.8487 C 1056.4,85.1434 1055.1,86.7656 1052.49,87.7151 C 1052.88,89.2977 1054.43,90.089 1057.12,90.089 C 1059.81,90.089 1062.1,89.0208 1064,86.8843 C 1065.98,84.6686 1066.97,82.0969 1066.97,79.1691 C 1066.97,75.7666 1065.5,72.6805 1062.58,69.911 C 1059.73,67.0623 1056.48,65.638 1052.84,65.638 C 1048.57,65.638 1044.77,67.4184 1041.45,70.9792 L 1037.29,76.2018 L 1034.56,75.1335 C 1034.8,73.9466 1035.67,72.1266 1037.17,69.6736 C 1036.78,68.724 1035.95,68.0119 1034.68,67.5371 C 1033.5,66.9832 1032.59,66.6271 1031.95,66.4688 C 1031.4,66.3106 1030.73,66.2315 1029.93,66.2315 C 1028.43,66.2315 1026.77,66.7062 1024.95,67.6558 C 1023.13,68.5262 1022.22,69.6736 1022.22,71.0979 C 1023.09,71.0979 1024,71.5331 1024.95,72.4036 C 1025.9,73.0366 1026.45,73.907 1026.61,75.0148 C 1026.61,78.18 1025.07,79.7626 1021.98,79.7626 C 1018.5,79.7626 1016.76,78.0218 1016.76,74.5401 L 1017.12,72.6409 L 1016.88,72.4036 C 1011.97,75.2522 1008.25,76.6766 1005.72,76.6766 C 1003.58,76.6766 1001.65,76.0435 999.905,74.7774 C 998.402,73.5114 997.65,71.7705 997.65,69.5549 C 997.65,66.2315 999.232,64.5697 1002.4,64.5697 C 1003.19,64.5697 1003.86,64.9258 1004.42,65.638 C 1005.05,66.3501 1005.44,67.2206 1005.6,68.2493 C 1005.6,69.5153 1005.33,70.3857 1004.77,70.8605 C 1004.22,71.3353 1003.9,71.731 1003.82,72.0475 C 1004.53,72.364 1005.17,72.6014 1005.72,72.7596 C 1006.35,72.9179 1007.11,72.997 1007.98,72.997 C 1010.9,72.997 1014.43,71.3749 1018.54,68.1306 C 1022.65,64.8862 1026.37,63.2641 1029.7,63.2641 C 1032.86,63.2641 1036.03,64.4906 1039.19,66.9436 L 1045.72,63.2641 C 1047.62,62.0771 1050.27,61.4837 1053.67,61.4837 C 1058.74,61.4837 1063.13,63.2245 1066.85,66.7062 C 1070.57,70.1088 1072.43,74.3422 1072.43,79.4065 Z"/></svg>